<svg width="420" height="381" viewBox="0 0 420 381" fill="none" xmlns="http://www.w3.org/2000/svg">
<g filter="url(#filter0_dd_2705_7899)">
<rect x="6" y="6" width="408" height="369" rx="12" fill="white"/>
<path d="M168.041 292.448L165.929 286.676C165.825 286.42 165.717 286.116 165.605 285.764C165.493 285.412 165.381 285.032 165.269 284.624C165.165 285.032 165.057 285.416 164.945 285.776C164.833 286.128 164.725 286.436 164.621 286.7L162.521 292.448H168.041ZM173.741 299H171.245C170.965 299 170.737 298.932 170.561 298.796C170.385 298.652 170.253 298.476 170.165 298.268L168.869 294.728H161.681L160.385 298.268C160.321 298.452 160.197 298.62 160.013 298.772C159.829 298.924 159.601 299 159.329 299H156.809L163.637 281.648H166.925L173.741 299ZM182.54 289.832C182.204 289.424 181.836 289.136 181.436 288.968C181.044 288.8 180.62 288.716 180.164 288.716C179.716 288.716 179.312 288.8 178.952 288.968C178.592 289.136 178.284 289.392 178.028 289.736C177.772 290.072 177.576 290.504 177.44 291.032C177.304 291.552 177.236 292.168 177.236 292.88C177.236 293.6 177.292 294.212 177.404 294.716C177.524 295.212 177.692 295.62 177.908 295.94C178.124 296.252 178.388 296.48 178.7 296.624C179.012 296.76 179.36 296.828 179.744 296.828C180.36 296.828 180.884 296.7 181.316 296.444C181.748 296.188 182.156 295.824 182.54 295.352V289.832ZM185.504 281.168V299H183.692C183.3 299 183.052 298.82 182.948 298.46L182.696 297.272C182.2 297.84 181.628 298.3 180.98 298.652C180.34 299.004 179.592 299.18 178.736 299.18C178.064 299.18 177.448 299.04 176.888 298.76C176.328 298.48 175.844 298.076 175.436 297.548C175.036 297.012 174.724 296.352 174.5 295.568C174.284 294.784 174.176 293.888 174.176 292.88C174.176 291.968 174.3 291.12 174.548 290.336C174.796 289.552 175.152 288.872 175.616 288.296C176.08 287.72 176.636 287.272 177.284 286.952C177.932 286.624 178.66 286.46 179.468 286.46C180.156 286.46 180.744 286.568 181.232 286.784C181.72 287 182.156 287.292 182.54 287.66V281.168H185.504ZM196.157 289.832C195.821 289.424 195.453 289.136 195.053 288.968C194.661 288.8 194.237 288.716 193.781 288.716C193.333 288.716 192.929 288.8 192.569 288.968C192.209 289.136 191.901 289.392 191.645 289.736C191.389 290.072 191.193 290.504 191.057 291.032C190.921 291.552 190.853 292.168 190.853 292.88C190.853 293.6 190.909 294.212 191.021 294.716C191.141 295.212 191.309 295.62 191.525 295.94C191.741 296.252 192.005 296.48 192.317 296.624C192.629 296.76 192.977 296.828 193.361 296.828C193.977 296.828 194.501 296.7 194.933 296.444C195.365 296.188 195.773 295.824 196.157 295.352V289.832ZM199.121 281.168V299H197.309C196.917 299 196.669 298.82 196.565 298.46L196.313 297.272C195.817 297.84 195.245 298.3 194.597 298.652C193.957 299.004 193.209 299.18 192.353 299.18C191.681 299.18 191.065 299.04 190.505 298.76C189.945 298.48 189.461 298.076 189.053 297.548C188.653 297.012 188.341 296.352 188.117 295.568C187.901 294.784 187.793 293.888 187.793 292.88C187.793 291.968 187.917 291.12 188.165 290.336C188.413 289.552 188.769 288.872 189.233 288.296C189.697 287.72 190.253 287.272 190.901 286.952C191.549 286.624 192.277 286.46 193.085 286.46C193.773 286.46 194.361 286.568 194.849 286.784C195.337 287 195.773 287.292 196.157 287.66V281.168H199.121ZM214.386 293.744C213.53 293.784 212.81 293.86 212.226 293.972C211.642 294.076 211.174 294.212 210.822 294.38C210.47 294.548 210.218 294.744 210.066 294.968C209.914 295.192 209.838 295.436 209.838 295.7C209.838 296.22 209.99 296.592 210.294 296.816C210.606 297.04 211.01 297.152 211.506 297.152C212.114 297.152 212.638 297.044 213.078 296.828C213.526 296.604 213.962 296.268 214.386 295.82V293.744ZM207.594 288.404C209.01 287.108 210.714 286.46 212.706 286.46C213.426 286.46 214.07 286.58 214.638 286.82C215.206 287.052 215.686 287.38 216.078 287.804C216.47 288.22 216.766 288.72 216.966 289.304C217.174 289.888 217.278 290.528 217.278 291.224V299H215.934C215.654 299 215.438 298.96 215.286 298.88C215.134 298.792 215.014 298.62 214.926 298.364L214.662 297.476C214.35 297.756 214.046 298.004 213.75 298.22C213.454 298.428 213.146 298.604 212.826 298.748C212.506 298.892 212.162 299 211.794 299.072C211.434 299.152 211.034 299.192 210.594 299.192C210.074 299.192 209.594 299.124 209.154 298.988C208.714 298.844 208.334 298.632 208.014 298.352C207.694 298.072 207.446 297.724 207.27 297.308C207.094 296.892 207.006 296.408 207.006 295.856C207.006 295.544 207.058 295.236 207.162 294.932C207.266 294.62 207.434 294.324 207.666 294.044C207.906 293.764 208.214 293.5 208.59 293.252C208.966 293.004 209.426 292.788 209.97 292.604C210.522 292.42 211.162 292.272 211.89 292.16C212.618 292.04 213.45 291.968 214.386 291.944V291.224C214.386 290.4 214.21 289.792 213.858 289.4C213.506 289 212.998 288.8 212.334 288.8C211.854 288.8 211.454 288.856 211.134 288.968C210.822 289.08 210.546 289.208 210.306 289.352C210.066 289.488 209.846 289.612 209.646 289.724C209.454 289.836 209.238 289.892 208.998 289.892C208.79 289.892 208.614 289.84 208.47 289.736C208.326 289.624 208.21 289.496 208.122 289.352L207.594 288.404ZM230.009 299.192C228.937 299.192 228.113 298.892 227.537 298.292C226.969 297.684 226.685 296.848 226.685 295.784V288.908H225.425C225.265 288.908 225.129 288.856 225.017 288.752C224.905 288.648 224.849 288.492 224.849 288.284V287.108L226.829 286.784L227.453 283.424C227.493 283.264 227.569 283.14 227.681 283.052C227.793 282.964 227.937 282.92 228.113 282.92H229.649V286.796H232.937V288.908H229.649V295.58C229.649 295.964 229.741 296.264 229.925 296.48C230.117 296.696 230.377 296.804 230.705 296.804C230.889 296.804 231.041 296.784 231.161 296.744C231.289 296.696 231.397 296.648 231.485 296.6C231.581 296.552 231.665 296.508 231.737 296.468C231.809 296.42 231.881 296.396 231.953 296.396C232.041 296.396 232.113 296.42 232.169 296.468C232.225 296.508 232.285 296.572 232.349 296.66L233.237 298.1C232.805 298.46 232.309 298.732 231.749 298.916C231.189 299.1 230.609 299.192 230.009 299.192ZM237.631 288.824C238.015 288.088 238.471 287.512 238.999 287.096C239.527 286.672 240.151 286.46 240.871 286.46C241.439 286.46 241.895 286.584 242.239 286.832L242.047 289.052C242.007 289.196 241.947 289.3 241.867 289.364C241.795 289.42 241.695 289.448 241.567 289.448C241.447 289.448 241.267 289.428 241.027 289.388C240.795 289.348 240.567 289.328 240.343 289.328C240.015 289.328 239.723 289.376 239.467 289.472C239.211 289.568 238.979 289.708 238.771 289.892C238.571 290.068 238.391 290.284 238.231 290.54C238.079 290.796 237.935 291.088 237.799 291.416V299H234.835V286.688H236.575C236.879 286.688 237.091 286.744 237.211 286.856C237.331 286.96 237.411 287.152 237.451 287.432L237.631 288.824ZM246.86 286.688V299H243.884V286.688H246.86ZM247.268 283.1C247.268 283.356 247.216 283.596 247.112 283.82C247.008 284.044 246.868 284.24 246.692 284.408C246.524 284.576 246.324 284.712 246.092 284.816C245.86 284.912 245.612 284.96 245.348 284.96C245.092 284.96 244.848 284.912 244.616 284.816C244.392 284.712 244.196 284.576 244.028 284.408C243.86 284.24 243.724 284.044 243.62 283.82C243.524 283.596 243.476 283.356 243.476 283.1C243.476 282.836 243.524 282.588 243.62 282.356C243.724 282.124 243.86 281.924 244.028 281.756C244.196 281.588 244.392 281.456 244.616 281.36C244.848 281.256 245.092 281.204 245.348 281.204C245.612 281.204 245.86 281.256 246.092 281.36C246.324 281.456 246.524 281.588 246.692 281.756C246.868 281.924 247.008 282.124 247.112 282.356C247.216 282.588 247.268 282.836 247.268 283.1ZM252.846 295.808C253.182 296.216 253.546 296.504 253.938 296.672C254.338 296.84 254.77 296.924 255.234 296.924C255.682 296.924 256.086 296.84 256.446 296.672C256.806 296.504 257.11 296.248 257.358 295.904C257.614 295.56 257.81 295.128 257.946 294.608C258.082 294.08 258.15 293.46 258.15 292.748C258.15 292.028 258.09 291.42 257.97 290.924C257.858 290.42 257.694 290.012 257.478 289.7C257.262 289.388 256.998 289.16 256.686 289.016C256.382 288.872 256.034 288.8 255.642 288.8C255.026 288.8 254.502 288.932 254.07 289.196C253.638 289.452 253.23 289.816 252.846 290.288V295.808ZM252.69 288.368C253.194 287.8 253.766 287.34 254.406 286.988C255.046 286.636 255.798 286.46 256.662 286.46C257.334 286.46 257.946 286.6 258.498 286.88C259.058 287.16 259.538 287.568 259.938 288.104C260.346 288.632 260.658 289.288 260.874 290.072C261.098 290.848 261.21 291.74 261.21 292.748C261.21 293.668 261.086 294.52 260.838 295.304C260.59 296.088 260.234 296.768 259.77 297.344C259.314 297.92 258.758 298.372 258.102 298.7C257.454 299.02 256.726 299.18 255.918 299.18C255.23 299.18 254.642 299.076 254.154 298.868C253.666 298.652 253.23 298.356 252.846 297.98V303.02H249.882V286.688H251.694C252.078 286.688 252.33 286.868 252.45 287.228L252.69 288.368Z" fill="#828282"/>
<g clip-path="url(#clip0_2705_7899)">
<path d="M290.379 119.631V94.678C290.379 92.19 292.397 90.166 294.877 90.166H311.149C313.63 90.166 315.647 92.19 315.647 94.678V119.631C315.647 122.119 313.63 124.143 311.149 124.143H294.877C292.397 124.143 290.379 122.119 290.379 119.631Z" fill="#12AE62"/>
<path d="M298.712 100.952H307.314V98.7949H298.712V100.952Z" fill="#3F3D56"/>
<path d="M300.863 97.1768H305.164V90.1657H300.863V97.1768Z" fill="#3F3D56"/>
<path d="M300.863 124.143H305.164V117.131H300.863V124.143Z" fill="#3F3D56"/>
<path d="M278.82 120.64H253.946C251.466 120.64 249.448 118.616 249.448 116.128V99.804C249.448 97.316 251.466 95.292 253.946 95.292H278.82C281.301 95.292 283.318 97.316 283.318 99.804V116.128C283.318 118.616 281.301 120.64 278.82 120.64Z" fill="#12AE62"/>
<path d="M271.222 98.7979H262.62V100.955H271.222V98.7979Z" fill="#3F3D56"/>
<path d="M256.437 110.123V105.809H249.448V110.123H256.437Z" fill="#3F3D56"/>
<path d="M283.318 110.123V105.809H276.329V110.123H283.318Z" fill="#3F3D56"/>
<path d="M77.0454 167.3L72.8929 143.001C71.0477 132.204 79.0142 122.212 89.9201 121.645L149.118 118.569L163.246 95.2105C165.119 92.1137 168.468 90.2227 172.079 90.2227H214.614C217.958 90.2227 220.783 92.7099 221.217 96.0356L222.297 114.726L328.342 115.045L341.682 159.147L329.3 158.542L329.935 171.919L313.742 172.556L308.344 157.245C307.328 154.362 302.874 151.111 298.245 148.391C287.866 142.294 274.533 144.251 266.679 153.388C264.826 155.544 263.531 157.79 263.169 159.896L260.72 174.148L141.974 172.237L126.412 150.399C121.814 145.379 100.109 143.536 98.154 150.399L86.4116 167.778L77.0454 167.3H77.0454Z" fill="#E6E6E6"/>
<path d="M206.108 104.437L209.602 120.958L165.152 121.914L174.54 101.694C175.392 99.8594 177.261 98.7206 179.276 98.8085L200.576 99.7375C203.273 99.8551 205.548 101.788 206.108 104.437V104.437Z" fill="white"/>
<path d="M159.119 120.64L168.009 97.7079L165.682 95.373L151.182 117.455L154.128 121.914L159.119 120.64Z" fill="white"/>
<path d="M286.437 195.169C298.01 195.169 307.392 185.758 307.392 174.148C307.392 162.538 298.01 153.127 286.437 153.127C274.864 153.127 265.482 162.538 265.482 174.148C265.482 185.758 274.864 195.169 286.437 195.169Z" fill="#3F3D56"/>
<path d="M271.991 174.148C271.991 166.157 278.471 159.656 286.437 159.656C294.403 159.656 300.883 166.157 300.883 174.148C300.883 182.139 294.403 188.64 286.437 188.64C278.471 188.64 271.991 182.139 271.991 174.148ZM272.308 174.148C272.308 181.963 278.646 188.322 286.437 188.322C294.228 188.322 300.566 181.963 300.566 174.148C300.566 166.333 294.228 159.975 286.437 159.975C278.646 159.975 272.308 166.333 272.308 174.148Z" fill="white"/>
<path d="M274.055 174.148C274.055 181.008 279.598 186.57 286.437 186.57C293.276 186.57 298.82 181.008 298.82 174.148C298.82 167.288 293.276 161.727 286.437 161.727C279.598 161.727 274.055 167.288 274.055 174.148ZM294.486 171.174L292.292 172.608L291.449 171.311L294.486 171.174ZM291.146 178.469L291.73 177.035L293.57 179.463L291.146 178.469ZM285.528 183.385L287.072 180.758V183.385H285.528ZM285.528 168.176L287.072 165.549V168.176H285.528ZM278.669 179.463L280.509 177.035L281.093 178.469L278.669 179.463ZM277.753 171.174L280.79 171.311L279.947 172.608L277.753 171.174Z" fill="#E6E6E6"/>
<path d="M110.542 195.169C122.115 195.169 131.497 185.758 131.497 174.148C131.497 162.538 122.115 153.127 110.542 153.127C98.9685 153.127 89.5866 162.538 89.5866 174.148C89.5866 185.758 98.9685 195.169 110.542 195.169Z" fill="#3F3D56"/>
<path d="M96.0954 174.148C96.0954 166.157 102.576 159.656 110.542 159.656C118.507 159.656 124.988 166.157 124.988 174.148C124.988 182.139 118.507 188.64 110.542 188.64C102.576 188.64 96.0954 182.139 96.0954 174.148ZM96.4129 174.148C96.4129 181.963 102.751 188.322 110.542 188.322C118.332 188.322 124.67 181.963 124.67 174.148C124.67 166.333 118.332 159.975 110.542 159.975C102.751 159.975 96.4129 166.333 96.4129 174.148Z" fill="white"/>
<path d="M98.1592 174.148C98.1592 181.008 103.703 186.57 110.542 186.57C117.38 186.57 122.924 181.008 122.924 174.148C122.924 167.288 117.38 161.727 110.542 161.727C103.703 161.727 98.1592 167.288 98.1592 174.148ZM118.591 171.174L116.397 172.608L115.554 171.311L118.591 171.174ZM115.251 178.469L115.835 177.035L117.675 179.463L115.251 178.469ZM109.633 183.385L111.177 180.758V183.385H109.633ZM109.633 168.176L111.177 165.549V168.176H109.633ZM102.774 179.463L104.613 177.035L105.198 178.469L102.774 179.463ZM101.858 171.174L104.894 171.311L104.052 172.608L101.858 171.174Z" fill="#E6E6E6"/>
<path d="M198.013 129.398H210.078V126.85H198.013V129.398Z" fill="#3F3D56"/>
<path d="M368.068 179.418C367.956 179.073 367.104 179.225 367.022 178.916C366.94 178.608 367.758 178.35 368.385 177.483C368.499 177.327 369.211 176.341 368.938 175.927C368.42 175.142 364.814 177.098 363.949 176C363.759 175.759 363.681 175.346 363.115 174.576C362.89 174.27 362.745 174.122 362.573 174.126C362.328 174.132 362.24 174.44 361.856 174.996C361.278 175.831 361.07 175.726 360.69 176.41C360.408 176.918 360.374 177.242 360.171 177.261C359.883 177.288 359.764 176.656 359.412 176.632C359.053 176.607 358.694 177.231 358.515 177.719C358.181 178.635 358.388 179.335 358.434 180.032C358.484 180.79 358.367 181.9 357.546 183.324L349.801 195.702C351.465 193.179 356.186 186.298 358.088 183.774C358.637 183.045 359.227 182.314 360.135 182.176C361.01 182.044 362.074 182.478 363.559 182.452C363.732 182.449 364.215 182.435 364.332 182.178C364.429 181.966 364.188 181.782 364.276 181.582C364.394 181.315 364.923 181.43 365.644 181.252C366.152 181.127 366.498 180.92 366.795 180.742C366.884 180.688 368.218 179.877 368.068 179.418H368.068Z" fill="#F2F2F2"/>
<path d="M347.785 182.308C347.583 182.263 347.412 182.727 347.237 182.678C347.063 182.629 347.173 182.152 346.929 181.593C346.886 181.493 346.609 180.857 346.328 180.872C345.794 180.901 345.711 183.241 344.924 183.35C344.751 183.374 344.526 183.293 343.986 183.349C343.772 183.372 343.658 183.4 343.61 183.487C343.542 183.609 343.667 183.741 343.829 184.091C344.07 184.616 343.959 184.688 344.184 185.073C344.351 185.358 344.5 185.468 344.451 185.574C344.381 185.723 344.037 185.6 343.924 185.766C343.808 185.935 344.01 186.292 344.197 186.521C344.549 186.95 344.951 187.05 345.305 187.229C345.691 187.423 346.2 187.801 346.66 188.616L350.481 196C349.727 194.453 347.722 190.143 347.036 188.479C346.838 187.998 346.65 187.496 346.845 187.009C347.033 186.541 347.552 186.142 347.968 185.404C348.017 185.317 348.149 185.076 348.057 184.944C347.981 184.835 347.822 184.9 347.749 184.799C347.652 184.664 347.861 184.437 347.982 184.031C348.068 183.744 348.066 183.514 348.065 183.317C348.064 183.257 348.053 182.366 347.785 182.308V182.308V182.308Z" fill="#F2F2F2"/>
<path d="M351.597 184.11L351.717 182.997L351.791 182.927C352.132 182.604 352.345 182.262 352.425 181.91C352.438 181.854 352.447 181.797 352.458 181.739C352.497 181.51 352.547 181.226 352.766 180.931C352.889 180.766 353.213 180.394 353.548 180.524C353.638 180.558 353.699 180.617 353.742 180.679C353.752 180.668 353.763 180.658 353.775 180.646C353.92 180.505 354.021 180.453 354.118 180.404C354.193 180.365 354.27 180.326 354.401 180.221C354.459 180.175 354.504 180.134 354.543 180.099C354.661 179.994 354.811 179.87 355.017 179.919C355.235 179.979 355.31 180.188 355.359 180.326C355.448 180.572 355.475 180.742 355.493 180.854C355.5 180.895 355.507 180.942 355.513 180.957C355.561 181.077 356.16 181.109 356.386 181.122C356.892 181.149 357.331 181.173 357.437 181.521C357.512 181.77 357.354 182.042 356.954 182.35C356.829 182.446 356.705 182.512 356.596 182.562C356.663 182.625 356.716 182.711 356.719 182.829C356.727 183.107 356.443 183.32 355.875 183.463C355.734 183.5 355.545 183.547 355.296 183.535C355.179 183.529 355.077 183.511 354.99 183.495C354.977 183.545 354.953 183.596 354.91 183.646C354.784 183.791 354.58 183.828 354.303 183.746C353.997 183.66 353.755 183.544 353.542 183.442C353.356 183.353 353.196 183.277 353.061 183.256C352.811 183.221 352.577 183.376 352.297 183.583L351.597 184.11L351.597 184.11Z" fill="#F2F2F2"/>
<path d="M353.596 177.773L352.493 177.939L352.407 177.885C352.009 177.636 351.625 177.516 351.264 177.528C351.207 177.53 351.15 177.535 351.092 177.54C350.861 177.559 350.574 177.583 350.234 177.445C350.044 177.368 349.603 177.147 349.644 176.79C349.654 176.693 349.695 176.619 349.744 176.562C349.731 176.555 349.718 176.547 349.704 176.539C349.531 176.434 349.456 176.349 349.383 176.267C349.327 176.204 349.269 176.139 349.135 176.039C349.076 175.995 349.024 175.961 348.981 175.932C348.85 175.845 348.693 175.73 348.688 175.518C348.69 175.291 348.872 175.166 348.993 175.082C349.208 174.934 349.365 174.864 349.469 174.818C349.507 174.802 349.549 174.783 349.562 174.773C349.667 174.696 349.545 174.107 349.5 173.885C349.398 173.386 349.31 172.954 349.619 172.763C349.84 172.627 350.142 172.711 350.541 173.021C350.665 173.118 350.76 173.222 350.835 173.315C350.879 173.234 350.949 173.161 351.061 173.128C351.327 173.05 351.605 173.272 351.888 173.786C351.958 173.914 352.052 174.085 352.104 174.329C352.128 174.444 352.136 174.548 352.142 174.637C352.194 174.637 352.25 174.647 352.308 174.676C352.48 174.762 352.567 174.951 352.559 175.24C352.554 175.558 352.503 175.822 352.459 176.055C352.42 176.258 352.388 176.433 352.402 176.569C352.431 176.821 352.64 177.008 352.91 177.227L353.596 177.773H353.596L353.596 177.773Z" fill="#F2F2F2"/>
<path d="M353.745 174.45L353.865 173.337L353.939 173.267C354.279 172.944 354.493 172.602 354.573 172.249C354.585 172.193 354.595 172.137 354.605 172.079C354.645 171.85 354.695 171.566 354.914 171.271C355.037 171.106 355.361 170.734 355.696 170.864C355.786 170.898 355.847 170.957 355.89 171.019C355.9 171.008 355.911 170.997 355.923 170.986C356.067 170.845 356.168 170.793 356.266 170.743C356.341 170.705 356.418 170.666 356.549 170.561C356.606 170.515 356.652 170.473 356.691 170.439C356.808 170.333 356.959 170.21 357.164 170.259C357.383 170.319 357.457 170.528 357.507 170.666C357.596 170.912 357.623 171.082 357.641 171.194C357.647 171.235 357.655 171.282 357.661 171.297C357.708 171.417 358.308 171.448 358.533 171.462C359.04 171.489 359.479 171.513 359.584 171.861C359.66 172.11 359.502 172.382 359.102 172.69C358.977 172.786 358.853 172.852 358.744 172.902C358.811 172.965 358.864 173.051 358.867 173.169C358.875 173.446 358.591 173.66 358.023 173.803C357.882 173.839 357.692 173.887 357.444 173.875C357.327 173.869 357.225 173.851 357.138 173.835C357.125 173.884 357.101 173.936 357.058 173.986C356.931 174.131 356.727 174.167 356.45 174.086C356.145 174 355.903 173.884 355.69 173.782C355.504 173.693 355.343 173.617 355.209 173.596C354.958 173.561 354.725 173.716 354.445 173.923L353.745 174.45L353.745 174.45Z" fill="#F2F2F2"/>
<path d="M350.168 195.765L349.973 195.572L349.976 195.297L349.973 195.572L349.701 195.543C349.703 195.518 349.701 195.458 349.699 195.365C349.688 194.853 349.656 193.295 349.872 190.902C350.023 189.231 350.276 187.536 350.622 185.861C350.969 184.184 351.33 182.936 351.619 181.933C351.837 181.176 352.058 180.458 352.273 179.759C352.847 177.892 353.389 176.128 353.725 174.116C353.8 173.667 353.956 172.732 353.637 171.628C353.452 170.988 353.134 170.385 352.693 169.838L353.12 169.492C353.607 170.097 353.958 170.764 354.163 171.475C354.518 172.699 354.348 173.718 354.266 174.207C353.924 176.255 353.377 178.036 352.797 179.921C352.583 180.618 352.363 181.332 352.145 182.086C351.859 183.079 351.502 184.317 351.159 185.972C350.816 187.627 350.567 189.302 350.418 190.952C350.205 193.315 350.237 194.849 350.247 195.353C350.253 195.622 350.254 195.679 350.168 195.766V195.765Z" fill="#F2F2F2"/>
<path d="M351.523 170.471C351.501 170.466 351.479 170.461 351.456 170.454C351.006 170.328 350.645 169.96 350.383 169.361C350.26 169.079 350.231 168.783 350.174 168.192C350.164 168.1 350.124 167.639 350.174 167.028C350.206 166.629 350.248 166.468 350.357 166.342C350.477 166.202 350.639 166.122 350.811 166.081C350.815 166.028 350.832 165.977 350.867 165.928C351.008 165.724 351.243 165.808 351.371 165.851C351.436 165.875 351.516 165.904 351.607 165.919C351.749 165.944 351.834 165.919 351.962 165.882C352.085 165.846 352.238 165.801 352.449 165.805C352.865 165.811 353.174 165.999 353.275 166.061C353.811 166.383 353.996 166.898 354.21 167.495C354.252 167.614 354.394 168.046 354.426 168.603C354.45 169.004 354.398 169.169 354.338 169.286C354.215 169.528 354.027 169.64 353.56 169.875C353.072 170.122 352.828 170.246 352.627 170.309C352.16 170.456 351.867 170.548 351.523 170.471V170.471V170.471Z" fill="#F2F2F2"/>
<path d="M50 195.287C50 195.497 50.2938 195.666 50.6596 195.666H365.548C365.913 195.666 366.207 195.497 366.207 195.287C366.207 195.077 365.913 194.908 365.548 194.908H50.6596C50.2938 194.908 50 195.077 50 195.287Z" fill="#CCCCCC"/>
<path d="M210.001 192.894L214.41 192.894L216.507 175.836L210.001 175.836L210.001 192.894Z" fill="#FFB6B6"/>
<path d="M225.105 192.794C225.242 193.026 225.315 193.775 225.315 194.044C225.315 194.873 224.645 195.545 223.819 195.545L210.166 195.545C209.603 195.545 209.146 195.087 209.146 194.521V193.951C209.146 193.951 208.47 192.237 209.861 190.125C209.861 190.125 211.589 191.779 214.171 189.189L214.933 187.805L220.445 191.849L223.5 192.226C224.169 192.309 224.761 192.213 225.105 192.794H225.105L225.105 192.794Z" fill="#2F2E41"/>
<path d="M190.195 192.894L194.603 192.894L196.7 175.836L190.194 175.836L190.195 192.894Z" fill="#FFB6B6"/>
<path d="M205.299 192.794C205.436 193.026 205.508 193.775 205.508 194.044C205.508 194.873 204.838 195.545 204.012 195.545L190.36 195.545C189.796 195.545 189.339 195.087 189.339 194.521V193.951C189.339 193.951 188.664 192.237 190.054 190.125C190.054 190.125 191.782 191.779 194.365 189.189L195.126 187.805L200.638 191.849L203.694 192.226C204.362 192.309 204.955 192.213 205.299 192.794H205.299L205.299 192.794Z" fill="#2F2E41"/>
<path d="M209.303 76.4205L210.14 84.2562L200.376 83.4166L202.05 76.1406L209.303 76.4205Z" fill="#FFB6B6"/>
<path opacity="0.1" d="M209.303 76.4205L210.14 84.2562L200.376 83.4166L202.05 76.1406L209.303 76.4205Z" fill="black"/>
<path d="M205.816 77.4003C209.36 77.4003 212.232 74.5186 212.232 70.9638C212.232 67.409 209.36 64.5273 205.816 64.5273C202.273 64.5273 199.4 67.409 199.4 70.9638C199.4 74.5186 202.273 77.4003 205.816 77.4003Z" fill="#FFB6B6"/>
<path d="M210.001 81.0382L220.741 87.3347L217.222 104.405L219.625 127.353L217.951 183.602L207.63 182.482L206.235 134.629L198.145 184.161H188.122L189.776 130.711L194.797 108.043L191.729 83.4169L201.074 80.4785L210.001 81.0382Z" fill="#2F2E41"/>
<path d="M210.419 72.7824C210.419 72.7824 210.977 70.8235 212.232 70.9634C213.488 71.1033 213.767 69.984 213.488 69.4243C213.209 68.8646 212.651 66.0661 212.651 66.0661C212.651 66.0661 212.93 64.1072 211.256 63.8273C209.582 63.5475 209.024 63.2677 208.745 62.708C208.466 62.1483 204.282 61.5886 202.887 62.4281C201.492 63.2677 200.376 64.8784 199.4 65.3323C198.424 65.7863 197.587 66.6258 198.145 68.025C198.703 69.4243 199.512 72.1609 199.512 72.1609C199.512 72.1609 200.934 71.663 201.213 72.5026C201.492 73.3421 200.376 72.2227 201.771 69.984C203.166 67.7452 203.166 65.5064 205.398 66.346C207.63 67.1855 210.14 66.9057 209.861 68.5847C209.582 70.2638 210.419 72.7824 210.419 72.7824L210.419 72.7824Z" fill="#2F2E41"/>
<path d="M215.202 122.332C213.86 123.758 213.505 125.609 214.41 126.466C215.315 127.323 217.137 126.862 218.48 125.435C219.024 124.872 219.426 124.187 219.652 123.437L225.265 117.322L222.349 114.74L217.125 121.043C216.39 121.312 215.731 121.754 215.202 122.332Z" fill="#FFB6B6"/>
<path d="M220.628 87.1943L230.081 103.35L231.481 110.725L222.378 122.315L218.527 117.398L223.079 110.725L215.726 97.7305L220.628 87.1943Z" fill="#2F2E41"/>
<path d="M194.05 120.828V101.78C194.05 98.8765 196.405 96.5146 199.299 96.5146H228.325C231.219 96.5146 233.573 98.8765 233.573 101.78V120.828C233.573 123.731 231.219 126.093 228.325 126.093H199.299C196.405 126.093 194.05 123.731 194.05 120.828Z" fill="#12AE62"/>
<path d="M208.166 108.537H218.203V106.02H208.166V108.537Z" fill="#3F3D56"/>
<path d="M217.381 125.924V120.89H209.225V125.924H217.381Z" fill="#3F3D56"/>
<path d="M217.764 101.718V96.6836H209.608V101.718H217.764Z" fill="#3F3D56"/>
<path d="M196.988 118.694C198.331 120.12 198.686 121.971 197.781 122.829C196.876 123.686 195.054 123.224 193.711 121.797C193.167 121.235 192.764 120.549 192.538 119.799L186.925 113.684L189.842 111.103L195.066 117.405C195.8 117.675 196.459 118.117 196.988 118.694Z" fill="#FFB6B6"/>
<path d="M191.563 83.5566L182.11 99.7122L180.709 107.087L189.812 118.677L193.663 113.76L189.112 107.087L196.464 94.0928L191.563 83.5566Z" fill="#2F2E41"/>
<path d="M74.0239 160.591C78.7584 160.591 82.5964 157.24 82.5964 153.106C82.5964 148.972 78.7584 145.621 74.0239 145.621C69.2894 145.621 65.4514 148.972 65.4514 153.106C65.4514 157.24 69.2894 160.591 74.0239 160.591Z" fill="#E6E6E6"/>
</g>
</g>
<defs>
<filter id="filter0_dd_2705_7899" x="0" y="0" width="420" height="381" filterUnits="userSpaceOnUse" color-interpolation-filters="sRGB">
<feFlood flood-opacity="0" result="BackgroundImageFix"/>
<feColorMatrix in="SourceAlpha" type="matrix" values="0 0 0 0 0 0 0 0 0 0 0 0 0 0 0 0 0 0 127 0" result="hardAlpha"/>
<feOffset dy="2"/>
<feGaussianBlur stdDeviation="2"/>
<feColorMatrix type="matrix" values="0 0 0 0 0 0 0 0 0 0 0 0 0 0 0 0 0 0 0.08 0"/>
<feBlend mode="normal" in2="BackgroundImageFix" result="effect1_dropShadow_2705_7899"/>
<feColorMatrix in="SourceAlpha" type="matrix" values="0 0 0 0 0 0 0 0 0 0 0 0 0 0 0 0 0 0 127 0" result="hardAlpha"/>
<feOffset/>
<feGaussianBlur stdDeviation="3"/>
<feColorMatrix type="matrix" values="0 0 0 0 0 0 0 0 0 0 0 0 0 0 0 0 0 0 0.02 0"/>
<feBlend mode="normal" in2="effect1_dropShadow_2705_7899" result="effect2_dropShadow_2705_7899"/>
<feBlend mode="normal" in="SourceGraphic" in2="effect2_dropShadow_2705_7899" result="shape"/>
</filter>
<clipPath id="clip0_2705_7899">
<rect width="319" height="134" fill="white" transform="translate(50 62)"/>
</clipPath>
</defs>
</svg>
