<svg width="420" height="381" viewBox="0 0 420 381" fill="none" xmlns="http://www.w3.org/2000/svg">
<g filter="url(#filter0_dd_163_1270)">
<rect x="6" y="6" width="408" height="369" rx="12" fill="white"/>
<path d="M174.451 292.54L172.691 287.73C172.605 287.517 172.515 287.263 172.421 286.97C172.328 286.677 172.235 286.36 172.141 286.02C172.055 286.36 171.965 286.68 171.871 286.98C171.778 287.273 171.688 287.53 171.601 287.75L169.851 292.54H174.451ZM179.201 298H177.121C176.888 298 176.698 297.943 176.551 297.83C176.405 297.71 176.295 297.563 176.221 297.39L175.141 294.44H169.151L168.071 297.39C168.018 297.543 167.915 297.683 167.761 297.81C167.608 297.937 167.418 298 167.191 298H165.091L170.781 283.54H173.521L179.201 298ZM186.533 290.36C186.253 290.02 185.946 289.78 185.613 289.64C185.286 289.5 184.933 289.43 184.553 289.43C184.18 289.43 183.843 289.5 183.543 289.64C183.243 289.78 182.986 289.993 182.773 290.28C182.56 290.56 182.396 290.92 182.283 291.36C182.17 291.793 182.113 292.307 182.113 292.9C182.113 293.5 182.16 294.01 182.253 294.43C182.353 294.843 182.493 295.183 182.673 295.45C182.853 295.71 183.073 295.9 183.333 296.02C183.593 296.133 183.883 296.19 184.203 296.19C184.716 296.19 185.153 296.083 185.513 295.87C185.873 295.657 186.213 295.353 186.533 294.96V290.36ZM189.003 283.14V298H187.493C187.166 298 186.96 297.85 186.873 297.55L186.663 296.56C186.25 297.033 185.773 297.417 185.233 297.71C184.7 298.003 184.076 298.15 183.363 298.15C182.803 298.15 182.29 298.033 181.823 297.8C181.356 297.567 180.953 297.23 180.613 296.79C180.28 296.343 180.02 295.793 179.833 295.14C179.653 294.487 179.563 293.74 179.563 292.9C179.563 292.14 179.666 291.433 179.873 290.78C180.08 290.127 180.376 289.56 180.763 289.08C181.15 288.6 181.613 288.227 182.153 287.96C182.693 287.687 183.3 287.55 183.973 287.55C184.546 287.55 185.036 287.64 185.443 287.82C185.85 288 186.213 288.243 186.533 288.55V283.14H189.003ZM197.881 290.36C197.601 290.02 197.294 289.78 196.961 289.64C196.634 289.5 196.281 289.43 195.901 289.43C195.527 289.43 195.191 289.5 194.891 289.64C194.591 289.78 194.334 289.993 194.121 290.28C193.907 290.56 193.744 290.92 193.631 291.36C193.517 291.793 193.461 292.307 193.461 292.9C193.461 293.5 193.507 294.01 193.601 294.43C193.701 294.843 193.841 295.183 194.021 295.45C194.201 295.71 194.421 295.9 194.681 296.02C194.941 296.133 195.231 296.19 195.551 296.19C196.064 296.19 196.501 296.083 196.861 295.87C197.221 295.657 197.561 295.353 197.881 294.96V290.36ZM200.351 283.14V298H198.841C198.514 298 198.307 297.85 198.221 297.55L198.011 296.56C197.597 297.033 197.121 297.417 196.581 297.71C196.047 298.003 195.424 298.15 194.711 298.15C194.151 298.15 193.637 298.033 193.171 297.8C192.704 297.567 192.301 297.23 191.961 296.79C191.627 296.343 191.367 295.793 191.181 295.14C191.001 294.487 190.911 293.74 190.911 292.9C190.911 292.14 191.014 291.433 191.221 290.78C191.427 290.127 191.724 289.56 192.111 289.08C192.497 288.6 192.961 288.227 193.501 287.96C194.041 287.687 194.647 287.55 195.321 287.55C195.894 287.55 196.384 287.64 196.791 287.82C197.197 288 197.561 288.243 197.881 288.55V283.14H200.351ZM213.072 293.62C212.358 293.653 211.758 293.717 211.272 293.81C210.785 293.897 210.395 294.01 210.102 294.15C209.808 294.29 209.598 294.453 209.472 294.64C209.345 294.827 209.282 295.03 209.282 295.25C209.282 295.683 209.408 295.993 209.662 296.18C209.922 296.367 210.258 296.46 210.672 296.46C211.178 296.46 211.615 296.37 211.982 296.19C212.355 296.003 212.718 295.723 213.072 295.35V293.62ZM207.412 289.17C208.592 288.09 210.012 287.55 211.672 287.55C212.272 287.55 212.808 287.65 213.282 287.85C213.755 288.043 214.155 288.317 214.482 288.67C214.808 289.017 215.055 289.433 215.222 289.92C215.395 290.407 215.482 290.94 215.482 291.52V298H214.362C214.128 298 213.948 297.967 213.822 297.9C213.695 297.827 213.595 297.683 213.522 297.47L213.302 296.73C213.042 296.963 212.788 297.17 212.542 297.35C212.295 297.523 212.038 297.67 211.772 297.79C211.505 297.91 211.218 298 210.912 298.06C210.612 298.127 210.278 298.16 209.912 298.16C209.478 298.16 209.078 298.103 208.712 297.99C208.345 297.87 208.028 297.693 207.762 297.46C207.495 297.227 207.288 296.937 207.142 296.59C206.995 296.243 206.922 295.84 206.922 295.38C206.922 295.12 206.965 294.863 207.052 294.61C207.138 294.35 207.278 294.103 207.472 293.87C207.672 293.637 207.928 293.417 208.242 293.21C208.555 293.003 208.938 292.823 209.392 292.67C209.852 292.517 210.385 292.393 210.992 292.3C211.598 292.2 212.292 292.14 213.072 292.12V291.52C213.072 290.833 212.925 290.327 212.632 290C212.338 289.667 211.915 289.5 211.362 289.5C210.962 289.5 210.628 289.547 210.362 289.64C210.102 289.733 209.872 289.84 209.672 289.96C209.472 290.073 209.288 290.177 209.122 290.27C208.962 290.363 208.782 290.41 208.582 290.41C208.408 290.41 208.262 290.367 208.142 290.28C208.022 290.187 207.925 290.08 207.852 289.96L207.412 289.17ZM226.091 298.16C225.198 298.16 224.511 297.91 224.031 297.41C223.558 296.903 223.321 296.207 223.321 295.32V289.59H222.271C222.138 289.59 222.025 289.547 221.931 289.46C221.838 289.373 221.791 289.243 221.791 289.07V288.09L223.441 287.82L223.961 285.02C223.995 284.887 224.058 284.783 224.151 284.71C224.245 284.637 224.365 284.6 224.511 284.6H225.791V287.83H228.531V289.59H225.791V295.15C225.791 295.47 225.868 295.72 226.021 295.9C226.181 296.08 226.398 296.17 226.671 296.17C226.825 296.17 226.951 296.153 227.051 296.12C227.158 296.08 227.248 296.04 227.321 296C227.401 295.96 227.471 295.923 227.531 295.89C227.591 295.85 227.651 295.83 227.711 295.83C227.785 295.83 227.845 295.85 227.891 295.89C227.938 295.923 227.988 295.977 228.041 296.05L228.781 297.25C228.421 297.55 228.008 297.777 227.541 297.93C227.075 298.083 226.591 298.16 226.091 298.16ZM232.443 289.52C232.763 288.907 233.143 288.427 233.583 288.08C234.023 287.727 234.543 287.55 235.143 287.55C235.616 287.55 235.996 287.653 236.283 287.86L236.123 289.71C236.089 289.83 236.039 289.917 235.973 289.97C235.913 290.017 235.829 290.04 235.723 290.04C235.623 290.04 235.473 290.023 235.273 289.99C235.079 289.957 234.889 289.94 234.703 289.94C234.429 289.94 234.186 289.98 233.973 290.06C233.759 290.14 233.566 290.257 233.393 290.41C233.226 290.557 233.076 290.737 232.943 290.95C232.816 291.163 232.696 291.407 232.583 291.68V298H230.113V287.74H231.563C231.816 287.74 231.993 287.787 232.093 287.88C232.193 287.967 232.259 288.127 232.293 288.36L232.443 289.52ZM240.134 287.74V298H237.654V287.74H240.134ZM240.474 284.75C240.474 284.963 240.43 285.163 240.344 285.35C240.257 285.537 240.14 285.7 239.994 285.84C239.854 285.98 239.687 286.093 239.494 286.18C239.3 286.26 239.094 286.3 238.874 286.3C238.66 286.3 238.457 286.26 238.264 286.18C238.077 286.093 237.914 285.98 237.774 285.84C237.634 285.7 237.52 285.537 237.434 285.35C237.354 285.163 237.314 284.963 237.314 284.75C237.314 284.53 237.354 284.323 237.434 284.13C237.52 283.937 237.634 283.77 237.774 283.63C237.914 283.49 238.077 283.38 238.264 283.3C238.457 283.213 238.66 283.17 238.874 283.17C239.094 283.17 239.3 283.213 239.494 283.3C239.687 283.38 239.854 283.49 239.994 283.63C240.14 283.77 240.257 283.937 240.344 284.13C240.43 284.323 240.474 284.53 240.474 284.75ZM245.122 295.34C245.402 295.68 245.705 295.92 246.032 296.06C246.365 296.2 246.725 296.27 247.112 296.27C247.485 296.27 247.822 296.2 248.122 296.06C248.422 295.92 248.675 295.707 248.882 295.42C249.095 295.133 249.258 294.773 249.372 294.34C249.485 293.9 249.542 293.383 249.542 292.79C249.542 292.19 249.492 291.683 249.392 291.27C249.298 290.85 249.162 290.51 248.982 290.25C248.802 289.99 248.582 289.8 248.322 289.68C248.068 289.56 247.778 289.5 247.452 289.5C246.938 289.5 246.502 289.61 246.142 289.83C245.782 290.043 245.442 290.347 245.122 290.74V295.34ZM244.992 289.14C245.412 288.667 245.888 288.283 246.422 287.99C246.955 287.697 247.582 287.55 248.302 287.55C248.862 287.55 249.372 287.667 249.832 287.9C250.298 288.133 250.698 288.473 251.032 288.92C251.372 289.36 251.632 289.907 251.812 290.56C251.998 291.207 252.092 291.95 252.092 292.79C252.092 293.557 251.988 294.267 251.782 294.92C251.575 295.573 251.278 296.14 250.892 296.62C250.512 297.1 250.048 297.477 249.502 297.75C248.962 298.017 248.355 298.15 247.682 298.15C247.108 298.15 246.618 298.063 246.212 297.89C245.805 297.71 245.442 297.463 245.122 297.15V301.35H242.652V287.74H244.162C244.482 287.74 244.692 287.89 244.792 288.19L244.992 289.14Z" fill="#D4592C"/>
<g clip-path="url(#clip0_163_1270)">
<path d="M290.379 119.631V94.6785C290.379 92.1905 292.397 90.1665 294.877 90.1665H311.15C313.63 90.1665 315.647 92.1905 315.647 94.6785V119.631C315.647 122.119 313.63 124.143 311.15 124.143H294.877C292.397 124.143 290.379 122.119 290.379 119.631Z" fill="#FF6B35"/>
<path d="M298.713 100.953H307.314V98.7954H298.713V100.953Z" fill="#3F3D56"/>
<path d="M300.863 97.1777H305.164V90.1666H300.863V97.1777Z" fill="#3F3D56"/>
<path d="M300.863 124.144H305.164V117.132H300.863V124.144Z" fill="#3F3D56"/>
<path d="M278.82 120.64H253.946C251.466 120.64 249.448 118.616 249.448 116.128V99.804C249.448 97.316 251.466 95.292 253.946 95.292H278.82C281.3 95.292 283.318 97.316 283.318 99.804V116.128C283.318 118.616 281.3 120.64 278.82 120.64Z" fill="#FF6B35"/>
<path d="M271.221 98.7974H262.62V100.955H271.221V98.7974Z" fill="#3F3D56"/>
<path d="M256.438 110.123V105.809H249.448V110.123H256.438Z" fill="#3F3D56"/>
<path d="M283.318 110.123V105.809H276.329V110.123H283.318Z" fill="#3F3D56"/>
<path d="M77.0452 167.3L72.8927 143.001C71.0476 132.204 79.014 122.212 89.92 121.645L149.118 118.569L163.246 95.2105C165.119 92.1137 168.468 90.2227 172.079 90.2227H214.614C217.958 90.2227 220.783 92.7099 221.216 96.0356L222.297 114.726L328.342 115.045L341.682 159.147L329.3 158.542L329.935 171.919L313.742 172.556L308.344 157.245C307.328 154.362 302.874 151.111 298.245 148.391C287.866 142.294 274.533 144.251 266.679 153.388C264.826 155.544 263.531 157.79 263.169 159.896L260.719 174.148L141.974 172.237L126.411 150.399C121.814 145.379 100.109 143.536 98.1538 150.399L86.4115 167.778L77.0452 167.3H77.0452Z" fill="#E6E6E6"/>
<path d="M206.108 104.436L209.602 120.958L165.152 121.914L174.54 101.693C175.392 99.8589 177.261 98.7201 179.276 98.808L200.576 99.737C203.273 99.8546 205.548 101.787 206.108 104.436V104.436Z" fill="white"/>
<path d="M159.119 120.64L168.009 97.7074L165.682 95.3726L151.182 117.455L154.128 121.914L159.119 120.64Z" fill="white"/>
<path d="M286.437 195.169C298.01 195.169 307.392 185.758 307.392 174.148C307.392 162.538 298.01 153.127 286.437 153.127C274.864 153.127 265.482 162.538 265.482 174.148C265.482 185.758 274.864 195.169 286.437 195.169Z" fill="#3F3D56"/>
<path d="M271.991 174.148C271.991 166.157 278.471 159.656 286.437 159.656C294.403 159.656 300.883 166.157 300.883 174.148C300.883 182.139 294.403 188.64 286.437 188.64C278.471 188.64 271.991 182.139 271.991 174.148ZM272.308 174.148C272.308 181.963 278.646 188.322 286.437 188.322C294.228 188.322 300.566 181.963 300.566 174.148C300.566 166.333 294.228 159.975 286.437 159.975C278.646 159.975 272.308 166.333 272.308 174.148Z" fill="white"/>
<path d="M274.055 174.148C274.055 181.008 279.599 186.57 286.437 186.57C293.276 186.57 298.82 181.008 298.82 174.148C298.82 167.288 293.276 161.727 286.437 161.727C279.599 161.727 274.055 167.288 274.055 174.148ZM294.486 171.174L292.292 172.608L291.449 171.311L294.486 171.174ZM291.146 178.469L291.731 177.035L293.57 179.463L291.146 178.469ZM285.528 183.385L287.072 180.758V183.385H285.528ZM285.528 168.176L287.072 165.549V168.176H285.528ZM278.669 179.463L280.509 177.035L281.093 178.469L278.669 179.463ZM277.753 171.174L280.79 171.311L279.947 172.608L277.753 171.174Z" fill="#E6E6E6"/>
<path d="M110.541 195.169C122.115 195.169 131.497 185.758 131.497 174.148C131.497 162.538 122.115 153.127 110.541 153.127C98.9683 153.127 89.5864 162.538 89.5864 174.148C89.5864 185.758 98.9683 195.169 110.541 195.169Z" fill="#3F3D56"/>
<path d="M96.0952 174.148C96.0952 166.157 102.576 159.656 110.542 159.656C118.507 159.656 124.988 166.157 124.988 174.148C124.988 182.139 118.507 188.64 110.542 188.64C102.576 188.64 96.0952 182.139 96.0952 174.148ZM96.4127 174.148C96.4127 181.963 102.751 188.322 110.542 188.322C118.332 188.322 124.67 181.963 124.67 174.148C124.67 166.333 118.332 159.975 110.542 159.975C102.751 159.975 96.4127 166.333 96.4127 174.148Z" fill="white"/>
<path d="M98.1592 174.148C98.1592 181.008 103.703 186.57 110.542 186.57C117.38 186.57 122.924 181.008 122.924 174.148C122.924 167.288 117.38 161.727 110.542 161.727C103.703 161.727 98.1592 167.288 98.1592 174.148ZM118.591 171.174L116.397 172.608L115.554 171.311L118.591 171.174ZM115.251 178.469L115.835 177.035L117.675 179.463L115.251 178.469ZM109.633 183.385L111.177 180.758V183.385H109.633ZM109.633 168.176L111.177 165.549V168.176H109.633ZM102.774 179.463L104.613 177.035L105.198 178.469L102.774 179.463ZM101.858 171.174L104.894 171.311L104.052 172.608L101.858 171.174Z" fill="#E6E6E6"/>
<path d="M198.013 129.398H210.078V126.85H198.013V129.398Z" fill="#3F3D56"/>
<path d="M368.069 179.418C367.956 179.073 367.104 179.225 367.022 178.916C366.941 178.608 367.759 178.35 368.386 177.483C368.499 177.327 369.212 176.341 368.938 175.927C368.42 175.142 364.815 177.098 363.949 176C363.759 175.759 363.681 175.346 363.115 174.576C362.89 174.27 362.746 174.122 362.573 174.126C362.328 174.132 362.241 174.44 361.856 174.996C361.279 175.831 361.071 175.726 360.69 176.41C360.408 176.918 360.375 177.242 360.171 177.261C359.883 177.288 359.764 176.656 359.412 176.632C359.053 176.607 358.694 177.231 358.516 177.719C358.182 178.635 358.389 179.335 358.434 180.032C358.484 180.79 358.367 181.9 357.546 183.324L349.802 195.702C351.465 193.179 356.186 186.298 358.088 183.774C358.637 183.045 359.227 182.314 360.136 182.176C361.01 182.044 362.074 182.478 363.559 182.452C363.732 182.449 364.215 182.435 364.333 182.178C364.43 181.966 364.189 181.782 364.276 181.582C364.394 181.315 364.923 181.43 365.644 181.252C366.152 181.127 366.498 180.92 366.795 180.742C366.884 180.688 368.219 179.877 368.069 179.418H368.069Z" fill="#F2F2F2"/>
<path d="M347.785 182.308C347.583 182.263 347.412 182.727 347.237 182.678C347.063 182.629 347.173 182.152 346.93 181.593C346.886 181.493 346.609 180.857 346.328 180.872C345.794 180.901 345.711 183.241 344.924 183.35C344.751 183.374 344.526 183.293 343.986 183.349C343.772 183.372 343.658 183.4 343.61 183.487C343.542 183.609 343.667 183.741 343.829 184.091C344.071 184.616 343.959 184.688 344.184 185.073C344.351 185.358 344.5 185.468 344.451 185.574C344.381 185.723 344.037 185.6 343.924 185.766C343.808 185.935 344.01 186.292 344.197 186.521C344.549 186.95 344.951 187.05 345.306 187.229C345.691 187.423 346.2 187.801 346.66 188.616L350.481 196C349.727 194.453 347.722 190.143 347.036 188.479C346.838 187.998 346.651 187.496 346.845 187.009C347.033 186.541 347.552 186.142 347.968 185.404C348.017 185.317 348.149 185.076 348.057 184.944C347.982 184.835 347.822 184.9 347.75 184.799C347.653 184.664 347.861 184.437 347.982 184.031C348.068 183.744 348.066 183.514 348.065 183.317C348.064 183.257 348.053 182.366 347.785 182.308V182.308V182.308Z" fill="#F2F2F2"/>
<path d="M351.597 184.109L351.717 182.997L351.791 182.927C352.132 182.604 352.345 182.261 352.425 181.909C352.438 181.853 352.448 181.796 352.458 181.739C352.498 181.51 352.547 181.226 352.766 180.93C352.889 180.766 353.214 180.394 353.548 180.524C353.639 180.558 353.7 180.616 353.742 180.679C353.753 180.668 353.763 180.657 353.775 180.645C353.92 180.505 354.021 180.453 354.118 180.403C354.193 180.365 354.27 180.326 354.401 180.221C354.459 180.175 354.505 180.133 354.543 180.098C354.661 179.993 354.811 179.87 355.017 179.919C355.235 179.979 355.31 180.187 355.359 180.325C355.448 180.572 355.475 180.741 355.493 180.854C355.5 180.895 355.507 180.941 355.513 180.956C355.561 181.077 356.16 181.108 356.386 181.121C356.893 181.149 357.331 181.173 357.437 181.521C357.512 181.77 357.355 182.042 356.954 182.35C356.83 182.446 356.705 182.512 356.596 182.561C356.663 182.625 356.716 182.711 356.72 182.828C356.727 183.106 356.443 183.319 355.875 183.463C355.734 183.499 355.545 183.547 355.297 183.535C355.18 183.529 355.077 183.511 354.99 183.494C354.977 183.544 354.953 183.596 354.91 183.645C354.784 183.79 354.58 183.827 354.303 183.745C353.997 183.66 353.756 183.544 353.543 183.442C353.356 183.353 353.196 183.277 353.061 183.256C352.811 183.221 352.577 183.376 352.298 183.582L351.597 184.109L351.597 184.109Z" fill="#F2F2F2"/>
<path d="M353.596 177.773L352.493 177.938L352.407 177.885C352.009 177.636 351.625 177.516 351.265 177.528C351.207 177.529 351.15 177.534 351.092 177.539C350.861 177.558 350.575 177.583 350.234 177.445C350.044 177.367 349.604 177.147 349.644 176.789C349.654 176.693 349.695 176.619 349.744 176.562C349.731 176.554 349.718 176.546 349.704 176.538C349.531 176.433 349.456 176.348 349.383 176.267C349.327 176.204 349.27 176.139 349.135 176.038C349.076 175.994 349.025 175.96 348.981 175.931C348.85 175.844 348.693 175.73 348.688 175.517C348.69 175.291 348.873 175.165 348.993 175.082C349.209 174.933 349.365 174.864 349.469 174.818C349.507 174.801 349.549 174.782 349.563 174.773C349.667 174.696 349.545 174.106 349.5 173.884C349.398 173.385 349.31 172.954 349.619 172.763C349.84 172.626 350.142 172.71 350.541 173.021C350.665 173.117 350.76 173.222 350.835 173.315C350.88 173.234 350.949 173.16 351.062 173.127C351.328 173.05 351.605 173.271 351.888 173.785C351.958 173.913 352.053 174.085 352.104 174.329C352.128 174.444 352.137 174.548 352.143 174.637C352.194 174.637 352.25 174.647 352.308 174.676C352.48 174.762 352.568 174.95 352.559 175.24C352.554 175.558 352.503 175.822 352.459 176.054C352.42 176.258 352.388 176.433 352.402 176.569C352.431 176.821 352.64 177.008 352.91 177.227L353.596 177.773H353.596L353.596 177.773Z" fill="#F2F2F2"/>
<path d="M353.745 174.449L353.865 173.337L353.939 173.267C354.28 172.944 354.493 172.601 354.573 172.249C354.586 172.193 354.596 172.136 354.606 172.079C354.646 171.85 354.695 171.565 354.914 171.27C355.037 171.106 355.362 170.734 355.696 170.864C355.787 170.898 355.848 170.956 355.89 171.019C355.901 171.008 355.911 170.997 355.923 170.985C356.068 170.844 356.169 170.793 356.266 170.743C356.341 170.705 356.418 170.665 356.549 170.56C356.607 170.514 356.653 170.473 356.691 170.438C356.809 170.333 356.959 170.21 357.165 170.259C357.383 170.318 357.458 170.527 357.507 170.665C357.596 170.912 357.623 171.081 357.641 171.194C357.648 171.235 357.655 171.281 357.661 171.296C357.709 171.417 358.308 171.448 358.534 171.461C359.041 171.489 359.479 171.512 359.585 171.861C359.66 172.11 359.503 172.381 359.102 172.69C358.978 172.786 358.853 172.852 358.744 172.901C358.811 172.965 358.864 173.051 358.868 173.168C358.875 173.446 358.591 173.659 358.023 173.803C357.882 173.839 357.693 173.887 357.444 173.875C357.328 173.869 357.225 173.851 357.138 173.834C357.125 173.884 357.101 173.936 357.058 173.985C356.932 174.13 356.728 174.167 356.451 174.085C356.145 174 355.904 173.884 355.691 173.781C355.504 173.692 355.344 173.616 355.209 173.596C354.959 173.56 354.725 173.716 354.446 173.922L353.745 174.449L353.745 174.449Z" fill="#F2F2F2"/>
<path d="M350.168 195.765L349.973 195.572L349.976 195.297L349.973 195.572L349.701 195.543C349.703 195.517 349.701 195.458 349.699 195.364C349.689 194.852 349.656 193.295 349.872 190.902C350.023 189.231 350.276 187.535 350.622 185.861C350.969 184.183 351.33 182.935 351.619 181.932C351.837 181.176 352.058 180.458 352.273 179.759C352.847 177.891 353.389 176.127 353.725 174.115C353.8 173.666 353.956 172.731 353.637 171.628C353.452 170.987 353.134 170.385 352.693 169.837L353.12 169.492C353.607 170.097 353.958 170.764 354.163 171.475C354.518 172.698 354.348 173.717 354.266 174.207C353.924 176.254 353.377 178.035 352.797 179.921C352.583 180.617 352.363 181.332 352.145 182.085C351.859 183.079 351.502 184.316 351.159 185.972C350.816 187.626 350.567 189.302 350.418 190.951C350.205 193.314 350.237 194.849 350.247 195.353C350.253 195.622 350.254 195.678 350.168 195.765V195.765Z" fill="#F2F2F2"/>
<path d="M351.523 170.471C351.501 170.466 351.479 170.46 351.457 170.454C351.007 170.327 350.646 169.959 350.383 169.36C350.261 169.079 350.232 168.782 350.174 168.191C350.165 168.1 350.125 167.639 350.174 167.028C350.206 166.628 350.249 166.468 350.357 166.342C350.477 166.201 350.64 166.121 350.811 166.081C350.816 166.028 350.833 165.976 350.867 165.927C351.008 165.724 351.244 165.807 351.372 165.851C351.436 165.874 351.517 165.904 351.607 165.919C351.749 165.943 351.834 165.918 351.962 165.881C352.085 165.845 352.238 165.801 352.449 165.805C352.866 165.81 353.174 165.998 353.276 166.06C353.811 166.383 353.996 166.898 354.21 167.494C354.253 167.614 354.394 168.046 354.427 168.602C354.45 169.004 354.398 169.168 354.338 169.286C354.215 169.527 354.027 169.639 353.56 169.875C353.073 170.122 352.828 170.245 352.628 170.309C352.161 170.456 351.868 170.548 351.523 170.471V170.471V170.471Z" fill="#F2F2F2"/>
<path d="M50 195.287C50 195.497 50.2938 195.666 50.6596 195.666H365.548C365.913 195.666 366.207 195.497 366.207 195.287C366.207 195.077 365.913 194.908 365.548 194.908H50.6596C50.2938 194.908 50 195.077 50 195.287Z" fill="#CCCCCC"/>
<path d="M210.002 192.894L214.41 192.894L216.507 175.836L210.001 175.836L210.002 192.894Z" fill="#FFB6B6"/>
<path d="M225.105 192.794C225.243 193.026 225.315 193.774 225.315 194.044C225.315 194.873 224.645 195.545 223.819 195.545L210.167 195.545C209.603 195.545 209.146 195.086 209.146 194.521V193.951C209.146 193.951 208.471 192.237 209.861 190.125C209.861 190.125 211.589 191.779 214.171 189.188L214.933 187.804L220.445 191.848L223.5 192.226C224.169 192.308 224.762 192.213 225.105 192.794H225.105L225.105 192.794Z" fill="#2F2E41"/>
<path d="M190.195 192.894L194.604 192.894L196.701 175.836L190.194 175.836L190.195 192.894Z" fill="#FFB6B6"/>
<path d="M205.299 192.794C205.436 193.026 205.509 193.774 205.509 194.044C205.509 194.873 204.839 195.545 204.012 195.545L190.36 195.545C189.796 195.545 189.339 195.086 189.339 194.521V193.951C189.339 193.951 188.664 192.237 190.054 190.125C190.054 190.125 191.783 191.779 194.365 189.188L195.126 187.804L200.639 191.848L203.694 192.226C204.362 192.308 204.955 192.213 205.299 192.794H205.299L205.299 192.794Z" fill="#2F2E41"/>
<path d="M209.303 76.4205L210.14 84.2562L200.376 83.4166L202.05 76.1406L209.303 76.4205Z" fill="#FFB6B6"/>
<path opacity="0.1" d="M209.303 76.4205L210.14 84.2562L200.376 83.4166L202.05 76.1406L209.303 76.4205Z" fill="black"/>
<path d="M205.816 77.3998C209.36 77.3998 212.232 74.5181 212.232 70.9633C212.232 67.4086 209.36 64.5269 205.816 64.5269C202.273 64.5269 199.4 67.4086 199.4 70.9633C199.4 74.5181 202.273 77.3998 205.816 77.3998Z" fill="#FFB6B6"/>
<path d="M210.001 81.0377L220.741 87.3343L217.222 104.405L219.625 127.352L217.951 183.601L207.629 182.482L206.235 134.628L198.145 184.161H188.122L189.776 130.71L194.797 108.043L191.728 83.4164L201.074 80.478L210.001 81.0377Z" fill="#2F2E41"/>
<path d="M210.419 72.7824C210.419 72.7824 210.977 70.8235 212.233 70.9634C213.488 71.1033 213.767 69.984 213.488 69.4243C213.209 68.8646 212.651 66.0661 212.651 66.0661C212.651 66.0661 212.93 64.1072 211.256 63.8273C209.582 63.5475 209.025 63.2677 208.746 62.708C208.467 62.1483 204.282 61.5886 202.887 62.4281C201.492 63.2677 200.377 64.8784 199.4 65.3323C198.424 65.7863 197.587 66.6258 198.145 68.025C198.703 69.4243 199.512 72.1609 199.512 72.1609C199.512 72.1609 200.935 71.663 201.214 72.5026C201.492 73.3421 200.377 72.2227 201.771 69.984C203.166 67.7452 203.166 65.5064 205.398 66.346C207.63 67.1855 210.14 66.9057 209.861 68.5847C209.582 70.2638 210.419 72.7824 210.419 72.7824L210.419 72.7824Z" fill="#2F2E41"/>
<path d="M215.202 122.332C213.86 123.759 213.505 125.61 214.41 126.467C215.315 127.324 217.136 126.862 218.479 125.435C219.024 124.873 219.426 124.188 219.652 123.437L225.265 117.322L222.348 114.741L217.124 121.043C216.39 121.313 215.731 121.755 215.202 122.332Z" fill="#FFB6B6"/>
<path d="M220.628 87.1943L230.081 103.35L231.481 110.725L222.378 122.315L218.527 117.398L223.079 110.725L215.727 97.7305L220.628 87.1943Z" fill="#2F2E41"/>
<path d="M194.051 120.828V101.78C194.051 98.8765 196.405 96.5146 199.299 96.5146H228.325C231.219 96.5146 233.574 98.8765 233.574 101.78V120.828C233.574 123.731 231.219 126.093 228.325 126.093H199.299C196.405 126.093 194.051 123.731 194.051 120.828Z" fill="#FF6B35"/>
<path d="M208.166 108.537H218.204V106.02H208.166V108.537Z" fill="#3F3D56"/>
<path d="M217.381 125.924V120.89H209.225V125.924H217.381Z" fill="#3F3D56"/>
<path d="M217.764 101.718V96.6836H209.608V101.718H217.764Z" fill="#3F3D56"/>
<path d="M196.988 118.695C198.331 120.121 198.686 121.972 197.781 122.829C196.876 123.686 195.054 123.225 193.711 121.798C193.167 121.235 192.765 120.55 192.539 119.799L186.925 113.684L189.842 111.103L195.066 117.405C195.8 117.675 196.459 118.117 196.988 118.695Z" fill="#FFB6B6"/>
<path d="M191.563 83.5566L182.11 99.7122L180.709 107.087L189.812 118.677L193.663 113.76L189.112 107.087L196.464 94.0928L191.563 83.5566Z" fill="#2F2E41"/>
<path d="M74.0237 160.591C78.7582 160.591 82.5962 157.24 82.5962 153.106C82.5962 148.972 78.7582 145.621 74.0237 145.621C69.2892 145.621 65.4512 148.972 65.4512 153.106C65.4512 157.24 69.2892 160.591 74.0237 160.591Z" fill="#E6E6E6"/>
</g>
</g>
<defs>
<filter id="filter0_dd_163_1270" x="0" y="0" width="420" height="381" filterUnits="userSpaceOnUse" color-interpolation-filters="sRGB">
<feFlood flood-opacity="0" result="BackgroundImageFix"/>
<feColorMatrix in="SourceAlpha" type="matrix" values="0 0 0 0 0 0 0 0 0 0 0 0 0 0 0 0 0 0 127 0" result="hardAlpha"/>
<feOffset dy="2"/>
<feGaussianBlur stdDeviation="2"/>
<feColorMatrix type="matrix" values="0 0 0 0 0 0 0 0 0 0 0 0 0 0 0 0 0 0 0.08 0"/>
<feBlend mode="normal" in2="BackgroundImageFix" result="effect1_dropShadow_163_1270"/>
<feColorMatrix in="SourceAlpha" type="matrix" values="0 0 0 0 0 0 0 0 0 0 0 0 0 0 0 0 0 0 127 0" result="hardAlpha"/>
<feOffset/>
<feGaussianBlur stdDeviation="3"/>
<feColorMatrix type="matrix" values="0 0 0 0 0 0 0 0 0 0 0 0 0 0 0 0 0 0 0.02 0"/>
<feBlend mode="normal" in2="effect1_dropShadow_163_1270" result="effect2_dropShadow_163_1270"/>
<feBlend mode="normal" in="SourceGraphic" in2="effect2_dropShadow_163_1270" result="shape"/>
</filter>
<clipPath id="clip0_163_1270">
<rect width="319" height="134" fill="white" transform="translate(50 62)"/>
</clipPath>
</defs>
</svg>
