<svg width="361" height="203" viewBox="0 0 361 236" fill="none" xmlns="http://www.w3.org/2000/svg">
<path d="M346.628 121.36V145.007H359.956" stroke="#263238" stroke-linecap="round" stroke-linejoin="round"/>
<path d="M315.136 72.2195V62.7424H325.011V92.3568H331.089V123.619H337.167V80.8416H346.628V118.501" stroke="#263238" stroke-linecap="round" stroke-linejoin="round"/>
<path d="M18.8975 107.076V92.3568H28.7722V112.098H38.647V77.5468H61.4358V108.809H81.9426V67.6792H98.653V107.167H115.271V19.9656H125.243V56.1584H133.598V5.15564H154.105V112.098H181.453V41.3541H198.92V82.4835H214.111V28.1915H240.696V87.4202H254.373V52.8692H265.005V75.9051H275.637V47.9325H281.715V19.9656H290.833V99.4108H299.162V79.1943H301.465V123.619H315.136V74.7898" stroke="#263238" stroke-linecap="round" stroke-linejoin="round"/>
<path d="M5.9834 145.007H18.8974V109.646" stroke="#263238" stroke-linecap="round" stroke-linejoin="round"/>
<path d="M319.198 132.348H311.882V140.444H319.198V132.348Z" stroke="#263238" stroke-linecap="round" stroke-linejoin="round"/>
<path d="M331.217 132.348H323.9V140.444H331.217V132.348Z" stroke="#263238" stroke-linecap="round" stroke-linejoin="round"/>
<path d="M29.2169 132.348H21.9004V140.444H29.2169V132.348Z" stroke="#263238" stroke-linecap="round" stroke-linejoin="round"/>
<path d="M17.7208 150.266H10.4043V158.362H17.7208V150.266Z" stroke="#263238" stroke-linecap="round" stroke-linejoin="round"/>
<path d="M319.198 145.641H311.882V153.737H319.198V145.641Z" stroke="#263238" stroke-linecap="round" stroke-linejoin="round"/>
<path d="M301.644 192.166C302.974 192.811 306.223 192.732 306.249 192.732C306.275 192.732 305.548 190.377 305.487 190.235C304.775 188.588 302.519 185.859 300.682 186.136C300.379 186.191 300.089 186.315 299.832 186.502C299.575 186.689 299.357 186.933 299.191 187.219C299.025 187.505 298.915 187.827 298.869 188.163C298.822 188.5 298.841 188.843 298.922 189.171C299.209 190.575 300.513 191.616 301.644 192.166Z" fill="#92E3A9"/>
<path d="M302.764 202.582C304.146 202.809 307.047 201.875 307.277 201.801C307.753 203.638 308.341 205.437 309.037 207.185C309.436 208.21 309.866 209.223 310.306 210.237C310.045 209.806 309.794 209.427 309.764 209.376C308.684 207.995 305.86 206.025 304.136 206.823C303.855 206.964 303.605 207.169 303.401 207.425C303.197 207.68 303.045 207.981 302.953 208.306C302.861 208.632 302.833 208.975 302.869 209.313C302.905 209.652 303.006 209.978 303.164 210.271C303.793 211.539 305.297 212.167 306.52 212.36C307.743 212.552 310.25 211.822 310.905 211.618C311.079 212.003 311.248 212.393 311.416 212.778C312.261 214.63 313.105 216.47 313.883 218.31C314.159 218.955 314.394 219.6 314.66 220.251C314.425 219.866 314.22 219.549 314.189 219.504C313.105 218.123 310.281 216.153 308.561 216.951C308.282 217.093 308.032 217.298 307.829 217.554C307.625 217.81 307.473 218.11 307.381 218.435C307.289 218.76 307.261 219.103 307.296 219.441C307.332 219.78 307.432 220.106 307.589 220.399C308.219 221.667 309.728 222.289 310.946 222.488C312.163 222.686 314.435 222.023 315.213 221.78C315.453 222.454 315.694 223.127 315.898 223.79C316.031 224.243 316.185 224.673 316.292 225.137C316.4 225.601 316.523 226.054 316.635 226.501C316.824 227.379 317.024 228.279 317.193 229.14C317.311 229.734 317.413 230.306 317.52 230.883C317.254 230.232 316.707 228.981 316.651 228.879C315.77 227.328 313.248 224.916 311.452 225.415C311.157 225.509 310.883 225.671 310.647 225.889C310.412 226.108 310.22 226.379 310.085 226.685C309.95 226.99 309.875 227.324 309.863 227.664C309.852 228.004 309.905 228.343 310.02 228.658C310.47 230.017 311.877 230.889 313.054 231.291C314.358 231.727 317.234 231.325 317.597 231.291C317.766 232.242 317.925 233.171 318.063 234.048C318.17 234.699 318.262 235.322 318.349 235.922H319.5C319.393 235.254 319.275 234.558 319.142 233.827C318.973 232.859 318.769 231.829 318.554 230.77C319.422 230.392 320.268 229.954 321.087 229.457C322.038 230.589 324.463 231.919 324.781 232.089C324.448 232.989 324.121 233.861 323.798 234.676L323.287 235.922H324.561C324.658 235.667 324.755 235.412 324.852 235.146C325.19 234.235 325.538 233.255 325.876 232.242C326.223 232.321 329.073 232.967 330.404 232.633C331.606 232.333 333.064 231.58 333.607 230.261C333.742 229.955 333.818 229.621 333.83 229.281C333.842 228.941 333.789 228.602 333.675 228.286C333.56 227.97 333.387 227.684 333.167 227.447C332.946 227.21 332.683 227.026 332.394 226.909C330.639 226.258 327.958 228.46 326.981 229.932C326.919 230.023 326.387 231.064 326.06 231.693C326.198 231.274 326.341 230.878 326.479 230.447C326.761 229.604 326.991 228.749 327.298 227.832C327.416 227.385 327.538 226.937 327.661 226.479C327.784 226.02 327.881 225.533 327.994 225.058C328.229 223.926 328.424 222.793 328.597 221.661C329.263 221.933 331.667 222.85 332.89 222.754C334.113 222.657 335.668 222.159 336.385 220.948C336.561 220.669 336.682 220.352 336.74 220.018C336.799 219.684 336.793 219.34 336.723 219.008C336.654 218.677 336.522 218.365 336.337 218.094C336.152 217.822 335.917 217.597 335.648 217.432C334 216.492 331.043 218.225 329.877 219.515C329.805 219.595 329.058 220.648 328.659 221.214C328.756 220.517 328.858 219.832 328.935 219.125C329.165 217.092 329.334 215.032 329.518 212.971C329.575 212.343 329.636 211.714 329.698 211.086C329.933 211.182 332.767 212.343 334.139 212.218C335.367 212.127 336.917 211.652 337.628 210.412C337.805 210.133 337.927 209.817 337.986 209.482C338.044 209.148 338.039 208.804 337.969 208.472C337.9 208.14 337.768 207.829 337.582 207.557C337.396 207.286 337.161 207.06 336.891 206.896C335.244 205.957 332.286 207.689 331.125 208.98C331.033 209.076 329.964 210.559 329.708 210.956C329.836 209.568 329.979 208.193 330.173 206.84C330.422 205.012 330.778 203.204 331.238 201.428C331.35 201.473 334.307 202.701 335.704 202.588C336.937 202.498 338.482 201.994 339.199 200.782C339.375 200.503 339.496 200.186 339.554 199.852C339.613 199.518 339.607 199.174 339.538 198.843C339.468 198.511 339.336 198.2 339.151 197.928C338.966 197.657 338.731 197.431 338.462 197.266C336.815 196.327 333.857 198.059 332.691 199.35C332.599 199.452 331.447 201.048 331.258 201.354C331.258 201.252 331.304 201.144 331.33 201.043C331.839 199.275 332.488 197.56 333.269 195.919C333.688 195.008 334.139 194.164 334.589 193.349C335.101 193.643 337.531 194.94 338.82 194.996C340.11 195.053 341.639 194.742 342.468 193.621C342.672 193.365 342.825 193.066 342.917 192.741C343.009 192.416 343.038 192.073 343.002 191.735C342.966 191.397 342.866 191.071 342.709 190.779C342.552 190.486 342.341 190.233 342.09 190.037C340.555 188.905 337.439 190.269 336.149 191.407C336.078 191.469 335.423 192.188 334.957 192.72C335.167 192.358 335.377 191.979 335.581 191.633C336.359 190.343 337.142 189.216 337.838 188.237C338.242 187.671 338.616 187.178 338.969 186.714C339.618 186.714 342.238 186.612 343.384 186.017C344.53 185.423 345.779 184.353 346.05 182.938C346.124 182.607 346.134 182.264 346.08 181.929C346.026 181.594 345.908 181.275 345.736 180.994C345.563 180.712 345.338 180.474 345.077 180.295C344.815 180.116 344.523 180 344.218 179.954C342.376 179.733 340.191 182.524 339.516 184.195C339.46 184.342 338.784 186.714 338.815 186.714H338.887C338.539 187.155 338.17 187.625 337.776 188.152C337.055 189.131 336.242 190.246 335.448 191.52C334.569 192.886 333.763 194.308 333.033 195.778C332.213 197.42 331.528 199.14 330.987 200.918C330.987 200.918 330.987 200.963 330.987 200.98C330.987 200.38 330.987 198.716 330.961 198.574C330.746 196.763 329.37 193.394 327.554 193.02C327.251 192.967 326.941 192.984 326.645 193.072C326.348 193.159 326.072 193.315 325.833 193.529C325.595 193.742 325.4 194.009 325.261 194.312C325.122 194.614 325.042 194.946 325.026 195.285C324.919 196.723 325.86 198.167 326.781 199.078C327.804 200.103 330.705 201.099 330.936 201.178C330.417 203.001 330.01 204.86 329.718 206.743C329.539 207.842 329.391 208.951 329.258 210.067C329.258 209.546 329.258 209.082 329.258 209.019C329.048 207.202 327.671 203.834 325.85 203.46C325.547 203.408 325.238 203.427 324.942 203.515C324.647 203.603 324.371 203.759 324.133 203.972C323.895 204.186 323.7 204.452 323.56 204.754C323.42 205.055 323.34 205.386 323.322 205.724C323.215 207.168 324.162 208.612 325.082 209.523C326.003 210.435 328.459 211.346 329.109 211.578C329.063 212.003 329.012 212.433 328.966 212.858C328.741 214.918 328.526 216.968 328.265 218.978C328.168 219.685 328.055 220.376 327.943 221.067C327.943 220.608 327.943 220.217 327.917 220.161C327.707 218.349 326.331 214.981 324.509 214.607C324.207 214.554 323.897 214.572 323.601 214.66C323.305 214.748 323.029 214.904 322.791 215.117C322.552 215.331 322.357 215.597 322.218 215.9C322.079 216.202 321.998 216.533 321.982 216.872C321.874 218.31 322.821 219.753 323.742 220.665C324.663 221.576 326.883 222.403 327.651 222.68C327.518 223.382 327.385 224.09 327.226 224.769C327.103 225.228 327.022 225.681 326.878 226.139C326.735 226.598 326.617 227.039 326.484 227.481C326.208 228.33 325.927 229.179 325.635 230.023C325.435 230.589 325.241 231.155 325.042 231.676C325.139 230.974 325.313 229.593 325.313 229.479C325.293 227.868 324.9 226.289 324.172 224.894C324.177 224.716 324.166 224.537 324.141 224.361C324.103 224.024 324 223.698 323.841 223.407C323.681 223.115 323.468 222.864 323.216 222.67C322.963 222.476 322.676 222.342 322.373 222.279C322.071 222.215 321.76 222.223 321.46 222.301C319.674 222.827 318.539 226.303 318.452 228.132C318.452 228.239 318.513 229.417 318.564 230.159C318.472 229.728 318.39 229.309 318.293 228.868C318.104 227.99 317.894 227.124 317.669 226.19C317.551 225.743 317.423 225.29 317.3 224.831C317.178 224.373 317.014 223.914 316.865 223.45C316.512 222.38 316.108 221.31 315.678 220.246C316.369 220.065 318.82 219.374 319.807 218.547C320.795 217.721 321.823 216.356 321.818 214.907C321.826 214.567 321.768 214.229 321.65 213.915C321.532 213.601 321.356 213.318 321.132 213.084C320.909 212.85 320.644 212.671 320.354 212.558C320.064 212.445 319.756 212.4 319.449 212.427C317.607 212.648 316.011 215.892 315.678 217.687C315.678 217.794 315.545 219.113 315.499 219.838C315.238 219.198 314.988 218.559 314.691 217.925C313.867 216.09 312.982 214.262 312.133 212.439L311.34 210.74C311.59 210.678 314.517 209.925 315.622 208.985C316.599 208.153 317.638 206.794 317.633 205.351C317.641 205.01 317.584 204.672 317.467 204.357C317.349 204.042 317.172 203.758 316.949 203.524C316.726 203.29 316.46 203.11 316.17 202.996C315.879 202.883 315.571 202.838 315.264 202.865C313.422 203.086 311.826 206.33 311.493 208.125C311.493 208.261 311.309 210.152 311.294 210.638C310.715 209.399 310.147 208.164 309.631 206.919C308.928 205.243 308.325 203.518 307.825 201.756C307.937 201.728 311.002 200.958 312.128 199.995C313.11 199.169 314.149 197.804 314.138 196.361C314.147 196.02 314.091 195.681 313.974 195.366C313.856 195.051 313.68 194.766 313.456 194.532C313.233 194.297 312.967 194.118 312.676 194.004C312.385 193.891 312.076 193.847 311.769 193.875C309.933 194.096 308.331 197.34 307.999 199.135C307.999 199.276 307.809 201.314 307.799 201.682C307.799 201.58 307.733 201.478 307.707 201.377C307.248 199.594 306.934 197.769 306.771 195.925C306.663 194.906 306.617 193.926 306.592 192.97C307.175 192.896 309.835 192.5 310.941 191.764C312.046 191.028 313.166 189.828 313.299 188.367C313.341 188.029 313.318 187.686 313.232 187.359C313.146 187.032 312.999 186.729 312.8 186.469C312.602 186.209 312.356 185.998 312.078 185.85C311.801 185.702 311.499 185.62 311.191 185.61C309.339 185.61 307.431 188.639 306.919 190.382C306.919 190.473 306.709 191.469 306.581 192.2C306.581 191.769 306.581 191.322 306.581 190.914C306.581 189.363 306.673 187.942 306.76 186.685C306.817 185.972 306.878 185.332 306.945 184.727C307.482 184.319 309.621 182.649 310.281 181.454C310.941 180.26 311.447 178.624 310.971 177.254C310.868 176.933 310.704 176.64 310.492 176.394C310.279 176.148 310.022 175.954 309.738 175.825C309.453 175.696 309.147 175.634 308.839 175.644C308.532 175.654 308.23 175.736 307.953 175.884C306.31 176.823 305.875 180.492 306.146 182.292C306.146 182.451 306.791 184.84 306.822 184.823L306.852 184.795C306.781 185.361 306.709 185.995 306.643 186.674C306.53 187.931 306.412 189.352 306.382 190.909C306.33 192.584 306.366 194.26 306.489 195.93C306.619 197.802 306.9 199.657 307.328 201.473C307.328 201.473 307.328 201.518 307.328 201.541C307.037 201.031 306.177 199.65 306.1 199.548C305.021 198.167 302.196 196.196 300.472 196.995C300.192 197.137 299.943 197.342 299.739 197.598C299.536 197.854 299.384 198.154 299.292 198.479C299.2 198.804 299.171 199.147 299.207 199.485C299.243 199.823 299.343 200.15 299.5 200.442C300.037 201.762 301.536 202.384 302.764 202.582Z" fill="#92E3A9"/>
<path d="M334.522 192.958C334.522 192.958 335.11 190.569 335.131 190.411C335.361 188.599 334.839 184.947 333.171 184.059C332.89 183.919 332.586 183.846 332.279 183.844C331.971 183.843 331.666 183.914 331.385 184.052C331.103 184.19 330.851 184.392 330.645 184.644C330.439 184.897 330.283 185.195 330.188 185.519C329.743 186.878 330.306 188.548 330.981 189.692C331.769 191.039 334.517 192.958 334.522 192.958Z" fill="#92E3A9"/>
<path d="M5.1289 192.166C6.45918 192.811 9.73372 192.732 9.73372 192.732C9.73372 192.732 9.03277 190.377 8.97137 190.235C8.26018 188.588 6.00382 185.859 4.167 186.136C3.8637 186.191 3.57418 186.315 3.31736 186.502C3.06054 186.689 2.84218 186.933 2.67656 187.22C2.51094 187.506 2.40178 187.828 2.3562 188.164C2.31062 188.5 2.32965 188.843 2.41205 189.171C2.69346 190.575 3.99816 191.616 5.1289 192.166Z" fill="#92E3A9"/>
<path d="M6.25464 202.582C7.63098 202.809 10.532 201.875 10.7623 201.801C11.2409 203.631 11.8289 205.424 12.5223 207.168C12.9214 208.193 13.3512 209.206 13.7963 210.219C13.5303 209.789 13.2847 209.41 13.254 209.359C12.1693 207.978 9.34499 206.007 7.62586 206.806C7.34607 206.948 7.0964 207.153 6.89307 207.409C6.68973 207.665 6.53728 207.965 6.4456 208.29C6.35393 208.615 6.32508 208.958 6.36094 209.296C6.39679 209.634 6.49655 209.961 6.65373 210.253C7.28305 211.522 8.79241 212.15 10.0101 212.342C11.2279 212.535 13.74 211.805 14.3949 211.601C14.5689 211.986 14.7378 212.376 14.9066 212.761C15.7457 214.613 16.5899 216.453 17.3676 218.292C17.6439 218.938 17.8793 219.583 18.1453 220.234C17.91 219.849 17.7104 219.532 17.6746 219.487C16.5899 218.106 13.7656 216.135 12.0465 216.934C11.7667 217.076 11.517 217.281 11.3137 217.537C11.1104 217.793 10.9579 218.093 10.8662 218.418C10.7746 218.743 10.7457 219.086 10.7816 219.424C10.8174 219.762 10.9172 220.089 11.0744 220.381C11.7037 221.65 13.213 222.272 14.4359 222.47C15.6587 222.669 17.9202 222.006 18.6979 221.763C18.9384 222.437 19.1789 223.11 19.3835 223.773C19.5165 224.225 19.67 224.656 19.7775 225.12C19.8849 225.584 20.0077 226.037 20.1203 226.484C20.3096 227.362 20.5142 228.262 20.678 229.123C20.7957 229.717 20.9031 230.289 21.0054 230.866C20.7394 230.215 20.1919 228.964 20.1356 228.862C19.2556 227.311 16.7332 224.899 14.9373 225.397C14.6411 225.496 14.367 225.662 14.133 225.886C13.899 226.11 13.7103 226.386 13.5794 226.696C13.4485 227.006 13.3783 227.343 13.3733 227.685C13.3684 228.027 13.4288 228.366 13.5507 228.681C13.9959 230.04 15.4029 230.912 16.5848 231.313C17.8844 231.749 20.7598 231.347 21.1231 231.313C21.292 232.265 21.4557 233.193 21.5938 234.071C21.6962 234.722 21.7883 235.344 21.8752 235.944H23.0316C22.919 235.276 22.8013 234.58 22.6683 233.85C22.4994 232.882 22.2999 231.851 22.085 230.793C22.9513 230.413 23.7955 229.975 24.6125 229.479C25.5642 230.611 27.9894 231.942 28.3066 232.112C27.9741 233.012 27.6466 233.884 27.3243 234.699C27.1554 235.129 26.9866 235.537 26.8126 235.944H28.0303C28.1276 235.69 28.2248 235.435 28.322 235.169C28.6648 234.257 29.0076 233.278 29.3453 232.265C29.6932 232.344 32.5431 232.989 33.8734 232.655C35.0757 232.355 36.5339 231.602 37.0763 230.283C37.2129 229.978 37.2897 229.644 37.3019 229.304C37.314 228.963 37.2611 228.624 37.1467 228.308C37.0323 227.991 36.8589 227.705 36.6378 227.468C36.4167 227.231 36.1529 227.048 35.8637 226.932C34.1087 226.281 31.4328 228.483 30.4504 229.955C30.389 230.045 29.8569 231.087 29.5295 231.715C29.6727 231.296 29.8109 230.9 29.949 230.47C30.2304 229.626 30.4607 228.772 30.7677 227.854C30.8853 227.407 31.0081 226.96 31.1309 226.501C31.2537 226.043 31.3509 225.556 31.4635 225.08C31.704 223.948 31.8933 222.816 32.0672 221.684C32.7375 221.955 35.1371 222.872 36.36 222.776C37.5828 222.68 39.1382 222.182 39.8545 220.97C40.0314 220.692 40.1532 220.375 40.212 220.041C40.2707 219.706 40.2652 219.362 40.1957 219.03C40.1262 218.699 39.9942 218.387 39.8085 218.115C39.6228 217.844 39.3874 217.619 39.1177 217.455C37.4702 216.515 34.5129 218.247 33.3464 219.538C33.2747 219.617 32.5277 220.67 32.1286 221.236C32.2259 220.54 32.3282 219.855 32.4049 219.147C32.6352 217.115 32.8091 215.054 32.9882 212.993C33.0445 212.365 33.1059 211.737 33.1673 211.108C33.4026 211.204 36.2372 212.365 37.6084 212.24C38.8414 212.15 40.3866 211.674 41.0978 210.435C41.2747 210.156 41.3965 209.839 41.4553 209.505C41.514 209.171 41.5085 208.826 41.439 208.495C41.3695 208.163 41.2375 207.851 41.0518 207.58C40.8661 207.308 40.6307 207.083 40.361 206.919C38.7187 205.979 35.7562 207.711 34.5948 209.002C34.5078 209.098 33.4333 210.582 33.1775 210.978C33.3105 209.591 33.4538 208.215 33.6431 206.862C33.8936 205.035 34.2508 203.227 34.7125 201.45C34.8199 201.495 37.7568 202.724 39.1791 202.611C40.4071 202.52 41.9574 202.016 42.6686 200.805C42.8446 200.526 42.9658 200.209 43.0241 199.875C43.0825 199.541 43.0767 199.197 43.0073 198.865C42.9378 198.534 42.8062 198.222 42.6209 197.951C42.4356 197.679 42.2009 197.454 41.9318 197.289C40.2843 196.349 37.327 198.082 36.1655 199.372C36.0734 199.474 34.9171 201.071 34.7278 201.376C34.7534 201.275 34.7739 201.167 34.7994 201.065C35.3084 199.297 35.9573 197.583 36.7386 195.942C37.1581 195.03 37.6084 194.187 38.0637 193.371C38.5754 193.666 41.0057 194.962 42.2899 195.019C43.5742 195.075 45.1091 194.764 45.9431 193.643C46.1457 193.387 46.2975 193.087 46.3886 192.762C46.4797 192.437 46.5081 192.095 46.4719 191.757C46.4357 191.419 46.3358 191.093 46.1786 190.801C46.0214 190.508 45.8104 190.256 45.5594 190.059C44.0244 188.927 40.9085 190.292 39.6192 191.43C39.5475 191.492 38.8977 192.211 38.427 192.743C38.6368 192.381 38.8466 192.001 39.0563 191.656C39.8289 190.365 40.5913 189.239 41.3076 188.259C41.7118 187.693 42.0853 187.201 42.4383 186.736C43.0881 186.736 45.7078 186.634 46.8538 186.04C47.9999 185.446 49.2484 184.376 49.5195 182.96C49.5934 182.63 49.6037 182.286 49.5495 181.951C49.4954 181.616 49.3781 181.298 49.2053 181.016C49.0325 180.735 48.8081 180.497 48.5466 180.318C48.2852 180.139 47.9925 180.022 47.6878 179.977C45.8459 179.756 43.6612 182.547 42.9858 184.217C42.9295 184.364 42.2541 186.736 42.2899 186.736H42.3258C41.9778 187.178 41.6095 187.648 41.2155 188.174C40.4941 189.154 39.6806 190.269 38.8875 191.543C38.0223 192.894 37.2263 194.299 36.5032 195.749C35.6832 197.391 34.9982 199.112 34.4566 200.89V200.952C34.4566 200.352 34.4566 198.687 34.4259 198.546C34.211 196.734 32.8398 193.366 31.0184 192.992C30.7154 192.938 30.4057 192.956 30.1092 193.043C29.8128 193.131 29.5364 193.287 29.2979 193.5C29.0595 193.714 28.8644 193.981 28.7253 194.283C28.5863 194.586 28.5064 194.918 28.4908 195.257C28.3834 196.695 29.3299 198.138 30.2509 199.05C31.2742 200.074 34.1701 201.071 34.4004 201.15C33.8836 202.973 33.4768 204.832 33.1826 206.715C33.0036 207.813 32.8603 208.923 32.7221 210.038C32.7221 209.517 32.7221 209.053 32.7221 208.991C32.5073 207.174 31.1309 203.805 29.3095 203.431C29.0067 203.38 28.6976 203.398 28.4018 203.487C28.1061 203.575 27.8303 203.731 27.5922 203.944C27.3541 204.157 27.1591 204.423 27.0195 204.725C26.88 205.027 26.799 205.358 26.7819 205.696C26.6796 207.14 27.621 208.583 28.542 209.495C29.463 210.406 31.9189 211.318 32.5687 211.55C32.5226 211.974 32.4714 212.405 32.4254 212.829C32.2003 214.89 31.9905 216.939 31.7244 218.949C31.6323 219.657 31.5147 220.347 31.4021 221.038C31.4021 220.58 31.4021 220.189 31.4021 220.132C31.1872 218.321 29.8109 214.952 27.9945 214.579C27.6916 214.525 27.3818 214.542 27.0854 214.63C26.789 214.718 26.5125 214.873 26.2741 215.087C26.0357 215.3 25.8406 215.567 25.7015 215.87C25.5624 216.172 25.4825 216.504 25.467 216.843C25.3595 218.281 26.301 219.725 27.2219 220.636C28.1429 221.548 30.3635 222.374 31.136 222.652C30.9979 223.354 30.8649 224.061 30.7063 224.741C30.5886 225.199 30.5016 225.652 30.3583 226.111C30.2151 226.569 30.0974 227.011 29.9644 227.452C29.6881 228.302 29.4067 229.151 29.115 229.994C28.9206 230.561 28.7211 231.127 28.5215 231.647C28.6239 230.945 28.7927 229.564 28.7927 229.451C28.7731 227.84 28.3803 226.261 27.6517 224.865C27.6566 224.687 27.6464 224.509 27.621 224.333C27.5832 223.995 27.4816 223.67 27.3227 223.379C27.1638 223.087 26.9512 222.836 26.6987 222.642C26.4463 222.448 26.1596 222.314 25.8575 222.25C25.5553 222.187 25.2445 222.194 24.9451 222.272C23.1544 222.799 22.0185 226.275 21.9366 228.104C21.9366 228.211 21.9929 229.389 22.0441 230.13C21.952 229.7 21.8701 229.281 21.7729 228.839C21.5836 227.962 21.3738 227.096 21.1538 226.162C21.031 225.714 20.9082 225.262 20.7803 224.803C20.6524 224.344 20.4938 223.886 20.3505 223.422C19.9975 222.352 19.5882 221.282 19.1584 220.217C19.8542 220.036 22.305 219.345 23.2874 218.519C24.2697 217.692 25.3084 216.328 25.2981 214.879C25.3056 214.539 25.2484 214.201 25.1302 213.887C25.012 213.573 24.8356 213.289 24.6123 213.056C24.3889 212.822 24.1237 212.643 23.8338 212.53C23.5438 212.416 23.2357 212.372 22.9292 212.399C21.0873 212.62 19.491 215.864 19.1584 217.658C19.1584 217.766 19.0254 219.085 18.9793 219.81C18.7184 219.17 18.4677 218.53 18.1709 217.896C17.3472 216.062 16.4671 214.233 15.6127 212.41C15.3415 211.844 15.101 211.278 14.8196 210.712C15.0652 210.65 17.9918 209.897 19.097 208.957C20.0742 208.125 21.1436 206.766 21.1078 205.322C21.1159 204.982 21.0592 204.643 20.9414 204.328C20.8236 204.014 20.6472 203.73 20.4238 203.496C20.2004 203.261 19.9349 203.081 19.6446 202.968C19.3543 202.855 19.0457 202.81 18.7388 202.837C16.8969 203.058 15.3006 206.302 14.968 208.096C14.9424 208.232 14.7889 210.123 14.7685 210.61C14.1903 209.37 13.6224 208.136 13.1056 206.891C12.4032 205.215 11.7999 203.49 11.2995 201.727C11.4172 201.699 14.4768 200.929 15.6024 199.967C16.5848 199.14 17.6234 197.776 17.6132 196.332C17.6221 195.992 17.5661 195.653 17.4488 195.339C17.3316 195.024 17.1557 194.74 16.9327 194.506C16.7097 194.271 16.4445 194.091 16.1545 193.978C15.8645 193.864 15.5561 193.82 15.2494 193.847C13.4075 194.068 11.8111 197.312 11.4734 199.106C11.4479 199.248 11.2841 201.286 11.279 201.654C11.2483 201.552 11.2074 201.45 11.1818 201.348C10.7251 199.565 10.4118 197.741 10.2455 195.896C10.1432 194.877 10.092 193.898 10.0664 192.941C10.6497 192.867 13.3154 192.471 14.4154 191.735C15.5155 190.999 16.6411 189.799 16.7741 188.338C16.8066 187.997 16.7735 187.652 16.6769 187.327C16.5803 187.001 16.4224 186.701 16.2136 186.448C16.0047 186.194 15.7498 185.992 15.4654 185.856C15.181 185.719 14.8738 185.651 14.5638 185.655C12.7167 185.655 10.8032 188.684 10.2967 190.427C10.266 190.518 10.0818 191.514 9.95385 192.245C9.95385 191.814 9.95385 191.367 9.95385 190.96C9.95385 189.408 10.0408 187.987 10.1329 186.731C10.1841 186.017 10.2506 185.378 10.312 184.772C10.8237 184.364 12.993 182.694 13.6479 181.5C14.3029 180.305 14.8196 178.669 14.3387 177.299C14.235 176.978 14.0716 176.686 13.8591 176.439C13.6466 176.193 13.3896 175.999 13.105 175.87C12.8204 175.741 12.5144 175.679 12.2068 175.69C11.8993 175.7 11.5972 175.781 11.3199 175.929C9.67756 176.869 9.24266 180.537 9.51384 182.337C9.53942 182.496 10.1585 184.885 10.1892 184.868L10.2199 184.84C10.1483 185.406 10.0766 186.04 10.0101 186.719C9.89757 187.976 9.77989 189.397 9.74919 190.954C9.69781 192.629 9.73368 194.305 9.85664 195.976C9.98423 197.843 10.2616 199.694 10.6855 201.507V201.575C10.3939 201.065 9.53942 199.684 9.46267 199.582C8.37798 198.2 5.55369 196.23 3.83455 197.029C3.55477 197.171 3.3051 197.376 3.10176 197.632C2.89843 197.887 2.74597 198.188 2.6543 198.513C2.56262 198.838 2.53377 199.181 2.56963 199.519C2.60549 199.857 2.70524 200.183 2.86242 200.476C3.52245 201.761 5.03181 202.384 6.25464 202.582Z" fill="#92E3A9"/>
<path d="M38.0074 192.958C38.0381 192.958 38.6009 190.569 38.6163 190.411C38.8465 188.599 38.3246 184.947 36.6567 184.059C36.3761 183.919 36.072 183.846 35.7642 183.844C35.4564 183.843 35.1519 183.914 34.8704 184.052C34.5889 184.19 34.3369 184.392 34.1307 184.644C33.9245 184.897 33.7688 185.195 33.6738 185.519C33.2286 186.878 33.7966 188.548 34.4668 189.692C35.2548 191.039 38.0074 192.958 38.0074 192.958Z" fill="#92E3A9"/>
<path d="M37.6907 29.4314H294.768C296.187 29.4314 297.548 30.0553 298.552 31.1658C299.556 32.2764 300.12 33.7826 300.12 35.3531V221.752H32.3389V35.3531C32.3389 33.7826 32.9027 32.2764 33.9064 31.1658C34.91 30.0553 36.2713 29.4314 37.6907 29.4314Z" fill="#263238" stroke="#263238" stroke-miterlimit="10"/>
<path d="M289.108 42.4977H43.2822V203.381H289.108V42.4977Z" fill="white" stroke="#263238" stroke-linecap="round" stroke-linejoin="round"/>
<path d="M129.956 90.8113H48.0869V104.336H129.956V90.8113Z" fill="white" stroke="#263238" stroke-linecap="round" stroke-linejoin="round"/>
<path d="M129.956 159.206H48.0869V172.731H129.956V159.206Z" fill="white" stroke="#263238" stroke-linecap="round" stroke-linejoin="round"/>
<path d="M214.695 90.8113H132.826V104.336H214.695V90.8113Z" fill="white" stroke="#263238" stroke-linecap="round" stroke-linejoin="round"/>
<path d="M129.956 141.554H48.0869V155.079H129.956V141.554Z" fill="white" stroke="#263238" stroke-linecap="round" stroke-linejoin="round"/>
<path d="M214.695 141.554H132.826V155.079H214.695V141.554Z" fill="white" stroke="#263238" stroke-linecap="round" stroke-linejoin="round"/>
<path d="M214.342 107.722H48.0869V121.247H214.342V107.722Z" fill="white" stroke="#263238" stroke-linecap="round" stroke-linejoin="round"/>
<path d="M214.342 124.632H48.0869V138.157H214.342V124.632Z" fill="white" stroke="#263238" stroke-linecap="round" stroke-linejoin="round"/>
<path d="M51.2284 72.265C52.2057 72.265 52.6559 72.9217 52.6559 73.9974V77.5244C52.6559 78.583 52.2057 79.2228 51.2284 79.2228H49.7549V72.265H51.2284ZM51.2284 78.4925C51.7401 78.4925 51.9754 78.1415 51.9754 77.5074V73.9294C51.9754 73.2954 51.7298 72.95 51.2182 72.95H50.4661V78.4925H51.2284Z" fill="#263238"/>
<path d="M55.5413 75.3448V76.0411H54.0064V78.5151H55.8944V79.2228H53.3105V72.265H55.8944V72.9953H54.0064V75.3674L55.5413 75.3448Z" fill="#263238"/>
<path d="M56.5391 79.2228V72.265H57.24V78.4925H59.0154V79.2228H56.5391Z" fill="#263238"/>
<path d="M60.2644 72.265V79.2228H59.5635V72.265H60.2644Z" fill="#263238"/>
<path d="M61.5074 72.265L62.5307 78.317L63.554 72.265H64.1986L63.0167 79.2228H61.9934L60.8115 72.2707L61.5074 72.265Z" fill="#263238"/>
<path d="M66.9664 75.3448V76.0411H65.4314V78.5151H67.3143V79.2228H64.7305V72.265H67.3143V72.9953H65.4314V75.3674L66.9664 75.3448Z" fill="#263238"/>
<path d="M69.3609 72.265C70.3483 72.265 70.7576 72.8311 70.7576 73.8558V74.422C70.7576 75.1863 70.5172 75.6618 69.9799 75.8543C70.553 76.0411 70.7679 76.5563 70.7679 77.3036V78.3849C70.7465 78.6698 70.7905 78.956 70.8958 79.2171H70.1846C70.0844 78.9506 70.0441 78.6611 70.0669 78.3736V77.2809C70.0669 76.4997 69.7344 76.2506 69.1511 76.2506H68.6394V79.2228H67.9385V72.265H69.3609ZM69.1818 75.5429C69.7344 75.5429 70.0669 75.3448 70.0669 74.5918V73.9238C70.0669 73.301 69.8623 72.9727 69.3404 72.9727H68.6599V75.5429H69.1818Z" fill="#263238"/>
<path d="M72.5178 76.7261L71.1875 72.265H71.9192L72.8964 75.6618L73.8839 72.265H74.5439L73.2085 76.7261V79.2228H72.5178V76.7261Z" fill="#263238"/>
<path d="M77.1481 77.8186L76.923 79.2226H76.2578L77.4602 72.2705H78.4835L79.6807 79.2226H78.9695L78.724 77.8243L77.1481 77.8186ZM77.2351 77.1506H78.637L77.9462 73.1423L77.2351 77.1506Z" fill="#263238"/>
<path d="M81.6972 72.265C82.6744 72.265 83.1247 72.9217 83.1247 73.9974V77.5244C83.1247 78.583 82.6744 79.2228 81.6972 79.2228H80.2236V72.265H81.6972ZM81.6972 78.4925C82.2088 78.4925 82.4442 78.1415 82.4442 77.5074V73.9294C82.4442 73.2954 82.2037 72.95 81.6921 72.95H80.9348V78.4925H81.6972Z" fill="#263238"/>
<path d="M85.2477 72.265C86.2301 72.265 86.6752 72.9217 86.6752 73.9974V77.5244C86.6752 78.583 86.2301 79.2228 85.2477 79.2228H83.7793V72.265H85.2477ZM85.2477 78.4925C85.7594 78.4925 85.9896 78.1415 85.9896 77.5074V73.9294C85.9896 73.2954 85.7491 72.95 85.2375 72.95H84.4854V78.4925H85.2477Z" fill="#263238"/>
<path d="M88.7319 72.265C89.7194 72.265 90.1287 72.8311 90.1287 73.8558V74.422C90.1287 75.1863 89.8883 75.6618 89.351 75.8543C89.9241 76.0411 90.139 76.5563 90.139 77.3036V78.3849C90.1176 78.6698 90.1616 78.956 90.2669 79.2171H89.5557C89.4555 78.9506 89.4152 78.6611 89.438 78.3736V77.2809C89.438 76.4997 89.1054 76.2506 88.5222 76.2506H88.0105V79.2228H87.3096V72.265H88.7319ZM88.5529 75.5429C89.1054 75.5429 89.438 75.3448 89.438 74.5918V73.9238C89.438 73.301 89.2334 72.9727 88.7115 72.9727H88.031V75.5429H88.5529Z" fill="#263238"/>
<path d="M93.1011 75.3448V76.0411H91.5662V78.5151H93.4491V79.2228H90.8652V72.265H93.4491V72.9953H91.5662V75.3674L93.1011 75.3448Z" fill="#263238"/>
<path d="M96.8163 73.935V74.1275H96.1511V73.901C96.1511 73.2726 95.9362 72.9103 95.4348 72.9103C94.9334 72.9103 94.7134 73.2726 94.7134 73.8897C94.7134 75.4522 96.8265 75.5881 96.8265 77.5526C96.8265 78.6056 96.366 79.2906 95.4092 79.2906C94.4524 79.2906 93.9971 78.6056 93.9971 77.5526V77.1563H94.652V77.5922C94.652 78.2206 94.8873 78.5886 95.3888 78.5886C95.8902 78.5886 96.1255 78.2206 96.1255 77.5922C96.1255 76.0467 94.0227 75.8938 94.0227 73.9407C94.0227 72.8707 94.4729 72.2026 95.4143 72.2026C96.3558 72.2026 96.8163 72.882 96.8163 73.935Z" fill="#263238"/>
<path d="M100.152 73.935V74.1275H99.487V73.901C99.487 73.2726 99.2721 72.9103 98.7707 72.9103C98.2693 72.9103 98.0544 73.2726 98.0544 73.8897C98.0544 75.4522 100.162 75.5881 100.162 77.5526C100.162 78.6056 99.7019 79.2906 98.7452 79.2906C97.7884 79.2906 97.333 78.6056 97.333 77.5526V77.1563H97.9879V77.5922C97.9879 78.2206 98.2233 78.5886 98.7247 78.5886C99.2261 78.5886 99.4615 78.2206 99.4615 77.5922C99.4615 76.0467 97.3637 75.8938 97.3637 73.9407C97.3637 72.8707 97.8088 72.2026 98.7554 72.2026C99.7019 72.2026 100.152 72.882 100.152 73.935Z" fill="#263238"/>
<path d="M52.9779 97.3387V97.9049H51.8216V100.311H51.2588V94.7458H53.2593V95.312H51.8216V97.3387H52.9779Z" fill="#CCCCCC"/>
<path d="M54.262 94.7684V100.333H53.6992V94.7684H54.262Z" fill="#CCCCCC"/>
<path d="M55.9457 94.7685C56.7336 94.7685 57.0662 95.2158 57.0662 96.0423V96.4952C57.0972 96.7348 57.0519 96.9789 56.938 97.1855C56.8241 97.3921 56.6487 97.5484 56.442 97.6275C56.9025 97.7803 57.0713 98.1936 57.0713 98.7881V99.6542C57.0563 99.8828 57.0914 100.112 57.1737 100.322H56.6057C56.5263 100.107 56.4947 99.8743 56.5136 99.6429V98.7711C56.5136 98.1427 56.2476 97.9445 55.782 97.9445H55.388V100.322H54.8252V94.7572L55.9457 94.7685ZM55.8024 97.3897C56.2476 97.3897 56.5136 97.2312 56.5136 96.6311V96.0989C56.5136 95.5951 56.3499 95.3347 55.9304 95.3347H55.388V97.3897H55.8024Z" fill="#CCCCCC"/>
<path d="M59.8394 96.1046V96.2575H59.3278V96.0763C59.3278 95.5725 59.1538 95.2781 58.7547 95.2781C58.3556 95.2781 58.1817 95.5725 58.1817 96.065C58.1817 97.3105 59.865 97.435 59.865 98.9976C59.865 99.8411 59.5017 100.39 58.7343 100.39C57.9668 100.39 57.6035 99.8241 57.6035 98.9976V98.6805H58.1152V99.0372C58.1152 99.5354 58.2994 99.8298 58.7036 99.8298C59.1078 99.8298 59.2919 99.5354 59.2919 99.0372C59.2919 97.7974 57.6137 97.6785 57.6137 96.1103C57.6137 95.2554 57.9719 94.7233 58.724 94.7233C59.4761 94.7233 59.8394 95.2611 59.8394 96.1046Z" fill="#CCCCCC"/>
<path d="M61.0618 100.333V95.3346H60.1357V94.7684H62.5456V95.3346H61.6144V100.333H61.0618Z" fill="#CCCCCC"/>
<path d="M64.5263 100.333H64.0146V94.7684H64.7258L65.8873 98.788V94.7684H66.3989V100.333H65.8156L64.5314 95.8328L64.5263 100.333Z" fill="#CCCCCC"/>
<path d="M67.5342 99.2126L67.3398 100.345H66.8281L67.79 94.7798H68.6035L69.5654 100.345H69.0026L68.8082 99.2126H67.5342ZM67.6058 98.6804H68.7366L68.1686 95.4705L67.6058 98.6804Z" fill="#CCCCCC"/>
<path d="M71.8474 100.322H71.2949L70.4609 95.9007V100.333H69.9492V94.7684H70.7832L71.6121 99.2126L72.4102 94.7684H73.1931V100.333H72.6814V95.8611L71.8474 100.322Z" fill="#CCCCCC"/>
<path d="M75.5365 97.2313V97.7974H74.3085V99.7732H75.8435V100.339H73.7969V94.7743H75.8435V95.3404H74.3085V97.237L75.5365 97.2313Z" fill="#CCCCCC"/>
<path d="M136.09 100.333V94.7684H136.648V99.7674H138.085V100.333H136.09Z" fill="#CCCCCC"/>
<path d="M139.073 99.2126L138.879 100.345H138.367L139.329 94.7798H140.143L141.105 100.345H140.542L140.352 99.2126H139.073ZM139.145 98.6804H140.265L139.697 95.4705L139.145 98.6804Z" fill="#CCCCCC"/>
<path d="M143.709 96.1046V96.2575H143.197V96.0763C143.197 95.5725 143.023 95.2781 142.619 95.2781C142.215 95.2781 142.046 95.5725 142.046 96.065C142.046 97.3105 143.734 97.435 143.734 98.9976C143.734 99.8411 143.366 100.39 142.598 100.39C141.831 100.39 141.473 99.8241 141.473 98.9976V98.6805H141.984V99.0372C141.984 99.5354 142.174 99.8298 142.573 99.8298C142.972 99.8298 143.161 99.5354 143.161 99.0372C143.161 97.7974 141.483 97.6785 141.483 96.1103C141.483 95.2554 141.841 94.7233 142.598 94.7233C143.356 94.7233 143.709 95.2611 143.709 96.1046Z" fill="#CCCCCC"/>
<path d="M144.932 100.333V95.3346H144.006V94.7684H146.411V95.3346H145.485V100.333H144.932Z" fill="#CCCCCC"/>
<path d="M148.395 100.333H147.884V94.7684H148.595L149.762 98.788V94.7684H150.273V100.333H149.695L148.406 95.8328L148.395 100.333Z" fill="#CCCCCC"/>
<path d="M151.403 99.2126L151.209 100.345H150.697L151.659 94.7798H152.473L153.435 100.345H152.877L152.682 99.2126H151.403ZM151.475 98.6804H152.595L152.028 95.4705L151.475 98.6804Z" fill="#CCCCCC"/>
<path d="M155.717 100.322H155.206L154.372 95.9007V100.333H153.886V94.7684H154.669L155.492 99.2126L156.29 94.7684H157.073V100.333H156.562V95.8611L155.717 100.322Z" fill="#CCCCCC"/>
<path d="M159.411 97.2313V97.7974H158.183V99.7732H159.687V100.339H157.641V94.7743H159.687V95.3404H158.183V97.237L159.411 97.2313Z" fill="#CCCCCC"/>
<path d="M51.9707 115.704L51.7763 116.836H51.2646L52.2317 111.277H53.0401L54.002 116.836H53.4392L53.2447 115.704H51.9707ZM52.0424 115.172H53.1629L52.5949 111.962L52.0424 115.172Z" fill="#CCCCCC"/>
<path d="M55.6133 111.266C56.3961 111.266 56.7543 111.792 56.7543 112.647V115.478C56.7543 116.327 56.3961 116.848 55.6133 116.848H54.4365V111.266H55.6133ZM55.6133 116.264C56.0175 116.264 56.2119 115.987 56.2119 115.478V112.647C56.2119 112.137 56.0175 111.86 55.6082 111.86H55.0045V116.293L55.6133 116.264Z" fill="#CCCCCC"/>
<path d="M58.4531 111.266C59.236 111.266 59.5941 111.792 59.5941 112.647V115.478C59.5941 116.327 59.236 116.848 58.4531 116.848H57.2764V111.266H58.4531ZM58.4531 116.264C58.8522 116.264 59.0467 115.987 59.0467 115.478V112.647C59.0467 112.137 58.8522 111.86 58.4429 111.86H57.8392V116.293L58.4531 116.264Z" fill="#CCCCCC"/>
<path d="M61.2416 111.266C62.0295 111.266 62.357 111.713 62.357 112.539V112.992C62.357 113.604 62.1677 113.983 61.7328 114.124C62.1933 114.272 62.3672 114.691 62.3672 115.257V116.123C62.3497 116.351 62.3831 116.58 62.4644 116.791H61.9016C61.8197 116.579 61.7863 116.347 61.8044 116.117V115.245C61.8044 114.617 61.5384 114.419 61.0728 114.419H60.6788V116.791H60.1211V111.266H61.2416ZM61.0932 113.887C61.5384 113.887 61.8044 113.728 61.8044 113.122V112.59C61.8044 112.092 61.6407 111.832 61.2263 111.832H60.6788V113.887H61.0932Z" fill="#CCCCCC"/>
<path d="M64.7359 113.756V114.323H63.5079V116.304H65.0173V116.87H62.9707V111.266H65.0173V111.832H63.5079V113.756H64.7359Z" fill="#CCCCCC"/>
<path d="M67.7134 112.624V112.771H67.2018V112.59C67.2018 112.092 67.0278 111.798 66.6236 111.798C66.2194 111.798 66.0506 112.092 66.0506 112.585C66.0506 113.83 67.739 113.949 67.739 115.517C67.739 116.355 67.3706 116.904 66.6032 116.904C65.8357 116.904 65.4775 116.338 65.4775 115.517V115.194H65.9892V115.545C65.9892 116.049 66.1785 116.344 66.5776 116.344C66.9767 116.344 67.1711 116.049 67.1711 115.545C67.1711 114.306 65.4878 114.187 65.4878 112.624C65.4878 111.764 65.8459 111.232 66.6032 111.232C67.3604 111.232 67.7134 111.758 67.7134 112.624Z" fill="#CCCCCC"/>
<path d="M70.3746 112.624V112.771H69.8629V112.59C69.8629 112.092 69.689 111.798 69.2848 111.798C68.8806 111.798 68.7117 112.092 68.7117 112.585C68.7117 113.83 70.4002 113.949 70.4002 115.517C70.4002 116.355 70.0318 116.904 69.2643 116.904C68.4968 116.904 68.1387 116.338 68.1387 115.517V115.194H68.6503V115.545C68.6503 116.049 68.8396 116.344 69.2387 116.344C69.6378 116.344 69.8271 116.049 69.8271 115.545C69.8271 114.306 68.1489 114.187 68.1489 112.624C68.1489 111.764 68.5071 111.232 69.2643 111.232C70.0215 111.232 70.3746 111.758 70.3746 112.624Z" fill="#CCCCCC"/>
<path d="M71.9863 116.825V111.266H72.544V116.264H73.9817V116.831L71.9863 116.825Z" fill="#CCCCCC"/>
<path d="M74.9642 111.266V116.825H74.4014V111.266H74.9642Z" fill="#CCCCCC"/>
<path d="M76.0331 116.825H75.5215V111.266H76.2276L77.3941 115.285V111.266H77.9058V116.825H77.3225L76.0383 112.33L76.0331 116.825Z" fill="#CCCCCC"/>
<path d="M80.2593 113.756V114.323H79.0314V116.304H80.5407V116.87H78.4941V111.266H80.5407V111.832H79.0314V113.756H80.2593Z" fill="#CCCCCC"/>
<path d="M83.1958 112.273C82.9863 112.417 82.7466 112.499 82.5 112.511V112.007C82.6984 112.011 82.8922 111.94 83.0487 111.805C83.2052 111.67 83.315 111.48 83.3596 111.266H83.7484V116.825H83.1958V112.273Z" fill="#CCCCCC"/>
<path d="M51.9707 133.571L51.7763 134.703H51.2646L52.2317 129.144H53.0401L54.002 134.703H53.4392L53.2447 133.571H51.9707ZM52.0424 133.039H53.1629L52.5949 129.829L52.0424 133.039Z" fill="#CCCCCC"/>
<path d="M55.6133 129.144C56.3961 129.144 56.7543 129.665 56.7543 130.525V133.328C56.7543 134.177 56.3961 134.703 55.6133 134.703H54.4365V129.144H55.6133ZM55.6133 134.137C56.0175 134.137 56.2119 133.86 56.2119 133.35V130.491C56.2119 129.982 56.0175 129.705 55.6082 129.705H55.0045V134.137H55.6133Z" fill="#CCCCCC"/>
<path d="M58.4531 129.144C59.236 129.144 59.5941 129.665 59.5941 130.525V133.328C59.5941 134.177 59.236 134.703 58.4531 134.703H57.2764V129.144H58.4531ZM58.4531 134.137C58.8522 134.137 59.0467 133.86 59.0467 133.35V130.491C59.0467 129.982 58.8522 129.705 58.4429 129.705H57.8392V134.137H58.4531Z" fill="#CCCCCC"/>
<path d="M61.2416 129.144C62.0295 129.144 62.357 129.586 62.357 130.412V130.865C62.357 131.477 62.1677 131.861 61.7328 131.997C62.1933 132.15 62.3672 132.563 62.3672 133.158V134.024C62.3505 134.252 62.3839 134.481 62.4644 134.692H61.9016C61.8197 134.48 61.7863 134.248 61.8044 134.018V133.141C61.8044 132.513 61.5384 132.314 61.0728 132.314H60.6788V134.703H60.1211V129.144H61.2416ZM61.0932 131.765C61.5384 131.765 61.8044 131.607 61.8044 131.001V130.469C61.8044 129.965 61.6407 129.705 61.2263 129.705H60.6788V131.765H61.0932Z" fill="#CCCCCC"/>
<path d="M64.7359 131.607V132.173H63.5079V134.137H65.0173V134.703H62.9707V129.144H65.0173V129.71H63.5079V131.612L64.7359 131.607Z" fill="#CCCCCC"/>
<path d="M67.7134 130.475V130.627H67.2018V130.446C67.2018 129.942 67.0278 129.648 66.6236 129.648C66.2194 129.648 66.0506 129.942 66.0506 130.435C66.0506 131.686 67.739 131.805 67.739 133.367C67.739 134.211 67.3706 134.76 66.6032 134.76C65.8357 134.76 65.4775 134.194 65.4775 133.367V133.05H65.9892V133.401C65.9892 133.9 66.1785 134.194 66.5776 134.194C66.9767 134.194 67.1711 133.9 67.1711 133.401C67.1711 132.162 65.4878 132.043 65.4878 130.475C65.4878 129.62 65.8459 129.088 66.6032 129.088C67.3604 129.088 67.7134 129.637 67.7134 130.475Z" fill="#CCCCCC"/>
<path d="M70.3746 130.475V130.627H69.8629V130.446C69.8629 129.942 69.689 129.648 69.2848 129.648C68.8806 129.648 68.7117 129.942 68.7117 130.435C68.7117 131.686 70.4002 131.805 70.4002 133.367C70.4002 134.211 70.0318 134.76 69.2643 134.76C68.4968 134.76 68.1387 134.194 68.1387 133.367V133.05H68.6503V133.401C68.6503 133.9 68.8396 134.194 69.2387 134.194C69.6378 134.194 69.8271 133.9 69.8271 133.401C69.8271 132.162 68.1489 132.043 68.1489 130.475C68.1489 129.62 68.5071 129.088 69.2643 129.088C70.0215 129.088 70.3746 129.637 70.3746 130.475Z" fill="#CCCCCC"/>
<path d="M71.9863 134.703V129.144H72.544V134.137H73.9817V134.703H71.9863Z" fill="#CCCCCC"/>
<path d="M74.9642 129.144V134.703H74.4014V129.144H74.9642Z" fill="#CCCCCC"/>
<path d="M76.0331 134.703H75.5215V129.144H76.2276L77.3941 133.164V129.144H77.9058V134.703H77.3225L76.0383 130.208L76.0331 134.703Z" fill="#CCCCCC"/>
<path d="M80.2593 131.607V132.173H79.0314V134.137H80.5407V134.703H78.4941V129.144H80.5407V129.71H79.0314V131.612L80.2593 131.607Z" fill="#CCCCCC"/>
<path d="M84.4294 130.492C84.4294 132.19 82.7308 132.756 82.7205 134.053V134.137H84.3732V134.704H82.168V134.228C82.168 132.433 83.8718 132.082 83.8718 130.514C83.8718 129.948 83.6978 129.642 83.2834 129.642C82.8689 129.642 82.695 129.965 82.695 130.463V130.956H82.1833V130.503C82.1833 129.648 82.5364 129.088 83.3089 129.088C84.0815 129.088 84.4294 129.642 84.4294 130.492Z" fill="#CCCCCC"/>
<path d="M52.19 151.121V146.128H51.2588V145.562H53.6687V146.128H52.7426V151.121H52.19Z" fill="#CCCCCC"/>
<path d="M54.002 146.909C54.002 146.06 54.3857 145.511 55.1532 145.511C55.9206 145.511 56.3095 146.077 56.3095 146.909V149.785C56.3333 149.965 56.3207 150.148 56.2726 150.321C56.2245 150.495 56.1421 150.654 56.0314 150.788C55.9207 150.922 55.7844 151.027 55.6325 151.095C55.4806 151.164 55.3169 151.194 55.1532 151.184C54.3857 151.184 54.002 150.617 54.002 149.785V146.909ZM54.5545 149.819C54.5545 150.329 54.749 150.623 55.1532 150.623C55.5574 150.623 55.7467 150.329 55.7467 149.819V146.881C55.7467 146.377 55.5625 146.077 55.1532 146.077C54.7438 146.077 54.5545 146.377 54.5545 146.881V149.819Z" fill="#CCCCCC"/>
<path d="M58.1769 151.121H57.4044L56.7188 145.562H57.2611L57.8495 150.295L58.4123 145.568H58.9649L59.5175 150.306L60.0854 145.562H60.551L59.891 151.121H59.1491L58.6681 147.351L58.1769 151.121Z" fill="#CCCCCC"/>
<path d="M61.5175 151.121H61.0059V145.562H61.717L62.8785 149.582V145.562H63.3901V151.121H62.8017L61.5175 146.626V151.121Z" fill="#CCCCCC"/>
<path d="M66.2554 145.568L64.2753 151.121H63.7637L65.7489 145.562L66.2554 145.568Z" fill="#CCCCCC"/>
<path d="M68.8748 146.909V147.413H68.3631V146.881C68.3631 146.377 68.184 146.077 67.7747 146.077C67.3654 146.077 67.1863 146.377 67.1863 146.881V149.819C67.1863 150.317 67.3756 150.623 67.7747 150.623C68.1738 150.623 68.3631 150.317 68.3631 149.819V149.095H68.8748V149.785C68.8748 150.629 68.5166 151.184 67.744 151.184C66.9714 151.184 66.6133 150.617 66.6133 149.785V146.909C66.6133 146.066 66.9714 145.511 67.744 145.511C68.5166 145.511 68.8748 146.066 68.8748 146.909Z" fill="#CCCCCC"/>
<path d="M69.9444 145.568V151.121H69.3867V145.562L69.9444 145.568Z" fill="#CCCCCC"/>
<path d="M71.2444 151.121V146.128H70.3184V145.562H72.7231V146.128H71.8073V151.121H71.2444Z" fill="#CCCCCC"/>
<path d="M73.9917 149.134L72.9326 145.567H73.5108L74.2936 148.302L75.0867 145.567H75.5983L74.5238 149.134V151.121H73.9713L73.9917 149.134Z" fill="#CCCCCC"/>
<path d="M52.3644 163.769C53.1575 163.769 53.49 164.284 53.49 165.127V165.795C53.49 166.678 53.1217 167.137 52.3235 167.137H51.8118V169.334H51.249V163.769H52.3644ZM52.3235 166.599C52.7379 166.599 52.9375 166.384 52.9375 165.852V165.116C52.9375 164.606 52.7737 164.352 52.3644 164.352H51.8272V166.616L52.3235 166.599Z" fill="#CCCCCC"/>
<path d="M54.4825 166.831V169.334H53.9248V163.769H54.4825V166.271H55.7207V163.769H56.2784V169.334H55.7207V166.831H54.4825Z" fill="#CCCCCC"/>
<path d="M56.8105 165.11C56.8105 164.261 57.1892 163.712 57.9566 163.712C58.7241 163.712 59.113 164.278 59.113 165.11V167.986C59.113 168.83 58.7343 169.385 57.9566 169.385C57.1789 169.385 56.8105 168.818 56.8105 167.986V165.11ZM57.3631 168.02C57.3631 168.53 57.5575 168.824 57.9566 168.824C58.3557 168.824 58.5553 168.53 58.5553 168.02V165.082C58.5553 164.578 58.3659 164.278 57.9566 164.278C57.5473 164.278 57.3631 164.578 57.3631 165.082V168.02Z" fill="#CCCCCC"/>
<path d="M60.1415 169.334H59.6299V163.769H60.3411L61.5025 167.788V163.769H62.0142V169.334H61.4309L60.1467 164.833L60.1415 169.334Z" fill="#CCCCCC"/>
<path d="M64.368 166.231V166.798H63.14V168.779H64.6442V169.345H62.5977V163.78H64.6442V164.346H63.1349V166.243L64.368 166.231Z" fill="#CCCCCC"/>
<path d="M66.7724 169.334H66.2607V163.769H66.9719L68.1334 167.788V163.769H68.645V169.334H68.0617L66.7775 164.833L66.7724 169.334Z" fill="#CCCCCC"/>
<path d="M69.7601 168.02C69.7601 168.518 69.9392 168.824 70.3485 168.824C70.7578 168.824 70.9317 168.518 70.9317 168.02V163.769H71.4434V167.986C71.4434 168.83 71.0904 169.396 70.3178 169.396C69.5452 169.396 69.1973 168.83 69.1973 167.986V163.769H69.7601V168.02Z" fill="#CCCCCC"/>
<path d="M73.8534 169.322H73.3417L72.5077 164.901V169.334H71.9961V163.769H72.7738L73.6027 168.213L74.4008 163.769H75.1837V169.334H74.672V164.856L73.8534 169.322Z" fill="#CCCCCC"/>
<path d="M76.8717 163.769C77.6545 163.769 77.9615 164.182 77.9615 165.003V165.274C77.9615 165.841 77.8132 166.226 77.3731 166.378C77.8848 166.531 78.0485 166.945 78.0485 167.573V168.037C78.0748 168.212 78.0636 168.391 78.0158 168.56C77.9681 168.729 77.8852 168.884 77.7737 169.011C77.6622 169.138 77.5253 169.235 77.374 169.293C77.2226 169.351 77.0611 169.369 76.9024 169.345H75.7461V163.78L76.8717 163.769ZM76.7336 166.129C77.1787 166.129 77.4089 165.971 77.4089 165.393V165.065C77.4089 164.572 77.2606 164.335 76.8564 164.335H76.3038V166.129H76.7336ZM76.9024 168.768C77.3117 168.768 77.4959 168.53 77.4959 168.015V167.539C77.4959 166.916 77.2759 166.712 76.795 166.712H76.2833V168.784L76.9024 168.768Z" fill="#CCCCCC"/>
<path d="M80.3461 166.231V166.798H79.1181V168.779H80.653V169.345H78.6064V163.78H80.653V164.346H79.1181V166.243L80.3461 166.231Z" fill="#CCCCCC"/>
<path d="M82.265 163.769C83.053 163.769 83.3804 164.216 83.3804 165.042V165.495C83.3804 166.107 83.1911 166.486 82.7562 166.628C83.2167 166.775 83.3907 167.194 83.3907 167.76V168.671C83.374 168.899 83.4073 169.129 83.4879 169.339H82.9251C82.8439 169.125 82.8105 168.892 82.8278 168.66V167.788C82.8278 167.16 82.5618 166.962 82.0962 166.962H81.7022V169.339H81.1445V163.774L82.265 163.769ZM82.1167 166.39C82.5618 166.39 82.8278 166.231 82.8278 165.631V165.099C82.8278 164.595 82.6641 164.335 82.2497 164.335H81.7022V166.407L82.1167 166.39Z" fill="#CCCCCC"/>
<path d="M137.185 145.568C137.979 145.568 138.316 146.083 138.316 146.926V147.594C138.316 148.478 137.943 148.936 137.145 148.936H136.633V151.121H136.075V145.562L137.185 145.568ZM137.145 148.398C137.559 148.398 137.759 148.183 137.759 147.651V146.909C137.759 146.406 137.595 146.151 137.185 146.151H136.674V148.415L137.145 148.398Z" fill="#CCCCCC"/>
<path d="M138.71 146.909C138.71 146.06 139.089 145.511 139.856 145.511C140.624 145.511 141.012 146.077 141.012 146.909V149.785C141.012 150.629 140.634 151.184 139.856 151.184C139.078 151.184 138.71 150.617 138.71 149.785V146.909ZM139.263 149.819C139.263 150.329 139.457 150.623 139.856 150.623C140.255 150.623 140.455 150.329 140.455 149.819V146.881C140.455 146.377 140.265 146.077 139.856 146.077C139.447 146.077 139.263 146.377 139.263 146.881V149.819Z" fill="#CCCCCC"/>
<path d="M143.719 146.904V147.051H143.208V146.87C143.208 146.372 143.034 146.077 142.635 146.077C142.236 146.077 142.062 146.372 142.062 146.864C142.062 148.11 143.745 148.228 143.745 149.797C143.745 150.634 143.382 151.184 142.614 151.184C141.847 151.184 141.483 150.617 141.483 149.797V149.48H141.995V149.825C141.995 150.329 142.179 150.623 142.583 150.623C142.988 150.623 143.172 150.329 143.172 149.825C143.172 148.585 141.489 148.466 141.489 146.904C141.489 146.043 141.852 145.511 142.604 145.511C143.356 145.511 143.719 146.06 143.719 146.904Z" fill="#CCCCCC"/>
<path d="M144.937 151.121V146.128H144.011V145.562H146.415V146.128H145.484V151.121H144.937Z" fill="#CCCCCC"/>
<path d="M150.13 146.909V147.413H149.618V146.881C149.618 146.377 149.439 146.077 149.03 146.077C148.62 146.077 148.441 146.377 148.441 146.881V149.819C148.441 150.317 148.625 150.623 149.03 150.623C149.434 150.623 149.618 150.317 149.618 149.819V149.095H150.13V149.785C150.13 150.629 149.766 151.184 148.994 151.184C148.221 151.184 147.868 150.617 147.868 149.785V146.909C147.868 146.066 148.226 145.511 148.994 145.511C149.761 145.511 150.13 146.066 150.13 146.909Z" fill="#CCCCCC"/>
<path d="M150.601 146.909C150.601 146.06 150.979 145.511 151.747 145.511C152.514 145.511 152.903 146.077 152.903 146.909V149.785C152.903 150.629 152.524 151.184 151.747 151.184C150.969 151.184 150.601 150.617 150.601 149.785V146.909ZM151.153 149.819C151.153 150.329 151.348 150.623 151.747 150.623C152.146 150.623 152.345 150.329 152.345 149.819V146.881C152.345 146.377 152.156 146.077 151.747 146.077C151.337 146.077 151.153 146.377 151.153 146.881V149.819Z" fill="#CCCCCC"/>
<path d="M154.606 145.567C155.389 145.567 155.747 146.094 155.747 146.949V149.779C155.747 150.629 155.389 151.149 154.606 151.149H153.43V145.59L154.606 145.567ZM154.606 150.566C155.006 150.566 155.2 150.289 155.2 149.779V146.92C155.2 146.411 155.006 146.134 154.596 146.134H153.993V150.555L154.606 150.566Z" fill="#CCCCCC"/>
<path d="M158.06 148.03V148.596H156.832V150.555H158.342V151.121H156.27V145.562H158.342V146.128H156.832V148.025L158.06 148.03Z" fill="#CCCCCC"/>
<path d="M289.108 42.4977H43.2822V59.408H289.108V42.4977Z" fill="#92E3A9" stroke="#263238" stroke-linecap="round" stroke-linejoin="round"/>
<path d="M155.717 47.3324H120.352V59.408H155.717V47.3324Z" fill="white" stroke="#263238" stroke-linecap="round" stroke-linejoin="round"/>
<path d="M195.012 47.3324H159.646V59.408H195.012V47.3324Z" fill="white" stroke="#263238" stroke-linecap="round" stroke-linejoin="round"/>
<path d="M234.311 47.3324H198.946V59.408H234.311V47.3324Z" fill="white" stroke="#263238" stroke-linecap="round" stroke-linejoin="round"/>
<path d="M273.605 47.3324H238.24V59.408H273.605V47.3324Z" fill="white" stroke="#263238" stroke-linecap="round" stroke-linejoin="round"/>
<path d="M258.86 212.496H74.8252V222.527H258.86V212.496Z" fill="#263238" stroke="#263238" stroke-linecap="round" stroke-linejoin="round"/>
<path d="M258.86 217.325H74.8252V222.527H258.86V217.325Z" fill="white" stroke="#263238" stroke-linecap="round" stroke-linejoin="round"/>
<path d="M10.6855 228.472C10.6855 228.472 13.7043 232.559 22.7707 235.905H310.91C310.91 235.905 317.628 234.048 320.631 228.846L10.6855 228.472Z" fill="#263238" stroke="#263238" stroke-linecap="round" stroke-linejoin="round"/>
<path d="M320.334 221.152H11.0334C10.4994 221.152 10.0664 221.631 10.0664 222.222V227.894C10.0664 228.485 10.4994 228.964 11.0334 228.964H320.334C320.868 228.964 321.301 228.485 321.301 227.894V222.222C321.301 221.631 320.868 221.152 320.334 221.152Z" fill="#969696" stroke="#263238" stroke-miterlimit="10"/>
<path d="M168.508 35.2513C168.508 34.7373 168.371 34.2349 168.113 33.8076C167.855 33.3803 167.488 33.0472 167.059 32.8505C166.63 32.6538 166.157 32.6024 165.702 32.7026C165.246 32.8029 164.828 33.0504 164.499 33.4138C164.171 33.7772 163.947 34.2402 163.857 34.7443C163.766 35.2484 163.813 35.7709 163.99 36.2457C164.168 36.7205 164.469 37.1263 164.855 37.4119C165.241 37.6974 165.696 37.8498 166.16 37.8498C166.783 37.8498 167.38 37.576 167.821 37.0887C168.261 36.6014 168.508 35.9404 168.508 35.2513Z" fill="#263238" stroke="#263238" stroke-linecap="round" stroke-linejoin="round"/>
<path d="M34.8607 83.5534C34.6829 83.5534 34.5124 83.4753 34.3867 83.3362C34.261 83.1971 34.1904 83.0085 34.1904 82.8118V61.2592C34.1958 61.0664 34.2687 60.8835 34.3938 60.7493C34.519 60.6151 34.6864 60.5401 34.8607 60.5402C35.0389 60.5402 35.2099 60.6181 35.3364 60.757C35.463 60.896 35.5347 61.0846 35.5361 61.2818V82.8344C35.5307 83.0281 35.457 83.2118 35.3308 83.3462C35.2046 83.4806 35.0358 83.555 34.8607 83.5534Z" fill="#263238"/>
<path d="M266.438 68.8568H233.027C232.617 68.8568 232.285 69.2243 232.285 69.6777V92.306C232.285 92.7593 232.617 93.1269 233.027 93.1269H266.438C266.847 93.1269 267.179 92.7593 267.179 92.306V69.6777C267.179 69.2243 266.847 68.8568 266.438 68.8568Z" fill="#ADADAD"/>
<path d="M264.499 71.1382H257.898V76.5051H264.499V71.1382Z" fill="white"/>
<path d="M235.969 82.9476H240.041" stroke="white" stroke-miterlimit="10"/>
<path d="M235.969 73.2839H240.041" stroke="white" stroke-miterlimit="10"/>
<path d="M235.969 89.175H240.041" stroke="white" stroke-miterlimit="10"/>
<path d="M242.369 89.175H246.447" stroke="white" stroke-miterlimit="10"/>
<path d="M241.985 82.9476H246.058" stroke="white" stroke-miterlimit="10"/>
<path d="M248.003 82.9476H252.076" stroke="white" stroke-miterlimit="10"/>
<path d="M254.015 82.9476H258.092" stroke="white" stroke-miterlimit="10"/>
<path d="M260.031 82.9476H264.109" stroke="white" stroke-miterlimit="10"/>
<path d="M201.622 176.246C201.622 176.246 193.574 170.692 194.97 170.432C196.367 170.171 217.964 171.083 219.831 171.338C221.699 171.592 227.885 172.374 228.698 172.759C229.512 173.144 237.8 176.376 243.055 176.891C248.31 177.407 253.8 177.022 254.726 177.537C255.652 178.052 259.162 182.066 258.343 183.475C257.524 184.885 255.309 185.287 255.309 185.287L238.036 187.353C238.036 187.353 235.237 183.736 233.017 182.7C230.796 181.664 215.861 176.761 211.66 176.761C207.46 176.761 201.622 176.246 201.622 176.246Z" fill="#263238" stroke="#263238" stroke-miterlimit="10"/>
<path d="M199.642 186.578C199.642 186.578 192.044 202.588 184.118 208.527C184.118 208.527 182.834 209.048 185.167 209.048C187.5 209.048 194.74 200.392 197.073 197.295C199.406 194.198 201.857 192.256 204.891 192.256H209.327L199.642 186.578Z" fill="#263238" stroke="#263238" stroke-miterlimit="10"/>
<path d="M207.112 200.267C203.926 200.266 200.811 201.31 198.161 203.268C195.512 205.226 193.447 208.009 192.227 211.266C191.007 214.523 190.688 218.107 191.309 221.564C191.931 225.022 193.465 228.198 195.718 230.691C197.97 233.184 200.841 234.881 203.966 235.569C207.091 236.256 210.329 235.903 213.273 234.553C216.216 233.203 218.732 230.918 220.501 227.987C222.27 225.055 223.214 221.609 223.213 218.083C223.213 213.358 221.517 208.826 218.497 205.485C215.478 202.144 211.382 200.267 207.112 200.267ZM207.112 228.291C205.29 228.291 203.51 227.693 201.995 226.573C200.481 225.453 199.3 223.862 198.603 222C197.906 220.138 197.724 218.089 198.079 216.112C198.434 214.135 199.312 212.32 200.6 210.895C201.888 209.469 203.529 208.499 205.315 208.106C207.102 207.712 208.953 207.914 210.636 208.686C212.319 209.457 213.757 210.763 214.769 212.439C215.781 214.115 216.321 216.085 216.321 218.1C216.321 220.803 215.351 223.395 213.624 225.306C211.897 227.217 209.554 228.291 207.112 228.291Z" fill="#263238" stroke="#263238" stroke-miterlimit="10"/>
<path d="M207.112 210.724C205.797 210.724 204.511 211.155 203.417 211.964C202.323 212.773 201.471 213.922 200.967 215.267C200.464 216.612 200.332 218.091 200.589 219.519C200.845 220.947 201.479 222.258 202.409 223.287C203.339 224.317 204.524 225.018 205.815 225.302C207.105 225.586 208.442 225.44 209.658 224.883C210.873 224.326 211.912 223.382 212.643 222.172C213.374 220.962 213.764 219.539 213.764 218.083C213.764 216.131 213.063 214.259 211.816 212.879C210.568 211.499 208.876 210.724 207.112 210.724ZM207.112 222.301C206.358 222.302 205.621 222.056 204.993 221.593C204.366 221.13 203.876 220.472 203.587 219.701C203.298 218.931 203.222 218.083 203.368 217.264C203.515 216.445 203.877 215.693 204.41 215.103C204.943 214.513 205.622 214.11 206.362 213.947C207.101 213.784 207.868 213.867 208.565 214.186C209.262 214.505 209.857 215.046 210.276 215.74C210.695 216.433 210.919 217.249 210.919 218.083C210.919 219.201 210.518 220.273 209.804 221.064C209.091 221.854 208.122 222.3 207.112 222.301Z" fill="#263238" stroke="#263238" stroke-miterlimit="10"/>
<path d="M207.112 205.3C204.827 205.297 202.592 206.044 200.69 207.446C198.788 208.849 197.305 210.844 196.428 213.18C195.551 215.515 195.32 218.086 195.764 220.567C196.208 223.048 197.307 225.327 198.922 227.116C200.537 228.906 202.596 230.125 204.837 230.62C207.079 231.114 209.403 230.862 211.515 229.895C213.626 228.928 215.432 227.29 216.702 225.187C217.972 223.084 218.65 220.612 218.65 218.083C218.651 214.695 217.437 211.446 215.273 209.049C213.109 206.651 210.174 205.303 207.112 205.3ZM207.112 228.291C205.291 228.291 203.51 227.693 201.996 226.573C200.481 225.454 199.301 223.862 198.604 222C197.907 220.138 197.724 218.089 198.08 216.112C198.435 214.135 199.312 212.32 200.6 210.895C201.888 209.469 203.529 208.499 205.316 208.106C207.102 207.713 208.954 207.914 210.637 208.686C212.32 209.457 213.758 210.763 214.77 212.439C215.782 214.115 216.322 216.085 216.322 218.1C216.322 220.803 215.352 223.395 213.624 225.306C211.897 227.217 209.555 228.291 207.112 228.291Z" fill="white" stroke="#263238" stroke-miterlimit="10"/>
<path d="M214.347 193.292L209.793 206.982L211.896 207.882L216.562 194.193L214.347 193.292Z" fill="#263238" stroke="#263238" stroke-miterlimit="10"/>
<path d="M209.793 206.982C209.793 206.982 205.009 204.655 201.156 207.882C197.303 211.109 196.838 215.094 196.838 215.094C196.838 215.094 202.906 219.997 210.842 220.756C218.777 221.514 226.831 220.24 230.796 218.95C233.226 218.151 235.572 217.069 237.795 215.723L227.992 203.834C227.992 203.834 226.595 201.637 223.326 203.704C220.056 205.77 219.939 208.482 219.939 208.482L209.793 206.982Z" fill="#263238" stroke="#263238" stroke-miterlimit="10"/>
<path d="M216.563 194.193L213.181 208.012L222.984 212.92C222.879 211.342 223.203 209.764 223.915 208.391C225.082 206.325 226.601 206.449 226.949 206.693C227.297 206.936 229.4 208.114 229.4 208.114L228.469 199.978L216.563 194.193Z" fill="#263238" stroke="#263238" stroke-miterlimit="10"/>
<path d="M303.982 200.267C300.796 200.266 297.681 201.31 295.032 203.268C292.382 205.226 290.317 208.009 289.097 211.266C287.877 214.523 287.558 218.107 288.179 221.564C288.801 225.022 290.335 228.198 292.588 230.691C294.84 233.184 297.711 234.881 300.836 235.569C303.961 236.256 307.2 235.903 310.143 234.553C313.086 233.203 315.602 230.918 317.371 227.987C319.141 225.055 320.084 221.609 320.083 218.083C320.083 215.744 319.667 213.427 318.858 211.265C318.049 209.104 316.863 207.14 315.367 205.485C313.872 203.831 312.097 202.519 310.144 201.623C308.19 200.728 306.096 200.267 303.982 200.267ZM303.982 228.291C302.16 228.291 300.38 227.693 298.865 226.573C297.351 225.453 296.17 223.862 295.473 222C294.776 220.138 294.594 218.089 294.949 216.112C295.305 214.135 296.182 212.32 297.47 210.895C298.758 209.469 300.399 208.499 302.185 208.106C303.972 207.712 305.823 207.914 307.506 208.686C309.189 209.457 310.627 210.763 311.639 212.439C312.651 214.115 313.192 216.085 313.192 218.1C313.192 220.803 312.221 223.395 310.494 225.306C308.767 227.217 306.424 228.291 303.982 228.291Z" fill="#263238" stroke="#263238" stroke-miterlimit="10"/>
<path d="M303.982 210.724C302.667 210.724 301.381 211.155 300.287 211.964C299.193 212.773 298.341 213.922 297.837 215.267C297.334 216.612 297.202 218.091 297.459 219.519C297.716 220.947 298.349 222.258 299.279 223.287C300.209 224.317 301.395 225.018 302.685 225.302C303.975 225.586 305.312 225.44 306.528 224.883C307.743 224.326 308.782 223.382 309.513 222.172C310.244 220.962 310.634 219.539 310.634 218.083C310.634 216.131 309.933 214.259 308.686 212.879C307.438 211.499 305.747 210.724 303.982 210.724ZM303.982 222.301C303.228 222.302 302.491 222.056 301.863 221.593C301.236 221.13 300.746 220.472 300.457 219.701C300.168 218.931 300.092 218.083 300.238 217.264C300.385 216.445 300.747 215.693 301.28 215.103C301.813 214.513 302.492 214.11 303.232 213.947C303.971 213.784 304.738 213.867 305.435 214.186C306.132 214.505 306.727 215.046 307.146 215.74C307.565 216.433 307.789 217.249 307.789 218.083C307.789 219.201 307.388 220.273 306.675 221.064C305.961 221.854 304.993 222.3 303.982 222.301Z" fill="#263238" stroke="#263238" stroke-miterlimit="10"/>
<path d="M303.983 205.3C301.698 205.3 299.464 206.05 297.564 207.454C295.664 208.859 294.184 210.856 293.309 213.191C292.435 215.527 292.206 218.097 292.652 220.577C293.097 223.057 294.198 225.335 295.813 227.122C297.429 228.91 299.488 230.128 301.729 230.621C303.97 231.114 306.293 230.861 308.404 229.893C310.515 228.926 312.319 227.287 313.589 225.185C314.858 223.083 315.536 220.612 315.536 218.083C315.536 214.693 314.318 211.441 312.152 209.044C309.985 206.647 307.047 205.3 303.983 205.3ZM303.983 228.291C302.161 228.291 300.381 227.693 298.866 226.573C297.352 225.454 296.171 223.862 295.474 222C294.777 220.138 294.595 218.089 294.95 216.112C295.305 214.135 296.182 212.32 297.47 210.895C298.758 209.469 300.399 208.499 302.186 208.106C303.972 207.713 305.824 207.914 307.507 208.686C309.19 209.457 310.628 210.763 311.64 212.439C312.652 214.115 313.192 216.085 313.192 218.1C313.192 220.803 312.222 223.395 310.495 225.306C308.768 227.217 306.425 228.291 303.983 228.291Z" fill="white" stroke="#263238" stroke-miterlimit="10"/>
<path d="M289.206 201.507L301.91 205.832C301.91 205.832 308.751 200.114 316.564 202.124C316.564 202.124 313.775 193.321 296.185 191.775L289.206 201.507Z" fill="#92E3A9" stroke="#263238" stroke-miterlimit="10"/>
<path d="M302.278 218.083L291.329 196.978L293.509 195.596L304.458 216.719C304.585 216.976 304.618 217.278 304.548 217.561C304.478 217.844 304.312 218.086 304.084 218.236L303.644 218.513C303.411 218.651 303.138 218.683 302.883 218.603C302.628 218.523 302.411 218.337 302.278 218.083Z" fill="#6E6E6E" stroke="#263238" stroke-miterlimit="10"/>
<path d="M277.95 162.948C277.95 162.948 288.218 168.371 291.022 170.692C293.826 173.014 299.541 178.052 300.472 179.473C301.403 180.894 304.09 185.542 303.158 187.093C302.227 188.644 301.623 189.545 301.056 189.924C300.488 190.303 297.791 190.824 296.507 192.505C295.223 194.187 284.483 213.039 284.483 213.039C284.483 213.039 280.636 219.884 280.047 219.884C279.459 219.884 272.695 222.595 264.063 222.205C255.432 221.814 245.04 219.238 243.173 219.108C241.305 218.978 239.203 217.817 238.384 217.296C237.565 216.776 235.237 215.105 231.85 211.227C228.463 207.349 226.248 206.064 226.483 201.156C226.483 201.156 199.877 188.242 198.588 186.821C197.299 185.401 194.27 178.816 195.554 177.656C196.838 176.495 202.205 175.199 208.974 176.105C215.744 177.01 230.566 180.753 233.482 182.949C235.165 184.19 236.696 185.666 238.036 187.342L255.309 185.276L256.358 187.354C256.358 187.354 250.172 196.259 250.172 196.904C250.172 197.55 257.059 210.339 257.059 210.339C257.059 210.339 253.442 210.854 250.873 210.984C248.305 211.114 246.089 211.499 246.089 211.499C246.089 211.499 268.965 212.92 272.582 212.66C276.2 212.399 278.533 208.131 279.116 206.461C279.699 204.791 278.18 196.65 279.464 191.741C280.748 186.833 282.386 183.606 280.636 180.249C278.886 176.892 272.813 169.402 272.813 167.228C272.813 165.054 277.95 162.948 277.95 162.948Z" fill="#92E3A9" stroke="#263238" stroke-miterlimit="10"/>
<path d="M277.949 162.948C277.949 162.948 271.18 167.335 271.18 168.111C271.18 168.886 276.9 181.024 277.714 183.606C278.527 186.187 276.082 203.103 275.499 204.915C274.915 206.727 271.528 210.576 271.528 210.576L257.059 210.322L254.321 211.001L250.873 210.967C250.873 210.967 246.908 208.901 246.207 208.77C245.506 208.64 233.016 205.023 231.267 206.189C229.517 207.355 230.1 208.77 230.801 209.019C231.502 209.269 257.176 214.443 257.76 214.443C258.343 214.443 271.18 216.764 275.616 214.958C280.052 213.152 284.365 206.178 285.302 203.851L286.233 201.53L282.385 197.782C282.385 197.782 282.498 194.164 283.199 192.228C283.9 190.292 286.233 184.483 285.537 182.417C284.841 180.351 274.931 169.017 275.033 167.335C275.135 165.654 277.949 162.948 277.949 162.948Z" fill="#263238" stroke="#263238" stroke-miterlimit="10"/>
<path d="M279.351 201.297C278.087 201.688 276.824 202.781 275.703 204.049C275.621 204.451 275.55 204.745 275.498 204.915C274.915 206.721 271.528 210.576 271.528 210.576L257.059 210.322L254.321 211.001L250.873 210.967C249.544 211.317 248.244 211.786 246.984 212.371C252.566 213.503 257.509 214.454 257.76 214.454C258.343 214.454 271.18 216.775 275.616 214.97C280.052 213.164 284.365 206.189 285.302 203.862L286.233 201.541C284.015 200.688 281.614 200.604 279.351 201.297Z" fill="#263238" stroke="#263238" stroke-miterlimit="10"/>
<path d="M278.769 151.58C278.769 151.58 272.695 149.129 270.48 150.159C268.265 151.189 264.647 154.422 264.177 156.618C263.706 158.815 264.647 159.845 266.162 161.397C267.676 162.948 271.764 167.85 271.764 167.85L277.95 162.948L278.769 161.782C278.769 161.782 281.685 160.881 281.803 160.236C281.884 158.276 281.687 156.314 281.22 154.422C281.06 153.758 280.752 153.149 280.324 152.653C279.896 152.156 279.361 151.787 278.769 151.58Z" fill="#92E3A9" stroke="#263238" stroke-miterlimit="10"/>
<path d="M278.512 152.101C278.512 152.101 277.489 154.292 278.277 155.843C279.065 157.394 280.835 161.651 281.311 160.372C281.787 159.092 281.08 154.948 280.287 153.788C279.806 153.097 279.202 152.523 278.512 152.101Z" fill="white" stroke="#263238" stroke-miterlimit="10"/>
<path d="M267.978 163.406C269.717 165.393 271.764 167.85 271.764 167.85L277.95 162.948L278.768 161.781C279.612 161.52 280.435 161.183 281.229 160.774C278.845 159.528 273.493 156.913 272.229 157.909C270.966 158.905 268.95 161.917 267.978 163.406Z" fill="#6E6E6E" stroke="#263238" stroke-miterlimit="10"/>
<path d="M269.661 153.131C269.661 153.131 269.549 143.965 268.126 143.705C266.704 143.445 264.156 144.611 264.156 144.611C263.594 143.726 263.211 142.716 263.034 141.652C262.858 140.588 262.891 139.494 263.133 138.446C263.163 138.31 263.199 138.168 263.24 138.021C264.289 134.149 269.426 141.378 269.891 142.55C270.182 143.457 270.3 144.421 270.239 145.381L270.94 152.616C270.94 152.616 272.926 153.907 271.994 154.037C271.063 154.167 267.323 154.037 268.259 153.001C269.196 151.965 269.661 153.131 269.661 153.131Z" fill="#263238" stroke="#263238" stroke-miterlimit="10"/>
<path d="M276.395 164.182L264.074 157.954C264.177 159.296 264.995 160.185 266.162 161.351C267.697 162.902 271.764 167.805 271.764 167.805L276.395 164.182Z" fill="#263238" stroke="#263238" stroke-miterlimit="10"/>
<path d="M221.023 133.067H182.404V169.826H221.023V133.067Z" fill="#263238" stroke="#263238" stroke-miterlimit="10"/>
<path d="M217.703 169.832H185.311V170.749H217.703V169.832Z" fill="#263238" stroke="#263238" stroke-miterlimit="10"/>
<path d="M255.386 210.565C256.374 210.446 257.059 210.35 257.059 210.35C257.059 210.35 250.172 197.544 250.172 196.904C250.172 196.265 256.358 187.354 256.358 187.354L255.309 185.287L238.036 187.354C238.036 187.354 247.957 200.137 251.109 204.27C252.637 206.281 254.065 208.382 255.386 210.565Z" fill="#6E6E6E" stroke="#263238" stroke-miterlimit="10"/>
<path d="M300.585 186.261L302.606 186.843" stroke="#263238" stroke-miterlimit="10"/>
<path d="M286.556 182.213L298.891 185.774" stroke="#263238" stroke-miterlimit="10"/>
<path d="M293.816 183.136L285.998 175.725L290.603 177.112L298.702 184.529L293.816 183.136Z" fill="white" stroke="#263238" stroke-miterlimit="10"/>
<path d="M241.858 198.863C243.751 199.05 245.102 199.197 245.102 199.197" stroke="#263238" stroke-miterlimit="10"/>
<path d="M227.302 200.375C227.302 200.375 227.302 198.524 231.073 198.291C234.147 198.26 237.221 198.408 240.282 198.733" stroke="#263238" stroke-miterlimit="10"/>
<path d="M256.225 169.725C255.76 169.6 253.109 167.194 253.585 167.132C257.796 166.566 268.684 167.953 270.526 168.264C273.002 168.655 269.63 184.427 268.807 190.032C268.096 194.861 269.083 198.11 268.996 199.09C268.988 199.165 268.998 199.241 269.024 199.312C269.05 199.382 269.091 199.444 269.144 199.492L269.656 199.99C269.738 200.072 269.791 200.185 269.804 200.307L269.978 202.158C269.991 202.277 270.043 202.386 270.124 202.464C270.206 202.543 270.311 202.585 270.418 202.583C271.682 202.576 272.938 202.359 274.143 201.937C275.555 201.286 277.791 200.375 277.213 201.807C276.635 203.239 274.742 205.849 273.683 206.37C272.624 206.891 266.97 208.584 265.553 208.98C264.494 209.269 261.91 209.269 260.682 209.252C260.61 209.252 260.539 209.232 260.476 209.194C260.413 209.155 260.36 209.1 260.321 209.032C260.283 208.965 260.261 208.888 260.257 208.809C260.253 208.729 260.267 208.65 260.298 208.578C260.81 207.287 261.93 204.406 262.022 202.724C262.14 200.505 262.616 186.55 263.675 182.508C264.601 178.981 265.89 174.763 266.202 172.81C266.215 172.749 266.217 172.686 266.207 172.624C266.198 172.562 266.177 172.503 266.146 172.451C266.116 172.398 266.076 172.352 266.03 172.317C265.983 172.281 265.93 172.257 265.875 172.244L256.225 169.725Z" fill="#263238" stroke="#263238" stroke-miterlimit="10"/>
<path d="M262.616 205.261L265.594 206.846C265.648 206.876 265.707 206.894 265.768 206.897C266.387 206.897 270.096 207.044 270.741 207.282C271.386 207.519 271.8 207.672 271.212 208.454C270.623 209.235 268.034 210.565 265.21 211.194C262.692 211.814 260.113 212.076 257.535 211.975C256.559 211.934 255.589 211.797 254.634 211.567C254.523 211.54 254.426 211.465 254.365 211.359C254.303 211.253 254.282 211.124 254.307 211.001L255.008 206.693C255.024 206.594 255.068 206.503 255.133 206.433C255.198 206.363 255.281 206.317 255.371 206.302L262.35 205.204C262.442 205.19 262.535 205.21 262.616 205.261Z" fill="white" stroke="#263238" stroke-miterlimit="10"/>
<path d="M271.211 208.453C271.723 207.757 271.513 207.576 270.955 207.361L270.474 207.423C269.497 208.142 267.804 208.985 264.846 209.761C261.563 210.684 258.16 210.977 254.787 210.627C254.679 210.615 254.57 210.649 254.483 210.721C254.396 210.793 254.337 210.899 254.317 211.018C254.292 211.141 254.313 211.27 254.374 211.376C254.436 211.482 254.533 211.557 254.644 211.584C255.598 211.814 256.569 211.95 257.545 211.992C260.123 212.093 262.702 211.831 265.22 211.21C268.034 210.565 270.623 209.24 271.211 208.453Z" fill="white" stroke="#263238" stroke-miterlimit="10"/>
<path d="M232.239 161.312C232.239 161.312 230.827 171.089 231.533 173.563C232.239 176.037 248.678 178.148 253.155 177.758C256.66 177.452 256.122 177.905 259.74 177.616C260.077 177.588 260.384 177.78 260.318 178.154L255.176 205.821C255.164 205.887 255.165 205.955 255.179 206.021C255.193 206.087 255.22 206.149 255.257 206.202C255.294 206.256 255.342 206.3 255.395 206.332C255.449 206.364 255.509 206.383 255.57 206.387C256.933 206.499 258.302 206.486 259.663 206.347C260.824 206.165 261.956 205.801 263.025 205.266C263.08 205.238 263.129 205.197 263.169 205.146C263.208 205.096 263.238 205.036 263.255 204.972L263.649 203.562C263.659 203.506 263.659 203.448 263.649 203.392L263.424 199.542C263.419 199.477 263.428 199.411 263.449 199.35C263.961 197.816 269.456 177.073 270.024 174.559C270.612 171.955 271.318 169.871 269.789 168.7C268.259 167.528 248.468 163.129 248.468 163.129L232.239 161.312Z" fill="#92E3A9" stroke="#263238" stroke-miterlimit="10"/>
<path d="M236.476 167.584C236.476 167.584 244.017 164.72 248.489 163.152" stroke="#263238" stroke-miterlimit="10"/>
<path d="M260.477 177.299C260.477 177.299 264.058 177.061 266.749 175.239" stroke="#263238" stroke-miterlimit="10"/>
<path d="M260.743 178.624C260.743 178.624 265.21 177.729 267.103 176.671" stroke="#263238" stroke-miterlimit="10"/>
<path d="M250.848 148.008L251.528 154.399L256.282 155.713L264.176 156.618L258.656 158.719L248.469 160.972L250.848 148.008Z" fill="#263238" stroke="#263238" stroke-miterlimit="10"/>
<path d="M247.901 125.753C247.901 125.753 245.312 125.102 241.306 129.269C237.698 133.115 235.205 138.061 234.143 143.478C233.083 148.426 232.024 157.813 231.671 159.636C231.318 161.459 231.789 161.719 232.613 162.24C233.437 162.761 238.502 163.808 242.979 164.069C247.456 164.329 249.574 163.412 250.142 162.5C250.71 161.589 250.142 151.948 250.848 148.817C251.554 145.686 252.966 134.873 252.966 134.873L248.361 126.013L247.901 125.753Z" fill="#263238" stroke="#263238" stroke-miterlimit="10"/>
<path d="M252.495 120.409L248.965 126.143L254.378 132.529C254.378 132.529 258.149 127.185 258.737 126.795C259.326 126.404 260.62 125.753 260.62 125.753L252.495 120.409Z" fill="white" stroke="#263238" stroke-miterlimit="10"/>
<path d="M254.281 125.034L256.43 129.546L258.738 126.795L254.281 125.034Z" fill="#263238" stroke="#263238" stroke-miterlimit="10"/>
<path d="M264.155 116.502L264.508 118.455C264.508 118.455 265.921 120.018 265.568 120.929C265.215 121.841 263.567 122.628 263.567 122.628C263.567 122.628 261.408 127.604 260.932 128.125C260.456 128.646 256.737 126.93 255.089 125.889C253.442 124.847 253.083 121.847 253.083 121.847L252.26 121.195C252.26 121.195 249.788 120.544 249.553 119.112C249.318 117.68 249.2 116.112 250.612 115.2C252.024 114.289 253.083 113.768 253.682 113.768C254.281 113.768 262.518 115.2 262.518 115.2L264.155 116.502Z" fill="white" stroke="#263238" stroke-miterlimit="10"/>
<path d="M262.979 123.279C262.979 123.279 260.861 123.143 260.385 121.711" stroke="#263238" stroke-miterlimit="10"/>
<path d="M255.913 115.455C255.913 115.455 254.972 118.065 254.613 118.325C254.255 118.586 254.143 116.236 252.024 116.763C249.906 117.289 250.259 119.888 250.848 120.409C251.275 120.756 251.752 121.02 252.26 121.19L251.134 122.741C251.134 122.741 250.623 122.101 248.847 121.971C247.072 121.841 244.959 119.627 244.841 117.935C244.723 116.242 246.135 114.153 246.135 114.153C246.072 114.412 246.097 114.688 246.205 114.928C246.314 115.168 246.498 115.356 246.724 115.455C247.33 115.684 247.98 115.729 248.607 115.585L255.913 115.455Z" fill="#263238" stroke="#263238" stroke-miterlimit="10"/>
<path d="M247.548 115.846L264.862 116.633C264.862 116.633 264.274 110.926 263.675 108.809C263.076 106.691 256.512 104.28 252.956 104.642C249.4 105.004 248.126 109.46 248.126 109.46L247.548 115.846Z" fill="#263238" stroke="#263238" stroke-miterlimit="10"/>
<path d="M259.07 116.366C261.356 116.951 263.679 117.344 266.018 117.544C269.554 117.804 271.908 116.633 271.908 115.715C271.908 114.798 264.136 116.502 264.136 116.502L259.07 116.366Z" fill="#92E3A9" stroke="#263238" stroke-miterlimit="10"/>
<path d="M248.494 123.143L255.324 133.441L252.495 136.962L246.959 125.493L248.494 123.143Z" fill="#92E3A9" stroke="#263238" stroke-miterlimit="10"/>
<path d="M241.997 153.986L258.405 156.545C258.405 156.545 263.793 155.469 265.236 154.524C266.678 153.578 267.553 154.122 267.85 154.569C268.147 155.016 268.556 158.113 268.699 158.798C268.843 159.483 267.589 159.93 267.088 160.111C266.586 160.292 264.018 159.064 264.018 159.064C264.018 159.064 261.204 160.44 260.16 160.264C259.436 160.116 258.742 159.823 258.113 159.398C258.113 159.398 239.09 161.736 236.322 161.934C233.554 162.132 234.557 158.968 234.864 157.524C235.33 155.328 235.683 153.391 235.683 153.391L241.997 153.986Z" fill="white" stroke="#263238" stroke-miterlimit="10"/>
<path d="M245.127 131.516C243.469 131.601 241.546 133.639 240.579 135.383C237.923 140.229 234.024 155.418 234.024 155.418L246.452 154.099C246.452 154.099 248.09 136.187 247.624 134.285C247.117 132.184 246.181 131.459 245.127 131.516Z" fill="#92E3A9" stroke="#263238" stroke-miterlimit="10"/>
<path d="M266.98 157.779C266.981 157.394 266.878 157.018 266.686 156.698C266.494 156.378 266.22 156.128 265.899 155.98C265.578 155.833 265.224 155.794 264.884 155.869C264.543 155.943 264.229 156.128 263.984 156.4C263.738 156.672 263.571 157.019 263.503 157.396C263.436 157.773 263.471 158.164 263.604 158.519C263.738 158.874 263.963 159.177 264.253 159.39C264.542 159.603 264.882 159.716 265.23 159.715C265.694 159.715 266.139 159.511 266.467 159.148C266.795 158.785 266.98 158.293 266.98 157.779Z" fill="#263238" stroke="#263238" stroke-miterlimit="10"/>
<path d="M193.406 181.925H182.942" stroke="#263238" stroke-miterlimit="10"/>
<path d="M186.431 190.196H164.497" stroke="#263238" stroke-miterlimit="10"/>
<path d="M244.749 120.703H229.794" stroke="#263238" stroke-miterlimit="10"/>
<path d="M177.953 160.411H172.474" stroke="#263238" stroke-miterlimit="10"/>
<path d="M347.938 235.905H361" stroke="#263238" stroke-linecap="round" stroke-linejoin="round"/>
<path d="M1 235.905H344.801" stroke="#263238" stroke-linecap="round" stroke-linejoin="round"/>
</svg>
