<svg width="210" height="50" viewBox="0 0 210 50" fill="none" xmlns="http://www.w3.org/2000/svg">
<rect width="50" height="50" rx="9.74026" fill="#16D176"/>
<path d="M23.7132 36.6558H15.2603V12.8108H23.7831C26.1815 12.8108 28.2462 13.2881 29.9772 14.2428C31.7081 15.1898 33.0393 16.5521 33.9708 18.3296C34.91 20.1071 35.3796 22.2339 35.3796 24.71C35.3796 27.1938 34.91 29.3284 33.9708 31.1137C33.0393 32.8989 31.7004 34.2689 29.9539 35.2237C28.2152 36.1784 26.135 36.6558 23.7132 36.6558ZM20.3018 32.3362H23.5036C24.9939 32.3362 26.2475 32.0723 27.2643 31.5445C28.2889 31.0089 29.0574 30.1822 29.5697 29.0645C30.0897 27.939 30.3498 26.4875 30.3498 24.71C30.3498 22.948 30.0897 21.5081 29.5697 20.3904C29.0574 19.2727 28.2928 18.4499 27.276 17.9221C26.2592 17.3942 25.0056 17.1303 23.5153 17.1303H20.3018V32.3362Z" fill="white"/>
<path d="M81.2652 22.324C81.2652 23.596 81.0532 24.764 80.6292 25.828C80.2052 26.892 79.6092 27.808 78.8412 28.576C78.0732 29.344 77.1492 29.94 76.0692 30.364C74.9892 30.788 73.7892 31 72.4692 31H65.8572V13.648H72.4692C73.7892 13.648 74.9892 13.864 76.0692 14.296C77.1492 14.72 78.0732 15.316 78.8412 16.084C79.6092 16.844 80.2052 17.756 80.6292 18.82C81.0532 19.884 81.2652 21.052 81.2652 22.324ZM77.9532 22.324C77.9532 21.372 77.8252 20.52 77.5692 19.768C77.3212 19.008 76.9572 18.368 76.4772 17.848C76.0052 17.32 75.4292 16.916 74.7492 16.636C74.0772 16.356 73.3172 16.216 72.4692 16.216H69.0972V28.432H72.4692C73.3172 28.432 74.0772 28.292 74.7492 28.012C75.4292 27.732 76.0052 27.332 76.4772 26.812C76.9572 26.284 77.3212 25.644 77.5692 24.892C77.8252 24.132 77.9532 23.276 77.9532 22.324ZM91.415 23.428C91.415 23.044 91.359 22.684 91.247 22.348C91.143 22.004 90.983 21.704 90.767 21.448C90.551 21.192 90.275 20.992 89.939 20.848C89.611 20.696 89.227 20.62 88.787 20.62C87.931 20.62 87.255 20.864 86.759 21.352C86.271 21.84 85.959 22.532 85.823 23.428H91.415ZM85.763 25.216C85.811 25.848 85.923 26.396 86.099 26.86C86.275 27.316 86.507 27.696 86.795 28C87.083 28.296 87.423 28.52 87.815 28.672C88.215 28.816 88.655 28.888 89.135 28.888C89.615 28.888 90.027 28.832 90.371 28.72C90.723 28.608 91.027 28.484 91.283 28.348C91.547 28.212 91.775 28.088 91.967 27.976C92.167 27.864 92.359 27.808 92.543 27.808C92.791 27.808 92.975 27.9 93.095 28.084L93.947 29.164C93.619 29.548 93.251 29.872 92.843 30.136C92.435 30.392 92.007 30.6 91.559 30.76C91.119 30.912 90.667 31.02 90.203 31.084C89.747 31.148 89.303 31.18 88.871 31.18C88.015 31.18 87.219 31.04 86.483 30.76C85.747 30.472 85.107 30.052 84.563 29.5C84.019 28.94 83.591 28.252 83.279 27.436C82.967 26.612 82.811 25.66 82.811 24.58C82.811 23.74 82.947 22.952 83.219 22.216C83.491 21.472 83.879 20.828 84.383 20.284C84.895 19.732 85.515 19.296 86.243 18.976C86.979 18.656 87.807 18.496 88.727 18.496C89.503 18.496 90.219 18.62 90.875 18.868C91.531 19.116 92.095 19.48 92.567 19.96C93.039 20.432 93.407 21.016 93.671 21.712C93.943 22.4 94.079 23.188 94.079 24.076C94.079 24.524 94.031 24.828 93.935 24.988C93.839 25.14 93.655 25.216 93.383 25.216H85.763ZM99.3033 13.168V31H96.3393V13.168H99.3033ZM105.328 18.688V31H102.352V18.688H105.328ZM105.736 15.1C105.736 15.356 105.684 15.596 105.58 15.82C105.476 16.044 105.336 16.24 105.16 16.408C104.992 16.576 104.792 16.712 104.56 16.816C104.328 16.912 104.08 16.96 103.816 16.96C103.56 16.96 103.316 16.912 103.084 16.816C102.86 16.712 102.664 16.576 102.496 16.408C102.328 16.24 102.192 16.044 102.088 15.82C101.992 15.596 101.944 15.356 101.944 15.1C101.944 14.836 101.992 14.588 102.088 14.356C102.192 14.124 102.328 13.924 102.496 13.756C102.664 13.588 102.86 13.456 103.084 13.36C103.316 13.256 103.56 13.204 103.816 13.204C104.08 13.204 104.328 13.256 104.56 13.36C104.792 13.456 104.992 13.588 105.16 13.756C105.336 13.924 105.476 14.124 105.58 14.356C105.684 14.588 105.736 14.836 105.736 15.1ZM119.45 18.688L114.566 31H111.878L106.994 18.688H109.442C109.666 18.688 109.85 18.74 109.994 18.844C110.146 18.948 110.246 19.08 110.294 19.24L112.67 25.816C112.798 26.2 112.91 26.576 113.006 26.944C113.102 27.312 113.186 27.68 113.258 28.048C113.338 27.68 113.426 27.312 113.522 26.944C113.618 26.576 113.734 26.2 113.87 25.816L116.294 19.24C116.35 19.08 116.45 18.948 116.594 18.844C116.738 18.74 116.91 18.688 117.11 18.688H119.45ZM128.587 23.428C128.587 23.044 128.531 22.684 128.419 22.348C128.315 22.004 128.155 21.704 127.939 21.448C127.723 21.192 127.447 20.992 127.111 20.848C126.783 20.696 126.399 20.62 125.959 20.62C125.103 20.62 124.427 20.864 123.931 21.352C123.443 21.84 123.131 22.532 122.995 23.428H128.587ZM122.935 25.216C122.983 25.848 123.095 26.396 123.271 26.86C123.447 27.316 123.679 27.696 123.967 28C124.255 28.296 124.595 28.52 124.987 28.672C125.387 28.816 125.827 28.888 126.307 28.888C126.787 28.888 127.199 28.832 127.543 28.72C127.895 28.608 128.199 28.484 128.455 28.348C128.719 28.212 128.947 28.088 129.139 27.976C129.339 27.864 129.531 27.808 129.715 27.808C129.963 27.808 130.147 27.9 130.267 28.084L131.119 29.164C130.791 29.548 130.423 29.872 130.015 30.136C129.607 30.392 129.179 30.6 128.731 30.76C128.291 30.912 127.839 31.02 127.375 31.084C126.919 31.148 126.475 31.18 126.043 31.18C125.187 31.18 124.391 31.04 123.655 30.76C122.919 30.472 122.279 30.052 121.735 29.5C121.191 28.94 120.763 28.252 120.451 27.436C120.139 26.612 119.983 25.66 119.983 24.58C119.983 23.74 120.119 22.952 120.391 22.216C120.663 21.472 121.051 20.828 121.555 20.284C122.067 19.732 122.687 19.296 123.415 18.976C124.151 18.656 124.979 18.496 125.899 18.496C126.675 18.496 127.391 18.62 128.047 18.868C128.703 19.116 129.267 19.48 129.739 19.96C130.211 20.432 130.579 21.016 130.843 21.712C131.115 22.4 131.251 23.188 131.251 24.076C131.251 24.524 131.203 24.828 131.107 24.988C131.011 25.14 130.827 25.216 130.555 25.216H122.935ZM136.271 20.824C136.655 20.088 137.111 19.512 137.639 19.096C138.167 18.672 138.791 18.46 139.511 18.46C140.079 18.46 140.535 18.584 140.879 18.832L140.687 21.052C140.647 21.196 140.587 21.3 140.507 21.364C140.435 21.42 140.335 21.448 140.207 21.448C140.087 21.448 139.907 21.428 139.667 21.388C139.435 21.348 139.207 21.328 138.983 21.328C138.655 21.328 138.363 21.376 138.107 21.472C137.851 21.568 137.619 21.708 137.411 21.892C137.211 22.068 137.031 22.284 136.871 22.54C136.719 22.796 136.575 23.088 136.439 23.416V31H133.475V18.688H135.215C135.519 18.688 135.731 18.744 135.851 18.856C135.971 18.96 136.051 19.152 136.091 19.432L136.271 20.824ZM153.612 18.688L146.904 34.384C146.816 34.592 146.7 34.748 146.556 34.852C146.42 34.964 146.208 35.02 145.92 35.02H143.712L146.016 30.076L141.036 18.688H143.64C143.872 18.688 144.052 18.744 144.18 18.856C144.316 18.968 144.416 19.096 144.48 19.24L147.096 25.624C147.184 25.84 147.256 26.056 147.312 26.272C147.376 26.488 147.436 26.708 147.492 26.932C147.564 26.708 147.636 26.488 147.708 26.272C147.78 26.048 147.86 25.828 147.948 25.612L150.42 19.24C150.484 19.08 150.588 18.948 150.732 18.844C150.884 18.74 151.052 18.688 151.236 18.688H153.612ZM172.695 26.908C172.871 26.908 173.027 26.976 173.163 27.112L174.435 28.492C173.731 29.364 172.863 30.032 171.831 30.496C170.807 30.96 169.575 31.192 168.135 31.192C166.847 31.192 165.687 30.972 164.655 30.532C163.631 30.092 162.755 29.48 162.027 28.696C161.299 27.912 160.739 26.976 160.347 25.888C159.963 24.8 159.771 23.612 159.771 22.324C159.771 21.02 159.979 19.828 160.395 18.748C160.811 17.66 161.395 16.724 162.147 15.94C162.907 15.156 163.811 14.548 164.859 14.116C165.907 13.676 167.067 13.456 168.339 13.456C169.603 13.456 170.723 13.664 171.699 14.08C172.683 14.496 173.519 15.04 174.207 15.712L173.127 17.212C173.063 17.308 172.979 17.392 172.875 17.464C172.779 17.536 172.643 17.572 172.467 17.572C172.347 17.572 172.223 17.54 172.095 17.476C171.967 17.404 171.827 17.32 171.675 17.224C171.523 17.12 171.347 17.008 171.147 16.888C170.947 16.768 170.715 16.66 170.451 16.564C170.187 16.46 169.879 16.376 169.527 16.312C169.183 16.24 168.783 16.204 168.327 16.204C167.551 16.204 166.839 16.344 166.191 16.624C165.551 16.896 164.999 17.296 164.535 17.824C164.071 18.344 163.711 18.984 163.455 19.744C163.199 20.496 163.071 21.356 163.071 22.324C163.071 23.3 163.207 24.168 163.479 24.928C163.759 25.688 164.135 26.328 164.607 26.848C165.079 27.368 165.635 27.768 166.275 28.048C166.915 28.32 167.603 28.456 168.339 28.456C168.779 28.456 169.175 28.432 169.527 28.384C169.887 28.336 170.215 28.26 170.511 28.156C170.815 28.052 171.099 27.92 171.363 27.76C171.635 27.592 171.903 27.388 172.167 27.148C172.247 27.076 172.331 27.02 172.419 26.98C172.507 26.932 172.599 26.908 172.695 26.908ZM181.368 18.496C182.28 18.496 183.108 18.644 183.852 18.94C184.604 19.236 185.244 19.656 185.772 20.2C186.308 20.744 186.72 21.408 187.008 22.192C187.296 22.976 187.44 23.852 187.44 24.82C187.44 25.796 187.296 26.676 187.008 27.46C186.72 28.244 186.308 28.912 185.772 29.464C185.244 30.016 184.604 30.44 183.852 30.736C183.108 31.032 182.28 31.18 181.368 31.18C180.448 31.18 179.612 31.032 178.86 30.736C178.108 30.44 177.464 30.016 176.928 29.464C176.4 28.912 175.988 28.244 175.692 27.46C175.404 26.676 175.26 25.796 175.26 24.82C175.26 23.852 175.404 22.976 175.692 22.192C175.988 21.408 176.4 20.744 176.928 20.2C177.464 19.656 178.108 19.236 178.86 18.94C179.612 18.644 180.448 18.496 181.368 18.496ZM181.368 28.9C182.392 28.9 183.148 28.556 183.636 27.868C184.132 27.18 184.38 26.172 184.38 24.844C184.38 23.516 184.132 22.504 183.636 21.808C183.148 21.112 182.392 20.764 181.368 20.764C180.328 20.764 179.556 21.116 179.052 21.82C178.556 22.516 178.308 23.524 178.308 24.844C178.308 26.164 178.556 27.172 179.052 27.868C179.556 28.556 180.328 28.9 181.368 28.9ZM194.108 24.544C194.476 24.544 194.796 24.496 195.068 24.4C195.34 24.296 195.564 24.156 195.74 23.98C195.924 23.804 196.06 23.592 196.148 23.344C196.244 23.096 196.292 22.824 196.292 22.528C196.292 21.92 196.108 21.44 195.74 21.088C195.38 20.728 194.836 20.548 194.108 20.548C193.38 20.548 192.832 20.728 192.464 21.088C192.104 21.44 191.924 21.92 191.924 22.528C191.924 22.816 191.968 23.084 192.056 23.332C192.152 23.58 192.288 23.796 192.464 23.98C192.648 24.156 192.876 24.296 193.148 24.4C193.428 24.496 193.748 24.544 194.108 24.544ZM197.456 31.552C197.456 31.312 197.384 31.116 197.24 30.964C197.096 30.812 196.9 30.696 196.652 30.616C196.404 30.528 196.112 30.464 195.776 30.424C195.448 30.384 195.096 30.356 194.72 30.34C194.352 30.316 193.968 30.296 193.568 30.28C193.176 30.264 192.792 30.232 192.416 30.184C192.088 30.368 191.82 30.584 191.612 30.832C191.412 31.08 191.312 31.368 191.312 31.696C191.312 31.912 191.364 32.112 191.468 32.296C191.58 32.488 191.752 32.652 191.984 32.788C192.224 32.924 192.532 33.028 192.908 33.1C193.284 33.18 193.744 33.22 194.288 33.22C194.84 33.22 195.316 33.176 195.716 33.088C196.116 33.008 196.444 32.892 196.7 32.74C196.964 32.596 197.156 32.42 197.276 32.212C197.396 32.012 197.456 31.792 197.456 31.552ZM200.408 19.108V20.212C200.408 20.564 200.196 20.78 199.772 20.86L198.668 21.064C198.836 21.488 198.92 21.952 198.92 22.456C198.92 23.064 198.796 23.616 198.548 24.112C198.308 24.6 197.972 25.016 197.54 25.36C197.108 25.704 196.596 25.972 196.004 26.164C195.42 26.348 194.788 26.44 194.108 26.44C193.868 26.44 193.636 26.428 193.412 26.404C193.188 26.38 192.968 26.348 192.752 26.308C192.368 26.54 192.176 26.8 192.176 27.088C192.176 27.336 192.288 27.52 192.512 27.64C192.744 27.752 193.048 27.832 193.424 27.88C193.8 27.928 194.228 27.96 194.708 27.976C195.188 27.984 195.68 28.008 196.184 28.048C196.688 28.088 197.18 28.16 197.66 28.264C198.14 28.36 198.568 28.516 198.944 28.732C199.32 28.948 199.62 29.244 199.844 29.62C200.076 29.988 200.192 30.464 200.192 31.048C200.192 31.592 200.056 32.12 199.784 32.632C199.52 33.144 199.132 33.6 198.62 34C198.116 34.4 197.492 34.72 196.748 34.96C196.012 35.208 195.172 35.332 194.228 35.332C193.3 35.332 192.492 35.24 191.804 35.056C191.116 34.88 190.544 34.64 190.088 34.336C189.632 34.04 189.292 33.696 189.068 33.304C188.844 32.912 188.732 32.504 188.732 32.08C188.732 31.504 188.904 31.024 189.248 30.64C189.6 30.248 190.08 29.936 190.688 29.704C190.36 29.536 190.1 29.312 189.908 29.032C189.716 28.752 189.62 28.384 189.62 27.928C189.62 27.744 189.652 27.556 189.716 27.364C189.788 27.164 189.888 26.968 190.016 26.776C190.152 26.584 190.32 26.404 190.52 26.236C190.72 26.06 190.956 25.904 191.228 25.768C190.604 25.432 190.112 24.984 189.752 24.424C189.4 23.864 189.224 23.208 189.224 22.456C189.224 21.848 189.344 21.3 189.584 20.812C189.832 20.316 190.172 19.896 190.604 19.552C191.044 19.2 191.56 18.932 192.152 18.748C192.752 18.564 193.404 18.472 194.108 18.472C194.636 18.472 195.132 18.528 195.596 18.64C196.06 18.744 196.484 18.9 196.868 19.108H200.408Z" fill="#12AE62"/>
</svg>
