<svg width="331" height="55" viewBox="0 0 331 55" fill="none" xmlns="http://www.w3.org/2000/svg">
<rect y="3" width="50" height="50" rx="9.74026" fill="#16D176"/>
<path d="M23.7132 39.6558H15.2603V15.8108H23.7831C26.1815 15.8108 28.2462 16.2881 29.9772 17.2428C31.7081 18.1898 33.0393 19.5521 33.9708 21.3296C34.91 23.1071 35.3796 25.2339 35.3796 27.71C35.3796 30.1938 34.91 32.3284 33.9708 34.1137C33.0393 35.8989 31.7004 37.2689 29.9539 38.2237C28.2152 39.1784 26.135 39.6558 23.7132 39.6558ZM20.3018 35.3362H23.5036C24.9939 35.3362 26.2475 35.0723 27.2643 34.5445C28.2889 34.0089 29.0574 33.1822 29.5697 32.0645C30.0897 30.939 30.3498 29.4875 30.3498 27.71C30.3498 25.948 30.0897 24.5081 29.5697 23.3904C29.0574 22.2727 28.2928 21.4499 27.276 20.9221C26.2592 20.3942 25.0056 20.1303 23.5153 20.1303H20.3018V35.3362Z" fill="white"/>
<path d="M78.294 43H67.9815V13.9091H78.3793C81.3054 13.9091 83.8243 14.4915 85.9361 15.6562C88.0478 16.8116 89.6719 18.4735 90.8082 20.642C91.9541 22.8106 92.527 25.4053 92.527 28.4261C92.527 31.4564 91.9541 34.0606 90.8082 36.2386C89.6719 38.4167 88.0384 40.0881 85.9077 41.2528C83.7865 42.4176 81.2486 43 78.294 43ZM74.1321 37.7301H78.0384C79.8565 37.7301 81.3859 37.4081 82.6264 36.7642C83.8764 36.1108 84.8139 35.1023 85.4389 33.7386C86.0734 32.3655 86.3906 30.5947 86.3906 28.4261C86.3906 26.2765 86.0734 24.5199 85.4389 23.1562C84.8139 21.7926 83.8812 20.7888 82.6406 20.1449C81.4001 19.5009 79.8707 19.179 78.0526 19.179H74.1321V37.7301ZM106.913 43.4261C104.668 43.4261 102.737 42.9716 101.117 42.0625C99.5073 41.1439 98.2668 39.8466 97.3956 38.1705C96.5244 36.4848 96.0888 34.4915 96.0888 32.1903C96.0888 29.946 96.5244 27.9763 97.3956 26.2812C98.2668 24.5862 99.4931 23.2652 101.075 22.3182C102.665 21.3712 104.531 20.8977 106.671 20.8977C108.111 20.8977 109.451 21.1297 110.691 21.5938C111.941 22.0483 113.03 22.7348 113.958 23.6534C114.896 24.572 115.625 25.7273 116.146 27.1193C116.666 28.5019 116.927 30.1212 116.927 31.9773V33.6392H98.5036V29.8892H111.231C111.231 29.018 111.041 28.2462 110.663 27.5739C110.284 26.9015 109.758 26.3759 109.086 25.9972C108.423 25.6089 107.651 25.4148 106.771 25.4148C105.852 25.4148 105.038 25.6278 104.327 26.054C103.627 26.4706 103.077 27.0341 102.68 27.7443C102.282 28.4451 102.078 29.2263 102.069 30.0881V33.6534C102.069 34.733 102.268 35.6657 102.665 36.4517C103.073 37.2377 103.646 37.8438 104.384 38.2699C105.123 38.696 105.999 38.9091 107.012 38.9091C107.684 38.9091 108.3 38.8144 108.859 38.625C109.417 38.4356 109.896 38.1515 110.293 37.7727C110.691 37.3939 110.994 36.9299 111.202 36.3807L116.799 36.75C116.515 38.0947 115.933 39.2689 115.052 40.2727C114.181 41.267 113.054 42.0436 111.671 42.6023C110.298 43.1515 108.712 43.4261 106.913 43.4261ZM126.927 13.9091V43H120.876V13.9091H126.927ZM131.774 43V21.1818H137.825V43H131.774ZM134.814 18.3693C133.914 18.3693 133.143 18.071 132.499 17.4744C131.864 16.8684 131.547 16.1439 131.547 15.3011C131.547 14.4678 131.864 13.7528 132.499 13.1562C133.143 12.5502 133.914 12.2472 134.814 12.2472C135.714 12.2472 136.481 12.5502 137.115 13.1562C137.759 13.7528 138.081 14.4678 138.081 15.3011C138.081 16.1439 137.759 16.8684 137.115 17.4744C136.481 18.071 135.714 18.3693 134.814 18.3693ZM163.013 21.1818L155.386 43H148.567L140.94 21.1818H147.332L151.863 36.7926H152.09L156.607 21.1818H163.013ZM175.35 43.4261C173.106 43.4261 171.174 42.9716 169.555 42.0625C167.945 41.1439 166.704 39.8466 165.833 38.1705C164.962 36.4848 164.526 34.4915 164.526 32.1903C164.526 29.946 164.962 27.9763 165.833 26.2812C166.704 24.5862 167.931 23.2652 169.512 22.3182C171.103 21.3712 172.969 20.8977 175.109 20.8977C176.548 20.8977 177.888 21.1297 179.129 21.5938C180.379 22.0483 181.468 22.7348 182.396 23.6534C183.333 24.572 184.062 25.7273 184.583 27.1193C185.104 28.5019 185.364 30.1212 185.364 31.9773V33.6392H166.941V29.8892H179.668C179.668 29.018 179.479 28.2462 179.1 27.5739C178.721 26.9015 178.196 26.3759 177.523 25.9972C176.861 25.6089 176.089 25.4148 175.208 25.4148C174.29 25.4148 173.475 25.6278 172.765 26.054C172.064 26.4706 171.515 27.0341 171.117 27.7443C170.719 28.4451 170.516 29.2263 170.506 30.0881V33.6534C170.506 34.733 170.705 35.6657 171.103 36.4517C171.51 37.2377 172.083 37.8438 172.822 38.2699C173.56 38.696 174.436 38.9091 175.45 38.9091C176.122 38.9091 176.737 38.8144 177.296 38.625C177.855 38.4356 178.333 38.1515 178.731 37.7727C179.129 37.3939 179.432 36.9299 179.64 36.3807L185.237 36.75C184.952 38.0947 184.37 39.2689 183.489 40.2727C182.618 41.267 181.491 42.0436 180.109 42.6023C178.736 43.1515 177.149 43.4261 175.35 43.4261ZM189.313 43V21.1818H195.18V24.9886H195.407C195.805 23.6345 196.472 22.6117 197.41 21.9205C198.347 21.2197 199.427 20.8693 200.648 20.8693C200.951 20.8693 201.278 20.8883 201.629 20.9261C201.979 20.964 202.287 21.0161 202.552 21.0824V26.4517C202.268 26.3665 201.875 26.2907 201.373 26.2244C200.871 26.1581 200.412 26.125 199.995 26.125C199.105 26.125 198.309 26.3191 197.609 26.7074C196.917 27.0862 196.368 27.6165 195.961 28.2983C195.563 28.9801 195.364 29.7661 195.364 30.6562V43H189.313ZM210.08 51.1818C209.313 51.1818 208.594 51.1203 207.921 50.9972C207.258 50.8835 206.709 50.7367 206.273 50.5568L207.637 46.0398C208.347 46.2576 208.987 46.3759 209.555 46.3949C210.132 46.4138 210.629 46.2813 211.046 45.9972C211.472 45.7131 211.818 45.2301 212.083 44.5483L212.438 43.625L204.612 21.1818H210.975L215.492 37.2045H215.719L220.279 21.1818H226.685L218.205 45.358C217.798 46.5322 217.244 47.5549 216.543 48.4261C215.852 49.3068 214.976 49.9839 213.915 50.4574C212.855 50.9403 211.576 51.1818 210.08 51.1818ZM264.821 24.0938H258.599C258.486 23.2888 258.254 22.5739 257.903 21.9489C257.553 21.3144 257.103 20.7746 256.554 20.3295C256.005 19.8845 255.37 19.5436 254.651 19.3068C253.94 19.0701 253.169 18.9517 252.335 18.9517C250.83 18.9517 249.518 19.3258 248.401 20.0739C247.283 20.8125 246.417 21.892 245.801 23.3125C245.186 24.7235 244.878 26.4375 244.878 28.4545C244.878 30.5284 245.186 32.2708 245.801 33.6818C246.426 35.0928 247.297 36.1581 248.415 36.8778C249.532 37.5975 250.825 37.9574 252.293 37.9574C253.116 37.9574 253.879 37.8485 254.58 37.6307C255.29 37.4129 255.92 37.0956 256.469 36.679C257.018 36.2528 257.473 35.7367 257.832 35.1307C258.202 34.5246 258.457 33.8333 258.599 33.0568L264.821 33.0852C264.66 34.4205 264.258 35.7083 263.614 36.9489C262.979 38.1799 262.122 39.2831 261.043 40.2585C259.973 41.2244 258.694 41.9915 257.207 42.5597C255.73 43.1184 254.059 43.3977 252.193 43.3977C249.598 43.3977 247.278 42.8106 245.233 41.6364C243.197 40.4621 241.587 38.7623 240.403 36.5369C239.229 34.3116 238.642 31.6174 238.642 28.4545C238.642 25.2822 239.239 22.5833 240.432 20.358C241.625 18.1326 243.244 16.4375 245.29 15.2727C247.335 14.0985 249.636 13.5114 252.193 13.5114C253.879 13.5114 255.441 13.7481 256.881 14.2216C258.33 14.6951 259.613 15.3864 260.73 16.2955C261.848 17.1951 262.757 18.2983 263.457 19.6051C264.168 20.9119 264.622 22.4081 264.821 24.0938ZM278.976 43.4261C276.769 43.4261 274.861 42.9574 273.251 42.0199C271.651 41.0729 270.415 39.7566 269.544 38.071C268.673 36.3759 268.237 34.411 268.237 32.1761C268.237 29.9223 268.673 27.9527 269.544 26.267C270.415 24.572 271.651 23.2557 273.251 22.3182C274.861 21.3712 276.769 20.8977 278.976 20.8977C281.182 20.8977 283.086 21.3712 284.686 22.3182C286.296 23.2557 287.536 24.572 288.408 26.267C289.279 27.9527 289.714 29.9223 289.714 32.1761C289.714 34.411 289.279 36.3759 288.408 38.071C287.536 39.7566 286.296 41.0729 284.686 42.0199C283.086 42.9574 281.182 43.4261 278.976 43.4261ZM279.004 38.7386C280.008 38.7386 280.846 38.4545 281.518 37.8864C282.191 37.3087 282.697 36.5227 283.038 35.5284C283.389 34.5341 283.564 33.4025 283.564 32.1335C283.564 30.8646 283.389 29.733 283.038 28.7386C282.697 27.7443 282.191 26.9583 281.518 26.3807C280.846 25.803 280.008 25.5142 279.004 25.5142C277.991 25.5142 277.139 25.803 276.447 26.3807C275.766 26.9583 275.25 27.7443 274.899 28.7386C274.558 29.733 274.388 30.8646 274.388 32.1335C274.388 33.4025 274.558 34.5341 274.899 35.5284C275.25 36.5227 275.766 37.3087 276.447 37.8864C277.139 38.4545 277.991 38.7386 279.004 38.7386ZM303.479 51.6364C301.518 51.6364 299.838 51.3665 298.436 50.8267C297.044 50.2964 295.936 49.572 295.112 48.6534C294.288 47.7348 293.753 46.7027 293.507 45.5568L299.104 44.804C299.274 45.2396 299.544 45.6468 299.913 46.0256C300.283 46.4044 300.77 46.7074 301.376 46.9347C301.992 47.1714 302.74 47.2898 303.621 47.2898C304.937 47.2898 306.021 46.9678 306.874 46.3239C307.735 45.6894 308.166 44.6241 308.166 43.1278V39.1364H307.911C307.645 39.7424 307.248 40.3153 306.717 40.8551C306.187 41.3949 305.505 41.8352 304.672 42.1761C303.839 42.517 302.844 42.6875 301.689 42.6875C300.051 42.6875 298.559 42.3087 297.214 41.5511C295.879 40.7841 294.814 39.6146 294.018 38.0426C293.232 36.4612 292.839 34.4631 292.839 32.0483C292.839 29.5767 293.242 27.5123 294.047 25.8551C294.852 24.1979 295.922 22.9574 297.257 22.1335C298.602 21.3097 300.074 20.8977 301.675 20.8977C302.896 20.8977 303.919 21.1061 304.743 21.5227C305.567 21.9299 306.23 22.4413 306.732 23.0568C307.243 23.6629 307.636 24.2595 307.911 24.8466H308.138V21.1818H314.146V43.2131C314.146 45.0691 313.692 46.6222 312.783 47.8722C311.874 49.1222 310.614 50.0597 309.004 50.6847C307.404 51.3191 305.562 51.6364 303.479 51.6364ZM303.607 38.142C304.582 38.142 305.406 37.9006 306.078 37.4176C306.76 36.9252 307.281 36.2244 307.641 35.3153C308.01 34.3968 308.195 33.2983 308.195 32.0199C308.195 30.7415 308.015 29.6335 307.655 28.696C307.295 27.7491 306.774 27.0152 306.092 26.4943C305.411 25.9735 304.582 25.7131 303.607 25.7131C302.612 25.7131 301.774 25.983 301.092 26.5227C300.411 27.053 299.894 27.7917 299.544 28.7386C299.194 29.6856 299.018 30.7794 299.018 32.0199C299.018 33.2794 299.194 34.3684 299.544 35.2869C299.904 36.196 300.42 36.9015 301.092 37.4034C301.774 37.8958 302.612 38.142 303.607 38.142Z" fill="#12AE62"/>
</svg>
