<svg width="89" height="89" viewBox="0 0 89 89" fill="none" xmlns="http://www.w3.org/2000/svg">
<path d="M44.445 0C35.6546 0 27.0616 2.60665 19.7527 7.49033C12.4438 12.374 6.74713 19.3154 3.38319 27.4366C0.0192571 35.5579 -0.860902 44.4943 0.854018 53.1158C2.56894 61.7373 6.80191 69.6566 13.0177 75.8723C19.2334 82.0881 27.1527 86.3211 35.7742 88.036C44.3957 89.7509 53.3321 88.8707 61.4534 85.5068C69.5746 82.1429 76.516 76.4463 81.3997 69.1373C86.2833 61.8284 88.89 53.2354 88.89 44.445C88.89 32.6574 84.2074 21.3527 75.8724 13.0176C67.5373 4.68259 56.2326 0 44.445 0ZM38.9264 22.2225C38.9264 20.7491 39.5117 19.336 40.5536 18.2941C41.5955 17.2522 43.0086 16.6669 44.482 16.6669C45.9555 16.6669 47.3686 17.2522 48.4105 18.2941C49.4523 19.336 50.0377 20.7491 50.0377 22.2225V47.7413C50.0377 48.4709 49.894 49.1933 49.6148 49.8674C49.3356 50.5414 48.9264 51.1539 48.4105 51.6698C47.8946 52.1856 47.2821 52.5949 46.6081 52.8741C45.9341 53.1533 45.2116 53.297 44.482 53.297C43.7525 53.297 43.03 53.1533 42.356 52.8741C41.682 52.5949 41.0695 52.1856 40.5536 51.6698C40.0377 51.1539 39.6285 50.5414 39.3493 49.8674C39.0701 49.1933 38.9264 48.4709 38.9264 47.7413V22.2225ZM44.445 72.2231C43.1851 72.2231 41.9534 71.8495 40.9058 71.1495C39.8582 70.4495 39.0416 69.4546 38.5595 68.2905C38.0773 67.1265 37.9512 65.8456 38.197 64.6099C38.4428 63.3741 39.0495 62.239 39.9404 61.3481C40.8313 60.4571 41.9664 59.8504 43.2022 59.6046C44.4379 59.3588 45.7188 59.485 46.8829 59.9671C48.0469 60.4493 49.0419 61.2658 49.7418 62.3134C50.4418 63.361 50.8155 64.5927 50.8155 65.8527C50.8155 67.5422 50.1443 69.1626 48.9496 70.3572C47.7549 71.5519 46.1346 72.2231 44.445 72.2231Z" fill="#EB5757"/>
</svg>
