<svg width="115" height="115" viewBox="0 0 115 115" fill="none" xmlns="http://www.w3.org/2000/svg">
<path d="M57.5698 0.679688C46.3181 0.679688 35.3191 4.0162 25.9636 10.2673C16.6082 16.5184 9.3165 25.4034 5.01066 35.7986C0.704825 46.1938 -0.421778 57.6324 1.77332 68.6679C3.96842 79.7034 9.38663 89.8401 17.3428 97.7963C25.2989 105.752 35.4357 111.171 46.4712 113.366C57.5067 115.561 68.9453 114.434 79.3405 110.128C89.7357 105.823 98.6206 98.5309 104.872 89.1754C111.123 79.82 114.459 68.821 114.459 57.5693C114.459 42.4812 108.466 28.0111 97.7968 17.3423C87.1279 6.6734 72.6578 0.679688 57.5698 0.679688ZM50.506 29.1245C50.506 27.2385 51.2552 25.4297 52.5888 24.0961C53.9224 22.7625 55.7312 22.0133 57.6172 22.0133C59.5032 22.0133 61.312 22.7625 62.6456 24.0961C63.9792 25.4297 64.7284 27.2385 64.7284 29.1245V61.7886C64.7284 62.7224 64.5445 63.6472 64.1871 64.5099C63.8297 65.3727 63.3059 66.1566 62.6456 66.817C61.9852 67.4773 61.2013 68.0011 60.3385 68.3585C59.4758 68.7159 58.5511 68.8998 57.6172 68.8998C56.6833 68.8998 55.7586 68.7159 54.8959 68.3585C54.0331 68.0011 53.2492 67.4773 52.5888 66.817C51.9285 66.1566 51.4047 65.3727 51.0473 64.5099C50.6899 63.6472 50.506 62.7224 50.506 61.7886V29.1245ZM57.5698 93.1253C55.957 93.1253 54.3805 92.647 53.0396 91.751C51.6986 90.855 50.6535 89.5815 50.0363 88.0916C49.4191 86.6016 49.2577 84.9621 49.5723 83.3803C49.8869 81.7985 50.6635 80.3456 51.8039 79.2052C52.9443 78.0648 54.3972 77.2882 55.979 76.9736C57.5607 76.659 59.2003 76.8205 60.6903 77.4376C62.1802 78.0548 63.4538 79.0999 64.3497 80.4409C65.2457 81.7818 65.724 83.3584 65.724 84.9711C65.724 87.1337 64.8649 89.2078 63.3357 90.737C61.8065 92.2662 59.7324 93.1253 57.5698 93.1253Z" fill="#EB5757"/>
</svg>
