<svg width="251" height="193" viewBox="0 0 361 303" fill="none" xmlns="http://www.w3.org/2000/svg">
<path d="M68.888 303.391H207.042L207.042 42.0036H68.888L68.888 303.391Z" stroke="#263238" stroke-width="1.05093" stroke-miterlimit="10"/>
<path d="M79.3651 33.242C117.404 27.62 156.184 27.5317 194.254 32.9803L212.093 35.5335V303.486H203.788V43.629H70.3799V303.486H61.1592V35.5335L79.3651 33.242Z" stroke="#263238" stroke-width="1.05093" stroke-miterlimit="10"/>
<path d="M85.7854 292.607H190.145L190.145 54.3964H85.7854L85.7854 292.607Z" stroke="#263238" stroke-width="1.05093" stroke-miterlimit="10"/>
<path d="M97.344 275.901H178.577V201.527H97.344L97.344 275.901Z" stroke="#263238" stroke-width="1.05093" stroke-miterlimit="10"/>
<path d="M178.586 72.1813H147.749V190.212H178.586V72.1813Z" stroke="#263238" stroke-width="1.05093" stroke-linecap="round" stroke-linejoin="round"/>
<path d="M128.191 72.1813H97.353V190.212H128.191V72.1813Z" stroke="#263238" stroke-width="1.05093" stroke-linecap="round" stroke-linejoin="round"/>
<path d="M107.35 266.735H168.572V210.685H107.35V266.735Z" stroke="#263238" stroke-width="1.05093" stroke-miterlimit="10"/>
<path d="M83.692 144.938C83.2293 144.938 82.7855 145.105 82.4583 145.402C82.1311 145.7 81.9473 146.103 81.9473 146.524V157.014H71.3657V160.653H81.9124V208.227H71.3657V211.874H81.9124V223.094C81.9124 223.523 82.0999 223.934 82.4337 224.238C82.7674 224.541 83.22 224.711 83.692 224.711C84.164 224.711 84.6166 224.541 84.9504 224.238C85.2841 223.934 85.4716 223.523 85.4716 223.094V146.555C85.4764 146.342 85.4336 146.129 85.3458 145.931C85.2581 145.733 85.1272 145.553 84.961 145.402C84.7947 145.251 84.5967 145.132 84.3786 145.052C84.1606 144.972 83.927 144.933 83.692 144.938Z" stroke="#263238" stroke-width="1.05093" stroke-linecap="round" stroke-linejoin="round"/>
<path d="M77.7427 182.03H71.9678V192.044H77.7427V182.03Z" stroke="#263238" stroke-width="1.05093" stroke-linecap="round" stroke-linejoin="round"/>
<path d="M279.299 303.328V2.09692" stroke="#263238" stroke-width="1.05093" stroke-linecap="round" stroke-linejoin="round"/>
<path d="M224.166 170.057L220.956 192.274L222.177 241.156L221.872 287.549H233.012L239.293 239.769L242.957 197.547H245.399L251.514 241.711L258.546 286.986H269.546L268.019 238.659L265.568 183.941L261.904 169.216L224.166 170.057Z" fill="#263238" stroke="#263238" stroke-width="1.05093" stroke-linecap="round" stroke-linejoin="round"/>
<path d="M269.546 286.986L271.082 291.64C271.401 292.598 271.926 293.488 272.625 294.261C273.324 295.034 274.184 295.674 275.156 296.144C277.773 297.389 281.114 299.094 281.358 299.649C281.759 300.561 281.358 303.486 281.358 303.486H257.613C257.613 303.486 257.002 303.272 257.002 299.609C257.002 297.952 258.31 294.059 258.31 294.059L258.546 287.026L269.546 286.986Z" fill="white" stroke="#263238" stroke-width="1.05093" stroke-linecap="round" stroke-linejoin="round"/>
<path d="M257.613 303.486H281.358C281.485 302.529 281.541 301.564 281.524 300.6H257.063C257.124 303.304 257.613 303.486 257.613 303.486Z" fill="white" stroke="#263238" stroke-width="1.05093" stroke-linecap="round" stroke-linejoin="round"/>
<path d="M222.012 286.986L220.477 291.64C220.157 292.598 219.633 293.488 218.933 294.261C218.234 295.034 217.374 295.674 216.403 296.144C213.786 297.389 210.445 299.094 210.2 299.649C209.799 300.561 210.2 303.486 210.2 303.486H233.946C233.946 303.486 234.548 303.272 234.548 299.609C234.548 297.952 233.248 294.059 233.248 294.059L233.012 287.026L222.012 286.986Z" fill="white" stroke="#263238" stroke-width="1.05093" stroke-linecap="round" stroke-linejoin="round"/>
<path d="M233.945 303.486H210.2C210.073 302.529 210.017 301.564 210.034 300.6H234.53C234.434 303.304 233.945 303.486 233.945 303.486Z" fill="white" stroke="#263238" stroke-width="1.05093" stroke-linecap="round" stroke-linejoin="round"/>
<path d="M220.468 118.487C220.468 118.487 214.806 120.073 213.838 122.206C212.87 124.338 206.231 159.393 206.467 161.906C206.702 164.42 211.343 167.218 214.265 165.45C217.188 163.682 222.265 144.042 222.265 144.042" fill="white"/>
<path d="M220.468 118.487C220.468 118.487 214.806 120.073 213.838 122.206C212.87 124.338 206.231 159.393 206.467 161.906C206.702 164.42 211.343 167.218 214.265 165.45C217.188 163.682 222.265 144.042 222.265 144.042" stroke="#263238" stroke-width="1.05093" stroke-linecap="round" stroke-linejoin="round"/>
<path d="M208.691 147.356C207.374 154.635 206.345 160.907 206.423 161.906C206.624 164.388 211.3 167.218 214.222 165.45C215.897 164.435 218.278 157.561 219.997 151.86L208.691 147.356Z" fill="white" stroke="#263238" stroke-width="1.05093" stroke-linecap="round" stroke-linejoin="round"/>
<path d="M206.946 158.045C206.946 158.045 206.362 162.683 205.969 166.434C205.577 170.184 210.68 193.392 210.68 193.392L216.368 193.749C216.368 193.749 216.935 175.346 216.935 171.286C216.935 167.226 217.327 158.98 217.327 158.98" fill="white"/>
<path d="M206.946 158.045C206.946 158.045 206.362 162.683 205.969 166.434C205.577 170.184 210.68 193.392 210.68 193.392L216.368 193.749C216.368 193.749 216.935 175.346 216.935 171.286C216.935 167.226 217.327 158.98 217.327 158.98" stroke="#263238" stroke-width="1.05093" stroke-linecap="round" stroke-linejoin="round"/>
<path d="M217.737 191.402C217.737 191.402 212.05 190.863 210.68 191.402C210 191.647 209.343 191.945 208.717 192.29L210.087 194.613C209.975 195.083 209.975 195.57 210.087 196.04C210.28 196.595 210.544 197.127 210.872 197.626C210.435 199.459 210.109 201.312 209.895 203.176C209.895 204.429 209.302 206.388 210.087 207.284C210.872 208.18 214.989 209.242 214.989 209.242C215.234 209.289 215.487 209.281 215.727 209.219C215.967 209.157 216.187 209.042 216.368 208.885C216.952 208.354 218.523 208.711 219.857 207.101C221.192 205.492 221.602 205.143 221.602 204.072C221.602 203.002 218.854 197.65 218.854 197.65C218.854 197.65 220.232 196.405 219.247 195.509C218.261 194.613 217.092 194.795 217.092 194.264C217.201 193.649 217.398 193.049 217.676 192.48L217.737 191.402Z" fill="#92E3A9" stroke="#263238" stroke-width="1.05093" stroke-linecap="round" stroke-linejoin="round"/>
<path d="M220.293 204.064L217.345 205.309" stroke="#263238" stroke-width="1.05093" stroke-linecap="round" stroke-linejoin="round"/>
<path d="M219.308 204.952C219.308 204.952 219.7 206.736 219.116 207.45L219.308 204.952Z" fill="white"/>
<path d="M219.308 204.952C219.308 204.952 219.7 206.736 219.116 207.45" stroke="#263238" stroke-width="1.05093" stroke-linecap="round" stroke-linejoin="round"/>
<path d="M219.456 140.72C221.297 153.406 223.53 170.477 224.559 171.294C226.121 172.539 259.453 172.539 260.823 171.651C261.602 171.108 262.235 170.411 262.673 169.613C263.112 168.815 263.344 167.936 263.353 167.044C263.353 165.093 271.937 129.12 272.521 126.463C273.106 123.807 274.074 122.031 271.937 120.263C269.799 118.495 259.68 112.461 253.574 110.867C247.467 109.273 237.392 112.286 237.392 112.286C237.392 112.286 227.054 115.831 222.186 117.599C220.786 118.078 219.52 118.834 218.479 119.811" fill="white"/>
<path d="M219.456 140.72C221.297 153.406 223.53 170.477 224.559 171.294C226.121 172.539 259.453 172.539 260.823 171.651C261.602 171.108 262.235 170.411 262.673 169.613C263.112 168.815 263.344 167.936 263.353 167.044C263.353 165.093 271.937 129.12 272.521 126.463C273.106 123.807 274.074 122.031 271.937 120.263C269.799 118.495 259.68 112.461 253.574 110.867C247.467 109.273 237.392 112.286 237.392 112.286C237.392 112.286 227.054 115.831 222.186 117.599C220.786 118.078 219.52 118.834 218.479 119.811" stroke="#263238" stroke-width="1.05093" stroke-linecap="round" stroke-linejoin="round"/>
<path d="M248.924 142.409H238.787V156.943H248.924V142.409Z" fill="#92E3A9" stroke="#263238" stroke-width="1.05093" stroke-linecap="round" stroke-linejoin="round"/>
<path d="M236.842 120.263L243.821 142.591L252.788 118.844C252.788 118.844 249.674 114.411 245.81 114.086C241.945 113.761 238.203 117.067 236.842 120.263Z" fill="white" stroke="#263238" stroke-width="1.05093" stroke-linecap="round" stroke-linejoin="round"/>
<path d="M241.91 108.036C241.91 108.036 236.257 108.916 235.472 111.049C234.687 113.182 234.504 121.674 234.303 123.807C234.103 125.94 231.965 127.169 232.942 127.169C233.919 127.169 234.687 125.932 237.034 124.687C239.138 123.624 241.46 122.963 243.856 122.745C245.024 122.745 249.316 123.094 251.462 124.687C253.608 126.281 254.585 127.351 255.754 126.638C256.923 125.924 254.777 125.052 254.969 123.276C255.161 121.5 256.923 115.474 256.138 111.581C255.353 107.687 248.339 107.148 246.595 107.148C244.999 107.271 243.426 107.569 241.91 108.036Z" fill="white" stroke="#263238" stroke-width="1.05093" stroke-linecap="round" stroke-linejoin="round"/>
<path d="M238.787 106.435C238.787 106.435 238.787 113.706 239.956 116.893C241.125 120.081 243.271 126.638 244.833 126.107C246.394 125.575 251.654 116.362 252.239 114.594C252.823 112.826 253.024 104.286 253.024 104.286C253.024 104.286 245.225 108.036 238.787 106.435Z" fill="white" stroke="#263238" stroke-width="1.05093" stroke-linecap="round" stroke-linejoin="round"/>
<path d="M257.7 91.0208C257.7 91.0208 258.677 95.4531 257.307 97.2213C255.938 98.9895 254.585 98.4661 254.585 98.4661C254.585 98.4661 254.001 104.492 251.855 106.435C249.709 108.377 244.056 111.398 240.933 109.979C237.81 108.56 235.472 103.43 234.888 100.234C234.303 97.0389 233.719 91.5521 233.719 91.5521C233.719 91.5521 236.057 88.8958 241.518 88.539C244.81 88.272 248.091 89.1599 250.686 91.0208C251.654 91.5521 254.585 89.9583 255.92 89.9583C256.301 89.9448 256.678 90.04 256.997 90.2305C257.316 90.4209 257.562 90.6973 257.7 91.0208Z" fill="white" stroke="#263238" stroke-width="1.05093" stroke-linecap="round" stroke-linejoin="round"/>
<path d="M250.485 103.43C249.508 102.716 249.901 98.8149 250.485 97.4036C251.07 95.9922 253.608 95.453 253.608 95.453C253.608 95.453 246.202 94.565 242.102 94.2082C239.399 94.0701 236.694 94.4622 234.172 95.3579C234.373 96.9913 234.635 98.8308 234.888 100.234C235.472 103.406 237.819 108.568 240.933 109.979C243.664 111.224 248.348 109.067 250.904 107.204C251.637 106.477 252.281 105.679 252.823 104.825C253.8 103.239 254.385 99.1559 254.385 99.1559C254.385 99.1559 251.462 104.135 250.485 103.43Z" fill="#92E3A9" stroke="#263238" stroke-width="1.05093" stroke-linecap="round" stroke-linejoin="round"/>
<path d="M238.892 93.0585C238.892 93.6373 238.499 94.113 238.019 94.113C237.752 94.0738 237.512 93.9421 237.349 93.7455C237.187 93.5489 237.114 93.3026 237.147 93.0585C237.147 92.4717 237.539 91.996 238.019 91.996C238.499 91.996 238.892 92.4717 238.892 93.0585Z" fill="#263238"/>
<path d="M246.219 93.1614C246.219 93.7481 245.835 94.2159 245.347 94.2159C244.858 94.2159 244.475 93.7481 244.475 93.1614C244.475 92.5746 244.867 92.1068 245.347 92.1068C245.827 92.1068 246.219 92.5746 246.219 93.1614Z" fill="#263238"/>
<path d="M251.654 91.5521C251.654 91.5521 253.024 96.3095 253.608 95.4532C254.193 94.5969 254.777 91.1953 254.777 91.1953L251.654 91.5521Z" fill="#263238" stroke="#263238" stroke-width="1.05093" stroke-linecap="round" stroke-linejoin="round"/>
<path d="M234.111 89.427C234.111 89.427 233.527 82.8698 233.527 80.388C233.527 77.9062 238.595 74.1875 244.867 74.1875C251.14 74.1875 257.08 77.819 257.543 78.4374C258.834 80.3563 257.735 91.0208 257.735 91.0208L253.443 92.4401C253.443 92.4401 248.374 88.3646 245.26 88.0078C242.146 87.651 234.111 89.427 234.111 89.427Z" fill="#263238" stroke="#263238" stroke-width="1.05093" stroke-linecap="round" stroke-linejoin="round"/>
<path d="M232.742 89.6173C232.742 89.6173 239.372 85.8986 244.641 86.9611C249.91 88.0235 253.408 92.4559 253.408 92.4559C253.408 92.4559 252.44 93.8751 249.125 93.5183C245.81 93.1615 245.025 90.3467 241.718 90.6798C238.412 91.0128 234.888 93.3439 232.742 93.3439C230.596 93.3439 232.742 89.6173 232.742 89.6173Z" fill="#263238" stroke="#263238" stroke-width="1.05093" stroke-linecap="round" stroke-linejoin="round"/>
<path d="M235.254 88.2932C235.254 88.2932 241.884 83.0917 251.532 89.9345" stroke="#6B6B6B" stroke-width="1.05093" stroke-linecap="round" stroke-linejoin="round"/>
<path d="M272.765 120.778C272.765 120.778 275.548 123.569 276.202 126.13C276.856 128.691 284.367 156.07 283.757 157.783C283.146 159.496 277.537 161.946 274.658 161.47C271.779 160.994 264.513 144.026 264.513 144.026" fill="white"/>
<path d="M272.765 120.778C272.765 120.778 275.548 123.569 276.202 126.13C276.856 128.691 284.367 156.07 283.757 157.783C283.146 159.496 277.537 161.946 274.658 161.47C271.779 160.994 264.513 144.026 264.513 144.026" stroke="#263238" stroke-width="1.05093" stroke-linecap="round" stroke-linejoin="round"/>
<path d="M283.731 157.807C284.01 157.014 282.571 150.782 280.869 144.042L267.4 150.385C269.747 155.269 272.94 161.216 274.632 161.486C277.511 161.946 283.12 159.504 283.731 157.807Z" fill="white" stroke="#263238" stroke-width="1.05093" stroke-linecap="round" stroke-linejoin="round"/>
<path d="M272.765 154.849L257.203 172.293L259.636 176.258C259.636 176.258 272.033 168.289 276.115 165.506C280.198 162.723 283.574 159.329 283.862 157.046C284.003 155.55 283.724 154.047 283.05 152.677" fill="white"/>
<path d="M272.765 154.849L257.203 172.293L259.636 176.258C259.636 176.258 272.033 168.289 276.115 165.506C280.198 162.723 283.574 159.329 283.862 157.046C284.003 155.55 283.724 154.047 283.05 152.677" stroke="#263238" stroke-width="1.05093" stroke-linecap="round" stroke-linejoin="round"/>
<path d="M257.813 179.501C257.813 179.501 259.261 178.938 259.88 178.652C260.5 178.367 260.186 177.788 260.692 176.947C261.198 176.107 262.715 176.448 263.021 175.592C263.326 174.735 261.529 171.865 259.47 171.112C257.412 170.358 256.243 170.239 256.173 170.771C256.021 171.261 255.763 171.719 255.414 172.119L253.669 173.704L252.884 175.227C252.884 175.227 245.966 177.177 243.742 177.661C241.517 178.145 246.935 181.919 248.976 182.672C251.017 183.425 252.718 184.131 253.538 183.861C254.358 183.592 257.813 179.501 257.813 179.501Z" fill="#92E3A9" stroke="#263238" stroke-width="1.05093" stroke-linecap="round" stroke-linejoin="round"/>
<path d="M235.612 172L251.576 182.236L229.253 195.771L213.873 183.98L235.612 172Z" fill="white" stroke="#263238" stroke-width="1.05093" stroke-linecap="round" stroke-linejoin="round"/>
<path d="M239.092 174.973L240.427 174.275L245.984 177.756L244.257 178.454L239.092 174.973Z" fill="white" stroke="#263238" stroke-width="1.05093" stroke-linecap="round" stroke-linejoin="round"/>
<path d="M236.406 173.752L217.833 183.497L229.514 192.377L248.47 181.76L236.406 173.752Z" fill="white" stroke="#263238" stroke-width="1.05093" stroke-linecap="round" stroke-linejoin="round"/>
<path d="M254.079 176.432C254.079 176.432 249.892 173.855 248.278 174.22C246.664 174.584 243.978 177.161 243.716 177.669C243.454 178.176 240.401 179.104 240.523 179.651C240.645 180.198 242.739 180.769 243.943 180.539C245.147 180.309 250.049 178.509 250.049 178.509" fill="#92E3A9"/>
<path d="M254.079 176.432C254.079 176.432 249.892 173.855 248.278 174.22C246.664 174.584 243.978 177.161 243.716 177.669C243.454 178.176 240.401 179.104 240.523 179.651C240.645 180.198 242.739 180.769 243.943 180.539C245.147 180.309 250.049 178.509 250.049 178.509" stroke="#263238" stroke-width="1.05093" stroke-linecap="round" stroke-linejoin="round"/>
<path d="M337.694 176.273H261.294V303.486H337.694V176.273Z" fill="#92E3A9" stroke="#263238" stroke-width="1.05093" stroke-linecap="round" stroke-linejoin="round"/>
<path d="M305.915 198.102H268.02V238.659H305.915V198.102Z" fill="white"/>
<path d="M304.537 176.273H294.452V183.497H304.537V176.273Z" fill="white" stroke="#263238" stroke-width="1.05093" stroke-linecap="round" stroke-linejoin="round"/>
<path d="M292.027 215.157L287.081 205.42L282.134 215.157H285.03V230.547H289.131V215.157H292.027Z" fill="#263238"/>
<path d="M304.309 215.157L299.363 205.42L294.417 215.157H297.313V230.547H301.413V215.157H304.309Z" fill="#263238"/>
<path d="M270.864 205.737H279.954V216.37C279.954 217.277 279.557 218.146 278.852 218.787C278.147 219.428 277.191 219.788 276.194 219.788H274.615C273.618 219.788 272.661 219.428 271.956 218.787C271.251 218.146 270.855 217.277 270.855 216.37V205.737H270.864Z" fill="#263238"/>
<path d="M276.089 216.267H274.728V229.921H276.089V216.267Z" fill="#263238"/>
<path d="M279.5 228.478H271.317V230.333H279.5V228.478Z" fill="#263238"/>
<path d="M169.644 101.146C169.644 101.146 168.667 107.346 163.015 109.297C157.362 111.248 141.764 118.511 141.206 124.719C140.648 130.927 149.397 137.477 144.521 141.552C139.644 145.628 132.212 150.234 133.573 158.6C134.934 166.965 144.294 172.245 152.677 171.008C161.061 169.772 164.184 167.639 166.914 160.019C169.644 152.399 165.169 142.654 166.914 138.928C168.659 135.201 173.151 133.79 172.375 127.589C171.599 121.389 166.33 116.782 167.69 112.175C168.35 109.65 169.616 107.289 171.398 105.261L169.644 101.146Z" fill="#263238" stroke="#263238" stroke-width="1.05093" stroke-linecap="round" stroke-linejoin="round"/>
<path d="M150.026 158.663C149.709 159.06 149.486 159.512 149.369 159.99C149.251 160.469 149.244 160.964 149.345 161.446" stroke="#6B6B6B" stroke-width="1.05093" stroke-linecap="round" stroke-linejoin="round"/>
<path d="M150.846 120.889C146.789 123.482 144.818 126.36 146.632 129.119C149.345 133.227 158.086 140.347 148.743 144.977C139.4 149.608 134.576 163.912 144.53 168.566C154.483 173.22 159.604 163.087 157.798 158.702C157.548 158.027 157.055 157.447 156.398 157.057C155.741 156.667 154.959 156.49 154.178 156.554" stroke="#6B6B6B" stroke-width="1.05093" stroke-linecap="round" stroke-linejoin="round"/>
<path d="M165.928 110.764C165.928 110.764 166.53 114.047 158.077 117.337C157.205 117.678 156.333 118.043 155.504 118.407" stroke="#6B6B6B" stroke-width="1.05093" stroke-linecap="round" stroke-linejoin="round"/>
<path d="M166.53 115.141C166.53 115.141 166.827 119.803 162.613 121.722C158.4 123.641 155.975 130.214 158.993 132.949" stroke="#6B6B6B" stroke-width="1.05093" stroke-linecap="round" stroke-linejoin="round"/>
<path d="M194.035 198.244C194.035 198.244 194.559 204.167 193.782 215.997C193.006 227.828 186.49 246.064 186.228 248.665C185.966 251.266 182.843 259.766 182.581 265.942C182.32 272.119 178.438 282.863 178.167 284.02C177.688 286.082 175.986 292.742 175.986 292.742C175.986 292.742 181.692 297.333 183.777 298.752C185.861 300.172 190.659 301.084 189.613 303.05C189.203 303.843 168.519 302.098 168.519 302.098C168.519 302.098 166.958 299.022 167.734 296.651C168.407 294.326 168.929 291.967 169.296 289.587C169.557 288.167 169.557 279.168 169.557 273.958C169.557 268.749 168.781 261.89 170.081 256.681C171.265 252.62 172.832 248.659 174.765 244.843C174.765 244.843 176.074 239.642 175.289 228.747C174.503 217.853 171.119 201.059 171.119 201.059C171.119 201.059 187.789 201.773 194.035 198.244Z" fill="white" stroke="#263238" stroke-width="1.05093" stroke-linecap="round" stroke-linejoin="round"/>
<path d="M183.785 298.76C181.7 297.341 176.414 293.519 176.414 293.519C176.414 293.519 176.458 293.289 176.545 292.917C176.048 292.956 175.454 293.131 175.454 293.813V297.301C172.869 297.403 170.301 296.877 168.013 295.779C167.926 296.08 167.839 296.374 167.743 296.659C166.966 299.038 168.528 302.106 168.528 302.106C168.528 302.106 189.211 303.819 189.621 303.05C190.659 301.092 185.853 300.18 183.785 298.76Z" fill="white" stroke="#263238" stroke-width="1.05093" stroke-linecap="round" stroke-linejoin="round"/>
<path d="M180.296 276.845C181.369 273.245 182.477 269.003 182.608 265.919C182.869 259.766 185.992 251.242 186.254 248.641C186.516 246.041 193.024 227.812 193.809 215.974C194.594 204.136 194.062 198.221 194.062 198.221C187.816 201.773 171.145 201.067 171.145 201.067C171.145 201.067 174.53 217.869 175.315 228.755C176.1 239.642 174.791 244.851 174.791 244.851C172.858 248.667 171.291 252.628 170.107 256.689C168.807 261.899 169.584 268.765 169.584 273.966V276.805C173.102 277.582 176.771 277.596 180.296 276.845Z" fill="#263238" stroke="#263238" stroke-width="1.05093" stroke-linecap="round" stroke-linejoin="round"/>
<path d="M156.542 199.41C156.542 199.41 157.58 208.639 161.488 215.974C165.396 223.308 177.112 242.726 177.112 242.726C177.112 242.726 166.434 253.137 164.594 259.06C162.753 264.983 157.039 282.49 155.739 285.329C154.44 288.167 148.97 291.252 150.793 293.615C152.616 295.977 158.862 299.062 161.732 301.195C164.602 303.328 170.325 303.795 171.625 303.32C172.925 302.844 170.063 300.941 168.502 299.062C166.94 297.183 163.032 290.776 163.032 289.595V286.986C163.032 286.986 185.713 255.032 187.249 251.48C188.784 247.928 190.633 244.621 190.372 242.488C190.11 240.355 182.564 199.172 182.564 199.172L156.542 199.41Z" fill="white" stroke="#263238" stroke-width="1.05093" stroke-linecap="round" stroke-linejoin="round"/>
<path d="M171.642 303.32C172.942 302.852 170.08 300.941 168.519 299.062C166.957 297.183 163.049 290.776 163.049 289.595V288.96C162.064 288.477 160.668 288.12 160.179 289.595L159.403 291.973L154.047 287.644C152.058 289.777 149.467 291.894 150.81 293.63C152.633 296.009 158.88 299.078 161.75 301.211C164.62 303.343 170.342 303.795 171.642 303.32Z" fill="white" stroke="#263238" stroke-width="1.05093" stroke-linecap="round" stroke-linejoin="round"/>
<path d="M190.389 242.488C190.136 240.355 182.582 199.172 182.582 199.172L156.542 199.41C156.542 199.41 157.58 208.639 161.488 215.974C165.396 223.308 177.112 242.726 177.112 242.726C177.112 242.726 166.434 253.137 164.594 259.06C163.721 261.819 162.038 267.108 160.337 272.254C163.05 274.556 166.266 276.312 169.776 277.408C176.589 267.687 186.245 253.755 187.223 251.48C188.828 247.936 190.651 244.621 190.389 242.488Z" fill="#263238" stroke="#263238" stroke-width="1.05093" stroke-linecap="round" stroke-linejoin="round"/>
<path d="M184.239 128.2C184.239 128.2 190.965 137.516 192.64 141.489C194.315 145.461 197.185 154.175 196.504 157.537C195.824 160.899 190.284 169.296 190.284 171.016C190.284 172.737 195.518 197.912 195.518 197.912C195.518 197.912 195.353 200.203 187.109 202.494C178.865 204.786 169.802 204.017 163.556 202.954C157.31 201.892 154.832 199.592 154.832 199.592C154.832 199.592 165.248 168.114 165.248 166.743C165.248 165.371 161.383 149.172 160.014 145.2C158.644 141.227 158.33 138.936 160.886 135.685C163.442 132.434 174.669 128.81 177.365 127.439C180.06 126.067 183.393 126.218 184.239 128.2Z" fill="white" stroke="#263238" stroke-width="1.05093" stroke-linecap="round" stroke-linejoin="round"/>
<path d="M183.393 123.767C183.393 123.767 187.091 127.28 188.627 128.35C190.162 129.421 190.302 134.004 190.642 134.773C190.982 135.542 191.148 136.295 190.642 136.144C190.136 135.994 188.627 132.632 188.627 132.632L188.792 134.773C188.792 134.773 183.079 128.35 182.407 127.28C181.735 126.209 183.393 123.767 183.393 123.767Z" fill="white" stroke="#263238" stroke-width="1.05093" stroke-linecap="round" stroke-linejoin="round"/>
<path d="M188.609 132.632L189.115 128.961" stroke="#263238" stroke-width="1.05093" stroke-linecap="round" stroke-linejoin="round"/>
<path d="M176.335 87.2385C176.335 87.2385 170.115 89.0701 168.938 94.5728C167.76 100.076 170.621 106.641 172.305 110.764C173.989 114.887 174.486 116.116 174.154 119.169C173.756 121.704 173.138 124.207 172.305 126.654C172.305 126.654 178.35 133.227 179.868 136.89C181.386 140.553 187.266 146.064 189.281 145.612C191.296 145.16 191.296 140.854 188.941 135.986C186.585 131.118 183.227 128.501 183.227 126.471C183.227 124.441 184.57 120.818 184.57 120.818C184.57 120.818 189.115 123.569 190.624 122.959C192.133 122.348 195.666 114.554 196.504 112.572C197.341 110.589 194.829 107.679 195.832 106.308C196.835 104.936 199.025 103.247 198.353 100.194C197.682 97.1418 196.678 90.6797 191.968 87.6666C187.257 84.6536 179.022 85.5734 176.335 87.2385Z" fill="white" stroke="#263238" stroke-width="1.05093" stroke-linecap="round" stroke-linejoin="round"/>
<path d="M177.347 132.021C177.347 132.021 184.239 142.868 186.76 148.371C189.281 153.874 190.249 162.881 189.281 166.092C188.313 169.304 184.405 186.708 184.919 191.608C185.434 196.508 186.088 208.552 186.088 208.552C186.088 208.552 181.046 209.345 169.112 207.323C162.281 206.236 155.582 204.55 149.109 202.288C149.109 202.288 162.892 167.448 162.892 166.378C162.892 165.307 163.765 156.142 160.371 150.52C156.978 144.898 154.317 139.213 156.673 137.08C159.028 134.947 170.962 125.773 170.962 125.773L177.347 132.021Z" fill="#92E3A9" stroke="#263238" stroke-width="1.05093" stroke-linecap="round" stroke-linejoin="round"/>
<path d="M191.968 87.7142C187.266 84.6536 179.022 85.5734 176.335 87.2543C176.335 87.2543 170.115 89.0859 168.938 94.5886C167.76 100.091 170.621 106.657 172.305 110.78C172.898 112.254 173.352 113.349 173.666 114.3C173.893 114.287 174.115 114.233 174.32 114.142C177.513 112.77 176.335 108.647 180.374 106.657C183.654 105.071 193.957 99.2667 197.673 97.1418C196.87 93.9781 195.413 89.9502 191.968 87.7142Z" fill="#263238" stroke="#263238" stroke-width="1.05093" stroke-linecap="round" stroke-linejoin="round"/>
<path d="M195.762 94.5964C195.762 94.5964 182.503 105.554 172.209 106.926" stroke="#6B6B6B" stroke-width="1.05093" stroke-linecap="round" stroke-linejoin="round"/>
<path d="M187.58 94.5173C182.276 96.896 174.931 100.551 171.651 103.366" stroke="#6B6B6B" stroke-width="1.05093" stroke-linecap="round" stroke-linejoin="round"/>
<path d="M193.651 91.853C193.651 91.853 192.622 92.2812 190.982 93.0027" stroke="#6B6B6B" stroke-width="1.05093" stroke-linecap="round" stroke-linejoin="round"/>
<path d="M192.509 106.807L192.343 108.948C191.893 109.217 191.367 109.36 190.829 109.36C190.292 109.36 189.765 109.217 189.316 108.948" stroke="#263238" stroke-width="1.05093" stroke-linecap="round" stroke-linejoin="round"/>
<path d="M193.983 104.516C193.399 103.985 192.643 103.639 191.826 103.529C191.009 103.419 190.175 103.551 189.447 103.905" stroke="#263238" stroke-width="1.05093" stroke-linecap="round" stroke-linejoin="round"/>
<path d="M196.557 110.724C195.641 111.002 192.526 111.7 187.763 110.169C182.049 108.338 178.691 107.117 178.691 107.117C178.691 107.117 176.842 106.324 176.17 107.727C175.498 109.131 176.004 110.478 177.679 112.485C179.354 114.491 184.571 120.889 184.571 120.889C184.571 120.889 189.116 123.641 190.625 123.03C192.134 122.42 195.667 114.625 196.504 112.643C196.724 112.021 196.742 111.355 196.557 110.724ZM182.224 115.482C181.884 116.275 177.679 111.351 176.842 109.828C176.004 108.306 178.019 107.228 179.703 108.449L183.192 110.13C183.192 110.13 182.555 114.752 182.224 115.521V115.482Z" fill="#92E3A9" stroke="#263238" stroke-width="1.05093" stroke-linecap="round" stroke-linejoin="round"/>
<path d="M180.2 109.559C180.2 109.559 179.328 104.365 177.173 104.064C175.018 103.763 175.158 108.028 176.17 109.868C176.498 110.398 176.993 110.827 177.592 111.098C178.191 111.37 178.865 111.472 179.528 111.39" fill="white"/>
<path d="M180.2 109.559C180.2 109.559 179.328 104.365 177.173 104.064C175.018 103.763 175.158 108.028 176.17 109.868C176.498 110.398 176.993 110.827 177.592 111.098C178.191 111.37 178.865 111.472 179.528 111.39" stroke="#263238" stroke-width="1.05093" stroke-linecap="round" stroke-linejoin="round"/>
<path d="M172.131 121.333C172.131 121.333 176.676 126.527 177.365 127.446C178.054 128.366 183.079 134.321 183.079 134.321L179.38 139.816C179.38 139.816 179.04 139.665 178.708 138.293C178.377 136.921 170.639 128.057 170.473 127.597C170.108 127.078 169.655 126.615 169.13 126.225L172.131 121.333Z" fill="white" stroke="#263238" stroke-width="1.05093" stroke-linecap="round" stroke-linejoin="round"/>
<path d="M231.537 178.216C231.375 178.22 231.215 178.183 231.075 178.108C230.935 178.034 230.82 177.926 230.744 177.796L225.85 170.017C225.766 169.828 225.762 169.618 225.837 169.426C225.913 169.234 226.064 169.074 226.26 168.976C226.457 168.878 226.687 168.85 226.905 168.895C227.124 168.941 227.316 169.058 227.446 169.224L232.331 177.003C232.397 177.096 232.44 177.201 232.459 177.31C232.477 177.42 232.47 177.531 232.438 177.638C232.406 177.745 232.349 177.845 232.273 177.93C232.196 178.016 232.1 178.086 231.991 178.137C231.85 178.2 231.694 178.227 231.537 178.216Z" fill="white" stroke="#263238" stroke-width="1.05093" stroke-linecap="round" stroke-linejoin="round"/>
<path d="M164.445 131.863C164.445 131.863 155.286 137.373 154.483 138.713C153.681 140.053 172.017 172.57 173.509 176.495C175.001 180.42 175.786 183.631 176.301 183.901C176.815 184.17 220.974 182.101 220.974 182.101C220.974 182.101 227.193 182.061 228.676 181.102C229.721 180.29 230.545 179.269 231.084 178.121C231.084 178.121 232.759 177.922 232.715 176.701C232.672 175.48 232.82 174.862 232.148 174.878C231.477 174.893 226.914 173.514 225.039 173.72C223.163 173.926 217.807 178.374 217.807 178.374C217.807 178.374 200.744 176.13 194.978 174.933C189.211 173.736 185.321 172.927 185.321 172.927L177.583 145.287" fill="#92E3A9"/>
<path d="M164.445 131.863C164.445 131.863 155.286 137.373 154.483 138.713C153.681 140.053 172.017 172.57 173.509 176.495C175.001 180.42 175.786 183.631 176.301 183.901C176.815 184.17 220.974 182.101 220.974 182.101C220.974 182.101 227.193 182.061 228.676 181.102C229.721 180.29 230.545 179.269 231.084 178.121C231.084 178.121 232.759 177.922 232.715 176.701C232.672 175.48 232.82 174.862 232.148 174.878C231.477 174.893 226.914 173.514 225.039 173.72C223.163 173.926 217.807 178.374 217.807 178.374C217.807 178.374 200.744 176.13 194.978 174.933C189.211 173.736 185.321 172.927 185.321 172.927L177.583 145.287" stroke="#263238" stroke-width="1.05093" stroke-linecap="round" stroke-linejoin="round"/>
<path d="M188.679 183.544C201.904 183.005 220.956 182.101 220.956 182.101C220.956 182.101 227.176 182.062 228.659 181.102C229.703 180.29 230.527 179.27 231.067 178.121C231.067 178.121 232.742 177.923 232.698 176.702C232.654 175.48 232.803 174.862 232.131 174.878C231.459 174.894 226.897 173.514 225.021 173.72C223.146 173.926 217.79 178.375 217.79 178.375C217.79 178.375 200.726 176.131 194.96 174.933L190.04 173.911L188.679 183.544Z" fill="white" stroke="#263238" stroke-width="1.05093" stroke-linecap="round" stroke-linejoin="round"/>
<path d="M188.191 173.3L187.388 183.568L192.282 183.877L193.285 174.679L188.191 173.3Z" fill="white" stroke="#263238" stroke-width="1.05093" stroke-linecap="round" stroke-linejoin="round"/>
<path d="M53.4564 198.871C53.5 198.871 54.3288 195.929 54.3724 195.699C54.7126 193.463 53.9275 188.976 51.4326 187.881C51.0127 187.709 50.5577 187.619 50.0972 187.618C49.6366 187.616 49.1808 187.703 48.7595 187.872C48.3382 188.041 47.9607 188.289 47.6517 188.599C47.3428 188.909 47.1092 189.275 46.9661 189.673C46.2944 191.346 47.1493 193.4 48.1525 194.811C49.3302 196.508 53.4564 198.871 53.4564 198.871Z" fill="#263238"/>
<path d="M67.9899 182.831C65.2333 182.561 61.9533 186.002 60.9501 188.056C60.8629 188.23 59.8509 191.156 59.9033 191.156H59.9556C59.4409 191.695 58.8826 192.274 58.2981 192.924C57.2164 194.129 56.0126 195.501 54.8087 197.071C53.4906 198.75 52.2818 200.497 51.1885 202.304C49.9541 204.331 48.9207 206.454 48.1004 208.647V208.727C48.1004 207.989 48.1004 205.92 48.0568 205.761C47.734 203.533 45.6752 199.418 42.9535 198.926C42.4979 198.86 42.032 198.882 41.5864 198.991C41.1408 199.1 40.7256 199.293 40.368 199.558C40.0105 199.823 39.7187 200.154 39.5118 200.529C39.3049 200.904 39.1875 201.314 39.1675 201.733C39.0018 203.509 40.415 205.286 41.7846 206.404C43.3373 207.664 47.6555 208.893 48.0044 208.988C47.2242 211.232 46.6121 213.52 46.1725 215.839C45.9108 217.187 45.6927 218.551 45.4921 219.922C45.4921 219.288 45.4921 218.709 45.4921 218.63C45.178 216.402 43.1193 212.287 40.3888 211.795C39.9336 211.731 39.4687 211.755 39.0243 211.865C38.5798 211.975 38.1658 212.169 37.8088 212.433C37.4519 212.698 37.1601 213.028 36.9524 213.401C36.7446 213.775 36.6255 214.184 36.6028 214.602C36.4458 216.378 37.859 218.154 39.2199 219.272C40.5807 220.39 44.2795 221.524 45.2565 221.802C45.1867 222.333 45.1082 222.856 45.0384 223.387C44.7069 225.917 44.3842 228.438 43.9829 230.912C43.8433 231.776 43.6776 232.633 43.5031 233.489C43.5031 232.918 43.5031 232.442 43.5031 232.371C43.1891 230.135 41.1303 226.028 38.3998 225.536C37.9451 225.471 37.4805 225.494 37.036 225.603C36.5916 225.712 36.1774 225.904 35.8203 226.168C35.4632 226.432 35.1712 226.762 34.9633 227.135C34.7555 227.508 34.6364 227.917 34.6139 228.335C34.4568 230.111 35.87 231.887 37.2309 233.005C38.5918 234.123 41.9329 235.146 43.0931 235.487C42.8837 236.351 42.6831 237.224 42.4476 238.056C42.2731 238.627 42.1422 239.182 41.9329 239.745C41.7235 240.308 41.5316 240.855 41.3397 241.402C40.9209 242.441 40.4673 243.519 40.066 244.526C39.7694 245.224 39.4728 245.89 39.1937 246.556C39.342 245.692 39.595 243.995 39.6037 243.852C39.5598 241.869 38.9593 239.928 37.859 238.215C37.8665 237.995 37.8519 237.774 37.8154 237.557C37.758 237.141 37.605 236.741 37.3663 236.383C37.1276 236.025 36.8086 235.717 36.43 235.478C36.0515 235.239 35.6218 235.076 35.1691 234.998C34.7164 234.921 34.2508 234.93 33.8026 235.027C31.1157 235.669 29.4408 239.951 29.2925 242.163C29.2925 242.298 29.3798 243.749 29.4583 244.661C29.3187 244.13 29.1966 243.614 29.0483 243.075C28.7691 241.997 28.4551 240.934 28.1149 239.785L27.5653 238.112C27.3908 237.557 27.1291 236.986 26.9197 236.407C26.3876 235.091 25.777 233.782 25.175 232.442C26.2131 232.212 29.8857 231.364 31.36 230.333C32.8343 229.302 34.387 227.637 34.3696 225.853C34.381 225.43 34.2927 225.009 34.1108 224.62C33.9289 224.23 33.6575 223.88 33.3147 223.593C32.972 223.306 32.5658 223.089 32.1234 222.957C31.681 222.824 31.2125 222.779 30.7493 222.824C27.9927 223.094 25.5938 227.09 25.0965 229.295C25.0965 229.429 24.9046 231.055 24.8348 231.943C24.4335 231.15 24.0497 230.357 23.6223 229.564C22.401 227.352 21.0663 225.1 19.7839 222.824C19.3826 222.135 18.9901 221.445 18.5975 220.755C18.9726 220.676 23.3605 219.748 25.0093 218.598C26.4748 217.575 28.0363 215.902 28.0189 214.118C28.0314 213.7 27.9469 213.284 27.7708 212.897C27.5948 212.511 27.3311 212.162 26.997 211.874C26.663 211.586 26.2659 211.365 25.8318 211.226C25.3976 211.087 24.9361 211.032 24.4771 211.066C21.7205 211.335 19.3216 215.332 18.8243 217.536C18.8243 217.702 18.5539 220.033 18.5277 220.628C17.6554 219.106 16.783 217.583 16.0328 216.053C14.9832 213.993 14.0799 211.875 13.3285 209.71C13.503 209.67 18.0828 208.727 19.7752 207.545C21.2495 206.522 22.8022 204.841 22.7848 203.065C22.7987 202.647 22.7151 202.23 22.5395 201.843C22.3639 201.456 22.1003 201.106 21.7659 200.818C21.4316 200.53 21.034 200.309 20.5992 200.171C20.1644 200.032 19.7023 199.978 19.2431 200.013C16.4864 200.282 14.0962 204.279 13.5902 206.483C13.5902 206.626 13.3809 208.402 13.3198 209.25H13.1628C12.4689 207.047 11.9959 204.791 11.7496 202.51C11.5926 201.258 11.5228 200.052 11.4879 198.879C12.3602 198.784 16.3469 198.3 17.9956 197.396C19.6443 196.492 21.328 195.017 21.485 193.241C21.549 192.827 21.5161 192.405 21.3883 192.003C21.2606 191.601 21.0409 191.228 20.7436 190.908C20.4464 190.589 20.0783 190.33 19.6633 190.148C19.2484 189.967 18.796 189.867 18.3358 189.856C15.5617 189.856 12.7004 193.582 11.9328 195.723C11.9328 195.834 11.61 197.063 11.4268 197.959C11.4268 197.428 11.4268 196.881 11.4268 196.373C11.4268 194.47 11.5577 192.726 11.6885 191.18C11.7757 190.3 11.8717 189.507 11.9677 188.801C12.7702 188.294 15.9717 186.24 16.9662 184.765C17.9607 183.29 18.7109 181.261 17.9956 179.603C17.8417 179.208 17.5978 178.847 17.28 178.544C16.9622 178.24 16.5776 178.001 16.1512 177.842C15.7248 177.682 15.2663 177.606 14.8055 177.619C14.3447 177.632 13.8919 177.732 13.4768 177.915C11.0081 179.072 10.3625 183.584 10.7725 185.804C10.7725 185.994 11.7321 188.936 11.7757 188.912H11.8281C11.7147 189.626 11.61 190.387 11.514 191.227C11.3483 192.774 11.1651 194.518 11.1215 196.429C11.0419 198.491 11.0943 200.556 11.2785 202.613C11.4781 204.918 11.9014 207.203 12.5434 209.44V209.52C12.1072 208.893 10.7987 207.188 10.7115 207.07C9.08891 205.365 4.85801 202.939 2.30203 203.898C1.88329 204.072 1.50953 204.324 1.20504 204.638C0.900563 204.952 0.672188 205.32 0.534773 205.72C0.397358 206.119 0.353978 206.54 0.407463 206.956C0.460948 207.372 0.610097 207.772 0.845205 208.132C1.78734 209.718 4.04673 210.463 5.87866 210.709C7.94613 210.979 12.2904 209.837 12.6306 209.742C13.3374 212.002 14.2118 214.217 15.2477 216.37C15.8409 217.631 16.4864 218.876 17.1494 220.129C16.7569 219.597 16.3992 219.13 16.3381 219.066C14.7156 217.361 10.4847 214.943 7.92868 215.895C7.50967 216.069 7.13577 216.322 6.83123 216.637C6.52669 216.951 6.29833 217.321 6.16096 217.721C6.02359 218.121 5.98028 218.542 6.03384 218.959C6.0874 219.375 6.23663 219.776 6.47186 220.137C7.42272 221.722 9.67338 222.468 11.5053 222.706C13.3372 222.943 17.0884 222.047 18.0741 221.794L18.8505 223.221C20.1067 225.497 21.3803 227.764 22.5405 230.024C22.9593 230.817 23.3257 231.61 23.7095 232.403C23.3518 231.935 23.0552 231.546 23.0029 231.491C21.3803 229.786 17.1494 227.36 14.5934 228.319C14.1747 228.493 13.8009 228.745 13.4964 229.059C13.192 229.373 12.9636 229.742 12.8262 230.141C12.6888 230.54 12.6454 230.962 12.6989 231.377C12.7524 231.793 12.9015 232.194 13.1366 232.553C14.0787 234.139 16.3381 234.884 18.1701 235.13C20.002 235.376 23.4042 234.551 24.5557 234.258C24.9221 235.051 25.2797 235.915 25.585 236.732C25.777 237.287 26.0125 237.818 26.1782 238.389C26.344 238.96 26.5184 239.515 26.6929 240.07C26.9721 241.148 27.2774 242.258 27.5653 243.313C27.7485 244.05 27.8968 244.748 28.0625 245.454C27.6612 244.661 26.8412 243.115 26.754 242.996C25.4367 241.085 21.6595 238.112 18.9726 238.73C18.5324 238.845 18.1235 239.042 17.7722 239.309C17.4209 239.576 17.135 239.906 16.9328 240.28C16.7307 240.653 16.6168 241.061 16.5985 241.477C16.5802 241.893 16.6579 242.308 16.8266 242.695C17.4984 244.368 19.6007 245.446 21.3716 245.938C23.3169 246.477 27.6351 245.985 28.1672 245.938C28.4289 247.111 28.6644 248.253 28.8738 249.331C29.5978 253.074 30.0515 256.221 30.3306 258.418C30.3306 258.814 30.4179 259.163 30.4615 259.488H22.1044L24.5818 303.407H39.9526L42.465 259.567H34.6139L34.7883 259.242C35.8526 257.228 37.3356 254.318 38.932 250.766C39.4379 249.648 39.9526 248.435 40.476 247.19C40.9995 247.293 45.2652 248.078 47.2542 247.674C49.06 247.301 51.2496 246.374 52.0521 244.748C52.2568 244.373 52.3724 243.963 52.3912 243.545C52.41 243.127 52.3317 242.709 52.1613 242.32C51.991 241.931 51.7324 241.579 51.4025 241.287C51.0725 240.995 50.6786 240.77 50.2464 240.625C47.6293 239.832 43.5991 242.536 42.1335 244.352C42.0463 244.455 41.2612 245.715 40.7552 246.508C40.9646 246.001 41.1739 245.509 41.3833 244.978C41.802 243.939 42.1859 242.893 42.6046 241.767L43.1542 240.094C43.3548 239.547 43.4769 238.936 43.6514 238.349C44.0091 236.986 44.2969 235.59 44.5237 234.171C45.5269 234.504 49.1036 235.638 50.9617 235.519C52.8198 235.4 55.1228 234.781 56.1958 233.291C56.4614 232.949 56.6445 232.559 56.7332 232.149C56.8219 231.738 56.8141 231.314 56.7103 230.906C56.6065 230.499 56.4092 230.115 56.1311 229.781C55.853 229.448 55.5005 229.171 55.0966 228.969C52.6279 227.812 48.2138 229.937 46.4516 231.531C46.347 231.626 45.2304 232.894 44.6284 233.6C44.7767 232.752 44.925 231.903 45.0472 231.039C45.3874 228.533 45.6491 225.996 45.9195 223.467C45.998 222.674 46.094 221.881 46.1812 221.144C46.5389 221.262 50.761 222.69 52.8372 222.563C54.6779 222.444 56.9983 221.825 58.0713 220.335C58.3371 219.992 58.5203 219.602 58.6091 219.191C58.6978 218.779 58.6901 218.355 58.5863 217.947C58.4826 217.538 58.2852 217.154 58.0071 216.82C57.7289 216.485 57.3763 216.208 56.9722 216.006C54.5034 214.856 50.0893 216.981 48.3272 218.575C48.1963 218.693 46.5825 220.517 46.2074 221.001C46.408 219.296 46.6174 217.599 46.9053 215.934C47.2803 213.688 47.8136 211.466 48.5017 209.282C48.6674 209.337 53.0728 210.868 55.1926 210.709C57.042 210.59 59.3537 209.972 60.4267 208.481C60.6906 208.138 60.8721 207.748 60.9594 207.337C61.0467 206.926 61.0378 206.503 60.9333 206.096C60.8287 205.688 60.631 205.305 60.3528 204.971C60.0747 204.638 59.7223 204.361 59.3188 204.16C56.8588 203.002 52.436 205.135 50.6825 206.721C50.5691 206.824 49.3391 208.219 48.7721 208.893L48.6325 208.822C49.394 206.633 50.3691 204.51 51.5462 202.479C52.1743 201.353 52.846 200.314 53.5264 199.307C54.3115 199.664 57.8881 201.266 59.8596 201.329C61.8312 201.392 64.0818 201.02 65.3293 199.64C65.6337 199.326 65.8619 198.956 65.9988 198.557C66.1358 198.157 66.1785 197.735 66.1242 197.319C66.0699 196.903 65.9197 196.502 65.6836 196.143C65.4474 195.783 65.1305 195.472 64.7535 195.232C62.4418 193.836 57.7747 195.517 55.8556 196.92C55.7509 196.992 54.7738 197.88 54.1109 198.506C54.4249 198.062 54.739 197.594 55.0443 197.174C56.2045 195.588 57.3735 194.193 58.429 192.972C59.0309 192.282 59.5892 191.663 60.1126 191.093C61.0897 191.093 65.0152 190.974 66.7338 190.236C68.4523 189.499 70.3191 188.191 70.7291 186.446C70.8288 186.044 70.8359 185.627 70.7499 185.223C70.6639 184.818 70.4867 184.433 70.2295 184.094C69.9722 183.754 69.6404 183.467 69.255 183.249C68.8696 183.032 68.4389 182.889 67.9899 182.831ZM37.4577 250.187C35.7915 253.668 34.2562 256.531 33.157 258.497C32.9389 258.894 32.7383 259.242 32.5464 259.567H32.3632C32.3109 259.187 32.2498 258.775 32.18 258.291C31.8398 256.071 31.3076 252.907 30.4876 249.141C30.2347 247.951 29.9293 246.683 29.6153 245.382C30.9149 244.91 32.1821 244.368 33.41 243.757C34.8319 245.16 38.4696 246.794 38.9407 247C38.426 248.11 37.9375 249.18 37.449 250.187H37.4577Z" fill="#263238"/>
<path d="M4.20356 197.896C6.19252 198.689 11.0689 198.586 11.0689 198.586C11.0689 198.586 10.0221 195.691 9.93489 195.517C8.86191 193.479 5.48591 190.125 2.73801 190.466C2.28421 190.535 1.85148 190.69 1.46795 190.922C1.08441 191.153 0.75865 191.454 0.511831 191.807C0.265012 192.16 0.102657 192.557 0.035317 192.97C-0.0320231 193.384 -0.00284234 193.806 0.120963 194.209C0.592032 195.937 2.5112 197.222 4.20356 197.896Z" fill="#263238"/>
<path d="M360 303.486H11.6274" stroke="#263238" stroke-width="1.05093" stroke-linecap="round" stroke-linejoin="round"/>
</svg>
