<svg width="210" height="416" viewBox="0 0 210 416" fill="none" xmlns="http://www.w3.org/2000/svg">
<g filter="url(#filter0_dd_2705_8024)">
<rect x="3" y="3" width="204" height="184.5" rx="6" fill="white"/>
<path d="M84.0207 146.724L82.9647 143.838C82.9127 143.71 82.8587 143.558 82.8027 143.382C82.7467 143.206 82.6907 143.016 82.6347 142.812C82.5827 143.016 82.5287 143.208 82.4727 143.388C82.4167 143.564 82.3627 143.718 82.3107 143.85L81.2607 146.724H84.0207ZM86.8707 150H85.6227C85.4827 150 85.3687 149.966 85.2807 149.898C85.1927 149.826 85.1267 149.738 85.0827 149.634L84.4347 147.864H80.8407L80.1927 149.634C80.1607 149.726 80.0987 149.81 80.0067 149.886C79.9147 149.962 79.8007 150 79.6647 150H78.4047L81.8187 141.324H83.4627L86.8707 150ZM91.2698 145.416C91.1018 145.212 90.9178 145.068 90.7178 144.984C90.5218 144.9 90.3098 144.858 90.0818 144.858C89.8578 144.858 89.6558 144.9 89.4758 144.984C89.2958 145.068 89.1418 145.196 89.0138 145.368C88.8858 145.536 88.7878 145.752 88.7198 146.016C88.6518 146.276 88.6178 146.584 88.6178 146.94C88.6178 147.3 88.6458 147.606 88.7018 147.858C88.7618 148.106 88.8458 148.31 88.9538 148.47C89.0618 148.626 89.1938 148.74 89.3498 148.812C89.5058 148.88 89.6798 148.914 89.8718 148.914C90.1798 148.914 90.4418 148.85 90.6578 148.722C90.8738 148.594 91.0778 148.412 91.2698 148.176V145.416ZM92.7518 141.084V150H91.8458C91.6498 150 91.5258 149.91 91.4738 149.73L91.3478 149.136C91.0998 149.42 90.8138 149.65 90.4898 149.826C90.1698 150.002 89.7958 150.09 89.3678 150.09C89.0318 150.09 88.7238 150.02 88.4438 149.88C88.1638 149.74 87.9218 149.538 87.7178 149.274C87.5178 149.006 87.3618 148.676 87.2498 148.284C87.1418 147.892 87.0878 147.444 87.0878 146.94C87.0878 146.484 87.1498 146.06 87.2738 145.668C87.3978 145.276 87.5758 144.936 87.8078 144.648C88.0398 144.36 88.3178 144.136 88.6418 143.976C88.9658 143.812 89.3298 143.73 89.7338 143.73C90.0778 143.73 90.3718 143.784 90.6158 143.892C90.8598 144 91.0778 144.146 91.2698 144.33V141.084H92.7518ZM98.0784 145.416C97.9104 145.212 97.7264 145.068 97.5264 144.984C97.3304 144.9 97.1184 144.858 96.8904 144.858C96.6664 144.858 96.4644 144.9 96.2844 144.984C96.1044 145.068 95.9504 145.196 95.8224 145.368C95.6944 145.536 95.5964 145.752 95.5284 146.016C95.4604 146.276 95.4264 146.584 95.4264 146.94C95.4264 147.3 95.4544 147.606 95.5104 147.858C95.5704 148.106 95.6544 148.31 95.7624 148.47C95.8704 148.626 96.0024 148.74 96.1584 148.812C96.3144 148.88 96.4884 148.914 96.6804 148.914C96.9884 148.914 97.2504 148.85 97.4664 148.722C97.6824 148.594 97.8864 148.412 98.0784 148.176V145.416ZM99.5604 141.084V150H98.6544C98.4584 150 98.3344 149.91 98.2824 149.73L98.1564 149.136C97.9084 149.42 97.6224 149.65 97.2984 149.826C96.9784 150.002 96.6044 150.09 96.1764 150.09C95.8404 150.09 95.5324 150.02 95.2524 149.88C94.9724 149.74 94.7304 149.538 94.5264 149.274C94.3264 149.006 94.1704 148.676 94.0584 148.284C93.9504 147.892 93.8964 147.444 93.8964 146.94C93.8964 146.484 93.9584 146.06 94.0824 145.668C94.2064 145.276 94.3844 144.936 94.6164 144.648C94.8484 144.36 95.1264 144.136 95.4504 143.976C95.7744 143.812 96.1384 143.73 96.5424 143.73C96.8864 143.73 97.1804 143.784 97.4244 143.892C97.6684 144 97.8864 144.146 98.0784 144.33V141.084H99.5604ZM107.193 147.372C106.765 147.392 106.405 147.43 106.113 147.486C105.821 147.538 105.587 147.606 105.411 147.69C105.235 147.774 105.109 147.872 105.033 147.984C104.957 148.096 104.919 148.218 104.919 148.35C104.919 148.61 104.995 148.796 105.147 148.908C105.303 149.02 105.505 149.076 105.753 149.076C106.057 149.076 106.319 149.022 106.539 148.914C106.763 148.802 106.981 148.634 107.193 148.41V147.372ZM103.797 144.702C104.505 144.054 105.357 143.73 106.353 143.73C106.713 143.73 107.035 143.79 107.319 143.91C107.603 144.026 107.843 144.19 108.039 144.402C108.235 144.61 108.383 144.86 108.483 145.152C108.587 145.444 108.639 145.764 108.639 146.112V150H107.967C107.827 150 107.719 149.98 107.643 149.94C107.567 149.896 107.507 149.81 107.463 149.682L107.331 149.238C107.175 149.378 107.023 149.502 106.875 149.61C106.727 149.714 106.573 149.802 106.413 149.874C106.253 149.946 106.081 150 105.897 150.036C105.717 150.076 105.517 150.096 105.297 150.096C105.037 150.096 104.797 150.062 104.577 149.994C104.357 149.922 104.167 149.816 104.007 149.676C103.847 149.536 103.723 149.362 103.635 149.154C103.547 148.946 103.503 148.704 103.503 148.428C103.503 148.272 103.529 148.118 103.581 147.966C103.633 147.81 103.717 147.662 103.833 147.522C103.953 147.382 104.107 147.25 104.295 147.126C104.483 147.002 104.713 146.894 104.985 146.802C105.261 146.71 105.581 146.636 105.945 146.58C106.309 146.52 106.725 146.484 107.193 146.472V146.112C107.193 145.7 107.105 145.396 106.929 145.2C106.753 145 106.499 144.9 106.167 144.9C105.927 144.9 105.727 144.928 105.567 144.984C105.411 145.04 105.273 145.104 105.153 145.176C105.033 145.244 104.923 145.306 104.823 145.362C104.727 145.418 104.619 145.446 104.499 145.446C104.395 145.446 104.307 145.42 104.235 145.368C104.163 145.312 104.105 145.248 104.061 145.176L103.797 144.702ZM115.005 150.096C114.469 150.096 114.057 149.946 113.769 149.646C113.485 149.342 113.343 148.924 113.343 148.392V144.954H112.713C112.633 144.954 112.565 144.928 112.509 144.876C112.453 144.824 112.425 144.746 112.425 144.642V144.054L113.415 143.892L113.727 142.212C113.747 142.132 113.785 142.07 113.841 142.026C113.897 141.982 113.969 141.96 114.057 141.96H114.825V143.898H116.469V144.954H114.825V148.29C114.825 148.482 114.871 148.632 114.963 148.74C115.059 148.848 115.189 148.902 115.353 148.902C115.445 148.902 115.521 148.892 115.581 148.872C115.645 148.848 115.699 148.824 115.743 148.8C115.791 148.776 115.833 148.754 115.869 148.734C115.905 148.71 115.941 148.698 115.977 148.698C116.021 148.698 116.057 148.71 116.085 148.734C116.113 148.754 116.143 148.786 116.175 148.83L116.619 149.55C116.403 149.73 116.155 149.866 115.875 149.958C115.595 150.05 115.305 150.096 115.005 150.096ZM118.816 144.912C119.008 144.544 119.236 144.256 119.5 144.048C119.764 143.836 120.076 143.73 120.436 143.73C120.72 143.73 120.948 143.792 121.12 143.916L121.024 145.026C121.004 145.098 120.974 145.15 120.934 145.182C120.898 145.21 120.848 145.224 120.784 145.224C120.724 145.224 120.634 145.214 120.514 145.194C120.398 145.174 120.284 145.164 120.172 145.164C120.008 145.164 119.862 145.188 119.734 145.236C119.606 145.284 119.49 145.354 119.386 145.446C119.286 145.534 119.196 145.642 119.116 145.77C119.04 145.898 118.968 146.044 118.9 146.208V150H117.418V143.844H118.288C118.44 143.844 118.546 143.872 118.606 143.928C118.666 143.98 118.706 144.076 118.726 144.216L118.816 144.912ZM123.43 143.844V150H121.942V143.844H123.43ZM123.634 142.05C123.634 142.178 123.608 142.298 123.556 142.41C123.504 142.522 123.434 142.62 123.346 142.704C123.262 142.788 123.162 142.856 123.046 142.908C122.93 142.956 122.806 142.98 122.674 142.98C122.546 142.98 122.424 142.956 122.308 142.908C122.196 142.856 122.098 142.788 122.014 142.704C121.93 142.62 121.862 142.522 121.81 142.41C121.762 142.298 121.738 142.178 121.738 142.05C121.738 141.918 121.762 141.794 121.81 141.678C121.862 141.562 121.93 141.462 122.014 141.378C122.098 141.294 122.196 141.228 122.308 141.18C122.424 141.128 122.546 141.102 122.674 141.102C122.806 141.102 122.93 141.128 123.046 141.18C123.162 141.228 123.262 141.294 123.346 141.378C123.434 141.462 123.504 141.562 123.556 141.678C123.608 141.794 123.634 141.918 123.634 142.05ZM126.423 148.404C126.591 148.608 126.773 148.752 126.969 148.836C127.169 148.92 127.385 148.962 127.617 148.962C127.841 148.962 128.043 148.92 128.223 148.836C128.403 148.752 128.555 148.624 128.679 148.452C128.807 148.28 128.905 148.064 128.973 147.804C129.041 147.54 129.075 147.23 129.075 146.874C129.075 146.514 129.045 146.21 128.985 145.962C128.929 145.71 128.847 145.506 128.739 145.35C128.631 145.194 128.499 145.08 128.343 145.008C128.191 144.936 128.017 144.9 127.821 144.9C127.513 144.9 127.251 144.966 127.035 145.098C126.819 145.226 126.615 145.408 126.423 145.644V148.404ZM126.345 144.684C126.597 144.4 126.883 144.17 127.203 143.994C127.523 143.818 127.899 143.73 128.331 143.73C128.667 143.73 128.973 143.8 129.249 143.94C129.529 144.08 129.769 144.284 129.969 144.552C130.173 144.816 130.329 145.144 130.437 145.536C130.549 145.924 130.605 146.37 130.605 146.874C130.605 147.334 130.543 147.76 130.419 148.152C130.295 148.544 130.117 148.884 129.885 149.172C129.657 149.46 129.379 149.686 129.051 149.85C128.727 150.01 128.363 150.09 127.959 150.09C127.615 150.09 127.321 150.038 127.077 149.934C126.833 149.826 126.615 149.678 126.423 149.49V152.01H124.941V143.844H125.847C126.039 143.844 126.165 143.934 126.225 144.114L126.345 144.684Z" fill="#828282"/>
<g clip-path="url(#clip0_2705_8024)">
<path d="M145.19 59.8154V47.339C145.19 46.095 146.198 45.083 147.439 45.083H155.575C156.815 45.083 157.824 46.095 157.824 47.339V59.8154C157.824 61.0594 156.815 62.0714 155.575 62.0714H147.439C146.198 62.0714 145.19 61.0594 145.19 59.8154Z" fill="#12AE62"/>
<path d="M149.356 50.4766H153.657V49.3979H149.356V50.4766Z" fill="#3F3D56"/>
<path d="M150.431 48.5889H152.582V45.0833H150.431V48.5889Z" fill="#3F3D56"/>
<path d="M150.431 62.0713H152.582V58.5657H150.431V62.0713Z" fill="#3F3D56"/>
<path d="M139.41 60.3204H126.973C125.733 60.3204 124.724 59.3084 124.724 58.0644V49.9025C124.724 48.6585 125.733 47.6465 126.973 47.6465H139.41C140.65 47.6465 141.659 48.6585 141.659 49.9025V58.0644C141.659 59.3084 140.65 60.3204 139.41 60.3204Z" fill="#12AE62"/>
<path d="M135.611 49.3994H131.31V50.478H135.611V49.3994Z" fill="#3F3D56"/>
<path d="M128.219 55.0625V52.9053H124.724V55.0625H128.219Z" fill="#3F3D56"/>
<path d="M141.659 55.0625V52.9053H138.165V55.0625H141.659Z" fill="#3F3D56"/>
<path d="M38.5227 83.6502L36.4464 71.5005C35.5238 66.1018 39.5071 61.1059 44.9601 60.8226L74.559 59.2847L81.6231 47.6052C82.5596 46.0569 84.234 45.1113 86.0394 45.1113H107.307C108.979 45.1113 110.391 46.3549 110.608 48.0178L111.148 57.3632L164.171 57.5224L170.841 79.5737L164.65 79.2708L164.967 85.9594L156.871 86.2779L154.172 78.6224C153.664 77.1808 151.437 75.5554 149.122 74.1955C143.933 71.1469 137.267 72.1254 133.34 76.6941C132.413 77.7718 131.766 78.8948 131.585 79.9478L130.36 87.0742L70.9871 86.1186L63.2058 75.1994C60.9068 72.6897 50.0543 71.7678 49.077 75.1994L43.2058 83.8891L38.5227 83.6502H38.5227Z" fill="#E6E6E6"/>
<path d="M103.054 52.2178L104.801 60.4788L82.5759 60.9565L87.2699 50.8464C87.6957 49.9292 88.6305 49.3598 89.6381 49.4037L100.288 49.8683C101.636 49.9271 102.774 50.8935 103.054 52.2178V52.2178Z" fill="white"/>
<path d="M79.5598 60.3201L84.0048 48.854L82.841 47.6865L75.591 58.7276L77.0641 60.9571L79.5598 60.3201Z" fill="white"/>
<path d="M143.219 97.5847C149.005 97.5847 153.696 92.8789 153.696 87.0741C153.696 81.2692 149.005 76.5635 143.219 76.5635C137.432 76.5635 132.741 81.2692 132.741 87.0741C132.741 92.8789 137.432 97.5847 143.219 97.5847Z" fill="#3F3D56"/>
<path d="M135.995 87.0741C135.995 83.0786 139.236 79.8281 143.219 79.8281C147.201 79.8281 150.442 83.0786 150.442 87.0741C150.442 91.0695 147.201 94.32 143.219 94.32C139.236 94.32 135.995 91.0695 135.995 87.0741ZM136.154 87.0741C136.154 90.9817 139.323 94.1608 143.219 94.1608C147.114 94.1608 150.283 90.9817 150.283 87.0741C150.283 83.1665 147.114 79.9874 143.219 79.9874C139.323 79.9874 136.154 83.1665 136.154 87.0741Z" fill="white"/>
<path d="M137.027 87.0741C137.027 90.5042 139.799 93.2849 143.219 93.2849C146.638 93.2849 149.41 90.5042 149.41 87.0741C149.41 83.644 146.638 80.8633 143.219 80.8633C139.799 80.8633 137.027 83.644 137.027 87.0741ZM147.243 85.5868L146.146 86.304L145.725 85.6553L147.243 85.5868ZM145.573 89.2344L145.865 88.5177L146.785 89.7315L145.573 89.2344ZM142.764 91.6924L143.536 90.3789V91.6924H142.764ZM142.764 84.0878L143.536 82.7743V84.0878H142.764ZM139.335 89.7315L140.254 88.5177L140.547 89.2344L139.335 89.7315ZM138.877 85.5868L140.395 85.6553L139.974 86.304L138.877 85.5868Z" fill="#E6E6E6"/>
<path d="M55.2708 97.5847C61.0574 97.5847 65.7483 92.8789 65.7483 87.0741C65.7483 81.2692 61.0574 76.5635 55.2708 76.5635C49.4842 76.5635 44.7933 81.2692 44.7933 87.0741C44.7933 92.8789 49.4842 97.5847 55.2708 97.5847Z" fill="#3F3D56"/>
<path d="M48.0477 87.0741C48.0477 83.0786 51.288 79.8281 55.2709 79.8281C59.2537 79.8281 62.494 83.0786 62.494 87.0741C62.494 91.0695 59.2537 94.32 55.2709 94.32C51.288 94.32 48.0477 91.0695 48.0477 87.0741ZM48.2065 87.0741C48.2065 90.9817 51.3755 94.1608 55.2709 94.1608C59.1662 94.1608 62.3353 90.9817 62.3353 87.0741C62.3353 83.1665 59.1662 79.9874 55.2709 79.9874C51.3755 79.9874 48.2065 83.1665 48.2065 87.0741Z" fill="white"/>
<path d="M49.0796 87.0741C49.0796 90.5042 51.8515 93.2849 55.2709 93.2849C58.6902 93.2849 61.4621 90.5042 61.4621 87.0741C61.4621 83.644 58.6902 80.8633 55.2709 80.8633C51.8515 80.8633 49.0796 83.644 49.0796 87.0741ZM59.2954 85.5868L58.1984 86.304L57.777 85.6553L59.2954 85.5868ZM57.6254 89.2344L57.9175 88.5177L58.8373 89.7315L57.6254 89.2344ZM54.8165 91.6924L55.5884 90.3789V91.6924H54.8165ZM54.8165 84.0878L55.5884 82.7743V84.0878H54.8165ZM51.3869 89.7315L52.3067 88.5177L52.5988 89.2344L51.3869 89.7315ZM50.9288 85.5868L52.4472 85.6553L52.0258 86.304L50.9288 85.5868Z" fill="#E6E6E6"/>
<path d="M99.0066 64.6992H105.039V63.4252H99.0066V64.6992Z" fill="#3F3D56"/>
<path d="M184.034 89.7094C183.978 89.5368 183.552 89.6128 183.511 89.4584C183.47 89.3045 183.879 89.1756 184.193 88.7421C184.249 88.6639 184.606 88.1712 184.469 87.964C184.21 87.5713 182.407 88.5495 181.974 88.0005C181.879 87.8801 181.84 87.6733 181.557 87.2884C181.445 87.1353 181.373 87.0613 181.286 87.0635C181.164 87.0666 181.12 87.2203 180.928 87.4985C180.639 87.9159 180.535 87.8635 180.345 88.2055C180.204 88.4593 180.187 88.6215 180.085 88.6311C179.941 88.6446 179.882 88.3285 179.706 88.3163C179.526 88.3038 179.347 88.6161 179.258 88.8601C179.091 89.3179 179.194 89.6679 179.217 90.0167C179.242 90.3957 179.183 90.9505 178.773 91.6627L174.901 97.8515C175.732 96.5898 178.093 93.1494 179.044 91.8875C179.318 91.5232 179.614 91.1574 180.068 91.0886C180.505 91.0223 181.037 91.2393 181.779 91.2267C181.866 91.2252 182.107 91.218 182.166 91.0897C182.215 90.9836 182.094 90.8914 182.138 90.7917C182.197 90.6579 182.461 90.7153 182.822 90.6265C183.076 90.5638 183.249 90.4603 183.397 90.3713C183.442 90.3445 184.109 89.9391 184.034 89.7094H184.034Z" fill="#F2F2F2"/>
<path d="M173.892 91.1543C173.792 91.1322 173.706 91.3639 173.619 91.3395C173.531 91.3152 173.586 91.0767 173.465 90.7972C173.443 90.7468 173.305 90.4291 173.164 90.4367C172.897 90.4509 172.855 91.6208 172.462 91.6754C172.376 91.6874 172.263 91.647 171.993 91.6752C171.886 91.6865 171.829 91.7007 171.805 91.7438C171.771 91.805 171.834 91.8709 171.914 92.0459C172.035 92.3084 171.98 92.3445 172.092 92.5368C172.176 92.6795 172.25 92.7345 172.225 92.7874C172.19 92.8622 172.019 92.8003 171.962 92.8834C171.904 92.9682 172.005 93.1467 172.099 93.261C172.274 93.4754 172.475 93.5254 172.653 93.6147C172.845 93.7118 173.1 93.9007 173.33 94.3083L175.241 98.0005C174.863 97.227 173.861 95.0721 173.518 94.2398C173.419 93.9995 173.325 93.7487 173.423 93.5052C173.516 93.2708 173.776 93.0715 173.984 92.7023C174.008 92.6592 174.074 92.5383 174.029 92.4723C173.991 92.4178 173.911 92.4506 173.875 92.4002C173.826 92.3327 173.931 92.219 173.991 92.0158C174.034 91.8726 174.033 91.7577 174.032 91.6589C174.032 91.6291 174.026 91.1837 173.892 91.1543V91.1543V91.1543Z" fill="#F2F2F2"/>
<path d="M175.799 92.0549L175.859 91.4987L175.895 91.4637C176.066 91.3022 176.172 91.131 176.212 90.9548C176.219 90.9268 176.224 90.8985 176.229 90.8696C176.249 90.7552 176.273 90.6131 176.383 90.4654C176.444 90.3831 176.607 90.1972 176.774 90.2621C176.819 90.2791 176.85 90.3085 176.871 90.3396C176.876 90.3342 176.882 90.3288 176.888 90.323C176.96 90.2525 177.01 90.2267 177.059 90.2018C177.097 90.1827 177.135 90.163 177.201 90.1105C177.229 90.0875 177.252 90.0668 177.272 90.0494C177.33 89.9968 177.405 89.9352 177.508 89.9596C177.617 89.9895 177.655 90.0939 177.68 90.163C177.724 90.2862 177.738 90.371 177.747 90.4272C177.75 90.4477 177.754 90.4708 177.756 90.4784C177.78 90.5387 178.08 90.5543 178.193 90.5608C178.446 90.5746 178.666 90.5866 178.718 90.7607C178.756 90.8852 178.677 91.0211 178.477 91.1752C178.415 91.2231 178.352 91.2562 178.298 91.2809C178.332 91.3126 178.358 91.3557 178.36 91.4144C178.363 91.5533 178.221 91.6599 177.938 91.7317C177.867 91.7498 177.772 91.7737 177.648 91.7676C177.59 91.7647 177.539 91.7557 177.495 91.7473C177.488 91.7723 177.476 91.7982 177.455 91.8229C177.392 91.8954 177.29 91.9138 177.151 91.8729C176.999 91.8302 176.878 91.7721 176.771 91.721C176.678 91.6766 176.598 91.6385 176.531 91.6281C176.405 91.6106 176.289 91.6881 176.149 91.7914L175.799 92.0549L175.799 92.0549Z" fill="#F2F2F2"/>
<path d="M176.798 88.8871L176.246 88.9699L176.203 88.9431C176.004 88.8187 175.812 88.7586 175.632 88.7645C175.604 88.7655 175.575 88.7679 175.546 88.7703C175.431 88.7799 175.287 88.792 175.117 88.7231C175.022 88.6844 174.802 88.5741 174.822 88.3953C174.827 88.3471 174.847 88.3101 174.872 88.2816C174.865 88.2778 174.859 88.2739 174.852 88.2698C174.766 88.2175 174.728 88.175 174.691 88.134C174.664 88.1025 174.635 88.07 174.568 88.0198C174.538 87.9978 174.512 87.9808 174.491 87.9664C174.425 87.9228 174.347 87.8655 174.344 87.7595C174.345 87.6461 174.436 87.5833 174.497 87.5417C174.604 87.4675 174.682 87.4327 174.734 87.4097C174.753 87.4013 174.775 87.3918 174.781 87.3871C174.833 87.3487 174.772 87.0539 174.75 86.9428C174.699 86.6934 174.655 86.4776 174.809 86.3822C174.92 86.3139 175.071 86.356 175.27 86.5111C175.332 86.5595 175.38 86.6116 175.418 86.658C175.44 86.6175 175.475 86.5808 175.531 86.5643C175.664 86.5255 175.803 86.6363 175.944 86.8934C175.979 86.9572 176.026 87.0432 176.052 87.1652C176.064 87.2226 176.068 87.2746 176.071 87.3191C176.097 87.3191 176.125 87.3241 176.154 87.3387C176.24 87.3816 176.284 87.4759 176.279 87.6206C176.277 87.7797 176.252 87.9116 176.229 88.028C176.21 88.1296 176.194 88.2171 176.201 88.2851C176.216 88.4111 176.32 88.5047 176.455 88.6141L176.798 88.8871H176.798L176.798 88.8871Z" fill="#F2F2F2"/>
<path d="M176.872 87.2249L176.932 86.6686L176.969 86.6337C177.14 86.4721 177.246 86.3009 177.286 86.1247C177.293 86.0967 177.298 86.0684 177.303 86.0395C177.323 85.9252 177.347 85.783 177.457 85.6353C177.518 85.553 177.681 85.3671 177.848 85.432C177.893 85.449 177.924 85.4784 177.945 85.5095C177.95 85.5041 177.956 85.4987 177.961 85.4929C178.034 85.4224 178.084 85.3966 178.133 85.3717C178.17 85.3526 178.209 85.3329 178.274 85.2804C178.303 85.2574 178.326 85.2367 178.345 85.2193C178.404 85.1667 178.479 85.1051 178.582 85.1295C178.691 85.1594 178.729 85.2638 178.753 85.3329C178.798 85.4561 178.811 85.5409 178.82 85.5971C178.824 85.6176 178.827 85.6408 178.83 85.6483C178.854 85.7086 179.154 85.7242 179.267 85.7308C179.52 85.7446 179.739 85.7565 179.792 85.9306C179.83 86.0551 179.751 86.191 179.551 86.3451C179.489 86.393 179.426 86.4261 179.372 86.4508C179.405 86.4825 179.432 86.5256 179.434 86.5843C179.437 86.7232 179.295 86.8298 179.012 86.9016C178.941 86.9197 178.846 86.9436 178.722 86.9375C178.664 86.9346 178.612 86.9257 178.569 86.9173C178.562 86.9422 178.55 86.9682 178.529 86.9928C178.466 87.0653 178.364 87.0837 178.225 87.0429C178.072 87.0001 177.952 86.942 177.845 86.891C177.752 86.8465 177.672 86.8084 177.604 86.7981C177.479 86.7805 177.362 86.8581 177.223 86.9613L176.872 87.2249L176.872 87.2249Z" fill="#F2F2F2"/>
<path d="M175.084 97.8827L174.986 97.7861L174.988 97.6487L174.986 97.7861L174.851 97.7717C174.851 97.7589 174.85 97.729 174.849 97.6823C174.844 97.4264 174.828 96.6476 174.936 95.451C175.012 94.6157 175.138 93.7678 175.311 92.9305C175.485 92.0918 175.665 91.4678 175.809 90.9663C175.919 90.588 176.029 90.2292 176.136 89.8797C176.424 88.946 176.695 88.064 176.863 87.0579C176.9 86.8333 176.978 86.3658 176.818 85.814C176.726 85.494 176.567 85.1927 176.347 84.919L176.56 84.7461C176.803 85.0486 176.979 85.3822 177.082 85.7376C177.259 86.3494 177.174 86.8588 177.133 87.1035C176.962 88.1274 176.688 89.0179 176.398 89.9606C176.291 90.3088 176.181 90.666 176.073 91.0428C175.929 91.5397 175.751 92.1583 175.579 92.9862C175.408 93.8135 175.284 94.651 175.209 95.4758C175.102 96.6573 175.118 97.4245 175.124 97.6765C175.126 97.8111 175.127 97.8393 175.084 97.8828V97.8827Z" fill="#F2F2F2"/>
<path d="M175.761 85.2356C175.75 85.2332 175.739 85.2304 175.728 85.2271C175.503 85.1638 175.323 84.9798 175.192 84.6804C175.13 84.5396 175.116 84.3914 175.087 84.0958C175.082 84.0502 175.062 83.8196 175.087 83.514C175.103 83.3143 175.124 83.2341 175.178 83.1711C175.239 83.101 175.32 83.0608 175.405 83.0406C175.408 83.0142 175.416 82.9883 175.433 82.9638C175.504 82.8621 175.622 82.9039 175.686 82.9257C175.718 82.9373 175.758 82.952 175.803 82.9597C175.874 82.972 175.917 82.9595 175.981 82.9408C176.042 82.9229 176.119 82.9007 176.224 82.9026C176.433 82.9054 176.587 82.9994 176.638 83.0303C176.905 83.1917 176.998 83.4492 177.105 83.7474C177.126 83.8072 177.197 84.0232 177.213 84.3014C177.225 84.5021 177.199 84.5843 177.169 84.643C177.107 84.7638 177.013 84.8198 176.78 84.9376C176.536 85.061 176.414 85.1228 176.314 85.1545C176.08 85.228 175.934 85.2742 175.761 85.2356V85.2356V85.2356Z" fill="#F2F2F2"/>
<path d="M25 97.6436C25 97.7487 25.1469 97.8331 25.3298 97.8331H182.774C182.957 97.8331 183.104 97.7487 183.104 97.6436C183.104 97.5385 182.957 97.4541 182.774 97.4541H25.3298C25.1469 97.4541 25 97.5385 25 97.6436Z" fill="#CCCCCC"/>
<path d="M105.001 96.447L107.205 96.4468L108.253 87.918L105 87.9182L105.001 96.447Z" fill="#FFB6B6"/>
<path d="M112.553 96.3971C112.621 96.513 112.657 96.8873 112.657 97.0221C112.657 97.4366 112.323 97.7726 111.909 97.7726L105.083 97.7726C104.801 97.7726 104.573 97.5434 104.573 97.2606V96.9755C104.573 96.9755 104.235 96.1187 104.93 95.0626C104.93 95.0626 105.794 95.8895 107.086 94.5943L107.466 93.9023L110.222 95.9244L111.75 96.113C112.084 96.1543 112.381 96.1066 112.553 96.3971H112.553L112.553 96.3971Z" fill="#2F2E41"/>
<path d="M95.0975 96.447L97.3017 96.4468L98.3503 87.918L95.0971 87.9182L95.0975 96.447Z" fill="#FFB6B6"/>
<path d="M102.649 96.3971C102.718 96.513 102.754 96.8873 102.754 97.0221C102.754 97.4366 102.419 97.7726 102.006 97.7726L95.1799 97.7726C94.898 97.7726 94.6695 97.5434 94.6695 97.2606V96.9755C94.6695 96.9755 94.3318 96.1187 95.0271 95.0626C95.0271 95.0626 95.8911 95.8895 97.1823 94.5943L97.563 93.9023L100.319 95.9244L101.847 96.113C102.181 96.1543 102.477 96.1066 102.649 96.3971H102.649L102.649 96.3971Z" fill="#2F2E41"/>
<path d="M104.652 38.2102L105.07 42.1281L100.188 41.7083L101.025 38.0703L104.652 38.2102Z" fill="#FFB6B6"/>
<path opacity="0.1" d="M104.652 38.2102L105.07 42.1281L100.188 41.7083L101.025 38.0703L104.652 38.2102Z" fill="black"/>
<path d="M102.908 38.7001C104.68 38.7001 106.116 37.2593 106.116 35.4819C106.116 33.7045 104.68 32.2637 102.908 32.2637C101.136 32.2637 99.7001 33.7045 99.7001 35.4819C99.7001 37.2593 101.136 38.7001 102.908 38.7001Z" fill="#FFB6B6"/>
<path d="M105 40.5191L110.37 43.6674L108.611 52.2027L109.812 63.6764L108.976 91.8009L103.815 91.2412L103.117 67.3144L99.0723 92.0807H94.0609L94.8879 65.3554L97.3985 54.0217L95.8642 41.7084L100.537 40.2393L105 40.5191Z" fill="#2F2E41"/>
<path d="M105.21 36.3912C105.21 36.3912 105.489 35.4117 106.116 35.4817C106.744 35.5517 106.883 34.992 106.744 34.7121C106.604 34.4323 106.325 33.0331 106.325 33.0331C106.325 33.0331 106.465 32.0536 105.628 31.9137C104.791 31.7737 104.512 31.6338 104.373 31.354C104.233 31.0741 102.141 30.7943 101.444 31.2141C100.746 31.6338 100.188 32.4392 99.7 32.6662C99.2118 32.8931 98.7934 33.3129 99.0723 34.0125C99.3513 34.7121 99.7559 36.0804 99.7559 36.0804C99.7559 36.0804 100.467 35.8315 100.607 36.2513C100.746 36.6711 100.188 36.1114 100.886 34.992C101.583 33.8726 101.583 32.7532 102.699 33.173C103.815 33.5927 105.07 33.4528 104.931 34.2924C104.791 35.1319 105.21 36.3912 105.21 36.3912L105.21 36.3912Z" fill="#2F2E41"/>
<path d="M107.601 61.1659C106.93 61.879 106.752 62.8046 107.205 63.2331C107.657 63.6617 108.568 63.4309 109.24 62.7174C109.512 62.4361 109.713 62.0935 109.826 61.7183L112.633 58.6608L111.174 57.3701L108.562 60.5214C108.195 60.6561 107.866 60.8771 107.601 61.1659Z" fill="#FFB6B6"/>
<path d="M110.314 43.5967L115.04 51.6744L115.74 55.3621L111.189 61.157L109.264 58.6986L111.539 55.3621L107.863 48.8648L110.314 43.5967Z" fill="#2F2E41"/>
<path d="M97.0252 60.4145V50.8904C97.0252 49.4387 98.2024 48.2578 99.6495 48.2578H114.162C115.609 48.2578 116.787 49.4387 116.787 50.8904V60.4145C116.787 61.8661 115.609 63.047 114.162 63.047H99.6495C98.2024 63.047 97.0252 61.8661 97.0252 60.4145Z" fill="#12AE62"/>
<path d="M104.083 54.2686H109.102V53.0099H104.083V54.2686Z" fill="#3F3D56"/>
<path d="M108.69 62.9626V60.4453H104.613V62.9626H108.69Z" fill="#3F3D56"/>
<path d="M108.882 50.8601V48.3428H104.804V50.8601H108.882Z" fill="#3F3D56"/>
<path d="M98.4941 59.3476C99.1654 60.0607 99.3429 60.9862 98.8904 61.4148C98.4379 61.8433 97.527 61.6126 96.8555 60.8991C96.5833 60.6178 96.3823 60.2752 96.2692 59.9L93.4626 56.8424L94.921 55.5518L97.533 58.703C97.9 58.8378 98.2296 59.0588 98.4941 59.3476Z" fill="#FFB6B6"/>
<path d="M95.7813 41.7783L91.0549 49.8561L90.3547 53.5437L94.9061 59.3387L96.8316 56.8802L94.556 53.5437L98.232 47.0464L95.7813 41.7783Z" fill="#2F2E41"/>
<path d="M37.012 80.2954C39.3792 80.2954 41.2982 78.6198 41.2982 76.553C41.2982 74.4861 39.3792 72.8105 37.012 72.8105C34.6447 72.8105 32.7257 74.4861 32.7257 76.553C32.7257 78.6198 34.6447 80.2954 37.012 80.2954Z" fill="#E6E6E6"/>
</g>
<g filter="url(#filter1_dd_2705_8024)">
<rect x="3" y="228" width="204" height="184.5" rx="6" fill="white"/>
<path d="M62.7286 370.452C63.0326 370.452 63.2966 370.414 63.5206 370.338C63.7486 370.262 63.9346 370.158 64.0786 370.026C64.2266 369.89 64.3366 369.73 64.4086 369.546C64.4806 369.362 64.5166 369.16 64.5166 368.94C64.5166 368.5 64.3706 368.162 64.0786 367.926C63.7906 367.69 63.3486 367.572 62.7526 367.572H61.7206V370.452H62.7286ZM66.8806 375H65.4226C65.1466 375 64.9466 374.892 64.8226 374.676L62.9986 371.898C62.9306 371.794 62.8546 371.72 62.7706 371.676C62.6906 371.632 62.5706 371.61 62.4106 371.61H61.7206V375H60.1066V366.324H62.7526C63.3406 366.324 63.8446 366.386 64.2646 366.51C64.6886 366.63 65.0346 366.8 65.3026 367.02C65.5746 367.24 65.7746 367.504 65.9026 367.812C66.0306 368.116 66.0946 368.452 66.0946 368.82C66.0946 369.112 66.0506 369.388 65.9626 369.648C65.8786 369.908 65.7546 370.144 65.5906 370.356C65.4306 370.568 65.2306 370.754 64.9906 370.914C64.7546 371.074 64.4846 371.2 64.1806 371.292C64.2846 371.352 64.3806 371.424 64.4686 371.508C64.5566 371.588 64.6366 371.684 64.7086 371.796L66.8806 375ZM71.1511 371.214C71.1511 371.022 71.1231 370.842 71.0671 370.674C71.0151 370.502 70.9351 370.352 70.8271 370.224C70.7191 370.096 70.5811 369.996 70.4131 369.924C70.2491 369.848 70.0571 369.81 69.8371 369.81C69.4091 369.81 69.0711 369.932 68.8231 370.176C68.5791 370.42 68.4231 370.766 68.3551 371.214H71.1511ZM68.3251 372.108C68.3491 372.424 68.4051 372.698 68.4931 372.93C68.5811 373.158 68.6971 373.348 68.8411 373.5C68.9851 373.648 69.1551 373.76 69.3511 373.836C69.5511 373.908 69.7711 373.944 70.0111 373.944C70.2511 373.944 70.4571 373.916 70.6291 373.86C70.8051 373.804 70.9571 373.742 71.0851 373.674C71.2171 373.606 71.3311 373.544 71.4271 373.488C71.5271 373.432 71.6231 373.404 71.7151 373.404C71.8391 373.404 71.9311 373.45 71.9911 373.542L72.4171 374.082C72.2531 374.274 72.0691 374.436 71.8651 374.568C71.6611 374.696 71.4471 374.8 71.2231 374.88C71.0031 374.956 70.7771 375.01 70.5451 375.042C70.3171 375.074 70.0951 375.09 69.8791 375.09C69.4511 375.09 69.0531 375.02 68.6851 374.88C68.3171 374.736 67.9971 374.526 67.7251 374.25C67.4531 373.97 67.2391 373.626 67.0831 373.218C66.9271 372.806 66.8491 372.33 66.8491 371.79C66.8491 371.37 66.9171 370.976 67.0531 370.608C67.1891 370.236 67.3831 369.914 67.6351 369.642C67.8911 369.366 68.2011 369.148 68.5651 368.988C68.9331 368.828 69.3471 368.748 69.8071 368.748C70.1951 368.748 70.5531 368.81 70.8811 368.934C71.2091 369.058 71.4911 369.24 71.7271 369.48C71.9631 369.716 72.1471 370.008 72.2791 370.356C72.4151 370.7 72.4831 371.094 72.4831 371.538C72.4831 371.762 72.4591 371.914 72.4111 371.994C72.3631 372.07 72.2711 372.108 72.1351 372.108H68.3251ZM77.4593 370.416C77.2953 370.212 77.1133 370.068 76.9133 369.984C76.7133 369.9 76.4993 369.858 76.2713 369.858C76.0473 369.858 75.8453 369.9 75.6653 369.984C75.4853 370.068 75.3313 370.196 75.2033 370.368C75.0753 370.536 74.9773 370.752 74.9093 371.016C74.8413 371.276 74.8073 371.584 74.8073 371.94C74.8073 372.3 74.8353 372.606 74.8913 372.858C74.9513 373.106 75.0353 373.31 75.1433 373.47C75.2513 373.626 75.3833 373.74 75.5393 373.812C75.6953 373.88 75.8693 373.914 76.0613 373.914C76.3693 373.914 76.6313 373.85 76.8473 373.722C77.0633 373.594 77.2673 373.412 77.4593 373.176V370.416ZM78.9413 368.844V377.01H77.4593V374.22C77.2153 374.48 76.9393 374.69 76.6313 374.85C76.3233 375.01 75.9653 375.09 75.5573 375.09C75.2213 375.09 74.9133 375.02 74.6333 374.88C74.3533 374.74 74.1113 374.538 73.9073 374.274C73.7073 374.006 73.5513 373.676 73.4393 373.284C73.3313 372.892 73.2773 372.444 73.2773 371.94C73.2773 371.484 73.3393 371.06 73.4633 370.668C73.5873 370.276 73.7653 369.936 73.9973 369.648C74.2293 369.36 74.5073 369.136 74.8313 368.976C75.1553 368.812 75.5193 368.73 75.9233 368.73C76.3073 368.73 76.6293 368.796 76.8893 368.928C77.1493 369.06 77.3813 369.238 77.5853 369.462L77.6633 369.114C77.7153 368.934 77.8393 368.844 78.0353 368.844H78.9413ZM85.7079 368.844V375H84.8019C84.6059 375 84.4819 374.91 84.4299 374.73L84.3279 374.238C84.0759 374.494 83.7979 374.702 83.4939 374.862C83.1899 375.018 82.8319 375.096 82.4199 375.096C82.0839 375.096 81.7859 375.04 81.5259 374.928C81.2699 374.812 81.0539 374.65 80.8779 374.442C80.7019 374.234 80.5679 373.988 80.4759 373.704C80.3879 373.416 80.3439 373.1 80.3439 372.756V368.844H81.8259V372.756C81.8259 373.132 81.9119 373.424 82.0839 373.632C82.2599 373.836 82.5219 373.938 82.8699 373.938C83.1259 373.938 83.3659 373.882 83.5899 373.77C83.8139 373.654 84.0259 373.496 84.2259 373.296V368.844H85.7079ZM91.1433 371.214C91.1433 371.022 91.1153 370.842 91.0593 370.674C91.0073 370.502 90.9273 370.352 90.8193 370.224C90.7113 370.096 90.5733 369.996 90.4053 369.924C90.2413 369.848 90.0493 369.81 89.8293 369.81C89.4013 369.81 89.0633 369.932 88.8153 370.176C88.5713 370.42 88.4153 370.766 88.3473 371.214H91.1433ZM88.3173 372.108C88.3413 372.424 88.3973 372.698 88.4853 372.93C88.5733 373.158 88.6893 373.348 88.8333 373.5C88.9773 373.648 89.1473 373.76 89.3433 373.836C89.5433 373.908 89.7633 373.944 90.0033 373.944C90.2433 373.944 90.4493 373.916 90.6213 373.86C90.7973 373.804 90.9493 373.742 91.0773 373.674C91.2093 373.606 91.3233 373.544 91.4193 373.488C91.5193 373.432 91.6153 373.404 91.7073 373.404C91.8313 373.404 91.9233 373.45 91.9833 373.542L92.4093 374.082C92.2453 374.274 92.0613 374.436 91.8573 374.568C91.6533 374.696 91.4393 374.8 91.2153 374.88C90.9953 374.956 90.7693 375.01 90.5373 375.042C90.3093 375.074 90.0873 375.09 89.8713 375.09C89.4433 375.09 89.0453 375.02 88.6773 374.88C88.3093 374.736 87.9893 374.526 87.7173 374.25C87.4453 373.97 87.2313 373.626 87.0753 373.218C86.9193 372.806 86.8413 372.33 86.8413 371.79C86.8413 371.37 86.9093 370.976 87.0453 370.608C87.1813 370.236 87.3753 369.914 87.6273 369.642C87.8833 369.366 88.1933 369.148 88.5573 368.988C88.9253 368.828 89.3393 368.748 89.7993 368.748C90.1873 368.748 90.5453 368.81 90.8733 368.934C91.2013 369.058 91.4833 369.24 91.7193 369.48C91.9553 369.716 92.1393 370.008 92.2713 370.356C92.4073 370.7 92.4753 371.094 92.4753 371.538C92.4753 371.762 92.4513 371.914 92.4033 371.994C92.3553 372.07 92.2633 372.108 92.1273 372.108H88.3173ZM97.3435 370.044C97.3035 370.108 97.2615 370.154 97.2175 370.182C97.1735 370.206 97.1175 370.218 97.0495 370.218C96.9775 370.218 96.8995 370.198 96.8155 370.158C96.7355 370.118 96.6415 370.074 96.5335 370.026C96.4255 369.974 96.3015 369.928 96.1615 369.888C96.0255 369.848 95.8635 369.828 95.6755 369.828C95.3835 369.828 95.1535 369.89 94.9855 370.014C94.8215 370.138 94.7395 370.3 94.7395 370.5C94.7395 370.632 94.7815 370.744 94.8655 370.836C94.9535 370.924 95.0675 371.002 95.2075 371.07C95.3515 371.138 95.5135 371.2 95.6935 371.256C95.8735 371.308 96.0555 371.366 96.2395 371.43C96.4275 371.494 96.6115 371.568 96.7915 371.652C96.9715 371.732 97.1315 371.836 97.2715 371.964C97.4155 372.088 97.5295 372.238 97.6135 372.414C97.7015 372.59 97.7455 372.802 97.7455 373.05C97.7455 373.346 97.6915 373.62 97.5835 373.872C97.4795 374.12 97.3235 374.336 97.1155 374.52C96.9075 374.7 96.6495 374.842 96.3415 374.946C96.0375 375.046 95.6855 375.096 95.2855 375.096C95.0735 375.096 94.8655 375.076 94.6615 375.036C94.4615 375 94.2675 374.948 94.0795 374.88C93.8955 374.812 93.7235 374.732 93.5635 374.64C93.4075 374.548 93.2695 374.448 93.1495 374.34L93.4915 373.776C93.5355 373.708 93.5875 373.656 93.6475 373.62C93.7075 373.584 93.7835 373.566 93.8755 373.566C93.9675 373.566 94.0535 373.592 94.1335 373.644C94.2175 373.696 94.3135 373.752 94.4215 373.812C94.5295 373.872 94.6555 373.928 94.7995 373.98C94.9475 374.032 95.1335 374.058 95.3575 374.058C95.5335 374.058 95.6835 374.038 95.8075 373.998C95.9355 373.954 96.0395 373.898 96.1195 373.83C96.2035 373.762 96.2635 373.684 96.2995 373.596C96.3395 373.504 96.3595 373.41 96.3595 373.314C96.3595 373.17 96.3155 373.052 96.2275 372.96C96.1435 372.868 96.0295 372.788 95.8855 372.72C95.7455 372.652 95.5835 372.592 95.3995 372.54C95.2195 372.484 95.0335 372.424 94.8415 372.36C94.6535 372.296 94.4675 372.222 94.2835 372.138C94.1035 372.05 93.9415 371.94 93.7975 371.808C93.6575 371.676 93.5435 371.514 93.4555 371.322C93.3715 371.13 93.3295 370.898 93.3295 370.626C93.3295 370.374 93.3795 370.134 93.4795 369.906C93.5795 369.678 93.7255 369.48 93.9175 369.312C94.1135 369.14 94.3555 369.004 94.6435 368.904C94.9355 368.8 95.2715 368.748 95.6515 368.748C96.0755 368.748 96.4615 368.818 96.8095 368.958C97.1575 369.098 97.4475 369.282 97.6795 369.51L97.3435 370.044ZM100.913 375.096C100.377 375.096 99.9649 374.946 99.6769 374.646C99.3929 374.342 99.2509 373.924 99.2509 373.392V369.954H98.6209C98.5409 369.954 98.4729 369.928 98.4169 369.876C98.3609 369.824 98.3329 369.746 98.3329 369.642V369.054L99.3229 368.892L99.6349 367.212C99.6549 367.132 99.6929 367.07 99.7489 367.026C99.8049 366.982 99.8769 366.96 99.9649 366.96H100.733V368.898H102.377V369.954H100.733V373.29C100.733 373.482 100.779 373.632 100.871 373.74C100.967 373.848 101.097 373.902 101.261 373.902C101.353 373.902 101.429 373.892 101.489 373.872C101.553 373.848 101.607 373.824 101.651 373.8C101.699 373.776 101.741 373.754 101.777 373.734C101.813 373.71 101.849 373.698 101.885 373.698C101.929 373.698 101.965 373.71 101.993 373.734C102.021 373.754 102.051 373.786 102.083 373.83L102.527 374.55C102.311 374.73 102.063 374.866 101.783 374.958C101.503 375.05 101.213 375.096 100.913 375.096ZM114.182 370.662C114.182 371.298 114.076 371.882 113.864 372.414C113.652 372.946 113.354 373.404 112.97 373.788C112.586 374.172 112.124 374.47 111.584 374.682C111.044 374.894 110.444 375 109.784 375H106.478V366.324H109.784C110.444 366.324 111.044 366.432 111.584 366.648C112.124 366.86 112.586 367.158 112.97 367.542C113.354 367.922 113.652 368.378 113.864 368.91C114.076 369.442 114.182 370.026 114.182 370.662ZM112.526 370.662C112.526 370.186 112.462 369.76 112.334 369.384C112.21 369.004 112.028 368.684 111.788 368.424C111.552 368.16 111.264 367.958 110.924 367.818C110.588 367.678 110.208 367.608 109.784 367.608H108.098V373.716H109.784C110.208 373.716 110.588 373.646 110.924 373.506C111.264 373.366 111.552 373.166 111.788 372.906C112.028 372.642 112.21 372.322 112.334 371.946C112.462 371.566 112.526 371.138 112.526 370.662ZM119.257 371.214C119.257 371.022 119.229 370.842 119.173 370.674C119.121 370.502 119.041 370.352 118.933 370.224C118.825 370.096 118.687 369.996 118.519 369.924C118.355 369.848 118.163 369.81 117.943 369.81C117.515 369.81 117.177 369.932 116.929 370.176C116.685 370.42 116.529 370.766 116.461 371.214H119.257ZM116.431 372.108C116.455 372.424 116.511 372.698 116.599 372.93C116.687 373.158 116.803 373.348 116.947 373.5C117.091 373.648 117.261 373.76 117.457 373.836C117.657 373.908 117.877 373.944 118.117 373.944C118.357 373.944 118.563 373.916 118.735 373.86C118.911 373.804 119.063 373.742 119.191 373.674C119.323 373.606 119.437 373.544 119.533 373.488C119.633 373.432 119.729 373.404 119.821 373.404C119.945 373.404 120.037 373.45 120.097 373.542L120.523 374.082C120.359 374.274 120.175 374.436 119.971 374.568C119.767 374.696 119.553 374.8 119.329 374.88C119.109 374.956 118.883 375.01 118.651 375.042C118.423 375.074 118.201 375.09 117.985 375.09C117.557 375.09 117.159 375.02 116.791 374.88C116.423 374.736 116.103 374.526 115.831 374.25C115.559 373.97 115.345 373.626 115.189 373.218C115.033 372.806 114.955 372.33 114.955 371.79C114.955 371.37 115.023 370.976 115.159 370.608C115.295 370.236 115.489 369.914 115.741 369.642C115.997 369.366 116.307 369.148 116.671 368.988C117.039 368.828 117.453 368.748 117.913 368.748C118.301 368.748 118.659 368.81 118.987 368.934C119.315 369.058 119.597 369.24 119.833 369.48C120.069 369.716 120.253 370.008 120.385 370.356C120.521 370.7 120.589 371.094 120.589 371.538C120.589 371.762 120.565 371.914 120.517 371.994C120.469 372.07 120.377 372.108 120.241 372.108H116.431ZM123.201 366.084V375H121.719V366.084H123.201ZM126.213 368.844V375H124.725V368.844H126.213ZM126.417 367.05C126.417 367.178 126.391 367.298 126.339 367.41C126.287 367.522 126.217 367.62 126.129 367.704C126.045 367.788 125.945 367.856 125.829 367.908C125.713 367.956 125.589 367.98 125.457 367.98C125.329 367.98 125.207 367.956 125.091 367.908C124.979 367.856 124.881 367.788 124.797 367.704C124.713 367.62 124.645 367.522 124.593 367.41C124.545 367.298 124.521 367.178 124.521 367.05C124.521 366.918 124.545 366.794 124.593 366.678C124.645 366.562 124.713 366.462 124.797 366.378C124.881 366.294 124.979 366.228 125.091 366.18C125.207 366.128 125.329 366.102 125.457 366.102C125.589 366.102 125.713 366.128 125.829 366.18C125.945 366.228 126.045 366.294 126.129 366.378C126.217 366.462 126.287 366.562 126.339 366.678C126.391 366.794 126.417 366.918 126.417 367.05ZM133.274 368.844L130.832 375H129.488L127.046 368.844H128.27C128.382 368.844 128.474 368.87 128.546 368.922C128.622 368.974 128.672 369.04 128.696 369.12L129.884 372.408C129.948 372.6 130.004 372.788 130.052 372.972C130.1 373.156 130.142 373.34 130.178 373.524C130.218 373.34 130.262 373.156 130.31 372.972C130.358 372.788 130.416 372.6 130.484 372.408L131.696 369.12C131.724 369.04 131.774 368.974 131.846 368.922C131.918 368.87 132.004 368.844 132.104 368.844H133.274ZM137.843 371.214C137.843 371.022 137.815 370.842 137.759 370.674C137.707 370.502 137.627 370.352 137.519 370.224C137.411 370.096 137.273 369.996 137.105 369.924C136.941 369.848 136.749 369.81 136.529 369.81C136.101 369.81 135.763 369.932 135.515 370.176C135.271 370.42 135.115 370.766 135.047 371.214H137.843ZM135.017 372.108C135.041 372.424 135.097 372.698 135.185 372.93C135.273 373.158 135.389 373.348 135.533 373.5C135.677 373.648 135.847 373.76 136.043 373.836C136.243 373.908 136.463 373.944 136.703 373.944C136.943 373.944 137.149 373.916 137.321 373.86C137.497 373.804 137.649 373.742 137.777 373.674C137.909 373.606 138.023 373.544 138.119 373.488C138.219 373.432 138.315 373.404 138.407 373.404C138.531 373.404 138.623 373.45 138.683 373.542L139.109 374.082C138.945 374.274 138.761 374.436 138.557 374.568C138.353 374.696 138.139 374.8 137.915 374.88C137.695 374.956 137.469 375.01 137.237 375.042C137.009 375.074 136.787 375.09 136.571 375.09C136.143 375.09 135.745 375.02 135.377 374.88C135.009 374.736 134.689 374.526 134.417 374.25C134.145 373.97 133.931 373.626 133.775 373.218C133.619 372.806 133.541 372.33 133.541 371.79C133.541 371.37 133.609 370.976 133.745 370.608C133.881 370.236 134.075 369.914 134.327 369.642C134.583 369.366 134.893 369.148 135.257 368.988C135.625 368.828 136.039 368.748 136.499 368.748C136.887 368.748 137.245 368.81 137.573 368.934C137.901 369.058 138.183 369.24 138.419 369.48C138.655 369.716 138.839 370.008 138.971 370.356C139.107 370.7 139.175 371.094 139.175 371.538C139.175 371.762 139.151 371.914 139.103 371.994C139.055 372.07 138.963 372.108 138.827 372.108H135.017ZM141.685 369.912C141.877 369.544 142.105 369.256 142.369 369.048C142.633 368.836 142.945 368.73 143.305 368.73C143.589 368.73 143.817 368.792 143.989 368.916L143.893 370.026C143.873 370.098 143.843 370.15 143.803 370.182C143.767 370.21 143.717 370.224 143.653 370.224C143.593 370.224 143.503 370.214 143.383 370.194C143.267 370.174 143.153 370.164 143.041 370.164C142.877 370.164 142.731 370.188 142.603 370.236C142.475 370.284 142.359 370.354 142.255 370.446C142.155 370.534 142.065 370.642 141.985 370.77C141.909 370.898 141.837 371.044 141.769 371.208V375H140.287V368.844H141.157C141.309 368.844 141.415 368.872 141.475 368.928C141.535 368.98 141.575 369.076 141.595 369.216L141.685 369.912ZM150.355 368.844L147.001 376.692C146.957 376.796 146.899 376.874 146.827 376.926C146.759 376.982 146.653 377.01 146.509 377.01H145.405L146.557 374.538L144.067 368.844H145.369C145.485 368.844 145.575 368.872 145.639 368.928C145.707 368.984 145.757 369.048 145.789 369.12L147.097 372.312C147.141 372.42 147.177 372.528 147.205 372.636C147.237 372.744 147.267 372.854 147.295 372.966C147.331 372.854 147.367 372.744 147.403 372.636C147.439 372.524 147.479 372.414 147.523 372.306L148.759 369.12C148.791 369.04 148.843 368.974 148.915 368.922C148.991 368.87 149.075 368.844 149.167 368.844H150.355Z" fill="#828282"/>
<g clip-path="url(#clip1_2705_8024)">
<path d="M75.3693 290.296C74.4594 285.416 75.8919 279.863 79.8732 276.909C79.6476 282.304 81.333 287.604 84.6313 291.873C85.9092 293.515 87.5012 295.207 87.4517 297.289C87.421 298.584 86.7221 299.791 85.801 300.7C84.8799 301.609 83.7453 302.265 82.6243 302.91L82.4498 303.182C79.1635 299.467 76.2791 295.177 75.3693 290.296Z" fill="#F0F0F0"/>
<path d="M79.9457 276.984C78.273 280.736 77.8224 284.921 78.6579 288.944C78.8224 289.814 79.1226 290.652 79.5475 291.427C79.9857 292.17 80.6142 292.781 81.3677 293.197C82.0625 293.599 82.8197 293.93 83.4048 294.495C83.7 294.788 83.93 295.141 84.0797 295.53C84.2293 295.919 84.2953 296.335 84.2732 296.751C84.2452 297.789 83.8466 298.756 83.424 299.687C82.9549 300.721 82.4512 301.788 82.4816 302.951C82.4853 303.092 82.267 303.089 82.2633 302.949C82.2103 300.926 83.6696 299.301 83.9947 297.36C84.1464 296.454 84.0267 295.497 83.3914 294.795C82.8358 294.181 82.0553 293.839 81.3483 293.438C80.6073 293.042 79.9741 292.471 79.5041 291.774C79.0413 291.023 78.7093 290.198 78.5226 289.335C78.0713 287.398 77.9265 285.403 78.0936 283.422C78.2718 281.159 78.8349 278.944 79.7584 276.872C79.8156 276.744 80.0026 276.857 79.9457 276.984L79.9457 276.984Z" fill="white"/>
<path d="M78.3128 287.665C77.6202 287.714 76.9329 287.515 76.3736 287.103C75.8142 286.69 75.4193 286.092 75.2593 285.415C75.2273 285.278 75.4384 285.222 75.4704 285.359C75.6182 285.99 75.9862 286.547 76.5078 286.93C77.0295 287.313 77.6704 287.496 78.315 287.447C78.4551 287.436 78.452 287.655 78.3128 287.665Z" fill="white"/>
<path d="M80.9887 293.039C81.9288 291.973 82.4337 290.592 82.4027 289.17C82.3995 289.029 82.6178 289.031 82.621 289.172C82.6505 290.652 82.1222 292.089 81.1414 293.195C81.0479 293.301 80.8956 293.144 80.9887 293.039V293.039Z" fill="white"/>
<path d="M78.5276 281.295C78.7995 281.332 79.0763 281.301 79.3332 281.205C79.5901 281.108 79.819 280.949 79.9993 280.742C80.0915 280.635 80.2437 280.792 80.1521 280.898C79.9517 281.126 79.6987 281.301 79.4152 281.409C79.1316 281.516 78.8261 281.552 78.5253 281.514C78.4967 281.513 78.4696 281.501 78.4495 281.48C78.4294 281.46 78.4179 281.432 78.4173 281.404C78.4177 281.375 78.4296 281.347 78.4502 281.327C78.4709 281.307 78.4987 281.295 78.5276 281.295H78.5276Z" fill="white"/>
<path d="M96.1547 280.946C96.099 281.015 96.0433 281.083 95.9881 281.153C95.2445 282.073 94.5766 283.053 93.9913 284.081C93.9447 284.16 93.8988 284.241 93.8546 284.321C92.4706 286.815 91.5606 289.544 91.1708 292.371C91.0167 293.496 90.9483 294.631 90.966 295.766C90.9906 297.334 91.1418 299.032 90.6622 300.474C90.6139 300.626 90.5562 300.773 90.4896 300.917L82.7945 303.375C82.7742 303.371 82.7544 303.37 82.734 303.367L82.4312 303.479C82.4262 303.42 82.4223 303.36 82.4173 303.301C82.4143 303.267 82.4129 303.233 82.4099 303.199C82.4084 303.176 82.407 303.153 82.4044 303.133C82.4038 303.125 82.4034 303.118 82.4034 303.112C82.4008 303.091 82.4005 303.072 82.3985 303.053C82.3756 302.714 82.3544 302.373 82.3368 302.032C82.3363 302.03 82.3363 302.03 82.3374 302.028C82.2053 299.428 82.2886 296.795 82.7681 294.258C82.7826 294.181 82.7964 294.103 82.8143 294.026C83.0368 292.883 83.352 291.761 83.7569 290.67C83.9806 290.073 84.2342 289.488 84.5168 288.917C85.2499 287.443 86.2098 286.094 87.3612 284.919C89.6569 282.578 92.6744 280.998 95.9076 280.948C95.9903 280.947 96.0714 280.946 96.1547 280.946Z" fill="#F0F0F0"/>
<path d="M96.1685 281.049C92.579 283.036 89.7054 286.105 87.9556 289.822C87.5647 290.615 87.3011 291.466 87.1744 292.341C87.0784 293.198 87.2132 294.065 87.5647 294.852C87.8778 295.593 88.2836 296.314 88.4115 297.118C88.4709 297.531 88.4427 297.951 88.3286 298.352C88.2146 298.752 88.0173 299.125 87.7497 299.443C87.1035 300.256 86.2048 300.787 85.3078 301.275C84.3119 301.818 83.269 302.366 82.5948 303.313C82.5131 303.427 82.3403 303.294 82.4219 303.179C83.5948 301.532 85.7358 301.115 87.1615 299.762C87.8267 299.13 88.3061 298.294 88.2205 297.35C88.1457 296.524 87.7279 295.78 87.4045 295.033C87.0504 294.27 86.888 293.432 86.9315 292.592C87.0134 291.713 87.2439 290.854 87.6132 290.052C88.416 288.233 89.4991 286.553 90.8227 285.072C92.3241 283.373 94.1043 281.944 96.0864 280.847C96.2091 280.779 96.2904 280.982 96.1685 281.049Z" fill="white"/>
<path d="M88.4486 288.593C87.8663 288.214 87.4374 287.64 87.2384 286.974C87.0394 286.307 87.0832 285.591 87.3622 284.954C87.4191 284.826 87.6213 284.908 87.5644 285.037C87.3035 285.63 87.2627 286.297 87.4493 286.917C87.6359 287.537 88.0376 288.07 88.5819 288.42C88.7001 288.496 88.5661 288.669 88.4486 288.593H88.4486Z" fill="white"/>
<path d="M87.3567 294.498C88.7474 294.215 89.9804 293.417 90.8098 292.262C90.8919 292.148 91.0648 292.282 90.9828 292.396C90.1174 293.595 88.8326 294.424 87.3847 294.715C87.2467 294.743 87.2194 294.526 87.3567 294.498V294.498Z" fill="white"/>
<path d="M92.4466 283.637C92.6414 283.83 92.8811 283.973 93.1443 284.05C93.4075 284.128 93.6858 284.139 93.9543 284.083C94.0919 284.053 94.1191 284.27 93.9824 284.3C93.6854 284.361 93.3781 284.348 93.0871 284.263C92.7961 284.178 92.5305 284.022 92.3133 283.81C92.2911 283.792 92.2768 283.766 92.2731 283.737C92.2694 283.709 92.2767 283.68 92.2935 283.657C92.3112 283.634 92.3373 283.619 92.3659 283.615C92.3946 283.611 92.4236 283.619 92.4466 283.637V283.637Z" fill="white"/>
<path d="M108.242 254.259C108.268 254.372 108.285 254.488 108.292 254.604L117.315 259.821L119.508 258.556L121.846 261.623L118.18 264.241C117.884 264.453 117.528 264.562 117.164 264.553C116.801 264.545 116.45 264.418 116.165 264.192L106.861 256.836C106.441 256.991 105.984 257.015 105.55 256.904C105.116 256.793 104.726 256.553 104.433 256.214C104.139 255.876 103.954 255.455 103.905 255.01C103.855 254.564 103.941 254.113 104.153 253.718C104.365 253.322 104.692 253.001 105.091 252.797C105.489 252.592 105.94 252.514 106.384 252.573C106.828 252.631 107.244 252.824 107.575 253.125C107.907 253.427 108.14 253.822 108.242 254.259V254.259Z" fill="#FFB6B6"/>
<path d="M117.44 259.245C117.469 259.112 117.526 258.987 117.607 258.878C117.688 258.769 117.792 258.678 117.911 258.613L122.077 256.339C122.632 255.919 123.33 255.737 124.018 255.832C124.706 255.928 125.329 256.293 125.749 256.848C126.169 257.403 126.353 258.102 126.259 258.792C126.166 259.483 125.803 260.107 125.25 260.53L121.912 263.929C121.816 264.026 121.701 264.101 121.575 264.15C121.448 264.198 121.312 264.219 121.176 264.21C121.041 264.201 120.909 264.163 120.789 264.098C120.67 264.033 120.565 263.944 120.484 263.835L117.609 260.015C117.527 259.907 117.47 259.782 117.441 259.649C117.412 259.516 117.411 259.378 117.44 259.245Z" fill="#3F3D56"/>
<path d="M124.882 246.02C125.481 244.106 126.844 242.35 128.729 241.703C130.614 241.056 133.374 242.042 134.791 243.457C137.383 246.046 138.015 254.941 136.235 257.752C135.88 257.733 134.658 257.719 134.3 257.706L133.792 256.011V257.689C130.994 257.602 128.081 257.657 125.166 257.713C124.905 255.723 124.282 247.935 124.882 246.02Z" fill="#2F2E41"/>
<path d="M124.08 326.375H121.527L120.313 316.508L124.08 316.508L124.08 326.375Z" fill="#FFB6B6"/>
<path d="M146.423 324.784L143.953 325.429L140.295 316.188L143.94 315.236L146.423 324.784Z" fill="#FFB6B6"/>
<path d="M132.357 265.774L132.936 267.281L132.82 268.788L121.502 272.717L122.063 266.121L123.335 264.614L132.357 265.774Z" fill="#FFB6B6"/>
<path d="M128.779 252.212C131.011 252.212 132.821 250.398 132.821 248.16C132.821 245.922 131.011 244.108 128.779 244.108C126.546 244.108 124.736 245.922 124.736 248.16C124.736 250.398 126.546 252.212 128.779 252.212Z" fill="#FFB7B7"/>
<path d="M126.001 242.883C126.778 242.409 127.667 242.152 128.577 242.14C129.487 242.128 130.383 242.361 131.172 242.815C131.961 243.269 132.613 243.927 133.062 244.72C133.51 245.514 133.738 246.413 133.72 247.325C131.517 247.889 129.169 248.125 126.68 247.461L126.111 246.065L125.776 247.462C125.015 247.998 124.28 247.997 123.572 247.459C123.542 246.55 123.75 245.649 124.177 244.846C124.603 244.043 125.232 243.366 126.001 242.883Z" fill="#2F2E41"/>
<path d="M125.222 331.233H123.41L123.087 329.519L122.259 331.233H117.456C117.226 331.233 117.001 331.159 116.816 331.022C116.63 330.885 116.493 330.693 116.425 330.472C116.356 330.252 116.36 330.016 116.435 329.797C116.51 329.579 116.653 329.391 116.842 329.26L120.678 326.605V324.872L124.713 325.113L125.222 331.233Z" fill="#2F2E41"/>
<path d="M148.974 329.137L147.221 329.595L146.477 328.019L146.107 329.886L141.459 331.101C141.236 331.159 141.001 331.144 140.787 331.059C140.573 330.973 140.392 330.822 140.27 330.626C140.148 330.43 140.092 330.2 140.11 329.97C140.128 329.74 140.218 329.522 140.369 329.347L143.412 325.808L142.976 324.131L146.941 323.345L148.974 329.137Z" fill="#2F2E41"/>
<path d="M146.11 318.579L138.628 303.168L136.28 284.411C137.899 281.396 134.892 275.263 134.892 275.263V272.688L123.242 274.891V274.891C120.86 281.405 119.704 288.305 119.835 295.241L120.304 320.175H120.157C119.913 320.175 119.678 320.272 119.506 320.445C119.333 320.618 119.236 320.853 119.236 321.098C119.236 321.343 119.333 321.578 119.506 321.751C119.678 321.924 119.913 322.021 120.157 322.021H124.764C125.008 322.021 125.242 321.924 125.415 321.751C125.588 321.578 125.685 321.343 125.685 321.098C125.685 320.853 125.588 320.618 125.415 320.445C125.242 320.272 125.008 320.175 124.764 320.175H124.645L127.952 288.454L131.797 304.108L141.089 318.52C140.852 318.538 140.632 318.648 140.474 318.826C140.316 319.005 140.233 319.237 140.243 319.475C140.252 319.713 140.353 319.938 140.525 320.103C140.697 320.268 140.925 320.36 141.163 320.359H145.77C145.984 320.36 146.192 320.285 146.357 320.148C146.522 320.011 146.634 319.821 146.675 319.61C146.715 319.399 146.681 319.181 146.577 318.993C146.474 318.804 146.309 318.658 146.11 318.579H146.11Z" fill="#2F2E41"/>
<path d="M135.945 276.842H135.945C135.906 276.691 135.822 276.556 135.702 276.457C135.583 276.358 135.435 276.299 135.28 276.289C135.127 274.529 134.112 263.245 134.074 262.914L134.072 262.9L133.778 256.61C133.768 256.381 133.673 256.165 133.514 256.002C133.354 255.838 133.14 255.74 132.912 255.725L131.36 255.623C131.339 255.623 131.319 255.614 131.304 255.598C131.289 255.583 131.281 255.563 131.281 255.541C131.281 255.369 131.247 255.199 131.182 255.041C131.116 254.882 131.02 254.738 130.899 254.616C130.778 254.495 130.634 254.399 130.475 254.333C130.317 254.267 130.147 254.233 129.976 254.233H125.382C125.085 254.234 124.797 254.342 124.574 254.54C124.351 254.737 124.208 255.009 124.17 255.305C124.168 255.326 124.159 255.344 124.143 255.358C124.128 255.372 124.108 255.379 124.088 255.378L124.087 255.378C123.565 255.368 123.057 255.545 122.654 255.878C122.251 256.211 121.981 256.677 121.892 257.193C121.264 260.855 120.005 269.168 120.627 273.789C120.844 275.397 120.746 277.817 120.664 279.163C120.655 279.293 120.673 279.423 120.715 279.547C120.757 279.67 120.824 279.784 120.91 279.881C120.727 279.934 120.571 280.056 120.476 280.222C120.381 280.388 120.354 280.584 120.4 280.769H120.4C120.448 280.959 120.569 281.122 120.737 281.223C120.905 281.323 121.105 281.353 121.295 281.305L135.41 277.738C135.6 277.691 135.763 277.569 135.863 277.401C135.963 277.233 135.992 277.032 135.945 276.842Z" fill="#3F3D56"/>
<path d="M112.616 303.285C112.613 302.872 112.465 302.473 112.197 302.16C111.929 301.846 111.559 301.637 111.152 301.571L86.126 297.452C85.886 297.412 85.6404 297.423 85.4049 297.484L79.5399 299.004L76.1748 299.877L69.9646 301.486C69.5897 301.584 69.2577 301.803 69.0207 302.11C68.7837 302.418 68.6551 302.795 68.655 303.183V329.466C68.6568 329.866 68.795 330.255 69.0466 330.566C69.2982 330.877 69.6482 331.093 70.0389 331.178L95.5294 330.889C95.6491 330.915 95.7712 330.928 95.8936 330.927C96.072 330.927 96.2494 330.9 96.4195 330.847L111.564 331.224C111.921 331.113 112.233 330.888 112.454 330.585C112.674 330.281 112.79 329.915 112.786 329.54L112.616 303.285Z" fill="white"/>
<path d="M112.616 303.285C112.613 302.872 112.465 302.473 112.197 302.16C111.929 301.846 111.559 301.637 111.152 301.571L86.126 297.452C85.886 297.412 85.6404 297.423 85.4049 297.484L79.5399 299.004L76.1748 299.877L69.9646 301.486C69.5897 301.584 69.2577 301.803 69.0207 302.11C68.7837 302.418 68.6551 302.795 68.655 303.183V329.466C68.6568 329.866 68.795 330.255 69.0466 330.566C69.2982 330.877 69.6482 331.093 70.0389 331.178L95.5294 330.889C95.6491 330.915 95.7712 330.928 95.8936 330.927C96.072 330.927 96.2494 330.9 96.4195 330.847L111.564 331.224C111.921 331.113 112.233 330.888 112.454 330.585C112.674 330.281 112.79 329.915 112.786 329.54L112.616 303.285ZM111.433 330.807L96.2884 331.168C96.0724 331.235 95.8427 331.246 95.6212 331.2L70.1292 330.751C69.8363 330.687 69.5739 330.524 69.3854 330.291C69.1968 330.057 69.0933 329.766 69.092 329.466V303.183C69.0922 302.914 69.1747 302.651 69.3284 302.431C69.4821 302.21 69.6995 302.042 69.9515 301.949C69.9915 301.934 70.0324 301.921 70.0739 301.911L76.6439 300.209L80.5291 299.201L85.5141 297.909C85.6211 297.881 85.7313 297.866 85.8419 297.867C85.9132 297.867 85.9843 297.873 86.0546 297.884L111.08 302.003C111.282 302.036 111.473 302.116 111.638 302.236C111.803 302.356 111.939 302.512 112.033 302.694C112.128 302.878 112.178 303.081 112.179 303.288L112.349 329.542C112.352 329.824 112.265 330.099 112.1 330.327C111.935 330.554 111.701 330.723 111.433 330.807Z" fill="#CCCCCC"/>
<path d="M112.033 302.694C112.016 302.705 111.997 302.714 111.978 302.719L104.617 304.713L102.325 305.334L95.8076 307.099C95.789 307.104 95.7699 307.106 95.7508 307.106C95.7376 307.106 95.7245 307.105 95.7114 307.103L69.4313 302.301L69.3439 302.285C69.287 302.274 69.2366 302.242 69.2038 302.194C69.171 302.146 69.1584 302.087 69.1688 302.03C69.1792 301.973 69.2117 301.922 69.2593 301.889C69.3068 301.856 69.3656 301.843 69.4226 301.853L69.9514 301.949L95.742 306.662L101.359 305.141L104.502 304.29L111.749 302.326L111.864 302.295C111.914 302.282 111.967 302.287 112.013 302.309C112.06 302.331 112.097 302.368 112.119 302.415C112.125 302.426 112.129 302.438 112.132 302.45C112.144 302.496 112.141 302.545 112.123 302.589C112.105 302.633 112.074 302.67 112.033 302.694Z" fill="#CCCCCC"/>
<path d="M95.9693 330.978C95.8495 330.978 95.7519 330.881 95.7507 331.5L95.5322 307.628C95.5311 306.768 95.6281 306.669 95.7488 306.668H95.7507C95.8705 306.668 95.9681 306.765 95.9693 307.624L96.1878 331.496C96.1889 330.878 96.0919 330.977 95.9713 330.978H95.9693Z" fill="#CCCCCC"/>
<path d="M104.679 331.256L102.325 331.281L101.359 305.142L76.7153 300.227C76.6911 300.223 76.6673 300.217 76.6439 300.209C76.4546 300.155 76.2892 300.039 76.1748 299.878L79.5399 299.005L80.5291 299.202L103.913 303.864C104.036 303.888 104.152 303.939 104.254 304.013C104.356 304.086 104.44 304.181 104.502 304.29C104.574 304.417 104.677 331.104 104.679 331.256Z" fill="#CCCCCC"/>
<path d="M123.529 255.442C123.527 255.131 123.415 254.83 123.214 254.594C123.012 254.357 122.733 254.2 122.426 254.15L103.565 251.046C103.384 251.016 103.199 251.024 103.022 251.07L98.6016 252.216L96.0654 252.874L91.3851 254.086C91.1025 254.16 90.8523 254.325 90.6737 254.557C90.4951 254.788 90.3981 255.072 90.3981 255.365V270.858C90.3995 271.16 90.5036 271.453 90.6932 271.688C90.8828 271.922 91.1466 272.085 91.4411 272.149L110.652 276.246C110.742 276.265 110.834 276.275 110.927 276.274C111.061 276.275 111.195 276.254 111.323 276.214L122.737 272.601C123.006 272.517 123.241 272.348 123.407 272.119C123.573 271.891 123.661 271.614 123.658 271.332L123.529 255.442Z" fill="white"/>
<path d="M103.352 252.183C103.338 252.183 103.324 252.184 103.311 252.188L91.6742 255.204C91.6389 255.213 91.6077 255.234 91.5854 255.263C91.5631 255.292 91.551 255.327 91.551 255.364V270.857C91.5511 270.895 91.5641 270.931 91.5878 270.96C91.6114 270.99 91.6444 271.01 91.6812 271.018L110.892 275.115C110.92 275.121 110.949 275.119 110.976 275.111L122.39 271.498C122.424 271.488 122.453 271.467 122.474 271.438C122.494 271.409 122.505 271.375 122.505 271.34L122.377 255.45C122.377 255.411 122.363 255.374 122.337 255.344C122.312 255.315 122.277 255.295 122.239 255.289L103.378 252.185C103.37 252.183 103.361 252.183 103.352 252.183Z" fill="#12AE62"/>
<path d="M123.529 255.442C123.527 255.131 123.415 254.83 123.214 254.594C123.012 254.357 122.733 254.2 122.426 254.15L103.565 251.046C103.384 251.016 103.199 251.024 103.022 251.07L98.6016 252.216L96.0654 252.874L91.3851 254.086C91.1025 254.16 90.8523 254.325 90.6737 254.557C90.4951 254.788 90.3981 255.072 90.3981 255.365V270.858C90.3995 271.16 90.5036 271.453 90.6932 271.688C90.8828 271.922 91.1466 272.085 91.4411 272.149L110.652 276.246C110.742 276.265 110.834 276.275 110.927 276.274C111.061 276.275 111.195 276.254 111.323 276.214L122.737 272.601C123.006 272.517 123.241 272.348 123.407 272.119C123.573 271.891 123.661 271.614 123.658 271.332L123.529 255.442ZM122.638 272.287L111.224 275.899C111.061 275.95 110.888 275.958 110.721 275.923L91.5091 271.827C91.2884 271.778 91.0906 271.656 90.9485 271.48C90.8064 271.304 90.7284 271.085 90.7274 270.858V255.365C90.7276 255.162 90.7898 254.964 90.9056 254.798C91.0214 254.632 91.1853 254.505 91.3752 254.435C91.4054 254.424 91.4361 254.414 91.4674 254.407L96.419 253.124L99.347 252.364L103.104 251.39C103.185 251.369 103.268 251.358 103.351 251.359C103.405 251.358 103.458 251.363 103.511 251.372L122.372 254.476C122.524 254.501 122.668 254.561 122.792 254.651C122.917 254.742 123.019 254.86 123.09 254.996C123.161 255.135 123.199 255.288 123.2 255.444L123.328 271.334C123.331 271.546 123.265 271.753 123.141 271.925C123.016 272.096 122.84 272.223 122.638 272.287V272.287Z" fill="#3F3D56"/>
<path d="M123.09 254.996C123.077 255.004 123.063 255.011 123.049 255.014L117.501 256.518L115.774 256.985L110.862 258.316C110.848 258.319 110.833 258.321 110.819 258.321C110.809 258.321 110.799 258.32 110.789 258.319L90.9833 254.7L90.9174 254.688C90.8745 254.68 90.8365 254.655 90.8117 254.619C90.7869 254.583 90.7774 254.538 90.7853 254.495C90.7931 254.452 90.8177 254.414 90.8535 254.389C90.8894 254.364 90.9337 254.354 90.9767 254.362L91.3752 254.435L110.812 257.987L115.046 256.84L117.414 256.198L122.876 254.718L122.963 254.695C123 254.685 123.04 254.689 123.075 254.706C123.11 254.722 123.139 254.75 123.155 254.786C123.159 254.794 123.163 254.803 123.165 254.812C123.174 254.847 123.172 254.883 123.158 254.916C123.145 254.949 123.121 254.977 123.09 254.996Z" fill="#3F3D56"/>
<path d="M110.984 276.313C110.94 276.313 110.899 276.295 110.868 276.265C110.837 276.234 110.819 276.193 110.819 276.149L110.654 258.158C110.654 258.114 110.671 258.072 110.701 258.041C110.732 258.009 110.774 257.992 110.817 257.991H110.819C110.862 257.991 110.904 258.008 110.935 258.039C110.966 258.07 110.983 258.111 110.984 258.155L111.148 276.146C111.149 276.19 111.132 276.232 111.101 276.263C111.071 276.294 111.029 276.312 110.985 276.313H110.984Z" fill="#3F3D56"/>
<path d="M117.501 274.124L115.774 274.592L115.046 256.841L96.4728 253.137C96.4546 253.134 96.4366 253.129 96.419 253.124C96.2763 253.083 96.1516 252.995 96.0654 252.874L98.6016 252.216L99.3471 252.364L116.971 255.878C117.063 255.896 117.151 255.934 117.227 255.99C117.304 256.045 117.368 256.117 117.414 256.199C117.469 256.295 117.5 274.01 117.501 274.124Z" fill="#3F3D56"/>
<path d="M116.727 264.003C116.815 264.079 116.898 264.161 116.973 264.25L127.319 263.039L128.325 260.712L132.027 261.775L130.646 266.068C130.534 266.415 130.313 266.716 130.016 266.926C129.719 267.137 129.362 267.245 128.999 267.234L117.153 266.897C116.909 267.273 116.557 267.566 116.142 267.736C115.728 267.906 115.272 267.946 114.835 267.851C114.397 267.755 113.999 267.528 113.694 267.2C113.388 266.872 113.19 266.458 113.124 266.015C113.059 265.571 113.13 265.117 113.328 264.715C113.526 264.312 113.841 263.98 114.232 263.761C114.624 263.543 115.072 263.449 115.517 263.492C115.963 263.536 116.385 263.714 116.727 264.003Z" fill="#FFB6B6"/>
<path d="M127.076 262.502C127.02 262.378 126.991 262.244 126.992 262.107C126.992 261.971 127.022 261.837 127.078 261.713L129.066 257.396C129.262 256.728 129.713 256.164 130.323 255.829C130.932 255.494 131.649 255.415 132.316 255.609C132.984 255.803 133.547 256.254 133.883 256.864C134.219 257.474 134.3 258.192 134.108 258.861L133.454 263.586C133.435 263.721 133.388 263.85 133.315 263.965C133.242 264.079 133.145 264.177 133.031 264.251C132.917 264.325 132.788 264.373 132.654 264.393C132.519 264.412 132.382 264.403 132.252 264.364L127.671 263.019C127.541 262.981 127.42 262.915 127.317 262.826C127.215 262.736 127.133 262.626 127.076 262.502Z" fill="#3F3D56"/>
<path d="M161.781 331.448H48.2194C48.1613 331.447 48.1057 331.424 48.0646 331.383C48.0236 331.342 48.0006 331.286 48.0006 331.228C48.0006 331.169 48.0236 331.114 48.0646 331.072C48.1057 331.031 48.1613 331.008 48.2194 331.008H161.781C161.839 331.008 161.895 331.031 161.936 331.072C161.977 331.113 162 331.169 162 331.228C162 331.286 161.977 331.342 161.936 331.383C161.895 331.424 161.839 331.448 161.781 331.448Z" fill="#CACACA"/>
<path d="M70.1326 308.082C73.7769 308.082 76.7313 305.121 76.7313 301.468C76.7313 297.816 73.7769 294.854 70.1326 294.854C66.4882 294.854 63.5339 297.816 63.5339 301.468C63.5339 305.121 66.4882 308.082 70.1326 308.082Z" fill="#12AE62"/>
<path d="M69.2324 304.911C69.1185 304.911 69.0061 304.884 68.9042 304.833C68.8022 304.782 68.7136 304.708 68.6453 304.616L66.845 302.211C66.7282 302.054 66.6781 301.858 66.7056 301.665C66.7332 301.472 66.8361 301.298 66.9919 301.181C67.1476 301.064 67.3434 301.013 67.5361 301.041C67.7288 301.068 67.9027 301.172 68.0195 301.328L69.1972 302.902L72.2222 298.354C72.2755 298.273 72.3442 298.204 72.4243 298.15C72.5045 298.096 72.5944 298.058 72.6891 298.039C72.7838 298.02 72.8813 298.02 72.9761 298.038C73.0708 298.057 73.161 298.094 73.2414 298.148C73.3217 298.202 73.3907 298.271 73.4444 298.351C73.4981 298.432 73.5354 298.522 73.5542 298.617C73.573 298.712 73.5729 298.81 73.5539 298.905C73.535 298.999 73.4975 299.09 73.4437 299.17L69.8432 304.583C69.7781 304.681 69.6905 304.762 69.5878 304.819C69.485 304.876 69.3702 304.907 69.2528 304.91C69.246 304.911 69.2392 304.911 69.2324 304.911Z" fill="white"/>
<path d="M98.2295 266.34C98.209 266.34 98.1886 266.338 98.1685 266.333L92.4563 265.04C92.3849 265.024 92.3228 264.98 92.2837 264.918C92.2447 264.856 92.2317 264.781 92.2479 264.709C92.264 264.638 92.3078 264.575 92.3697 264.536C92.4316 264.497 92.5065 264.484 92.578 264.5L98.2902 265.793C98.3565 265.808 98.415 265.847 98.4544 265.902C98.4939 265.958 98.5115 266.026 98.504 266.094C98.4965 266.161 98.4644 266.224 98.4137 266.269C98.3631 266.315 98.2975 266.34 98.2295 266.34Z" fill="white"/>
<path d="M76.2455 318.371C76.2254 318.375 76.2049 318.377 76.1844 318.377L70.3292 318.278C70.256 318.276 70.1863 318.246 70.1355 318.193C70.0846 318.14 70.0567 318.069 70.058 317.996C70.0592 317.923 70.0894 317.853 70.142 317.802C70.1945 317.751 70.2652 317.723 70.3384 317.724L76.1936 317.822C76.2615 317.824 76.3267 317.85 76.3766 317.896C76.4265 317.942 76.4577 318.006 76.4641 318.073C76.4705 318.141 76.4518 318.209 76.4114 318.264C76.3711 318.319 76.312 318.357 76.2455 318.371Z" fill="#E6E6E6"/>
<path d="M78.2725 321.511C78.2524 321.516 78.2319 321.517 78.2114 321.517L72.3562 321.418C72.283 321.417 72.2134 321.387 72.1625 321.334C72.1117 321.281 72.0838 321.21 72.085 321.137C72.0862 321.063 72.1164 320.993 72.169 320.942C72.2216 320.891 72.2922 320.863 72.3654 320.864L78.2206 320.963C78.2886 320.964 78.3537 320.99 78.4036 321.037C78.4536 321.083 78.4847 321.146 78.4911 321.214C78.4975 321.282 78.4788 321.35 78.4385 321.405C78.3982 321.459 78.3391 321.497 78.2725 321.511Z" fill="#E6E6E6"/>
</g>
</g>
</g>
<defs>
<filter id="filter0_dd_2705_8024" x="0" y="0" width="210" height="415.5" filterUnits="userSpaceOnUse" color-interpolation-filters="sRGB">
<feFlood flood-opacity="0" result="BackgroundImageFix"/>
<feColorMatrix in="SourceAlpha" type="matrix" values="0 0 0 0 0 0 0 0 0 0 0 0 0 0 0 0 0 0 127 0" result="hardAlpha"/>
<feOffset dy="1"/>
<feGaussianBlur stdDeviation="1"/>
<feColorMatrix type="matrix" values="0 0 0 0 0 0 0 0 0 0 0 0 0 0 0 0 0 0 0.08 0"/>
<feBlend mode="normal" in2="BackgroundImageFix" result="effect1_dropShadow_2705_8024"/>
<feColorMatrix in="SourceAlpha" type="matrix" values="0 0 0 0 0 0 0 0 0 0 0 0 0 0 0 0 0 0 127 0" result="hardAlpha"/>
<feOffset/>
<feGaussianBlur stdDeviation="1.5"/>
<feColorMatrix type="matrix" values="0 0 0 0 0 0 0 0 0 0 0 0 0 0 0 0 0 0 0.02 0"/>
<feBlend mode="normal" in2="effect1_dropShadow_2705_8024" result="effect2_dropShadow_2705_8024"/>
<feBlend mode="normal" in="SourceGraphic" in2="effect2_dropShadow_2705_8024" result="shape"/>
</filter>
<filter id="filter1_dd_2705_8024" x="0" y="225" width="210" height="190.5" filterUnits="userSpaceOnUse" color-interpolation-filters="sRGB">
<feFlood flood-opacity="0" result="BackgroundImageFix"/>
<feColorMatrix in="SourceAlpha" type="matrix" values="0 0 0 0 0 0 0 0 0 0 0 0 0 0 0 0 0 0 127 0" result="hardAlpha"/>
<feOffset dy="1"/>
<feGaussianBlur stdDeviation="1"/>
<feColorMatrix type="matrix" values="0 0 0 0 0 0 0 0 0 0 0 0 0 0 0 0 0 0 0.08 0"/>
<feBlend mode="normal" in2="BackgroundImageFix" result="effect1_dropShadow_2705_8024"/>
<feColorMatrix in="SourceAlpha" type="matrix" values="0 0 0 0 0 0 0 0 0 0 0 0 0 0 0 0 0 0 127 0" result="hardAlpha"/>
<feOffset/>
<feGaussianBlur stdDeviation="1.5"/>
<feColorMatrix type="matrix" values="0 0 0 0 0 0 0 0 0 0 0 0 0 0 0 0 0 0 0.02 0"/>
<feBlend mode="normal" in2="effect1_dropShadow_2705_8024" result="effect2_dropShadow_2705_8024"/>
<feBlend mode="normal" in="SourceGraphic" in2="effect2_dropShadow_2705_8024" result="shape"/>
</filter>
<clipPath id="clip0_2705_8024">
<rect width="159.5" height="67" fill="white" transform="translate(25 31)"/>
</clipPath>
<clipPath id="clip1_2705_8024">
<rect width="114" height="90" fill="white" transform="translate(48 241.5)"/>
</clipPath>
</defs>
</svg>
