<svg width="420" height="381" viewBox="0 0 420 381" fill="none" xmlns="http://www.w3.org/2000/svg">
<g filter="url(#filter0_dd_163_1325)">
<rect x="6" y="6" width="408" height="369" rx="12" fill="white"/>
<path d="M139.464 290.42C139.971 290.42 140.411 290.357 140.784 290.23C141.164 290.103 141.474 289.93 141.714 289.71C141.961 289.483 142.144 289.217 142.264 288.91C142.384 288.603 142.444 288.267 142.444 287.9C142.444 287.167 142.201 286.603 141.714 286.21C141.234 285.817 140.498 285.62 139.504 285.62H137.784V290.42H139.464ZM146.384 298H143.954C143.494 298 143.161 297.82 142.954 297.46L139.914 292.83C139.801 292.657 139.674 292.533 139.534 292.46C139.401 292.387 139.201 292.35 138.934 292.35H137.784V298H135.094V283.54H139.504C140.484 283.54 141.324 283.643 142.024 283.85C142.731 284.05 143.308 284.333 143.754 284.7C144.208 285.067 144.541 285.507 144.754 286.02C144.968 286.527 145.074 287.087 145.074 287.7C145.074 288.187 145.001 288.647 144.854 289.08C144.714 289.513 144.508 289.907 144.234 290.26C143.968 290.613 143.634 290.923 143.234 291.19C142.841 291.457 142.391 291.667 141.884 291.82C142.058 291.92 142.218 292.04 142.364 292.18C142.511 292.313 142.644 292.473 142.764 292.66L146.384 298ZM153.502 291.69C153.502 291.37 153.455 291.07 153.362 290.79C153.275 290.503 153.142 290.253 152.962 290.04C152.782 289.827 152.552 289.66 152.272 289.54C151.999 289.413 151.679 289.35 151.312 289.35C150.599 289.35 150.035 289.553 149.622 289.96C149.215 290.367 148.955 290.943 148.842 291.69H153.502ZM148.792 293.18C148.832 293.707 148.925 294.163 149.072 294.55C149.219 294.93 149.412 295.247 149.652 295.5C149.892 295.747 150.175 295.933 150.502 296.06C150.835 296.18 151.202 296.24 151.602 296.24C152.002 296.24 152.345 296.193 152.632 296.1C152.925 296.007 153.179 295.903 153.392 295.79C153.612 295.677 153.802 295.573 153.962 295.48C154.129 295.387 154.289 295.34 154.442 295.34C154.649 295.34 154.802 295.417 154.902 295.57L155.612 296.47C155.339 296.79 155.032 297.06 154.692 297.28C154.352 297.493 153.995 297.667 153.622 297.8C153.255 297.927 152.879 298.017 152.492 298.07C152.112 298.123 151.742 298.15 151.382 298.15C150.669 298.15 150.005 298.033 149.392 297.8C148.779 297.56 148.245 297.21 147.792 296.75C147.339 296.283 146.982 295.71 146.722 295.03C146.462 294.343 146.332 293.55 146.332 292.65C146.332 291.95 146.445 291.293 146.672 290.68C146.899 290.06 147.222 289.523 147.642 289.07C148.069 288.61 148.585 288.247 149.192 287.98C149.805 287.713 150.495 287.58 151.262 287.58C151.909 287.58 152.505 287.683 153.052 287.89C153.599 288.097 154.069 288.4 154.462 288.8C154.855 289.193 155.162 289.68 155.382 290.26C155.609 290.833 155.722 291.49 155.722 292.23C155.722 292.603 155.682 292.857 155.602 292.99C155.522 293.117 155.369 293.18 155.142 293.18H148.792ZM164.015 290.36C163.742 290.02 163.439 289.78 163.105 289.64C162.772 289.5 162.415 289.43 162.035 289.43C161.662 289.43 161.325 289.5 161.025 289.64C160.725 289.78 160.469 289.993 160.255 290.28C160.042 290.56 159.879 290.92 159.765 291.36C159.652 291.793 159.595 292.307 159.595 292.9C159.595 293.5 159.642 294.01 159.735 294.43C159.835 294.843 159.975 295.183 160.155 295.45C160.335 295.71 160.555 295.9 160.815 296.02C161.075 296.133 161.365 296.19 161.685 296.19C162.199 296.19 162.635 296.083 162.995 295.87C163.355 295.657 163.695 295.353 164.015 294.96V290.36ZM166.485 287.74V301.35H164.015V296.7C163.609 297.133 163.149 297.483 162.635 297.75C162.122 298.017 161.525 298.15 160.845 298.15C160.285 298.15 159.772 298.033 159.305 297.8C158.839 297.567 158.435 297.23 158.095 296.79C157.762 296.343 157.502 295.793 157.315 295.14C157.135 294.487 157.045 293.74 157.045 292.9C157.045 292.14 157.149 291.433 157.355 290.78C157.562 290.127 157.859 289.56 158.245 289.08C158.632 288.6 159.095 288.227 159.635 287.96C160.175 287.687 160.782 287.55 161.455 287.55C162.095 287.55 162.632 287.66 163.065 287.88C163.499 288.1 163.885 288.397 164.225 288.77L164.355 288.19C164.442 287.89 164.649 287.74 164.975 287.74H166.485ZM177.763 287.74V298H176.253C175.926 298 175.72 297.85 175.633 297.55L175.463 296.73C175.043 297.157 174.58 297.503 174.073 297.77C173.566 298.03 172.97 298.16 172.283 298.16C171.723 298.16 171.226 298.067 170.793 297.88C170.366 297.687 170.006 297.417 169.713 297.07C169.42 296.723 169.196 296.313 169.043 295.84C168.896 295.36 168.823 294.833 168.823 294.26V287.74H171.293V294.26C171.293 294.887 171.436 295.373 171.723 295.72C172.016 296.06 172.453 296.23 173.033 296.23C173.46 296.23 173.86 296.137 174.233 295.95C174.606 295.757 174.96 295.493 175.293 295.16V287.74H177.763ZM186.822 291.69C186.822 291.37 186.776 291.07 186.682 290.79C186.596 290.503 186.462 290.253 186.282 290.04C186.102 289.827 185.872 289.66 185.592 289.54C185.319 289.413 184.999 289.35 184.632 289.35C183.919 289.35 183.356 289.553 182.942 289.96C182.536 290.367 182.276 290.943 182.162 291.69H186.822ZM182.112 293.18C182.152 293.707 182.246 294.163 182.392 294.55C182.539 294.93 182.732 295.247 182.972 295.5C183.212 295.747 183.496 295.933 183.822 296.06C184.156 296.18 184.522 296.24 184.922 296.24C185.322 296.24 185.666 296.193 185.952 296.1C186.246 296.007 186.499 295.903 186.712 295.79C186.932 295.677 187.122 295.573 187.282 295.48C187.449 295.387 187.609 295.34 187.762 295.34C187.969 295.34 188.122 295.417 188.222 295.57L188.932 296.47C188.659 296.79 188.352 297.06 188.012 297.28C187.672 297.493 187.316 297.667 186.942 297.8C186.576 297.927 186.199 298.017 185.812 298.07C185.432 298.123 185.062 298.15 184.702 298.15C183.989 298.15 183.326 298.033 182.712 297.8C182.099 297.56 181.566 297.21 181.112 296.75C180.659 296.283 180.302 295.71 180.042 295.03C179.782 294.343 179.652 293.55 179.652 292.65C179.652 291.95 179.766 291.293 179.992 290.68C180.219 290.06 180.542 289.523 180.962 289.07C181.389 288.61 181.906 288.247 182.512 287.98C183.126 287.713 183.816 287.58 184.582 287.58C185.229 287.58 185.826 287.683 186.372 287.89C186.919 288.097 187.389 288.4 187.782 288.8C188.176 289.193 188.482 289.68 188.702 290.26C188.929 290.833 189.042 291.49 189.042 292.23C189.042 292.603 189.002 292.857 188.922 292.99C188.842 293.117 188.689 293.18 188.462 293.18H182.112ZM197.156 289.74C197.089 289.847 197.019 289.923 196.946 289.97C196.872 290.01 196.779 290.03 196.666 290.03C196.546 290.03 196.416 289.997 196.276 289.93C196.142 289.863 195.986 289.79 195.806 289.71C195.626 289.623 195.419 289.547 195.186 289.48C194.959 289.413 194.689 289.38 194.376 289.38C193.889 289.38 193.506 289.483 193.226 289.69C192.952 289.897 192.816 290.167 192.816 290.5C192.816 290.72 192.886 290.907 193.026 291.06C193.172 291.207 193.362 291.337 193.596 291.45C193.836 291.563 194.106 291.667 194.406 291.76C194.706 291.847 195.009 291.943 195.316 292.05C195.629 292.157 195.936 292.28 196.236 292.42C196.536 292.553 196.802 292.727 197.036 292.94C197.276 293.147 197.466 293.397 197.606 293.69C197.752 293.983 197.826 294.337 197.826 294.75C197.826 295.243 197.736 295.7 197.556 296.12C197.382 296.533 197.122 296.893 196.776 297.2C196.429 297.5 195.999 297.737 195.486 297.91C194.979 298.077 194.392 298.16 193.726 298.16C193.372 298.16 193.026 298.127 192.686 298.06C192.352 298 192.029 297.913 191.716 297.8C191.409 297.687 191.122 297.553 190.856 297.4C190.596 297.247 190.366 297.08 190.166 296.9L190.736 295.96C190.809 295.847 190.896 295.76 190.996 295.7C191.096 295.64 191.222 295.61 191.376 295.61C191.529 295.61 191.672 295.653 191.806 295.74C191.946 295.827 192.106 295.92 192.286 296.02C192.466 296.12 192.676 296.213 192.916 296.3C193.162 296.387 193.472 296.43 193.846 296.43C194.139 296.43 194.389 296.397 194.596 296.33C194.809 296.257 194.982 296.163 195.116 296.05C195.256 295.937 195.356 295.807 195.416 295.66C195.482 295.507 195.516 295.35 195.516 295.19C195.516 294.95 195.442 294.753 195.296 294.6C195.156 294.447 194.966 294.313 194.726 294.2C194.492 294.087 194.222 293.987 193.916 293.9C193.616 293.807 193.306 293.707 192.986 293.6C192.672 293.493 192.362 293.37 192.056 293.23C191.756 293.083 191.486 292.9 191.246 292.68C191.012 292.46 190.822 292.19 190.676 291.87C190.536 291.55 190.466 291.163 190.466 290.71C190.466 290.29 190.549 289.89 190.716 289.51C190.882 289.13 191.126 288.8 191.446 288.52C191.772 288.233 192.176 288.007 192.656 287.84C193.142 287.667 193.702 287.58 194.336 287.58C195.042 287.58 195.686 287.697 196.266 287.93C196.846 288.163 197.329 288.47 197.716 288.85L197.156 289.74ZM203.105 298.16C202.212 298.16 201.525 297.91 201.045 297.41C200.572 296.903 200.335 296.207 200.335 295.32V289.59H199.285C199.152 289.59 199.038 289.547 198.945 289.46C198.852 289.373 198.805 289.243 198.805 289.07V288.09L200.455 287.82L200.975 285.02C201.008 284.887 201.072 284.783 201.165 284.71C201.258 284.637 201.378 284.6 201.525 284.6H202.805V287.83H205.545V289.59H202.805V295.15C202.805 295.47 202.882 295.72 203.035 295.9C203.195 296.08 203.412 296.17 203.685 296.17C203.838 296.17 203.965 296.153 204.065 296.12C204.172 296.08 204.262 296.04 204.335 296C204.415 295.96 204.485 295.923 204.545 295.89C204.605 295.85 204.665 295.83 204.725 295.83C204.798 295.83 204.858 295.85 204.905 295.89C204.952 295.923 205.002 295.977 205.055 296.05L205.795 297.25C205.435 297.55 205.022 297.777 204.555 297.93C204.088 298.083 203.605 298.16 203.105 298.16ZM225.22 290.77C225.22 291.83 225.043 292.803 224.69 293.69C224.336 294.577 223.84 295.34 223.2 295.98C222.56 296.62 221.79 297.117 220.89 297.47C219.99 297.823 218.99 298 217.89 298H212.38V283.54H217.89C218.99 283.54 219.99 283.72 220.89 284.08C221.79 284.433 222.56 284.93 223.2 285.57C223.84 286.203 224.336 286.963 224.69 287.85C225.043 288.737 225.22 289.71 225.22 290.77ZM222.46 290.77C222.46 289.977 222.353 289.267 222.14 288.64C221.933 288.007 221.63 287.473 221.23 287.04C220.836 286.6 220.356 286.263 219.79 286.03C219.23 285.797 218.596 285.68 217.89 285.68H215.08V295.86H217.89C218.596 295.86 219.23 295.743 219.79 295.51C220.356 295.277 220.836 294.943 221.23 294.51C221.63 294.07 221.933 293.537 222.14 292.91C222.353 292.277 222.46 291.563 222.46 290.77ZM233.678 291.69C233.678 291.37 233.631 291.07 233.538 290.79C233.451 290.503 233.318 290.253 233.138 290.04C232.958 289.827 232.728 289.66 232.448 289.54C232.174 289.413 231.854 289.35 231.488 289.35C230.774 289.35 230.211 289.553 229.798 289.96C229.391 290.367 229.131 290.943 229.018 291.69H233.678ZM228.968 293.18C229.008 293.707 229.101 294.163 229.248 294.55C229.394 294.93 229.588 295.247 229.828 295.5C230.068 295.747 230.351 295.933 230.678 296.06C231.011 296.18 231.378 296.24 231.778 296.24C232.178 296.24 232.521 296.193 232.808 296.1C233.101 296.007 233.354 295.903 233.568 295.79C233.788 295.677 233.978 295.573 234.138 295.48C234.304 295.387 234.464 295.34 234.618 295.34C234.824 295.34 234.978 295.417 235.078 295.57L235.788 296.47C235.514 296.79 235.208 297.06 234.868 297.28C234.528 297.493 234.171 297.667 233.798 297.8C233.431 297.927 233.054 298.017 232.668 298.07C232.288 298.123 231.918 298.15 231.558 298.15C230.844 298.15 230.181 298.033 229.568 297.8C228.954 297.56 228.421 297.21 227.968 296.75C227.514 296.283 227.158 295.71 226.898 295.03C226.638 294.343 226.508 293.55 226.508 292.65C226.508 291.95 226.621 291.293 226.848 290.68C227.074 290.06 227.398 289.523 227.818 289.07C228.244 288.61 228.761 288.247 229.368 287.98C229.981 287.713 230.671 287.58 231.438 287.58C232.084 287.58 232.681 287.683 233.228 287.89C233.774 288.097 234.244 288.4 234.638 288.8C235.031 289.193 235.338 289.68 235.558 290.26C235.784 290.833 235.898 291.49 235.898 292.23C235.898 292.603 235.858 292.857 235.778 292.99C235.698 293.117 235.544 293.18 235.318 293.18H228.968ZM240.251 283.14V298H237.781V283.14H240.251ZM245.272 287.74V298H242.792V287.74H245.272ZM245.612 284.75C245.612 284.963 245.569 285.163 245.482 285.35C245.396 285.537 245.279 285.7 245.132 285.84C244.992 285.98 244.826 286.093 244.632 286.18C244.439 286.26 244.232 286.3 244.012 286.3C243.799 286.3 243.596 286.26 243.402 286.18C243.216 286.093 243.052 285.98 242.912 285.84C242.772 285.7 242.659 285.537 242.572 285.35C242.492 285.163 242.452 284.963 242.452 284.75C242.452 284.53 242.492 284.323 242.572 284.13C242.659 283.937 242.772 283.77 242.912 283.63C243.052 283.49 243.216 283.38 243.402 283.3C243.596 283.213 243.799 283.17 244.012 283.17C244.232 283.17 244.439 283.213 244.632 283.3C244.826 283.38 244.992 283.49 245.132 283.63C245.279 283.77 245.396 283.937 245.482 284.13C245.569 284.323 245.612 284.53 245.612 284.75ZM257.04 287.74L252.97 298H250.73L246.66 287.74H248.7C248.887 287.74 249.04 287.783 249.16 287.87C249.287 287.957 249.37 288.067 249.41 288.2L251.39 293.68C251.497 294 251.59 294.313 251.67 294.62C251.75 294.927 251.82 295.233 251.88 295.54C251.947 295.233 252.02 294.927 252.1 294.62C252.18 294.313 252.277 294 252.39 293.68L254.41 288.2C254.457 288.067 254.54 287.957 254.66 287.87C254.78 287.783 254.924 287.74 255.09 287.74H257.04ZM264.654 291.69C264.654 291.37 264.608 291.07 264.514 290.79C264.428 290.503 264.294 290.253 264.114 290.04C263.934 289.827 263.704 289.66 263.424 289.54C263.151 289.413 262.831 289.35 262.464 289.35C261.751 289.35 261.188 289.553 260.774 289.96C260.368 290.367 260.108 290.943 259.994 291.69H264.654ZM259.944 293.18C259.984 293.707 260.078 294.163 260.224 294.55C260.371 294.93 260.564 295.247 260.804 295.5C261.044 295.747 261.328 295.933 261.654 296.06C261.988 296.18 262.354 296.24 262.754 296.24C263.154 296.24 263.498 296.193 263.784 296.1C264.078 296.007 264.331 295.903 264.544 295.79C264.764 295.677 264.954 295.573 265.114 295.48C265.281 295.387 265.441 295.34 265.594 295.34C265.801 295.34 265.954 295.417 266.054 295.57L266.764 296.47C266.491 296.79 266.184 297.06 265.844 297.28C265.504 297.493 265.148 297.667 264.774 297.8C264.408 297.927 264.031 298.017 263.644 298.07C263.264 298.123 262.894 298.15 262.534 298.15C261.821 298.15 261.158 298.033 260.544 297.8C259.931 297.56 259.398 297.21 258.944 296.75C258.491 296.283 258.134 295.71 257.874 295.03C257.614 294.343 257.484 293.55 257.484 292.65C257.484 291.95 257.598 291.293 257.824 290.68C258.051 290.06 258.374 289.523 258.794 289.07C259.221 288.61 259.738 288.247 260.344 287.98C260.958 287.713 261.648 287.58 262.414 287.58C263.061 287.58 263.658 287.683 264.204 287.89C264.751 288.097 265.221 288.4 265.614 288.8C266.008 289.193 266.314 289.68 266.534 290.26C266.761 290.833 266.874 291.49 266.874 292.23C266.874 292.603 266.834 292.857 266.754 292.99C266.674 293.117 266.521 293.18 266.294 293.18H259.944ZM271.058 289.52C271.378 288.907 271.758 288.427 272.198 288.08C272.638 287.727 273.158 287.55 273.758 287.55C274.231 287.55 274.611 287.653 274.898 287.86L274.738 289.71C274.704 289.83 274.654 289.917 274.588 289.97C274.528 290.017 274.444 290.04 274.338 290.04C274.238 290.04 274.088 290.023 273.888 289.99C273.694 289.957 273.504 289.94 273.318 289.94C273.044 289.94 272.801 289.98 272.588 290.06C272.374 290.14 272.181 290.257 272.008 290.41C271.841 290.557 271.691 290.737 271.558 290.95C271.431 291.163 271.311 291.407 271.198 291.68V298H268.728V287.74H270.178C270.431 287.74 270.608 287.787 270.708 287.88C270.808 287.967 270.874 288.127 270.908 288.36L271.058 289.52ZM285.509 287.74L279.919 300.82C279.845 300.993 279.749 301.123 279.629 301.21C279.515 301.303 279.339 301.35 279.099 301.35H277.259L279.179 297.23L275.029 287.74H277.199C277.392 287.74 277.542 287.787 277.649 287.88C277.762 287.973 277.845 288.08 277.899 288.2L280.079 293.52C280.152 293.7 280.212 293.88 280.259 294.06C280.312 294.24 280.362 294.423 280.409 294.61C280.469 294.423 280.529 294.24 280.589 294.06C280.649 293.873 280.715 293.69 280.789 293.51L282.849 288.2C282.902 288.067 282.989 287.957 283.109 287.87C283.235 287.783 283.375 287.74 283.529 287.74H285.509Z" fill="#D4592C"/>
<g clip-path="url(#clip0_163_1325)">
<path d="M150.739 130.593C148.919 120.832 151.784 109.728 159.746 103.819C159.295 114.608 162.666 125.209 169.263 133.747C171.818 137.031 175.002 140.416 174.903 144.579C174.842 147.17 173.444 149.583 171.602 151.401C169.76 153.219 167.491 154.53 165.249 155.821L164.9 156.365C158.327 148.934 152.558 140.354 150.739 130.593Z" fill="#F0F0F0"/>
<path d="M159.891 103.969C156.546 111.473 155.645 119.842 157.316 127.889C157.645 129.628 158.245 131.303 159.095 132.855C159.971 134.339 161.228 135.561 162.735 136.394C164.125 137.199 165.639 137.86 166.81 138.99C167.4 139.577 167.86 140.282 168.159 141.06C168.459 141.837 168.591 142.67 168.546 143.502C168.49 145.579 167.693 147.512 166.848 149.374C165.91 151.443 164.902 153.576 164.963 155.902C164.971 156.184 164.534 156.179 164.527 155.897C164.421 151.851 167.339 148.602 167.989 144.72C168.293 142.908 168.053 140.994 166.783 139.59C165.672 138.362 164.111 137.678 162.697 136.876C161.215 136.085 159.948 134.942 159.008 133.548C158.083 132.045 157.419 130.395 157.045 128.669C156.143 124.797 155.853 120.806 156.187 116.843C156.544 112.318 157.67 107.888 159.517 103.744C159.631 103.487 160.005 103.714 159.891 103.969L159.891 103.969Z" fill="white"/>
<path d="M156.626 125.33C155.24 125.427 153.866 125.029 152.747 124.204C151.628 123.38 150.839 122.184 150.519 120.83C150.455 120.555 150.877 120.443 150.941 120.718C151.236 121.979 151.972 123.093 153.016 123.859C154.059 124.624 155.341 124.991 156.63 124.892C156.91 124.871 156.904 125.309 156.626 125.33Z" fill="white"/>
<path d="M161.977 136.079C163.857 133.948 164.867 131.185 164.805 128.341C164.799 128.059 165.235 128.064 165.242 128.346C165.301 131.306 164.244 134.179 162.283 136.392C162.096 136.603 161.791 136.289 161.977 136.079V136.079Z" fill="white"/>
<path d="M157.055 112.59C157.599 112.664 158.152 112.602 158.666 112.409C159.18 112.215 159.638 111.897 159.999 111.483C160.183 111.27 160.487 111.584 160.304 111.795C159.903 112.251 159.397 112.602 158.83 112.817C158.263 113.032 157.652 113.104 157.051 113.028C156.993 113.025 156.939 113.001 156.899 112.96C156.859 112.919 156.836 112.864 156.834 112.807C156.835 112.749 156.859 112.694 156.9 112.653C156.942 112.613 156.997 112.59 157.055 112.59H157.055Z" fill="white"/>
<path d="M192.309 111.893C192.198 112.029 192.087 112.166 191.976 112.306C190.489 114.146 189.153 116.105 187.982 118.163C187.889 118.321 187.797 118.482 187.709 118.642C184.941 123.629 183.121 129.088 182.341 134.742C182.033 136.992 181.896 139.262 181.932 141.533C181.981 144.669 182.283 148.065 181.324 150.949C181.228 151.251 181.112 151.547 180.979 151.834L165.589 156.749C165.548 156.743 165.509 156.74 165.468 156.733L164.862 156.958C164.852 156.841 164.844 156.719 164.834 156.602C164.828 156.534 164.826 156.466 164.82 156.398C164.817 156.352 164.814 156.306 164.809 156.266C164.808 156.25 164.807 156.235 164.807 156.224C164.801 156.183 164.801 156.144 164.797 156.107C164.751 155.427 164.709 154.747 164.674 154.064C164.672 154.061 164.672 154.061 164.675 154.056C164.411 148.857 164.577 143.589 165.536 138.515C165.565 138.362 165.593 138.206 165.629 138.051C166.073 135.766 166.704 133.522 167.514 131.34C167.961 130.146 168.468 128.977 169.034 127.835C170.5 124.887 172.42 122.189 174.722 119.839C179.314 115.155 185.349 111.995 191.815 111.896C191.98 111.893 192.143 111.892 192.309 111.893Z" fill="#F0F0F0"/>
<path d="M192.337 112.1C185.158 116.073 179.411 122.212 175.911 129.645C175.129 131.232 174.602 132.932 174.349 134.683C174.157 136.397 174.426 138.132 175.129 139.706C175.756 141.187 176.567 142.629 176.823 144.237C176.942 145.062 176.885 145.903 176.657 146.704C176.429 147.506 176.035 148.25 175.499 148.888C174.207 150.512 172.41 151.574 170.616 152.552C168.624 153.637 166.538 154.733 165.19 156.626C165.026 156.856 164.681 156.588 164.844 156.359C167.19 153.065 171.472 152.231 174.323 149.524C175.653 148.261 176.612 146.588 176.441 144.7C176.291 143.049 175.456 141.561 174.809 140.067C174.101 138.541 173.776 136.865 173.863 135.185C174.027 133.426 174.488 131.708 175.226 130.105C176.832 126.468 178.998 123.107 181.645 120.144C184.648 116.747 188.209 113.889 192.173 111.694C192.418 111.559 192.581 111.965 192.337 112.1Z" fill="white"/>
<path d="M176.897 127.185C175.733 126.427 174.875 125.279 174.477 123.946C174.079 122.613 174.167 121.181 174.725 119.907C174.838 119.65 175.243 119.815 175.129 120.072C174.607 121.258 174.526 122.592 174.899 123.832C175.272 125.073 176.075 126.139 177.164 126.839C177.4 126.991 177.132 127.337 176.897 127.185H176.897Z" fill="white"/>
<path d="M174.713 138.997C177.495 138.43 179.961 136.833 181.62 134.525C181.784 134.296 182.129 134.563 181.965 134.792C180.235 137.191 177.665 138.847 174.769 139.431C174.493 139.486 174.439 139.052 174.713 138.997V138.997Z" fill="white"/>
<path d="M184.893 117.272C185.283 117.659 185.762 117.944 186.289 118.099C186.815 118.255 187.372 118.277 187.909 118.164C188.184 118.105 188.238 118.539 187.965 118.598C187.371 118.72 186.756 118.695 186.174 118.524C185.592 118.354 185.061 118.043 184.627 117.619C184.582 117.582 184.554 117.53 184.546 117.473C184.539 117.416 184.554 117.359 184.587 117.312C184.623 117.266 184.675 117.236 184.732 117.229C184.789 117.221 184.847 117.237 184.893 117.272V117.272Z" fill="white"/>
<path d="M216.484 58.5167C216.536 58.7438 216.569 58.9747 216.585 59.2072L234.629 69.6407L239.015 67.11L243.691 73.2451L236.361 78.4815C235.769 78.9045 235.056 79.1236 234.329 79.1058C233.602 79.0881 232.9 78.8345 232.329 78.383L213.722 63.6704C212.882 63.982 211.968 64.0299 211.1 63.8078C210.232 63.5858 209.453 63.1042 208.865 62.4273C208.277 61.7503 207.909 60.91 207.809 60.0181C207.709 59.1263 207.883 58.2251 208.307 57.4345C208.73 56.6439 209.384 56.0013 210.181 55.5923C210.978 55.1832 211.881 55.027 212.768 55.1445C213.656 55.262 214.487 55.6475 215.151 56.2499C215.815 56.8523 216.28 57.6429 216.484 58.5167V58.5167Z" fill="#FFB6B6"/>
<path d="M234.88 68.4889C234.937 68.2227 235.051 67.9721 235.214 67.7541C235.376 67.5361 235.584 67.3558 235.823 67.2256L244.154 62.6762C245.263 61.837 246.659 61.4729 248.036 61.664C249.413 61.855 250.658 62.5855 251.498 63.6952C252.338 64.805 252.705 66.2034 252.518 67.5838C252.331 68.9642 251.605 70.214 250.5 71.0589L243.823 77.8574C243.633 78.0514 243.403 78.202 243.149 78.2988C242.895 78.3957 242.623 78.4366 242.352 78.4187C242.081 78.4008 241.817 78.3246 241.578 78.1953C241.339 78.0659 241.131 77.8864 240.967 77.6691L235.218 70.0298C235.055 69.8125 234.94 69.5623 234.881 69.2964C234.823 69.0304 234.822 68.755 234.88 68.4889Z" fill="#3F3D56"/>
<path d="M249.763 42.0404C250.962 38.2117 253.688 34.7002 257.458 33.4058C261.228 32.1115 266.748 34.0832 269.582 36.9141C274.766 42.0925 276.031 59.8819 272.469 65.5036C271.761 65.466 269.316 65.4382 268.599 65.4113L267.585 62.023V65.3779C261.988 65.2045 256.162 65.3131 250.332 65.4253C249.81 61.4451 248.565 45.8691 249.763 42.0404Z" fill="#2F2E41"/>
<path d="M248.159 202.75H243.055L240.627 183.016L248.161 183.016L248.159 202.75Z" fill="#FFB6B6"/>
<path d="M292.845 199.568L287.906 200.858L280.589 182.376L287.88 180.472L292.845 199.568Z" fill="#FFB6B6"/>
<path d="M264.715 81.5464L265.871 84.5604L265.64 87.5744L243.003 95.4326L244.127 82.2419L246.671 79.2275L264.715 81.5464Z" fill="#FFB6B6"/>
<path d="M257.557 54.4232C262.023 54.4232 265.642 50.7953 265.642 46.32C265.642 41.8447 262.023 38.2168 257.557 38.2168C253.092 38.2168 249.472 41.8447 249.472 46.32C249.472 50.7953 253.092 54.4232 257.557 54.4232Z" fill="#FFB7B7"/>
<path d="M252.002 35.7678C253.556 34.8187 255.335 34.3052 257.154 34.2812C258.973 34.2571 260.766 34.7234 262.344 35.6312C263.922 36.539 265.227 37.8551 266.124 39.4417C267.021 41.0283 267.476 42.8273 267.441 44.6505C263.034 45.7794 258.338 46.2516 253.361 44.9224L252.223 42.1317L251.552 44.9244C250.03 45.9979 248.56 45.996 247.144 44.9186C247.084 43.1006 247.501 41.2986 248.353 39.6928C249.206 38.0869 250.464 36.7335 252.002 35.7678Z" fill="#2F2E41"/>
<path d="M250.443 212.464H246.821L246.174 209.036L244.518 212.464H234.912C234.451 212.464 234.003 212.316 233.632 212.043C233.261 211.769 232.987 211.384 232.85 210.943C232.713 210.503 232.72 210.03 232.87 209.593C233.02 209.157 233.306 208.78 233.684 208.518L241.356 203.208V199.743L249.426 200.225L250.443 212.464Z" fill="#2F2E41"/>
<path d="M297.947 208.274L294.442 209.19L292.954 206.037L292.214 209.772L282.918 212.201C282.472 212.317 282.001 212.288 281.574 212.117C281.146 211.946 280.784 211.643 280.54 211.251C280.297 210.859 280.185 210.4 280.22 209.939C280.256 209.479 280.437 209.043 280.738 208.693L286.825 201.615L285.953 198.262L293.883 196.689L297.947 208.274Z" fill="#2F2E41"/>
<path d="M292.219 187.158L277.256 156.335L272.559 118.821C275.798 112.792 269.783 100.526 269.783 100.526V95.3765L246.485 99.7818V99.7818C241.719 112.809 239.408 126.609 239.67 140.481L240.608 190.349H240.314C239.825 190.349 239.356 190.543 239.011 190.89C238.665 191.236 238.471 191.706 238.471 192.196C238.471 192.685 238.665 193.155 239.011 193.502C239.356 193.848 239.825 194.042 240.314 194.042H249.527C250.016 194.042 250.484 193.848 250.83 193.502C251.176 193.155 251.37 192.685 251.37 192.196C251.37 191.706 251.176 191.236 250.83 190.89C250.484 190.543 250.016 190.349 249.527 190.349H249.29L255.904 126.908L263.594 158.215L282.179 187.039C281.705 187.076 281.263 187.296 280.948 187.652C280.632 188.009 280.466 188.474 280.485 188.95C280.504 189.426 280.707 189.876 281.05 190.206C281.393 190.536 281.851 190.719 282.326 190.718H291.539C291.968 190.719 292.383 190.569 292.714 190.296C293.044 190.022 293.269 189.642 293.349 189.22C293.43 188.798 293.361 188.361 293.155 187.985C292.948 187.608 292.617 187.316 292.219 187.158H292.219Z" fill="#2F2E41"/>
<path d="M271.89 103.684H271.89C271.813 103.383 271.643 103.113 271.405 102.915C271.166 102.716 270.871 102.598 270.561 102.578C270.254 99.059 268.225 76.4903 268.147 75.8282L268.144 75.8002L267.557 63.2206C267.536 62.7637 267.347 62.3307 267.027 62.0043C266.708 61.6779 266.279 61.481 265.824 61.4512L262.721 61.2479C262.678 61.2464 262.638 61.2285 262.608 61.1978C262.578 61.1671 262.562 61.1261 262.562 61.0834C262.562 60.7399 262.494 60.3998 262.363 60.0824C262.232 59.7651 262.04 59.4768 261.798 59.2339C261.555 58.991 261.268 58.7983 260.951 58.6669C260.634 58.5354 260.295 58.4678 259.952 58.4678H250.764C250.169 58.468 249.595 58.6859 249.149 59.0806C248.702 59.4753 248.415 60.0197 248.341 60.6115C248.337 60.6522 248.318 60.6899 248.287 60.7171C248.256 60.7442 248.217 60.7587 248.176 60.7578L248.175 60.7578C247.131 60.7362 246.114 61.0905 245.308 61.7563C244.502 62.4221 243.962 63.3553 243.784 64.3865C242.528 71.7114 240.01 88.336 241.255 97.5783C241.688 100.796 241.491 105.635 241.327 108.327C241.311 108.587 241.346 108.848 241.431 109.094C241.515 109.341 241.647 109.568 241.82 109.763C241.453 109.869 241.142 110.114 240.952 110.445C240.762 110.776 240.707 111.168 240.8 111.539H240.8C240.896 111.919 241.138 112.245 241.474 112.446C241.809 112.647 242.211 112.706 242.59 112.611L270.82 105.478C271.2 105.382 271.525 105.139 271.726 104.803C271.926 104.467 271.985 104.064 271.89 103.684Z" fill="#3F3D56"/>
<path d="M225.232 156.571C225.226 155.745 224.929 154.947 224.393 154.32C223.857 153.692 223.117 153.275 222.304 153.143L172.252 144.905C171.772 144.825 171.281 144.847 170.81 144.969L159.08 148.009L152.349 149.755L139.929 152.973C139.179 153.168 138.515 153.607 138.041 154.221C137.567 154.836 137.31 155.59 137.31 156.366V208.932C137.314 209.733 137.59 210.51 138.093 211.132C138.596 211.755 139.296 212.187 140.078 212.357L191.059 211.779C191.298 211.83 191.542 211.856 191.787 211.855C192.144 211.855 192.499 211.801 192.839 211.694L223.128 212.449C223.843 212.226 224.467 211.777 224.907 211.17C225.347 210.563 225.581 209.83 225.572 209.08L225.232 156.571Z" fill="white"/>
<path d="M225.232 156.571C225.226 155.745 224.929 154.947 224.393 154.32C223.857 153.692 223.117 153.275 222.304 153.143L172.252 144.905C171.772 144.825 171.281 144.847 170.81 144.969L159.08 148.009L152.349 149.755L139.929 152.973C139.179 153.168 138.515 153.607 138.041 154.221C137.567 154.836 137.31 155.59 137.31 156.366V208.932C137.314 209.733 137.59 210.51 138.093 211.132C138.596 211.755 139.296 212.187 140.078 212.357L191.059 211.779C191.298 211.83 191.542 211.856 191.787 211.855C192.144 211.855 192.499 211.801 192.839 211.694L223.128 212.449C223.843 212.226 224.467 211.777 224.907 211.17C225.347 210.563 225.581 209.83 225.572 209.08L225.232 156.571ZM222.866 211.614L192.577 212.336C192.145 212.471 191.685 212.493 191.242 212.401L140.258 211.502C139.673 211.374 139.148 211.049 138.771 210.582C138.393 210.115 138.187 209.533 138.184 208.932V156.366C138.184 155.828 138.349 155.303 138.657 154.862C138.964 154.421 139.399 154.085 139.903 153.899C139.983 153.869 140.065 153.843 140.148 153.823L153.288 150.418L161.058 148.403L171.028 145.819C171.242 145.762 171.462 145.733 171.684 145.734C171.826 145.734 171.968 145.746 172.109 145.769L222.161 154.007C222.564 154.073 222.945 154.232 223.276 154.472C223.607 154.712 223.877 155.025 224.066 155.388C224.255 155.756 224.355 156.163 224.358 156.577L224.698 209.085C224.705 209.648 224.53 210.198 224.2 210.654C223.87 211.109 223.402 211.446 222.866 211.614Z" fill="#CCCCCC"/>
<path d="M224.066 155.388C224.032 155.41 223.995 155.427 223.956 155.438L209.233 159.427L204.65 160.668L191.615 164.198C191.578 164.207 191.54 164.212 191.502 164.213C191.475 164.212 191.449 164.21 191.423 164.207L138.863 154.602L138.688 154.57C138.574 154.549 138.473 154.483 138.408 154.387C138.342 154.292 138.317 154.174 138.338 154.06C138.358 153.945 138.424 153.844 138.519 153.778C138.614 153.712 138.731 153.686 138.845 153.706L139.903 153.899L191.484 163.325L202.719 160.282L209.003 158.58L223.498 154.652L223.728 154.591C223.828 154.564 223.933 154.574 224.027 154.618C224.12 154.662 224.195 154.737 224.238 154.83C224.249 154.853 224.258 154.876 224.264 154.9C224.288 154.992 224.282 155.089 224.246 155.177C224.211 155.265 224.147 155.339 224.066 155.388Z" fill="#CCCCCC"/>
<path d="M191.939 211.957C191.699 211.957 191.504 211.763 191.501 213L191.064 165.256C191.062 163.537 191.256 163.339 191.498 163.336H191.501C191.741 163.336 191.936 163.53 191.939 165.248L192.376 212.992C192.378 211.756 192.184 211.954 191.943 211.957H191.939Z" fill="#CCCCCC"/>
<path d="M209.357 212.511L204.65 212.561L202.719 160.282L153.43 150.453C153.382 150.444 153.334 150.433 153.288 150.418C152.909 150.31 152.578 150.076 152.349 149.755L159.08 148.009L161.058 148.403L207.826 157.727C208.072 157.776 208.304 157.877 208.508 158.024C208.711 158.171 208.88 158.361 209.003 158.58C209.149 158.834 209.354 212.207 209.357 212.511Z" fill="#CCCCCC"/>
<path d="M247.059 60.8831C247.055 60.2605 246.831 59.6595 246.427 59.1865C246.023 58.7136 245.465 58.3993 244.852 58.2994L207.13 52.091C206.769 52.031 206.398 52.0475 206.043 52.1395L197.203 54.4305L192.131 55.7465L182.77 58.1717C182.205 58.3188 181.705 58.6497 181.347 59.1125C180.99 59.5753 180.796 60.1439 180.796 60.729V91.7158C180.799 92.3198 181.007 92.9047 181.386 93.374C181.766 93.8434 182.293 94.169 182.882 94.2973L221.304 102.491C221.485 102.53 221.669 102.549 221.853 102.548C222.122 102.548 222.389 102.508 222.646 102.427L245.473 95.2018C246.012 95.0333 246.482 94.6953 246.814 94.2378C247.146 93.7803 247.322 93.2277 247.316 92.6622L247.059 60.8831Z" fill="white"/>
<path d="M206.703 54.3667C206.676 54.3667 206.648 54.3702 206.622 54.3772L183.348 60.4096C183.278 60.4279 183.215 60.4692 183.171 60.5269C183.126 60.5847 183.102 60.6557 183.102 60.7287V91.715C183.102 91.7905 183.128 91.8636 183.175 91.9223C183.223 91.9809 183.289 92.0216 183.362 92.0376L221.784 100.231C221.84 100.243 221.898 100.24 221.952 100.223L244.78 92.9979C244.847 92.9769 244.906 92.9346 244.947 92.8775C244.989 92.8203 245.01 92.7513 245.01 92.6807L244.754 60.9017C244.753 60.824 244.725 60.7489 244.675 60.6899C244.624 60.6308 244.555 60.5916 244.478 60.5791L206.756 54.371C206.739 54.3682 206.721 54.3667 206.703 54.3667Z" fill="#FF6B35"/>
<path d="M247.059 60.8831C247.055 60.2605 246.831 59.6595 246.427 59.1865C246.023 58.7136 245.465 58.3993 244.852 58.2994L207.13 52.091C206.769 52.031 206.398 52.0475 206.043 52.1395L197.203 54.4305L192.131 55.7465L182.77 58.1717C182.205 58.3188 181.705 58.6497 181.347 59.1125C180.99 59.5753 180.796 60.1439 180.796 60.729V91.7158C180.799 92.3198 181.007 92.9047 181.386 93.374C181.766 93.8434 182.293 94.169 182.882 94.2973L221.304 102.491C221.485 102.53 221.669 102.549 221.853 102.548C222.122 102.548 222.389 102.508 222.646 102.427L245.473 95.2018C246.012 95.0333 246.482 94.6953 246.814 94.2378C247.146 93.7803 247.322 93.2277 247.316 92.6622L247.059 60.8831ZM245.276 94.5724L222.448 101.798C222.123 101.899 221.776 101.916 221.443 101.846L183.018 93.6525C182.577 93.556 182.181 93.3116 181.897 92.9595C181.613 92.6074 181.457 92.1687 181.455 91.7158V60.7291C181.455 60.3235 181.58 59.9278 181.811 59.5953C182.043 59.2627 182.371 59.0094 182.75 58.8694C182.811 58.8467 182.872 58.8276 182.935 58.8122L192.838 56.2461L198.694 54.7276L206.208 52.7799C206.369 52.7368 206.535 52.7153 206.702 52.7161C206.81 52.716 206.917 52.7248 207.023 52.7425L244.744 58.9508C245.048 59.0008 245.336 59.1208 245.585 59.3015C245.834 59.4822 246.038 59.7185 246.18 59.9918C246.323 60.2689 246.398 60.5758 246.4 60.8875L246.657 92.6666C246.662 93.0908 246.53 93.5053 246.281 93.8486C246.032 94.1919 245.68 94.4457 245.276 94.5724V94.5724Z" fill="#3F3D56"/>
<path d="M246.18 59.992C246.155 60.0089 246.127 60.0215 246.097 60.0294L235.002 63.0357L231.548 63.971L221.724 66.6317C221.696 66.6386 221.667 66.6423 221.638 66.6427C221.618 66.6423 221.598 66.6409 221.579 66.6383L181.967 59.4L181.835 59.3758C181.749 59.3597 181.673 59.3102 181.623 59.238C181.574 59.1659 181.555 59.077 181.571 58.9909C181.586 58.9048 181.635 58.8284 181.707 58.7784C181.779 58.7285 181.867 58.709 181.953 58.7244L182.75 58.8696L221.625 65.9737L230.092 63.6805L234.828 62.3974L245.752 59.4374L245.926 59.3912C246.001 59.3714 246.08 59.3786 246.151 59.4116C246.221 59.4445 246.277 59.5012 246.31 59.5716C246.318 59.5885 246.325 59.6062 246.33 59.6245C246.348 59.6937 246.343 59.7669 246.316 59.8331C246.289 59.8994 246.242 59.9552 246.18 59.992Z" fill="#3F3D56"/>
<path d="M221.967 102.625C221.881 102.625 221.797 102.59 221.736 102.529C221.674 102.468 221.639 102.385 221.638 102.298L221.309 66.3151C221.308 66.2275 221.342 66.1432 221.403 66.0808C221.464 66.0183 221.548 65.9828 221.635 65.9819H221.638C221.725 65.9819 221.808 66.0163 221.87 66.0776C221.931 66.1388 221.967 66.222 221.967 66.309L222.297 102.292C222.297 102.379 222.264 102.463 222.202 102.526C222.141 102.588 222.058 102.624 221.97 102.625H221.967Z" fill="#3F3D56"/>
<path d="M235.002 98.2479L231.548 99.1832L230.092 63.6805L192.946 56.2727C192.909 56.2662 192.873 56.2574 192.838 56.2463C192.553 56.1648 192.303 55.9887 192.131 55.7467L197.203 54.4307L198.694 54.7278L233.941 61.7548C234.126 61.7915 234.302 61.8679 234.455 61.9788C234.608 62.0898 234.735 62.2326 234.828 62.3974C234.938 62.5889 234.999 98.019 235.002 98.2479Z" fill="#3F3D56"/>
<path d="M233.454 78.0055C233.631 78.157 233.795 78.3221 233.946 78.4995L254.638 76.0775L256.65 71.4233L264.055 73.5492L261.291 82.1354C261.068 82.829 260.626 83.4314 260.032 83.852C259.439 84.2726 258.725 84.4888 257.998 84.4681L234.307 83.7931C233.818 84.5453 233.113 85.1308 232.285 85.4716C231.457 85.8123 230.544 85.8923 229.669 85.7007C228.795 85.5092 227.999 85.0552 227.388 84.3993C226.777 83.7433 226.379 82.9164 226.248 82.0286C226.118 81.1408 226.26 80.2341 226.656 79.4291C227.052 78.6242 227.683 77.9591 228.465 77.5224C229.247 77.0856 230.143 76.8979 231.035 76.9842C231.926 77.0706 232.77 77.4268 233.454 78.0055Z" fill="#FFB6B6"/>
<path d="M254.153 75.0031C254.04 74.7553 253.982 74.4861 253.983 74.2138C253.984 73.9416 254.043 73.6727 254.157 73.4255L258.132 64.7919C258.523 63.455 259.427 62.3279 260.645 61.6577C261.863 60.9876 263.297 60.829 264.632 61.2168C265.967 61.6047 267.094 62.5072 267.766 63.7266C268.438 64.946 268.6 66.3827 268.217 67.7217L266.907 77.1706C266.87 77.4402 266.775 77.6986 266.629 77.9282C266.483 78.1578 266.289 78.3531 266.061 78.5009C265.833 78.6487 265.576 78.7455 265.307 78.7847C265.038 78.8238 264.764 78.8045 264.503 78.7279L255.342 76.037C255.081 75.9605 254.84 75.8286 254.635 75.6501C254.429 75.4717 254.265 75.251 254.153 75.0031Z" fill="#3F3D56"/>
<path d="M323.561 212.896H96.4387C96.3226 212.895 96.2113 212.849 96.1293 212.766C96.0473 212.684 96.0012 212.572 96.0012 212.456C96.0012 212.339 96.0473 212.228 96.1293 212.145C96.2113 212.063 96.3226 212.016 96.4387 212.016H323.561C323.678 212.016 323.789 212.062 323.871 212.145C323.954 212.227 324 212.339 324 212.456C324 212.573 323.954 212.684 323.871 212.767C323.789 212.849 323.678 212.896 323.561 212.896Z" fill="#CACACA"/>
<path d="M140.265 166.164C147.554 166.164 153.462 160.242 153.462 152.937C153.462 145.632 147.554 139.709 140.265 139.709C132.976 139.709 127.068 145.632 127.068 152.937C127.068 160.242 132.976 166.164 140.265 166.164Z" fill="#FF6B35"/>
<path d="M138.465 159.821C138.237 159.821 138.012 159.768 137.808 159.666C137.604 159.564 137.427 159.415 137.29 159.233L133.69 154.421C133.456 154.109 133.356 153.716 133.411 153.33C133.466 152.944 133.672 152.595 133.983 152.361C134.295 152.127 134.686 152.027 135.072 152.082C135.457 152.137 135.805 152.343 136.039 152.656L138.394 155.803L144.444 146.708C144.551 146.546 144.688 146.408 144.848 146.3C145.009 146.191 145.189 146.116 145.378 146.078C145.567 146.04 145.762 146.039 145.952 146.077C146.141 146.114 146.322 146.189 146.482 146.296C146.643 146.403 146.781 146.541 146.889 146.702C146.996 146.863 147.071 147.044 147.108 147.234C147.146 147.424 147.146 147.619 147.108 147.809C147.07 147.999 146.995 148.179 146.887 148.34L139.686 159.166C139.556 159.362 139.381 159.523 139.175 159.637C138.97 159.751 138.74 159.814 138.505 159.821C138.492 159.821 138.478 159.821 138.465 159.821Z" fill="white"/>
<path d="M196.459 82.6791C196.418 82.679 196.377 82.6744 196.337 82.6653L184.913 80.0798C184.77 80.0473 184.646 79.9593 184.567 79.8351C184.489 79.7109 184.463 79.5608 184.496 79.4175C184.528 79.2743 184.616 79.1498 184.739 79.0712C184.863 78.9927 185.013 78.9667 185.156 78.9988L196.58 81.5843C196.713 81.6144 196.83 81.6923 196.909 81.8033C196.988 81.9143 197.023 82.0506 197.008 82.186C196.993 82.3215 196.929 82.4466 196.827 82.5376C196.726 82.6285 196.595 82.6789 196.459 82.6791Z" fill="white"/>
<path d="M152.491 186.742C152.451 186.75 152.41 186.754 152.369 186.754L140.659 186.556C140.512 186.553 140.373 186.492 140.271 186.387C140.169 186.281 140.114 186.139 140.116 185.993C140.118 185.846 140.179 185.706 140.284 185.604C140.389 185.502 140.53 185.446 140.677 185.448L152.387 185.645C152.523 185.648 152.654 185.7 152.753 185.793C152.853 185.885 152.915 186.012 152.928 186.147C152.941 186.283 152.904 186.419 152.823 186.528C152.742 186.638 152.624 186.714 152.491 186.742Z" fill="#E6E6E6"/>
<path d="M156.545 193.022C156.505 193.03 156.464 193.034 156.423 193.033L144.712 192.836C144.566 192.833 144.427 192.772 144.325 192.666C144.223 192.561 144.168 192.419 144.17 192.272C144.172 192.126 144.233 191.986 144.338 191.884C144.443 191.782 144.584 191.725 144.731 191.728L156.441 191.925C156.577 191.928 156.707 191.98 156.807 192.073C156.907 192.165 156.969 192.291 156.982 192.427C156.995 192.563 156.958 192.698 156.877 192.808C156.796 192.918 156.678 192.994 156.545 193.022Z" fill="#E6E6E6"/>
</g>
</g>
<defs>
<filter id="filter0_dd_163_1325" x="0" y="0" width="420" height="381" filterUnits="userSpaceOnUse" color-interpolation-filters="sRGB">
<feFlood flood-opacity="0" result="BackgroundImageFix"/>
<feColorMatrix in="SourceAlpha" type="matrix" values="0 0 0 0 0 0 0 0 0 0 0 0 0 0 0 0 0 0 127 0" result="hardAlpha"/>
<feOffset dy="2"/>
<feGaussianBlur stdDeviation="2"/>
<feColorMatrix type="matrix" values="0 0 0 0 0 0 0 0 0 0 0 0 0 0 0 0 0 0 0.08 0"/>
<feBlend mode="normal" in2="BackgroundImageFix" result="effect1_dropShadow_163_1325"/>
<feColorMatrix in="SourceAlpha" type="matrix" values="0 0 0 0 0 0 0 0 0 0 0 0 0 0 0 0 0 0 127 0" result="hardAlpha"/>
<feOffset/>
<feGaussianBlur stdDeviation="3"/>
<feColorMatrix type="matrix" values="0 0 0 0 0 0 0 0 0 0 0 0 0 0 0 0 0 0 0.02 0"/>
<feBlend mode="normal" in2="effect1_dropShadow_163_1325" result="effect2_dropShadow_163_1325"/>
<feBlend mode="normal" in="SourceGraphic" in2="effect2_dropShadow_163_1325" result="shape"/>
</filter>
<clipPath id="clip0_163_1325">
<rect width="228" height="180" fill="white" transform="translate(96 33)"/>
</clipPath>
</defs>
</svg>
