<svg width="420" height="381" viewBox="0 0 420 381" fill="none" xmlns="http://www.w3.org/2000/svg">
<g filter="url(#filter0_dd_2705_7954)">
<rect x="6" y="6" width="408" height="369" rx="12" fill="white"/>
<path d="M125.457 289.904C126.065 289.904 126.593 289.828 127.041 289.676C127.497 289.524 127.869 289.316 128.157 289.052C128.453 288.78 128.673 288.46 128.817 288.092C128.961 287.724 129.033 287.32 129.033 286.88C129.033 286 128.741 285.324 128.157 284.852C127.581 284.38 126.697 284.144 125.505 284.144H123.441V289.904H125.457ZM133.761 299H130.845C130.293 299 129.893 298.784 129.645 298.352L125.997 292.796C125.861 292.588 125.709 292.44 125.541 292.352C125.381 292.264 125.141 292.22 124.821 292.22H123.441V299H120.213V281.648H125.505C126.681 281.648 127.689 281.772 128.529 282.02C129.377 282.26 130.069 282.6 130.605 283.04C131.149 283.48 131.549 284.008 131.805 284.624C132.061 285.232 132.189 285.904 132.189 286.64C132.189 287.224 132.101 287.776 131.925 288.296C131.757 288.816 131.509 289.288 131.181 289.712C130.861 290.136 130.461 290.508 129.981 290.828C129.509 291.148 128.969 291.4 128.361 291.584C128.569 291.704 128.761 291.848 128.937 292.016C129.113 292.176 129.273 292.368 129.417 292.592L133.761 299ZM142.302 291.428C142.302 291.044 142.246 290.684 142.134 290.348C142.03 290.004 141.87 289.704 141.654 289.448C141.438 289.192 141.162 288.992 140.826 288.848C140.498 288.696 140.114 288.62 139.674 288.62C138.818 288.62 138.142 288.864 137.646 289.352C137.158 289.84 136.846 290.532 136.71 291.428H142.302ZM136.65 293.216C136.698 293.848 136.81 294.396 136.986 294.86C137.162 295.316 137.394 295.696 137.682 296C137.97 296.296 138.31 296.52 138.702 296.672C139.102 296.816 139.542 296.888 140.022 296.888C140.502 296.888 140.914 296.832 141.258 296.72C141.61 296.608 141.914 296.484 142.17 296.348C142.434 296.212 142.662 296.088 142.854 295.976C143.054 295.864 143.246 295.808 143.43 295.808C143.678 295.808 143.862 295.9 143.982 296.084L144.834 297.164C144.506 297.548 144.138 297.872 143.73 298.136C143.322 298.392 142.894 298.6 142.446 298.76C142.006 298.912 141.554 299.02 141.09 299.084C140.634 299.148 140.19 299.18 139.758 299.18C138.902 299.18 138.106 299.04 137.37 298.76C136.634 298.472 135.994 298.052 135.45 297.5C134.906 296.94 134.478 296.252 134.166 295.436C133.854 294.612 133.698 293.66 133.698 292.58C133.698 291.74 133.834 290.952 134.106 290.216C134.378 289.472 134.766 288.828 135.27 288.284C135.782 287.732 136.402 287.296 137.13 286.976C137.866 286.656 138.694 286.496 139.614 286.496C140.39 286.496 141.106 286.62 141.762 286.868C142.418 287.116 142.982 287.48 143.454 287.96C143.926 288.432 144.294 289.016 144.558 289.712C144.83 290.4 144.966 291.188 144.966 292.076C144.966 292.524 144.918 292.828 144.822 292.988C144.726 293.14 144.542 293.216 144.27 293.216H136.65ZM154.919 289.832C154.591 289.424 154.227 289.136 153.827 288.968C153.427 288.8 152.999 288.716 152.543 288.716C152.095 288.716 151.691 288.8 151.331 288.968C150.971 289.136 150.663 289.392 150.407 289.736C150.151 290.072 149.955 290.504 149.819 291.032C149.683 291.552 149.615 292.168 149.615 292.88C149.615 293.6 149.671 294.212 149.783 294.716C149.903 295.212 150.071 295.62 150.287 295.94C150.503 296.252 150.767 296.48 151.079 296.624C151.391 296.76 151.739 296.828 152.123 296.828C152.739 296.828 153.263 296.7 153.695 296.444C154.127 296.188 154.535 295.824 154.919 295.352V289.832ZM157.883 286.688V303.02H154.919V297.44C154.431 297.96 153.879 298.38 153.263 298.7C152.647 299.02 151.931 299.18 151.115 299.18C150.443 299.18 149.827 299.04 149.267 298.76C148.707 298.48 148.223 298.076 147.815 297.548C147.415 297.012 147.103 296.352 146.879 295.568C146.663 294.784 146.555 293.888 146.555 292.88C146.555 291.968 146.679 291.12 146.927 290.336C147.175 289.552 147.531 288.872 147.995 288.296C148.459 287.72 149.015 287.272 149.663 286.952C150.311 286.624 151.039 286.46 151.847 286.46C152.615 286.46 153.259 286.592 153.779 286.856C154.299 287.12 154.763 287.476 155.171 287.924L155.327 287.228C155.431 286.868 155.679 286.688 156.071 286.688H157.883ZM171.416 286.688V299H169.604C169.212 299 168.964 298.82 168.86 298.46L168.656 297.476C168.152 297.988 167.596 298.404 166.988 298.724C166.38 299.036 165.664 299.192 164.84 299.192C164.168 299.192 163.572 299.08 163.052 298.856C162.54 298.624 162.108 298.3 161.756 297.884C161.404 297.468 161.136 296.976 160.952 296.408C160.776 295.832 160.688 295.2 160.688 294.512V286.688H163.652V294.512C163.652 295.264 163.824 295.848 164.168 296.264C164.52 296.672 165.044 296.876 165.74 296.876C166.252 296.876 166.732 296.764 167.18 296.54C167.628 296.308 168.052 295.992 168.452 295.592V286.688H171.416ZM182.287 291.428C182.287 291.044 182.231 290.684 182.119 290.348C182.015 290.004 181.855 289.704 181.639 289.448C181.423 289.192 181.147 288.992 180.811 288.848C180.483 288.696 180.099 288.62 179.659 288.62C178.803 288.62 178.127 288.864 177.631 289.352C177.143 289.84 176.831 290.532 176.695 291.428H182.287ZM176.635 293.216C176.683 293.848 176.795 294.396 176.971 294.86C177.147 295.316 177.379 295.696 177.667 296C177.955 296.296 178.295 296.52 178.687 296.672C179.087 296.816 179.527 296.888 180.007 296.888C180.487 296.888 180.899 296.832 181.243 296.72C181.595 296.608 181.899 296.484 182.155 296.348C182.419 296.212 182.647 296.088 182.839 295.976C183.039 295.864 183.231 295.808 183.415 295.808C183.663 295.808 183.847 295.9 183.967 296.084L184.819 297.164C184.491 297.548 184.123 297.872 183.715 298.136C183.307 298.392 182.879 298.6 182.431 298.76C181.991 298.912 181.539 299.02 181.075 299.084C180.619 299.148 180.175 299.18 179.743 299.18C178.887 299.18 178.091 299.04 177.355 298.76C176.619 298.472 175.979 298.052 175.435 297.5C174.891 296.94 174.463 296.252 174.151 295.436C173.839 294.612 173.683 293.66 173.683 292.58C173.683 291.74 173.819 290.952 174.091 290.216C174.363 289.472 174.751 288.828 175.255 288.284C175.767 287.732 176.387 287.296 177.115 286.976C177.851 286.656 178.679 286.496 179.599 286.496C180.375 286.496 181.091 286.62 181.747 286.868C182.403 287.116 182.967 287.48 183.439 287.96C183.911 288.432 184.279 289.016 184.543 289.712C184.815 290.4 184.951 291.188 184.951 292.076C184.951 292.524 184.903 292.828 184.807 292.988C184.711 293.14 184.527 293.216 184.255 293.216H176.635ZM194.687 289.088C194.607 289.216 194.523 289.308 194.435 289.364C194.347 289.412 194.235 289.436 194.099 289.436C193.955 289.436 193.799 289.396 193.631 289.316C193.471 289.236 193.283 289.148 193.067 289.052C192.851 288.948 192.603 288.856 192.323 288.776C192.051 288.696 191.727 288.656 191.351 288.656C190.767 288.656 190.307 288.78 189.971 289.028C189.643 289.276 189.479 289.6 189.479 290C189.479 290.264 189.563 290.488 189.731 290.672C189.907 290.848 190.135 291.004 190.415 291.14C190.703 291.276 191.027 291.4 191.387 291.512C191.747 291.616 192.111 291.732 192.479 291.86C192.855 291.988 193.223 292.136 193.583 292.304C193.943 292.464 194.263 292.672 194.543 292.928C194.831 293.176 195.059 293.476 195.227 293.828C195.403 294.18 195.491 294.604 195.491 295.1C195.491 295.692 195.383 296.24 195.167 296.744C194.959 297.24 194.647 297.672 194.231 298.04C193.815 298.4 193.299 298.684 192.683 298.892C192.075 299.092 191.371 299.192 190.571 299.192C190.147 299.192 189.731 299.152 189.323 299.072C188.923 299 188.535 298.896 188.159 298.76C187.791 298.624 187.447 298.464 187.127 298.28C186.815 298.096 186.539 297.896 186.299 297.68L186.983 296.552C187.071 296.416 187.175 296.312 187.295 296.24C187.415 296.168 187.567 296.132 187.751 296.132C187.935 296.132 188.107 296.184 188.267 296.288C188.435 296.392 188.627 296.504 188.843 296.624C189.059 296.744 189.311 296.856 189.599 296.96C189.895 297.064 190.267 297.116 190.715 297.116C191.067 297.116 191.367 297.076 191.615 296.996C191.871 296.908 192.079 296.796 192.239 296.66C192.407 296.524 192.527 296.368 192.599 296.192C192.679 296.008 192.719 295.82 192.719 295.628C192.719 295.34 192.631 295.104 192.455 294.92C192.287 294.736 192.059 294.576 191.771 294.44C191.491 294.304 191.167 294.184 190.799 294.08C190.439 293.968 190.067 293.848 189.683 293.72C189.307 293.592 188.935 293.444 188.567 293.276C188.207 293.1 187.883 292.88 187.595 292.616C187.315 292.352 187.087 292.028 186.911 291.644C186.743 291.26 186.659 290.796 186.659 290.252C186.659 289.748 186.759 289.268 186.959 288.812C187.159 288.356 187.451 287.96 187.835 287.624C188.227 287.28 188.711 287.008 189.287 286.808C189.871 286.6 190.543 286.496 191.303 286.496C192.151 286.496 192.923 286.636 193.619 286.916C194.315 287.196 194.895 287.564 195.359 288.02L194.687 289.088ZM201.826 299.192C200.754 299.192 199.93 298.892 199.354 298.292C198.786 297.684 198.502 296.848 198.502 295.784V288.908H197.242C197.082 288.908 196.946 288.856 196.834 288.752C196.722 288.648 196.666 288.492 196.666 288.284V287.108L198.646 286.784L199.27 283.424C199.31 283.264 199.386 283.14 199.498 283.052C199.61 282.964 199.754 282.92 199.93 282.92H201.466V286.796H204.754V288.908H201.466V295.58C201.466 295.964 201.558 296.264 201.742 296.48C201.934 296.696 202.194 296.804 202.522 296.804C202.706 296.804 202.858 296.784 202.978 296.744C203.106 296.696 203.214 296.648 203.302 296.6C203.398 296.552 203.482 296.508 203.554 296.468C203.626 296.42 203.698 296.396 203.77 296.396C203.858 296.396 203.93 296.42 203.986 296.468C204.042 296.508 204.102 296.572 204.166 296.66L205.054 298.1C204.622 298.46 204.126 298.732 203.566 298.916C203.006 299.1 202.426 299.192 201.826 299.192ZM228.363 290.324C228.363 291.596 228.151 292.764 227.727 293.828C227.303 294.892 226.707 295.808 225.939 296.576C225.171 297.344 224.247 297.94 223.167 298.364C222.087 298.788 220.887 299 219.567 299H212.955V281.648H219.567C220.887 281.648 222.087 281.864 223.167 282.296C224.247 282.72 225.171 283.316 225.939 284.084C226.707 284.844 227.303 285.756 227.727 286.82C228.151 287.884 228.363 289.052 228.363 290.324ZM225.051 290.324C225.051 289.372 224.923 288.52 224.667 287.768C224.419 287.008 224.055 286.368 223.575 285.848C223.103 285.32 222.527 284.916 221.847 284.636C221.175 284.356 220.415 284.216 219.567 284.216H216.195V296.432H219.567C220.415 296.432 221.175 296.292 221.847 296.012C222.527 295.732 223.103 295.332 223.575 294.812C224.055 294.284 224.419 293.644 224.667 292.892C224.923 292.132 225.051 291.276 225.051 290.324ZM238.513 291.428C238.513 291.044 238.457 290.684 238.345 290.348C238.241 290.004 238.081 289.704 237.865 289.448C237.649 289.192 237.373 288.992 237.037 288.848C236.709 288.696 236.325 288.62 235.885 288.62C235.029 288.62 234.353 288.864 233.857 289.352C233.369 289.84 233.057 290.532 232.921 291.428H238.513ZM232.861 293.216C232.909 293.848 233.021 294.396 233.197 294.86C233.373 295.316 233.605 295.696 233.893 296C234.181 296.296 234.521 296.52 234.913 296.672C235.313 296.816 235.753 296.888 236.233 296.888C236.713 296.888 237.125 296.832 237.469 296.72C237.821 296.608 238.125 296.484 238.381 296.348C238.645 296.212 238.873 296.088 239.065 295.976C239.265 295.864 239.457 295.808 239.641 295.808C239.889 295.808 240.073 295.9 240.193 296.084L241.045 297.164C240.717 297.548 240.349 297.872 239.941 298.136C239.533 298.392 239.105 298.6 238.657 298.76C238.217 298.912 237.765 299.02 237.301 299.084C236.845 299.148 236.401 299.18 235.969 299.18C235.113 299.18 234.317 299.04 233.581 298.76C232.845 298.472 232.205 298.052 231.661 297.5C231.117 296.94 230.689 296.252 230.377 295.436C230.065 294.612 229.909 293.66 229.909 292.58C229.909 291.74 230.045 290.952 230.317 290.216C230.589 289.472 230.977 288.828 231.481 288.284C231.993 287.732 232.613 287.296 233.341 286.976C234.077 286.656 234.905 286.496 235.825 286.496C236.601 286.496 237.317 286.62 237.973 286.868C238.629 287.116 239.193 287.48 239.665 287.96C240.137 288.432 240.505 289.016 240.769 289.712C241.041 290.4 241.177 291.188 241.177 292.076C241.177 292.524 241.129 292.828 241.033 292.988C240.937 293.14 240.753 293.216 240.481 293.216H232.861ZM246.402 281.168V299H243.438V281.168H246.402ZM252.427 286.688V299H249.451V286.688H252.427ZM252.835 283.1C252.835 283.356 252.783 283.596 252.679 283.82C252.575 284.044 252.435 284.24 252.259 284.408C252.091 284.576 251.891 284.712 251.659 284.816C251.427 284.912 251.179 284.96 250.915 284.96C250.659 284.96 250.415 284.912 250.183 284.816C249.959 284.712 249.763 284.576 249.595 284.408C249.427 284.24 249.291 284.044 249.187 283.82C249.091 283.596 249.043 283.356 249.043 283.1C249.043 282.836 249.091 282.588 249.187 282.356C249.291 282.124 249.427 281.924 249.595 281.756C249.763 281.588 249.959 281.456 250.183 281.36C250.415 281.256 250.659 281.204 250.915 281.204C251.179 281.204 251.427 281.256 251.659 281.36C251.891 281.456 252.091 281.588 252.259 281.756C252.435 281.924 252.575 282.124 252.679 282.356C252.783 282.588 252.835 282.836 252.835 283.1ZM266.548 286.688L261.664 299H258.976L254.092 286.688H256.54C256.764 286.688 256.948 286.74 257.092 286.844C257.244 286.948 257.344 287.08 257.392 287.24L259.768 293.816C259.896 294.2 260.008 294.576 260.104 294.944C260.2 295.312 260.284 295.68 260.356 296.048C260.436 295.68 260.524 295.312 260.62 294.944C260.716 294.576 260.832 294.2 260.968 293.816L263.392 287.24C263.448 287.08 263.548 286.948 263.692 286.844C263.836 286.74 264.008 286.688 264.208 286.688H266.548ZM275.685 291.428C275.685 291.044 275.629 290.684 275.517 290.348C275.413 290.004 275.253 289.704 275.037 289.448C274.821 289.192 274.545 288.992 274.209 288.848C273.881 288.696 273.497 288.62 273.057 288.62C272.201 288.62 271.525 288.864 271.029 289.352C270.541 289.84 270.229 290.532 270.093 291.428H275.685ZM270.033 293.216C270.081 293.848 270.193 294.396 270.369 294.86C270.545 295.316 270.777 295.696 271.065 296C271.353 296.296 271.693 296.52 272.085 296.672C272.485 296.816 272.925 296.888 273.405 296.888C273.885 296.888 274.297 296.832 274.641 296.72C274.993 296.608 275.297 296.484 275.553 296.348C275.817 296.212 276.045 296.088 276.237 295.976C276.437 295.864 276.629 295.808 276.813 295.808C277.061 295.808 277.245 295.9 277.365 296.084L278.217 297.164C277.889 297.548 277.521 297.872 277.113 298.136C276.705 298.392 276.277 298.6 275.829 298.76C275.389 298.912 274.937 299.02 274.473 299.084C274.017 299.148 273.573 299.18 273.141 299.18C272.285 299.18 271.489 299.04 270.753 298.76C270.017 298.472 269.377 298.052 268.833 297.5C268.289 296.94 267.861 296.252 267.549 295.436C267.237 294.612 267.081 293.66 267.081 292.58C267.081 291.74 267.217 290.952 267.489 290.216C267.761 289.472 268.149 288.828 268.653 288.284C269.165 287.732 269.785 287.296 270.513 286.976C271.249 286.656 272.077 286.496 272.997 286.496C273.773 286.496 274.489 286.62 275.145 286.868C275.801 287.116 276.365 287.48 276.837 287.96C277.309 288.432 277.677 289.016 277.941 289.712C278.213 290.4 278.349 291.188 278.349 292.076C278.349 292.524 278.301 292.828 278.205 292.988C278.109 293.14 277.925 293.216 277.653 293.216H270.033ZM283.369 288.824C283.753 288.088 284.209 287.512 284.737 287.096C285.265 286.672 285.889 286.46 286.609 286.46C287.177 286.46 287.633 286.584 287.977 286.832L287.785 289.052C287.745 289.196 287.685 289.3 287.605 289.364C287.533 289.42 287.433 289.448 287.305 289.448C287.185 289.448 287.005 289.428 286.765 289.388C286.533 289.348 286.305 289.328 286.081 289.328C285.753 289.328 285.461 289.376 285.205 289.472C284.949 289.568 284.717 289.708 284.509 289.892C284.309 290.068 284.129 290.284 283.969 290.54C283.817 290.796 283.673 291.088 283.537 291.416V299H280.573V286.688H282.313C282.617 286.688 282.829 286.744 282.949 286.856C283.069 286.96 283.149 287.152 283.189 287.432L283.369 288.824ZM300.711 286.688L294.003 302.384C293.915 302.592 293.799 302.748 293.655 302.852C293.519 302.964 293.307 303.02 293.019 303.02H290.811L293.115 298.076L288.135 286.688H290.739C290.971 286.688 291.151 286.744 291.279 286.856C291.415 286.968 291.515 287.096 291.579 287.24L294.195 293.624C294.283 293.84 294.355 294.056 294.411 294.272C294.475 294.488 294.535 294.708 294.591 294.932C294.663 294.708 294.735 294.488 294.807 294.272C294.879 294.048 294.959 293.828 295.047 293.612L297.519 287.24C297.583 287.08 297.687 286.948 297.831 286.844C297.983 286.74 298.151 286.688 298.335 286.688H300.711Z" fill="#828282"/>
<g clip-path="url(#clip0_2705_7954)">
<path d="M150.739 130.593C148.919 120.832 151.784 109.728 159.746 103.819C159.295 114.608 162.666 125.209 169.262 133.747C171.818 137.031 175.002 140.416 174.903 144.579C174.842 147.17 173.444 149.583 171.602 151.401C169.76 153.219 167.491 154.53 165.248 155.821L164.899 156.365C158.327 148.934 152.558 140.354 150.739 130.593Z" fill="#F0F0F0"/>
<path d="M159.891 103.969C156.546 111.473 155.645 119.842 157.316 127.889C157.645 129.628 158.245 131.303 159.095 132.855C159.971 134.339 161.228 135.561 162.735 136.394C164.125 137.199 165.639 137.86 166.81 138.99C167.4 139.577 167.86 140.282 168.159 141.06C168.459 141.837 168.591 142.67 168.546 143.502C168.49 145.579 167.693 147.512 166.848 149.374C165.91 151.443 164.902 153.576 164.963 155.902C164.971 156.184 164.534 156.179 164.527 155.897C164.421 151.851 167.339 148.602 167.989 144.72C168.293 142.908 168.053 140.994 166.783 139.59C165.672 138.362 164.111 137.678 162.696 136.876C161.214 136.085 159.948 134.942 159.008 133.548C158.082 132.045 157.419 130.395 157.045 128.669C156.143 124.797 155.853 120.806 156.187 116.843C156.544 112.318 157.67 107.888 159.517 103.744C159.631 103.487 160.005 103.714 159.891 103.969L159.891 103.969Z" fill="white"/>
<path d="M156.626 125.33C155.241 125.427 153.866 125.029 152.747 124.204C151.629 123.38 150.839 122.184 150.519 120.83C150.455 120.555 150.877 120.443 150.941 120.718C151.237 121.979 151.972 123.093 153.016 123.859C154.059 124.624 155.341 124.991 156.63 124.892C156.91 124.871 156.904 125.309 156.626 125.33Z" fill="white"/>
<path d="M161.977 136.079C163.857 133.948 164.867 131.185 164.805 128.341C164.799 128.059 165.235 128.064 165.242 128.345C165.301 131.305 164.244 134.178 162.283 136.392C162.096 136.602 161.791 136.289 161.977 136.079V136.079Z" fill="white"/>
<path d="M157.055 112.591C157.599 112.665 158.153 112.602 158.666 112.409C159.18 112.216 159.638 111.898 159.999 111.483C160.183 111.27 160.487 111.584 160.304 111.796C159.903 112.252 159.397 112.603 158.83 112.818C158.263 113.032 157.652 113.105 157.051 113.028C156.993 113.026 156.939 113.002 156.899 112.961C156.859 112.92 156.836 112.865 156.835 112.807C156.835 112.749 156.859 112.694 156.9 112.654C156.942 112.613 156.997 112.59 157.055 112.591H157.055Z" fill="white"/>
<path d="M192.309 111.893C192.198 112.029 192.087 112.166 191.976 112.306C190.489 114.146 189.153 116.105 187.982 118.163C187.889 118.321 187.797 118.482 187.709 118.642C184.941 123.629 183.121 129.088 182.342 134.742C182.033 136.992 181.896 139.262 181.932 141.533C181.981 144.669 182.283 148.065 181.324 150.949C181.228 151.251 181.112 151.547 180.979 151.834L165.589 156.749C165.548 156.743 165.509 156.74 165.468 156.733L164.862 156.958C164.852 156.841 164.844 156.719 164.835 156.602C164.828 156.534 164.826 156.466 164.82 156.398C164.817 156.352 164.814 156.306 164.809 156.266C164.808 156.25 164.807 156.235 164.807 156.224C164.802 156.183 164.801 156.144 164.797 156.107C164.751 155.427 164.709 154.747 164.674 154.064C164.672 154.061 164.672 154.061 164.675 154.056C164.411 148.857 164.577 143.589 165.536 138.515C165.565 138.362 165.593 138.206 165.629 138.051C166.073 135.766 166.704 133.522 167.514 131.34C167.961 130.146 168.468 128.977 169.034 127.835C170.5 124.887 172.42 122.189 174.722 119.839C179.314 115.155 185.349 111.995 191.815 111.896C191.981 111.893 192.143 111.892 192.309 111.893Z" fill="#F0F0F0"/>
<path d="M192.337 112.1C185.158 116.073 179.411 122.212 175.911 129.645C175.129 131.232 174.602 132.932 174.349 134.683C174.157 136.397 174.426 138.132 175.129 139.706C175.755 141.187 176.567 142.629 176.823 144.237C176.942 145.062 176.885 145.903 176.657 146.704C176.429 147.506 176.034 148.25 175.499 148.888C174.207 150.512 172.409 151.574 170.616 152.552C168.624 153.637 166.538 154.733 165.19 156.626C165.026 156.856 164.681 156.588 164.844 156.359C167.19 153.065 171.472 152.231 174.323 149.524C175.653 148.261 176.612 146.588 176.441 144.7C176.291 143.049 175.456 141.561 174.809 140.067C174.101 138.541 173.776 136.865 173.863 135.185C174.027 133.426 174.488 131.708 175.226 130.105C176.832 126.468 178.998 123.107 181.645 120.144C184.648 116.747 188.209 113.889 192.173 111.694C192.418 111.559 192.581 111.965 192.337 112.1Z" fill="white"/>
<path d="M176.897 127.186C175.733 126.428 174.875 125.28 174.477 123.947C174.079 122.613 174.167 121.182 174.724 119.908C174.838 119.65 175.243 119.815 175.129 120.073C174.607 121.259 174.526 122.592 174.899 123.833C175.272 125.074 176.075 126.14 177.164 126.839C177.4 126.991 177.132 127.337 176.897 127.186H176.897Z" fill="white"/>
<path d="M174.713 138.997C177.495 138.43 179.961 136.833 181.62 134.525C181.784 134.296 182.129 134.563 181.966 134.792C180.235 137.191 177.665 138.847 174.769 139.431C174.493 139.486 174.439 139.052 174.713 138.997V138.997Z" fill="white"/>
<path d="M184.893 117.273C185.283 117.66 185.762 117.944 186.289 118.1C186.815 118.255 187.372 118.278 187.909 118.164C188.184 118.106 188.238 118.54 187.965 118.598C187.371 118.721 186.756 118.696 186.174 118.525C185.593 118.354 185.061 118.043 184.627 117.619C184.583 117.583 184.554 117.531 184.546 117.474C184.539 117.417 184.554 117.359 184.587 117.312C184.623 117.267 184.675 117.237 184.732 117.229C184.789 117.222 184.847 117.237 184.893 117.273V117.273Z" fill="white"/>
<path d="M216.484 58.5167C216.536 58.7438 216.569 58.9747 216.585 59.2072L234.629 69.6407L239.015 67.11L243.691 73.2451L236.361 78.4815C235.769 78.9045 235.056 79.1236 234.329 79.1058C233.602 79.0881 232.9 78.8345 232.329 78.383L213.722 63.6704C212.882 63.982 211.968 64.0299 211.1 63.8078C210.233 63.5858 209.453 63.1042 208.865 62.4273C208.277 61.7503 207.909 60.91 207.809 60.0181C207.71 59.1263 207.883 58.2251 208.307 57.4345C208.731 56.6439 209.384 56.0013 210.181 55.5923C210.978 55.1832 211.881 55.027 212.768 55.1445C213.656 55.262 214.487 55.6475 215.151 56.2499C215.815 56.8523 216.28 57.6429 216.484 58.5167V58.5167Z" fill="#FFB6B6"/>
<path d="M234.88 68.4889C234.937 68.2227 235.051 67.9721 235.214 67.7541C235.376 67.5361 235.584 67.3558 235.823 67.2256L244.154 62.6762C245.263 61.837 246.659 61.4729 248.036 61.664C249.413 61.855 250.658 62.5855 251.498 63.6952C252.338 64.805 252.705 66.2034 252.518 67.5838C252.331 68.9642 251.605 70.214 250.5 71.0589L243.823 77.8574C243.633 78.0514 243.403 78.202 243.149 78.2988C242.895 78.3957 242.623 78.4366 242.352 78.4187C242.081 78.4008 241.817 78.3246 241.578 78.1953C241.339 78.0659 241.131 77.8864 240.967 77.6691L235.218 70.0298C235.055 69.8125 234.94 69.5623 234.881 69.2964C234.823 69.0304 234.822 68.755 234.88 68.4889Z" fill="#3F3D56"/>
<path d="M249.763 42.0404C250.962 38.2117 253.688 34.7002 257.458 33.4058C261.227 32.1115 266.748 34.0832 269.582 36.9141C274.766 42.0925 276.031 59.8819 272.469 65.5036C271.761 65.466 269.316 65.4382 268.599 65.4113L267.585 62.023V65.3779C261.988 65.2045 256.162 65.3131 250.332 65.4253C249.809 61.4451 248.565 45.8691 249.763 42.0404Z" fill="#2F2E41"/>
<path d="M248.159 202.75H243.055L240.627 183.016L248.161 183.016L248.159 202.75Z" fill="#FFB6B6"/>
<path d="M292.845 199.568L287.906 200.859L280.589 182.377L287.88 180.473L292.845 199.568Z" fill="#FFB6B6"/>
<path d="M264.715 81.5464L265.871 84.5604L265.64 87.5744L243.003 95.4326L244.127 82.2419L246.671 79.2275L264.715 81.5464Z" fill="#FFB6B6"/>
<path d="M257.557 54.4232C262.023 54.4232 265.642 50.7953 265.642 46.32C265.642 41.8447 262.023 38.2168 257.557 38.2168C253.092 38.2168 249.472 41.8447 249.472 46.32C249.472 50.7953 253.092 54.4232 257.557 54.4232Z" fill="#FFB7B7"/>
<path d="M252.002 35.7678C253.556 34.8187 255.335 34.3052 257.154 34.2812C258.973 34.2571 260.766 34.7234 262.344 35.6312C263.921 36.539 265.227 37.8551 266.124 39.4417C267.021 41.0283 267.475 42.8273 267.441 44.6505C263.034 45.7794 258.338 46.2516 253.361 44.9224L252.223 42.1317L251.552 44.9244C250.03 45.9979 248.56 45.996 247.144 44.9186C247.083 43.1006 247.501 41.2986 248.353 39.6928C249.206 38.0869 250.464 36.7335 252.002 35.7678Z" fill="#2F2E41"/>
<path d="M250.443 212.464H246.821L246.174 209.037L244.518 212.464H234.912C234.451 212.464 234.003 212.317 233.632 212.043C233.261 211.77 232.987 211.384 232.85 210.944C232.713 210.503 232.72 210.03 232.87 209.594C233.02 209.158 233.306 208.781 233.684 208.519L241.356 203.208V199.743L249.426 200.226L250.443 212.464Z" fill="#2F2E41"/>
<path d="M297.947 208.275L294.442 209.191L292.954 206.037L292.214 209.773L282.918 212.201C282.472 212.318 282.001 212.288 281.574 212.117C281.146 211.947 280.784 211.643 280.54 211.251C280.297 210.86 280.185 210.4 280.22 209.94C280.256 209.48 280.437 209.043 280.738 208.693L286.825 201.615L285.953 198.262L293.883 196.689L297.947 208.275Z" fill="#2F2E41"/>
<path d="M292.219 187.158L277.256 156.336L272.559 118.821C275.798 112.793 269.783 100.527 269.783 100.527V95.377L246.484 99.7823V99.7823C241.719 112.809 239.408 126.609 239.669 140.482L240.608 190.349H240.314C239.825 190.349 239.356 190.544 239.011 190.89C238.665 191.237 238.471 191.706 238.471 192.196C238.471 192.686 238.665 193.156 239.011 193.502C239.356 193.848 239.825 194.043 240.314 194.043H249.527C250.016 194.043 250.484 193.848 250.83 193.502C251.175 193.156 251.37 192.686 251.37 192.196C251.37 191.706 251.175 191.237 250.83 190.89C250.484 190.544 250.016 190.349 249.527 190.349H249.289L255.903 126.909L263.594 158.215L282.179 187.04C281.705 187.077 281.263 187.297 280.947 187.653C280.632 188.009 280.466 188.474 280.485 188.95C280.504 189.427 280.706 189.877 281.05 190.207C281.393 190.536 281.851 190.72 282.326 190.719H291.539C291.968 190.719 292.383 190.57 292.713 190.296C293.044 190.023 293.269 189.642 293.349 189.22C293.43 188.799 293.361 188.362 293.154 187.985C292.948 187.609 292.617 187.317 292.219 187.158H292.219Z" fill="#2F2E41"/>
<path d="M271.889 103.684H271.889C271.813 103.383 271.643 103.113 271.404 102.915C271.166 102.716 270.87 102.598 270.561 102.578C270.254 99.059 268.225 76.4903 268.147 75.8282L268.144 75.8002L267.557 63.2206C267.536 62.7637 267.347 62.3307 267.027 62.0043C266.708 61.6779 266.279 61.481 265.824 61.4512L262.721 61.2479C262.678 61.2464 262.638 61.2285 262.608 61.1978C262.578 61.1671 262.562 61.1261 262.562 61.0834C262.562 60.7399 262.494 60.3998 262.363 60.0824C262.232 59.7651 262.04 59.4768 261.797 59.2339C261.555 58.991 261.267 58.7983 260.951 58.6669C260.634 58.5354 260.295 58.4678 259.952 58.4678H250.764C250.169 58.468 249.595 58.6859 249.148 59.0806C248.702 59.4753 248.415 60.0197 248.341 60.6115C248.337 60.6522 248.318 60.6899 248.287 60.7171C248.256 60.7442 248.217 60.7587 248.176 60.7578L248.175 60.7578C247.131 60.7362 246.114 61.0905 245.308 61.7563C244.502 62.4221 243.961 63.3553 243.784 64.3865C242.527 71.7114 240.01 88.336 241.255 97.5783C241.688 100.796 241.491 105.635 241.327 108.327C241.311 108.587 241.346 108.848 241.431 109.094C241.515 109.341 241.647 109.568 241.819 109.763C241.453 109.869 241.142 110.114 240.952 110.445C240.762 110.776 240.707 111.168 240.8 111.539H240.8C240.896 111.919 241.138 112.245 241.473 112.446C241.809 112.647 242.211 112.706 242.59 112.611L270.82 105.478C271.199 105.382 271.525 105.139 271.726 104.803C271.926 104.467 271.985 104.064 271.889 103.684Z" fill="#3F3D56"/>
<path d="M225.232 156.571C225.226 155.745 224.929 154.948 224.393 154.32C223.857 153.693 223.117 153.276 222.303 153.143L172.252 144.905C171.772 144.826 171.281 144.848 170.81 144.97L159.08 148.009L152.349 149.756L139.929 152.974C139.179 153.169 138.515 153.608 138.041 154.222C137.567 154.836 137.31 155.59 137.31 156.367V208.933C137.313 209.734 137.59 210.51 138.093 211.133C138.596 211.756 139.296 212.188 140.078 212.358L191.059 211.779C191.298 211.831 191.542 211.856 191.787 211.855C192.144 211.856 192.498 211.802 192.839 211.695L223.128 212.45C223.843 212.226 224.467 211.778 224.907 211.171C225.347 210.564 225.581 209.831 225.572 209.08L225.232 156.571Z" fill="white"/>
<path d="M225.232 156.571C225.226 155.745 224.929 154.948 224.393 154.32C223.857 153.693 223.117 153.276 222.303 153.143L172.252 144.905C171.772 144.826 171.281 144.848 170.81 144.97L159.08 148.009L152.349 149.756L139.929 152.974C139.179 153.169 138.515 153.608 138.041 154.222C137.567 154.836 137.31 155.59 137.31 156.367V208.933C137.313 209.734 137.59 210.51 138.093 211.133C138.596 211.756 139.296 212.188 140.078 212.358L191.059 211.779C191.298 211.831 191.542 211.856 191.787 211.855C192.144 211.856 192.498 211.802 192.839 211.695L223.128 212.45C223.843 212.226 224.467 211.778 224.907 211.171C225.347 210.564 225.581 209.831 225.572 209.08L225.232 156.571ZM222.866 211.615L192.577 212.337C192.145 212.472 191.685 212.494 191.242 212.401L140.258 211.502C139.672 211.374 139.148 211.05 138.771 210.583C138.393 210.116 138.186 209.533 138.184 208.933V156.367C138.184 155.829 138.349 155.304 138.657 154.862C138.964 154.421 139.399 154.085 139.903 153.899C139.983 153.869 140.065 153.844 140.148 153.823L153.288 150.419L161.058 148.404L171.028 145.819C171.242 145.762 171.462 145.734 171.684 145.735C171.826 145.735 171.968 145.746 172.109 145.77L222.161 154.007C222.563 154.074 222.945 154.233 223.276 154.473C223.607 154.712 223.877 155.026 224.066 155.389C224.255 155.756 224.355 156.163 224.357 156.577L224.698 209.086C224.705 209.649 224.53 210.199 224.2 210.654C223.87 211.11 223.402 211.447 222.866 211.615Z" fill="#CCCCCC"/>
<path d="M224.066 155.388C224.032 155.41 223.995 155.427 223.955 155.438L209.233 159.427L204.65 160.668L191.615 164.198C191.578 164.207 191.54 164.212 191.502 164.213C191.475 164.212 191.449 164.21 191.423 164.207L138.863 154.602L138.688 154.57C138.574 154.549 138.473 154.483 138.408 154.387C138.342 154.292 138.317 154.174 138.338 154.06C138.358 153.945 138.423 153.844 138.519 153.778C138.614 153.712 138.731 153.686 138.845 153.706L139.903 153.899L191.484 163.325L202.719 160.282L209.003 158.58L223.498 154.652L223.728 154.591C223.828 154.564 223.933 154.574 224.026 154.618C224.12 154.662 224.195 154.737 224.238 154.83C224.249 154.853 224.258 154.876 224.264 154.9C224.288 154.992 224.282 155.089 224.246 155.177C224.211 155.265 224.147 155.339 224.066 155.388Z" fill="#CCCCCC"/>
<path d="M191.939 211.956C191.699 211.956 191.504 211.763 191.502 213L191.065 165.255C191.062 163.536 191.256 163.338 191.498 163.336H191.502C191.741 163.336 191.936 163.529 191.939 165.247L192.376 212.992C192.378 211.756 192.184 211.954 191.943 211.956H191.939Z" fill="#CCCCCC"/>
<path d="M209.357 212.511L204.65 212.561L202.719 160.282L153.43 150.453C153.382 150.444 153.334 150.433 153.288 150.418C152.909 150.31 152.578 150.076 152.349 149.755L159.08 148.009L161.058 148.403L207.826 157.727C208.072 157.776 208.305 157.877 208.508 158.024C208.711 158.171 208.88 158.361 209.003 158.58C209.149 158.834 209.354 212.207 209.357 212.511Z" fill="#CCCCCC"/>
<path d="M247.059 60.8831C247.055 60.2605 246.831 59.6595 246.427 59.1865C246.023 58.7136 245.465 58.3993 244.852 58.2994L207.13 52.091C206.769 52.031 206.398 52.0475 206.043 52.1395L197.203 54.4305L192.131 55.7465L182.77 58.1717C182.205 58.3188 181.705 58.6497 181.348 59.1125C180.99 59.5753 180.796 60.1439 180.796 60.729V91.7158C180.799 92.3198 181.007 92.9047 181.386 93.374C181.766 93.8434 182.293 94.169 182.882 94.2973L221.304 102.491C221.485 102.53 221.669 102.549 221.853 102.548C222.122 102.548 222.389 102.508 222.646 102.427L245.473 95.2018C246.012 95.0333 246.482 94.6953 246.814 94.2378C247.146 93.7803 247.322 93.2277 247.316 92.6622L247.059 60.8831Z" fill="white"/>
<path d="M206.703 54.3662C206.676 54.3662 206.648 54.3697 206.622 54.3768L183.348 60.4091C183.278 60.4274 183.215 60.4687 183.171 60.5264C183.126 60.5842 183.102 60.6552 183.102 60.7282V91.7145C183.102 91.79 183.128 91.8631 183.175 91.9218C183.223 91.9804 183.289 92.0211 183.362 92.0371L221.784 100.23C221.84 100.242 221.898 100.239 221.952 100.222L244.78 92.9974C244.847 92.9764 244.906 92.9341 244.947 92.877C244.989 92.8198 245.011 92.7508 245.01 92.6802L244.754 60.9012C244.753 60.8235 244.725 60.7485 244.675 60.6894C244.624 60.6304 244.555 60.5911 244.478 60.5787L206.757 54.3705C206.739 54.3677 206.721 54.3663 206.703 54.3662Z" fill="#12AE62"/>
<path d="M247.059 60.8831C247.055 60.2605 246.831 59.6595 246.427 59.1865C246.023 58.7136 245.465 58.3993 244.852 58.2994L207.13 52.091C206.769 52.031 206.398 52.0475 206.043 52.1395L197.203 54.4305L192.131 55.7465L182.77 58.1717C182.205 58.3188 181.705 58.6497 181.348 59.1125C180.99 59.5753 180.796 60.1439 180.796 60.729V91.7158C180.799 92.3198 181.007 92.9047 181.386 93.374C181.766 93.8434 182.293 94.169 182.882 94.2973L221.304 102.491C221.485 102.53 221.669 102.549 221.853 102.548C222.122 102.548 222.389 102.508 222.646 102.427L245.473 95.2018C246.012 95.0333 246.482 94.6953 246.814 94.2378C247.146 93.7803 247.322 93.2277 247.316 92.6622L247.059 60.8831ZM245.276 94.5724L222.448 101.798C222.123 101.899 221.776 101.916 221.443 101.846L183.018 93.6525C182.577 93.556 182.181 93.3116 181.897 92.9595C181.613 92.6074 181.457 92.1687 181.455 91.7158V60.7291C181.455 60.3235 181.58 59.9278 181.811 59.5953C182.043 59.2627 182.371 59.0094 182.75 58.8694C182.811 58.8467 182.872 58.8276 182.935 58.8122L192.838 56.2461L198.694 54.7276L206.208 52.7799C206.369 52.7368 206.535 52.7153 206.702 52.7161C206.81 52.716 206.917 52.7248 207.023 52.7425L244.744 58.9508C245.048 59.0008 245.336 59.1208 245.585 59.3015C245.834 59.4822 246.038 59.7185 246.18 59.9918C246.323 60.2689 246.398 60.5758 246.4 60.8875L246.657 92.6666C246.662 93.0908 246.53 93.5053 246.281 93.8486C246.032 94.1919 245.68 94.4457 245.276 94.5724V94.5724Z" fill="#3F3D56"/>
<path d="M246.18 59.9915C246.155 60.0084 246.127 60.021 246.097 60.0289L235.002 63.0352L231.548 63.9705L221.724 66.6312C221.696 66.6381 221.667 66.6418 221.638 66.6422C221.618 66.6419 221.598 66.6404 221.579 66.6378L181.967 59.3995L181.835 59.3753C181.749 59.3592 181.673 59.3097 181.623 59.2375C181.574 59.1654 181.555 59.0766 181.571 58.9904C181.586 58.9043 181.635 58.8279 181.707 58.7779C181.779 58.728 181.867 58.7085 181.953 58.7239L182.751 58.8691L221.625 65.9732L230.092 63.68L234.828 62.3969L245.752 59.4369L245.926 59.3907C246.001 59.3709 246.08 59.3781 246.151 59.4111C246.221 59.4441 246.277 59.5007 246.31 59.5711C246.319 59.588 246.325 59.6057 246.33 59.624C246.348 59.6932 246.343 59.7664 246.316 59.8327C246.289 59.8989 246.242 59.9547 246.18 59.9915Z" fill="#3F3D56"/>
<path d="M221.967 102.625C221.881 102.625 221.797 102.591 221.736 102.53C221.674 102.468 221.639 102.385 221.638 102.298L221.309 66.3155C221.308 66.228 221.342 66.1437 221.403 66.0813C221.464 66.0188 221.548 65.9832 221.635 65.9824H221.638C221.725 65.9824 221.808 66.0168 221.87 66.078C221.932 66.1393 221.967 66.2225 221.967 66.3095L222.297 102.292C222.298 102.38 222.264 102.464 222.202 102.526C222.141 102.589 222.058 102.624 221.97 102.625H221.967Z" fill="#3F3D56"/>
<path d="M235.002 98.2479L231.548 99.1832L230.092 63.6805L192.946 56.2727C192.909 56.2662 192.873 56.2574 192.838 56.2463C192.553 56.1648 192.303 55.9887 192.131 55.7467L197.203 54.4307L198.694 54.7278L233.941 61.7548C234.126 61.7915 234.302 61.8679 234.455 61.9788C234.608 62.0898 234.735 62.2326 234.828 62.3974C234.938 62.5889 234.999 98.019 235.002 98.2479Z" fill="#3F3D56"/>
<path d="M233.454 78.0051C233.631 78.1565 233.795 78.3216 233.946 78.499L254.638 76.077L256.65 71.4229L264.055 73.5487L261.291 82.1349C261.068 82.8285 260.626 83.4309 260.032 83.8515C259.439 84.2721 258.725 84.4883 257.998 84.4676L234.307 83.7926C233.818 84.5448 233.113 85.1303 232.285 85.4711C231.457 85.8119 230.544 85.8918 229.669 85.7002C228.795 85.5087 227.999 85.0547 227.388 84.3988C226.777 83.7428 226.379 82.916 226.248 82.0281C226.118 81.1403 226.26 80.2336 226.656 79.4286C227.052 78.6237 227.683 77.9586 228.465 77.5219C229.247 77.0851 230.143 76.8974 231.035 76.9837C231.926 77.0701 232.77 77.4263 233.454 78.0051Z" fill="#FFB6B6"/>
<path d="M254.153 75.0031C254.04 74.7553 253.982 74.4861 253.983 74.2138C253.984 73.9416 254.043 73.6727 254.157 73.4255L258.132 64.7919C258.523 63.455 259.427 62.3279 260.645 61.6577C261.863 60.9876 263.297 60.829 264.632 61.2168C265.967 61.6047 267.094 62.5072 267.766 63.7266C268.438 64.946 268.6 66.3827 268.217 67.7217L266.907 77.1706C266.87 77.4402 266.775 77.6986 266.629 77.9282C266.483 78.1578 266.289 78.3531 266.061 78.5009C265.833 78.6487 265.576 78.7455 265.307 78.7847C265.038 78.8238 264.764 78.8045 264.503 78.7279L255.342 76.037C255.081 75.9605 254.84 75.8286 254.635 75.6501C254.429 75.4717 254.265 75.251 254.153 75.0031Z" fill="#3F3D56"/>
<path d="M323.561 212.895H96.4388C96.3227 212.895 96.2114 212.848 96.1294 212.766C96.0473 212.683 96.0013 212.572 96.0013 212.455C96.0013 212.339 96.0473 212.227 96.1294 212.145C96.2114 212.062 96.3227 212.016 96.4388 212.016H323.561C323.678 212.016 323.789 212.062 323.872 212.144C323.954 212.227 324 212.339 324 212.455C324 212.572 323.954 212.684 323.872 212.766C323.789 212.849 323.678 212.895 323.561 212.895Z" fill="#CACACA"/>
<path d="M140.265 166.165C147.554 166.165 153.462 160.242 153.462 152.937C153.462 145.632 147.554 139.71 140.265 139.71C132.976 139.71 127.068 145.632 127.068 152.937C127.068 160.242 132.976 166.165 140.265 166.165Z" fill="#12AE62"/>
<path d="M138.465 159.821C138.237 159.821 138.012 159.768 137.808 159.666C137.604 159.564 137.427 159.415 137.29 159.233L133.69 154.421C133.456 154.109 133.356 153.716 133.411 153.33C133.466 152.944 133.672 152.595 133.984 152.361C134.295 152.127 134.687 152.027 135.072 152.082C135.457 152.137 135.805 152.343 136.039 152.656L138.394 155.803L144.444 146.708C144.551 146.546 144.688 146.408 144.848 146.3C145.009 146.191 145.189 146.116 145.378 146.078C145.567 146.04 145.762 146.039 145.952 146.077C146.142 146.114 146.322 146.189 146.483 146.296C146.643 146.403 146.781 146.541 146.889 146.702C146.996 146.863 147.071 147.044 147.108 147.234C147.146 147.424 147.146 147.619 147.108 147.809C147.07 147.999 146.995 148.179 146.887 148.34L139.686 159.166C139.556 159.362 139.381 159.523 139.175 159.637C138.97 159.751 138.74 159.814 138.506 159.821C138.492 159.821 138.478 159.821 138.465 159.821Z" fill="white"/>
<path d="M196.459 82.6791C196.418 82.679 196.377 82.6744 196.337 82.6653L184.913 80.0798C184.77 80.0473 184.646 79.9593 184.567 79.8351C184.489 79.7109 184.463 79.5608 184.496 79.4175C184.528 79.2743 184.616 79.1498 184.739 79.0712C184.863 78.9927 185.013 78.9667 185.156 78.9988L196.58 81.5843C196.713 81.6144 196.83 81.6923 196.909 81.8033C196.988 81.9143 197.023 82.0506 197.008 82.186C196.993 82.3215 196.929 82.4466 196.827 82.5376C196.726 82.6285 196.595 82.6789 196.459 82.6791Z" fill="white"/>
<path d="M152.491 186.742C152.451 186.751 152.41 186.755 152.369 186.754L140.659 186.556C140.512 186.554 140.373 186.493 140.271 186.387C140.169 186.282 140.114 186.14 140.116 185.993C140.119 185.846 140.179 185.707 140.284 185.604C140.389 185.502 140.531 185.446 140.677 185.448L152.387 185.646C152.523 185.648 152.654 185.701 152.753 185.793C152.853 185.886 152.916 186.012 152.928 186.148C152.941 186.283 152.904 186.419 152.823 186.529C152.742 186.638 152.624 186.715 152.491 186.742Z" fill="#E6E6E6"/>
<path d="M156.545 193.022C156.505 193.03 156.464 193.034 156.423 193.033L144.712 192.836C144.566 192.833 144.427 192.772 144.325 192.666C144.223 192.561 144.168 192.419 144.17 192.272C144.172 192.126 144.233 191.986 144.338 191.884C144.443 191.782 144.584 191.725 144.731 191.728L156.441 191.925C156.577 191.928 156.707 191.98 156.807 192.073C156.907 192.165 156.969 192.291 156.982 192.427C156.995 192.563 156.958 192.698 156.877 192.808C156.796 192.918 156.678 192.994 156.545 193.022Z" fill="#E6E6E6"/>
</g>
</g>
<defs>
<filter id="filter0_dd_2705_7954" x="0" y="0" width="420" height="381" filterUnits="userSpaceOnUse" color-interpolation-filters="sRGB">
<feFlood flood-opacity="0" result="BackgroundImageFix"/>
<feColorMatrix in="SourceAlpha" type="matrix" values="0 0 0 0 0 0 0 0 0 0 0 0 0 0 0 0 0 0 127 0" result="hardAlpha"/>
<feOffset dy="2"/>
<feGaussianBlur stdDeviation="2"/>
<feColorMatrix type="matrix" values="0 0 0 0 0 0 0 0 0 0 0 0 0 0 0 0 0 0 0.08 0"/>
<feBlend mode="normal" in2="BackgroundImageFix" result="effect1_dropShadow_2705_7954"/>
<feColorMatrix in="SourceAlpha" type="matrix" values="0 0 0 0 0 0 0 0 0 0 0 0 0 0 0 0 0 0 127 0" result="hardAlpha"/>
<feOffset/>
<feGaussianBlur stdDeviation="3"/>
<feColorMatrix type="matrix" values="0 0 0 0 0 0 0 0 0 0 0 0 0 0 0 0 0 0 0.02 0"/>
<feBlend mode="normal" in2="effect1_dropShadow_2705_7954" result="effect2_dropShadow_2705_7954"/>
<feBlend mode="normal" in="SourceGraphic" in2="effect2_dropShadow_2705_7954" result="shape"/>
</filter>
<clipPath id="clip0_2705_7954">
<rect width="228" height="180" fill="white" transform="translate(96 33)"/>
</clipPath>
</defs>
</svg>
