<svg width="114" height="114" viewBox="0 0 114 114" fill="none" xmlns="http://www.w3.org/2000/svg">
<path d="M57 0.111328C45.7484 0.111328 34.7496 3.4478 25.3942 9.69883C16.0389 15.9499 8.7473 24.8347 4.44152 35.2298C0.135733 45.6249 -0.990857 57.0633 1.20421 68.0987C3.39928 79.134 8.81743 89.2707 16.7735 97.2267C24.7295 105.183 34.8662 110.601 45.9015 112.796C56.9369 114.991 68.3753 113.864 78.7704 109.559C89.1655 105.253 98.0503 97.9613 104.301 88.606C110.552 79.2507 113.889 68.2518 113.889 57.0002C113.889 41.9123 107.895 27.4424 97.2265 16.7737C86.5578 6.10496 72.0879 0.111328 57 0.111328ZM94.1556 37.9069L47.4356 84.5913L19.8444 57.0002C18.9015 56.0572 18.3717 54.7783 18.3717 53.4447C18.3717 52.1111 18.9015 50.8321 19.8444 49.8891C20.7874 48.9461 22.0664 48.4163 23.4 48.4163C24.7336 48.4163 26.0126 48.9461 26.9556 49.8891L47.5067 70.4402L87.1155 30.8669C87.5825 30.4 88.1368 30.0296 88.7469 29.7769C89.3569 29.5242 90.0108 29.3941 90.6711 29.3941C91.3314 29.3941 91.9853 29.5242 92.5954 29.7769C93.2054 30.0296 93.7597 30.4 94.2267 30.8669C94.6936 31.3338 95.064 31.8881 95.3167 32.4982C95.5694 33.1082 95.6994 33.7621 95.6994 34.4224C95.6994 35.0828 95.5694 35.7366 95.3167 36.3467C95.064 36.9568 94.6936 37.5111 94.2267 37.978L94.1556 37.9069Z" fill="#27AE60"/>
</svg>
