<svg width="90" height="90" viewBox="0 0 90 90" fill="none" xmlns="http://www.w3.org/2000/svg">
<path d="M44.9999 0.555542C36.2096 0.555542 27.6167 3.16216 20.3079 8.04578C12.999 12.9294 7.30247 19.8707 3.93857 27.9918C0.574677 36.113 -0.305471 45.0493 1.40943 53.6707C3.12433 62.292 7.35725 70.2113 13.5729 76.427C19.7886 82.6426 27.7078 86.8755 36.3292 88.5905C44.9506 90.3054 53.8869 89.4252 62.008 86.0613C70.1292 82.6974 77.0705 77.0009 81.9541 69.692C86.8377 62.3831 89.4443 53.7903 89.4443 45C89.4443 33.2126 84.7618 21.908 76.4269 13.573C68.0919 5.23807 56.7873 0.555542 44.9999 0.555542ZM74.0277 30.0833L37.5277 66.5555L15.9721 45C15.2354 44.2633 14.8215 43.2641 14.8215 42.2222C14.8215 41.1803 15.2354 40.1811 15.9721 39.4444C16.7088 38.7077 17.708 38.2938 18.7499 38.2938C19.7918 38.2938 20.791 38.7077 21.5277 39.4444L37.5832 55.5L68.5277 24.5833C68.8924 24.2185 69.3255 23.9292 69.8021 23.7318C70.2787 23.5343 70.7896 23.4327 71.3054 23.4327C71.8213 23.4327 72.3322 23.5343 72.8088 23.7318C73.2854 23.9292 73.7184 24.2185 74.0832 24.5833C74.448 24.9481 74.7374 25.3812 74.9348 25.8578C75.1322 26.3344 75.2338 26.8452 75.2338 27.3611C75.2338 27.877 75.1322 28.3878 74.9348 28.8644C74.7374 29.341 74.448 29.7741 74.0832 30.1389L74.0277 30.0833Z" fill="#27AE60"/>
</svg>
